  0
SECTION
  2
HEADER
  9
$ACADVER
  1
AC1009
  9
$DWGCODEPAGE
  3
ansi_1252
  9
$INSBASE
 10
0.0
 20
0.0
 30
0.0
  9
$EXTMIN
 10
0.0
 20
-54.34067595595502
 30
0.0
  9
$EXTMAX
 10
699.7222220020155
 20
150.0000000000002
 30
95.46908063421678
  9
$LIMMIN
 10
0.0
 20
0.0
  9
$LIMMAX
 10
420.0
 20
297.0
  9
$ORTHOMODE
 70
     0
  9
$REGENMODE
 70
     1
  9
$FILLMODE
 70
     1
  9
$QTEXTMODE
 70
     0
  9
$MIRRTEXT
 70
     1
  9
$DRAGMODE
 70
     2
  9
$LTSCALE
 40
1.0
  9
$OSMODE
 70
    37
  9
$ATTMODE
 70
     1
  9
$TEXTSIZE
 40
2.5
  9
$TRACEWID
 40
1.0
  9
$TEXTSTYLE
  7
STANDARD
  9
$CLAYER
  8
0
  9
$CELTYPE
  6
BYLAYER
  9
$CECOLOR
 62
   256
  9
$DIMSCALE
 40
1.0
  9
$DIMASZ
 40
2.5
  9
$DIMEXO
 40
0.625
  9
$DIMDLI
 40
3.75
  9
$DIMRND
 40
0.0
  9
$DIMDLE
 40
0.0
  9
$DIMEXE
 40
1.25
  9
$DIMTP
 40
0.0
  9
$DIMTM
 40
0.0
  9
$DIMTXT
 40
2.5
  9
$DIMCEN
 40
2.5
  9
$DIMTSZ
 40
0.0
  9
$DIMTOL
 70
     0
  9
$DIMLIM
 70
     0
  9
$DIMTIH
 70
     0
  9
$DIMTOH
 70
     0
  9
$DIMSE1
 70
     0
  9
$DIMSE2
 70
     0
  9
$DIMTAD
 70
     1
  9
$DIMZIN
 70
     8
  9
$DIMBLK
  1

  9
$DIMASO
 70
     1
  9
$DIMSHO
 70
     1
  9
$DIMPOST
  1

  9
$DIMAPOST
  1

  9
$DIMALT
 70
     0
  9
$DIMALTD
 70
     3
  9
$DIMALTF
 40
0.03937007874016
  9
$DIMLFAC
 40
1.0
  9
$DIMTOFL
 70
     1
  9
$DIMTVP
 40
0.0
  9
$DIMTIX
 70
     0
  9
$DIMSOXD
 70
     0
  9
$DIMSAH
 70
     0
  9
$DIMBLK1
  1

  9
$DIMBLK2
  1

  9
$DIMSTYLE
  2
ISO-25
  9
$DIMCLRD
 70
     0
  9
$DIMCLRE
 70
     0
  9
$DIMCLRT
 70
     0
  9
$DIMTFAC
 40
1.0
  9
$DIMGAP
 40
0.625
  9
$LUNITS
 70
     2
  9
$LUPREC
 70
     4
  9
$SKETCHINC
 40
1.0
  9
$FILLETRAD
 40
10.0
  9
$AUNITS
 70
     0
  9
$AUPREC
 70
     0
  9
$MENU
  1
.
  9
$ELEVATION
 40
0.0
  9
$PELEVATION
 40
0.0
  9
$THICKNESS
 40
0.0
  9
$LIMCHECK
 70
     0
  9
$CHAMFERA
 40
10.0
  9
$CHAMFERB
 40
10.0
  9
$SKPOLY
 70
     0
  9
$TDCREATE
 40
2305814.443819445
  9
$TDUPDATE
 40
2456135.360489606
  9
$TDINDWG
 40
0.0000000116
  9
$TDUSRTIMER
 40
0.0000000116
  9
$USRTIMER
 70
     1
  9
$ANGBASE
 50
0.0
  9
$ANGDIR
 70
     0
  9
$PDMODE
 70
     0
  9
$PDSIZE
 40
0.0
  9
$PLINEWID
 40
0.0
  9
$COORDS
 70
     1
  9
$SPLFRAME
 70
     0
  9
$SPLINETYPE
 70
     6
  9
$SPLINESEGS
 70
     8
  9
$ATTDIA
 70
     0
  9
$ATTREQ
 70
     1
  9
$HANDLING
 70
     1
  9
$HANDSEED
  5
F1
  9
$SURFTAB1
 70
     6
  9
$SURFTAB2
 70
     6
  9
$SURFTYPE
 70
     6
  9
$SURFU
 70
     6
  9
$SURFV
 70
     6
  9
$UCSNAME
  2

  9
$UCSORG
 10
0.0
 20
0.0
 30
0.0
  9
$UCSXDIR
 10
1.0
 20
0.0
 30
0.0
  9
$UCSYDIR
 10
0.0
 20
1.0
 30
0.0
  9
$PUCSNAME
  2

  9
$PUCSORG
 10
0.0
 20
0.0
 30
0.0
  9
$PUCSXDIR
 10
1.0
 20
0.0
 30
0.0
  9
$PUCSYDIR
 10
0.0
 20
1.0
 30
0.0
  9
$USERI1
 70
     0
  9
$USERI2
 70
     0
  9
$USERI3
 70
     0
  9
$USERI4
 70
     0
  9
$USERI5
 70
     0
  9
$USERR1
 40
0.0
  9
$USERR2
 40
0.0
  9
$USERR3
 40
0.0
  9
$USERR4
 40
0.0
  9
$USERR5
 40
0.0
  9
$WORLDVIEW
 70
     1
  9
$SHADEDGE
 70
     3
  9
$SHADEDIF
 70
    70
  9
$TILEMODE
 70
     1
  9
$MAXACTVP
 70
    64
  9
$PLIMCHECK
 70
     0
  9
$PEXTMIN
 10
1.000000000000000E+20
 20
1.000000000000000E+20
 30
1.000000000000000E+20
  9
$PEXTMAX
 10
-1.000000000000000E+20
 20
-1.000000000000000E+20
 30
-1.000000000000000E+20
  9
$PLIMMIN
 10
0.0
 20
0.0
  9
$PLIMMAX
 10
420.0
 20
297.0
  9
$UNITMODE
 70
     0
  9
$VISRETAIN
 70
     1
  9
$PLINEGEN
 70
     0
  9
$PSLTSCALE
 70
     1
  0
ENDSEC
  0
SECTION
  2
TABLES
  0
TABLE
  2
VPORT
 70
     1
  0
VPORT
  2
*ACTIVE
 70
     0
 10
0.0
 20
0.0
 11
1.0
 21
1.0
 12
348.2475713593616
 22
49.11780494837494
 13
0.0
 23
0.0
 14
10.0
 24
10.0
 15
10.0
 25
10.0
 16
0.0
 26
0.0
 36
1.0
 17
0.0
 27
0.0
 37
0.0
 40
205.7996779053155
 41
3.452022145048987
 42
50.0
 43
0.0
 44
0.0
 50
0.0
 51
0.0
 71
     0
 72
   100
 73
     1
 74
     3
 75
     0
 76
     0
 77
     0
 78
     0
  0
ENDTAB
  0
TABLE
  2
LTYPE
 70
    11
  0
LTYPE
  2
CONTINUOUS
 70
     0
  3
Solid line
 72
    65
 73
     0
 40
0.0
  0
LTYPE
  2
BORDER
 70
     0
  3
__ __ . __ __ . __ 
 72
    65
 73
     6
 40
0.875
 49
0.25
 49
-0.125
 49
0.25
 49
-0.125
 49
0.0
 49
-0.125
  0
LTYPE
  2
CENTER
 70
     0
  3
___ _ ___ _ ___ _ _
 72
    65
 73
     4
 40
1.125
 49
0.75
 49
-0.125
 49
0.125
 49
-0.125
  0
LTYPE
  2
DASHDOT
 70
     0
  3
_._._._._._._._._._
 72
    65
 73
     4
 40
0.5
 49
0.25
 49
-0.125
 49
0.0
 49
-0.125
  0
LTYPE
  2
DASHED
 70
     0
  3
_ _ _ _ _ _ _ _ _ _
 72
    65
 73
     2
 40
0.375
 49
0.25
 49
-0.125
  0
LTYPE
  2
DIVIDE
 70
     0
  3
__..__..__..__..__.
 72
    65
 73
     6
 40
0.625
 49
0.25
 49
-0.125
 49
0.0
 49
-0.125
 49
0.0
 49
-0.125
  0
LTYPE
  2
DOT
 70
     0
  3
...................
 72
    65
 73
     2
 40
0.125
 49
0.0
 49
-0.125
  0
LTYPE
  2
HIDDEN
 70
     0
  3
__ __ __ __ __ __ _
 72
    65
 73
     2
 40
0.1875
 49
0.125
 49
-0.0625
  0
LTYPE
  2
PHANTOM
 70
     0
  3
___ _ _ ___ _ _ ___
 72
    65
 73
     6
 40
1.25
 49
0.625
 49
-0.125
 49
0.125
 49
-0.125
 49
0.125
 49
-0.125
  0
LTYPE
  2
CUTTING
 70
     0
  3
________ _ _ ______
 72
    65
 73
     6
 40
1.4675
 49
1.0
 49
-0.0725
 49
0.125
 49
-0.0725
 49
0.125
 49
-0.0725
  0
LTYPE
  2
STITCH
 70
     0
  3
_ _ _ _ _ _ _ _ _ _
 72
    65
 73
     2
 40
0.145
 49
0.0725
 49
-0.0725
  0
ENDTAB
  0
TABLE
  2
LAYER
 70
     4
  0
LAYER
  2
0
 70
     0
 62
     7
  6
CONTINUOUS
  0
LAYER
  2
DIMENSION
 70
     0
 62
     7
  6
CONTINUOUS
  0
LAYER
  2
PE-END
 70
     0
 62
    18
  6
CONTINUOUS
  0
LAYER
  2
DEFPOINTS
 70
     0
 62
     7
  6
CONTINUOUS
  0
ENDTAB
  0
TABLE
  2
STYLE
 70
     1
  0
STYLE
  2
STANDARD
 70
     0
 40
0.0
 41
1.0
 50
0.0
 71
     0
 42
2.5
  3
txt
  4

  0
ENDTAB
  0
TABLE
  2
VIEW
 70
     0
  0
ENDTAB
  0
TABLE
  2
UCS
 70
     0
  0
ENDTAB
  0
TABLE
  2
APPID
 70
     2
  0
APPID
  2
ACAD
 70
     0
  0
APPID
  2
ENCORE_SOFTWARE_VIACAD
 70
     0
  0
ENDTAB
  0
TABLE
  2
DIMSTYLE
 70
     5
  0
DIMSTYLE
  2
ISO-25
 70
     0
  3

  4

  5

  6

  7

 40
1.0
 41
2.5
 42
0.625
 43
3.75
 44
1.25
 45
0.0
 46
0.0
 47
0.0
 48
0.0
140
2.5
141
2.5
142
0.0
143
0.03937007874016
144
1.0
145
0.0
146
1.0
147
0.625
 71
     0
 72
     0
 73
     0
 74
     0
 75
     0
 76
     0
 77
     1
 78
     8
170
     0
171
     3
172
     1
173
     0
174
     0
175
     0
176
     0
177
     0
178
     0
  0
DIMSTYLE
  2
ROTATEDDIM18
 70
     0
  3

  4

  5

  6

  7

 40
1.0
 41
8.105938112967356
 42
2.598057087489537
 43
3.75
 44
6.495142718723842
 45
0.0
 46
0.0
 47
0.0
 48
0.0
140
7.159999847412109
141
2.5
142
0.0
143
0.03937007874016
144
1.0
145
0.0
146
1.0
147
0.625
 71
     0
 72
     0
 73
     0
 74
     0
 75
     0
 76
     0
 77
     0
 78
     8
170
     0
171
     3
172
     1
173
     0
174
     0
175
     0
176
     0
177
     0
178
     0
  0
DIMSTYLE
  2
ROTATEDDIM19
 70
     0
  3

  4

  5

  6

  7

 40
1.0
 41
8.105938112967356
 42
2.598057087489537
 43
3.75
 44
6.495142718723842
 45
0.0
 46
0.0
 47
0.0
 48
0.0
140
7.159999847412109
141
2.5
142
0.0
143
0.03937007874016
144
1.0
145
0.0
146
1.0
147
0.625
 71
     0
 72
     0
 73
     0
 74
     0
 75
     0
 76
     0
 77
     0
 78
     8
170
     0
171
     3
172
     1
173
     0
174
     0
175
     0
176
     0
177
     0
178
     0
  0
DIMSTYLE
  2
RADIALDIM20
 70
     0
  3

  4

  5

  6

  7

 40
1.0
 41
8.105938112967356
 42
2.598057087489537
 43
3.75
 44
6.495142718723842
 45
0.0
 46
0.0
 47
0.0
 48
0.0
140
7.159999847412109
141
2.5
142
0.0
143
0.03937007874016
144
1.0
145
0.0
146
1.0
147
0.625
 71
     0
 72
     0
 73
     0
 74
     0
 75
     0
 76
     0
 77
     0
 78
     8
170
     0
171
     3
172
     1
173
     0
174
     0
175
     0
176
     0
177
     0
178
     0
  0
DIMSTYLE
  2
RADIALDIM21
 70
     0
  3

  4

  5

  6

  7

 40
1.0
 41
8.105938112967356
 42
2.598057087489537
 43
3.75
 44
6.495142718723842
 45
0.0
 46
0.0
 47
0.0
 48
0.0
140
7.159999847412109
141
2.5
142
0.0
143
0.03937007874016
144
1.0
145
0.0
146
1.0
147
0.625
 71
     0
 72
     0
 73
     0
 74
     0
 75
     0
 76
     0
 77
     0
 78
     8
170
     0
171
     3
172
     1
173
     0
174
     0
175
     0
176
     0
177
     0
178
     0
  0
ENDTAB
  0
ENDSEC
  0
SECTION
  2
BLOCKS
  0
BLOCK
  8
0
  2
$MODEL_SPACE
 70
     0
 10
0.0
 20
0.0
 30
0.0
  3
$MODEL_SPACE
  1

  0
ENDBLK
  5
21
  8
0
  0
BLOCK
 67
     1
  8
0
  2
$PAPER_SPACE
 70
     0
 10
0.0
 20
0.0
 30
0.0
  3
$PAPER_SPACE
  1

  0
ENDBLK
  5
1D
 67
     1
  8
0
  0
BLOCK
  8
0
  2
*D1
 70
     1
 10
0.0
 20
0.0
 30
0.0
  3
*D1
  1

  0
LINE
  5
B9
  8
DIMENSION
 62
     0
 10
0.0
 20
-2.598057087489537
 30
0.0
 11
0.0
 21
-51.76439010325029
 31
0.0
  0
LINE
  5
BA
  8
DIMENSION
 62
     0
 10
679.9999999999994
 20
-2.598057087489176
 30
0.0
 11
679.9999999999994
 21
-51.76439010325029
 31
0.0
  0
LINE
  5
BB
  8
DIMENSION
 62
     0
 10
8.105938112967356
 20
-45.26924738452645
 30
0.0
 11
330.339762097313
 21
-45.26924738452645
 31
0.0
  0
LINE
  5
BC
  8
DIMENSION
 62
     0
 10
671.8940618870321
 20
-45.26924738452645
 30
0.0
 11
349.6602379026864
 21
-45.26924738452645
 31
0.0
  0
SOLID
  5
BD
  8
DIMENSION
 62
     0
 10
8.105938112967356
 20
-43.91825769903189
 30
0.0
 11
8.105938112967356
 21
-46.62023707002101
 31
0.0
 12
0.0
 22
-45.26924738452645
 32
0.0
 13
0.0
 23
-45.26924738452645
 33
0.0
  0
SOLID
  5
BE
  8
DIMENSION
 62
     0
 10
671.8940618870321
 20
-46.62023707002101
 30
0.0
 11
671.8940618870321
 21
-43.91825769903189
 31
0.0
 12
679.9999999999994
 22
-45.26924738452645
 32
0.0
 13
679.9999999999994
 23
-45.26924738452645
 33
0.0
  0
TEXT
  5
BF
  8
DIMENSION
  6
CONTINUOUS
 62
     0
 10
329.6009526025678
 20
-48.84924730823251
 30
0.0
 40
7.159999847412109
  1
680
  0
POINT
  5
C0
  8
DEFPOINTS
 62
     0
 10
0.0
 20
0.0
 30
0.0
  0
POINT
  5
C1
  8
DEFPOINTS
 62
     0
 10
679.9999999999994
 20
0.000000000000361
 30
0.0
  0
POINT
  5
C2
  8
DEFPOINTS
 62
     0
 10
679.9999999999994
 20
-45.26924738452645
 30
0.0
  0
ENDBLK
  5
C4
  8
0
  0
BLOCK
  8
0
  2
*D2
 70
     1
 10
0.0
 20
0.0
 30
0.0
  3
*D2
  1

  0
LINE
  5
C8
  8
DIMENSION
 62
     0
 10
682.5980570874884
 20
149.9999999999995
 30
0.0
 11
696.4951427187232
 21
149.9999999999994
 31
0.0
  0
LINE
  5
C9
  8
DIMENSION
 62
     0
 10
682.598057087489
 20
0.0000000000003608
 30
0.0
 11
696.4951427187232
 21
0.0000000000003599
 31
0.0
  0
LINE
  5
CA
  8
DIMENSION
 62
     0
 10
689.9999999999993
 20
141.8940618870321
 30
0.0
 11
689.9999999999993
 21
84.31928552900034
 31
0.0
  0
LINE
  5
CB
  8
DIMENSION
 62
     0
 10
689.9999999999993
 20
8.105938112967717
 30
0.0
 11
689.9999999999993
 21
65.68071447099942
 31
0.0
  0
SOLID
  5
CC
  8
DIMENSION
 62
     0
 10
691.3509896854939
 20
141.8940618870321
 30
0.0
 11
688.6490103145047
 21
141.8940618870321
 31
0.0
 12
689.9999999999993
 22
149.9999999999994
 32
0.0
 13
689.9999999999993
 23
149.9999999999994
 33
0.0
  0
SOLID
  5
CD
  8
DIMENSION
 62
     0
 10
688.6490103145047
 20
8.105938112967717
 30
0.0
 11
691.3509896854939
 21
8.105938112967717
 31
0.0
 12
689.9999999999993
 22
0.0000000000003603
 32
0.0
 13
689.9999999999993
 23
0.0000000000003603
 33
0.0
  0
TEXT
  5
CE
  8
DIMENSION
  6
CONTINUOUS
 62
     0
 10
693.5799999237054
 20
64.26000022888172
 30
0.0
 40
7.159999847412109
  1
150
 50
90.0
  0
POINT
  5
CF
  8
DEFPOINTS
 62
     0
 10
679.9999999999989
 20
149.9999999999995
 30
0.0
  0
POINT
  5
D0
  8
DEFPOINTS
 62
     0
 10
679.9999999999994
 20
0.000000000000361
 30
0.0
  0
POINT
  5
D1
  8
DEFPOINTS
 62
     0
 10
689.9999999999993
 20
0.0000000000003603
 30
0.0
  0
ENDBLK
  5
D3
  8
0
  0
BLOCK
  8
0
  2
*D3
 70
     1
 10
0.0
 20
0.0
 30
0.0
  3
*D3
  1

  0
LINE
  5
D7
  8
DIMENSION
 62
     0
 10
363.1453135749799
 20
71.82959745159323
 30
0.0
 11
371.2498915679564
 21
71.9780839729301
 31
0.0
  0
TEXT
  5
D8
  8
DIMENSION
  6
CONTINUOUS
 62
     0
 10
370.5767853387923
 20
68.38515105851022
 30
0.0
 40
7.159999847412109
  1
R15
 50
1.049616557896728
  0
LINE
  5
D9
  8
DIMENSION
 62
     0
 10
340.0432524775903
 20
71.4063373273726
 30
0.0
 11
355.0407355820035
 21
71.68111093025637
 31
0.0
  0
SOLID
  5
DA
  8
DIMENSION
 62
     0
 10
363.1205658214238
 20
73.18036045042264
 30
0.0
 11
363.1700613285361
 21
70.47883445276382
 31
0.0
 12
355.0407355820035
 22
71.68111093025637
 32
0.0
 13
355.0407355820035
 23
71.68111093025637
 33
0.0
  0
POINT
  5
DB
  8
DEFPOINTS
 62
     0
 10
355.0407355820035
 20
71.68111093025637
 30
0.0
  0
POINT
  5
DC
  8
DEFPOINTS
 62
     0
 10
340.0432524775903
 20
71.4063373273726
 30
0.0
  0
ENDBLK
  5
DE
  8
0
  0
BLOCK
  8
0
  2
*D4
 70
     1
 10
0.0
 20
0.0
 30
0.0
  3
*D4
  1

  0
LINE
  5
E2
  8
DIMENSION
 62
     0
 10
374.8127507576477
 20
95.6004282838988
 30
0.0
 11
382.8608101726129
 21
96.56736796373735
 31
0.0
  0
TEXT
  5
E3
  8
DIMENSION
  6
CONTINUOUS
 62
     0
 10
382.5543263708152
 20
92.92479928181845
 30
0.0
 40
7.159999847412109
  1
R4
 50
6.851002394715142
  0
LINE
  5
E4
  8
DIMENSION
 62
     0
 10
362.7932524775915
 20
94.15633732737248
 30
0.0
 11
366.7646913426825
 21
94.63348860406023
 31
0.0
  0
SOLID
  5
E5
  8
DIMENSION
 62
     0
 10
374.6515941443412
 20
96.94177151972633
 30
0.0
 11
374.9739073709541
 21
94.25908504807126
 31
0.0
 12
366.7646913426825
 22
94.63348860406023
 32
0.0
 13
366.7646913426825
 23
94.63348860406023
 33
0.0
  0
POINT
  5
E6
  8
DEFPOINTS
 62
     0
 10
366.7646913426825
 20
94.63348860406023
 30
0.0
  0
POINT
  5
E7
  8
DEFPOINTS
 62
     0
 10
362.7932524775915
 20
94.15633732737248
 30
0.0
  0
ENDBLK
  5
E9
  8
0
  0
ENDSEC
  0
SECTION
  2
ENTITIES
  0
LINE
  5
4C
  8
PE-END
 62
     8
 10
0.0
 20
0.0
 30
0.0
 11
679.9999999999994
 21
0.000000000000361
 31
0.0
  0
LINE
  5
4D
  8
PE-END
 62
     8
 10
114.3999999999999
 20
149.9999999999998
 30
0.0
 11
114.3999999999999
 21
145.4999999999994
 31
0.0
  0
LINE
  5
4E
  8
PE-END
 62
     8
 10
139.5999999999999
 20
145.4999999999994
 30
0.0
 11
139.5999999999999
 21
149.9999999999998
 31
0.0
  0
LINE
  5
4F
  8
PE-END
 62
     8
 10
256.4
 20
150.0000000000002
 30
0.0
 11
256.4
 21
145.4999999999996
 31
0.0
  0
LINE
  5
50
  8
PE-END
 62
     8
 10
281.6
 20
145.4999999999996
 30
0.0
 11
281.6
 21
150.0000000000002
 31
0.0
  0
LINE
  5
51
  8
PE-END
 62
     8
 10
565.599999999999
 20
149.9999999999995
 30
0.0
 11
565.599999999999
 21
145.4999999999996
 31
0.0
  0
LINE
  5
52
  8
PE-END
 62
     8
 10
540.399999999999
 20
145.4999999999996
 30
0.0
 11
540.399999999999
 21
149.9999999999995
 31
0.0
  0
LINE
  5
53
  8
PE-END
 62
     8
 10
423.5999999999988
 20
149.9999999999995
 30
0.0
 11
423.5999999999988
 21
145.4999999999996
 31
0.0
  0
LINE
  5
54
  8
PE-END
 62
     8
 10
398.3999999999986
 20
145.4999999999996
 30
0.0
 11
398.3999999999986
 21
149.9999999999995
 31
0.0
  0
ARC
  5
55
  8
PE-END
 62
     8
 10
55.09999542236378
 20
90.09999925047161
 30
0.0
 40
0.4999999999999101
 50
269.9999999999959
 51
180.0000000000032
  0
ARC
  5
56
  8
PE-END
 62
     8
 10
55.09999542236376
 20
84.89999925047131
 30
0.0
 40
0.5000000000006177
 50
179.9999999999984
 51
90.00000000000163
  0
ARC
  5
57
  8
PE-END
 62
     8
 10
29.89999542236363
 20
90.09999925047161
 30
0.0
 40
0.4999999999999154
 50
359.9999999999968
 51
270.0000000000094
  0
ARC
  5
58
  8
PE-END
 62
     8
 10
29.89999542236362
 20
84.89999925047124
 30
0.0
 40
0.4999999999999746
 50
89.99999999998983
 51
0.0000000000097707
  0
LINE
  5
59
  8
PE-END
 62
     8
 10
55.09999542236375
 20
89.5999992504717
 30
0.0
 11
55.09999542236375
 21
85.39999925047192
 31
0.0
  0
LINE
  5
5A
  8
PE-END
 62
     8
 10
54.59999542236383
 20
90.09999925047158
 30
0.0
 11
30.3999954223636
 21
90.09999925047158
 31
0.0
  0
LINE
  5
5B
  8
PE-END
 62
     8
 10
29.89999542236371
 20
85.39999925047192
 30
0.0
 11
29.89999542236371
 21
89.5999992504717
 31
0.0
  0
LINE
  5
5C
  8
PE-END
 62
     8
 10
54.59999542236383
 20
84.89999925047132
 30
0.0
 11
30.3999954223636
 21
84.89999925047132
 31
0.0
  0
LINE
  5
5D
  8
PE-END
 62
     8
 10
0.0
 20
117.4999999999993
 30
0.0
 11
0.0
 21
92.49999999999918
 31
0.0
  0
LINE
  5
5E
  8
PE-END
 62
     8
 10
0.0
 20
59.89999999999937
 30
0.0
 11
0.0
 21
0.0
 31
0.0
  0
LINE
  5
5F
  8
PE-END
 62
     8
 10
4.599999999999674
 20
59.89999999999937
 30
0.0
 11
0.0
 21
59.89999999999937
 31
0.0
  0
ARC
  5
60
  8
PE-END
 62
     8
 10
5.100000000000373
 20
59.89999999999928
 30
0.0
 40
0.4999999999999764
 50
179.9999999999895
 51
90.00000000001039
  0
LINE
  5
61
  8
PE-END
 62
     8
 10
0.0
 20
92.49999999999918
 30
0.0
 11
4.599999999999674
 21
92.49999999999918
 31
0.0
  0
LINE
  5
62
  8
PE-END
 62
     8
 10
5.100000000000282
 20
91.99999999999929
 30
0.0
 11
5.100000000000282
 21
60.39999999999926
 31
0.0
  0
ARC
  5
63
  8
PE-END
 62
     8
 10
5.100000000000145
 20
92.49999999999903
 30
0.0
 40
0.5000000000004707
 50
270.0000000000157
 51
179.9999999999837
  0
LINE
  5
64
  8
PE-END
 62
     8
 10
4.599999999999674
 20
117.4999999999993
 30
0.0
 11
0.0
 21
117.4999999999993
 31
0.0
  0
ARC
  5
65
  8
PE-END
 62
     8
 10
5.100000000000363
 20
117.4999999999992
 30
0.0
 40
0.4999999999999661
 50
179.9999999999902
 51
90.00000000000925
  0
LINE
  5
66
  8
PE-END
 62
     8
 10
0.0
 20
145.0999999999995
 30
0.0
 11
4.599999999999674
 21
145.0999999999995
 31
0.0
  0
LINE
  5
67
  8
PE-END
 62
     8
 10
5.100000000000282
 20
144.5999999999996
 30
0.0
 11
5.100000000000282
 21
117.9999999999991
 31
0.0
  0
ARC
  5
68
  8
PE-END
 62
     8
 10
5.100000000000302
 20
145.0999999999995
 30
0.0
 40
0.5000000000006274
 50
269.9999999999979
 51
180.0000000000032
  0
LINE
  5
69
  8
PE-END
 62
     8
 10
0.0
 20
149.9999999999998
 30
0.0
 11
0.0
 21
145.0999999999995
 31
0.0
  0
LINE
  5
6A
  8
PE-END
 62
     8
 10
679.9999999999994
 20
117.4999999999996
 30
0.0
 11
679.9999999999994
 21
92.49999999999953
 31
0.0
  0
LINE
  5
6B
  8
PE-END
 62
     8
 10
679.9999999999994
 20
59.89999999999974
 30
0.0
 11
679.9999999999994
 21
0.000000000000361
 31
0.0
  0
LINE
  5
6C
  8
PE-END
 62
     8
 10
675.3999999999997
 20
59.89999999999974
 30
0.0
 11
679.9999999999994
 21
59.89999999999974
 31
0.0
  0
ARC
  5
6D
  8
PE-END
 62
     8
 10
674.8999999999994
 20
59.89999999999984
 30
0.0
 40
0.499999999999779
 50
90.00000000001303
 51
359.9999999999878
  0
LINE
  5
6E
  8
PE-END
 62
     8
 10
679.9999999999994
 20
92.49999999999953
 30
0.0
 11
675.3999999999997
 21
92.49999999999953
 31
0.0
  0
LINE
  5
6F
  8
PE-END
 62
     8
 10
674.8999999999993
 20
91.99999999999964
 30
0.0
 11
674.8999999999993
 21
60.39999999999962
 31
0.0
  0
ARC
  5
70
  8
PE-END
 62
     8
 10
674.8999999999992
 20
92.49999999999955
 30
0.0
 40
0.5000000000006135
 50
359.9999999999984
 51
270.000000000013
  0
LINE
  5
71
  8
PE-END
 62
     8
 10
675.3999999999997
 20
117.4999999999996
 30
0.0
 11
679.9999999999994
 21
117.4999999999996
 31
0.0
  0
ARC
  5
72
  8
PE-END
 62
     8
 10
674.8999999999993
 20
117.4999999999997
 30
0.0
 40
0.499999999999831
 50
90.0
 51
359.9999999999935
  0
LINE
  5
73
  8
PE-END
 62
     8
 10
679.9999999999994
 20
145.0999999999999
 30
0.0
 11
675.3999999999997
 21
145.0999999999999
 31
0.0
  0
LINE
  5
74
  8
PE-END
 62
     8
 10
674.8999999999993
 20
144.6
 30
0.0
 11
674.8999999999993
 21
117.9999999999995
 31
0.0
  0
ARC
  5
75
  8
PE-END
 62
     8
 10
674.8999999999991
 20
145.0999999999999
 30
0.0
 40
0.5000000000006344
 50
0.000000000000573
 51
270.000000000026
  0
LINE
  5
76
  8
PE-END
 62
     8
 10
679.9999999999994
 20
150.0000000000002
 30
0.0
 11
679.9999999999994
 21
145.0999999999999
 31
0.0
  0
LINE
  5
77
  8
PE-END
 62
     8
 10
565.599999999999
 20
149.9999999999995
 30
0.0
 11
679.9999999999989
 21
149.9999999999995
 31
0.0
  0
ARC
  5
78
  8
PE-END
 62
     8
 10
565.5999999999989
 20
144.9999999999999
 30
0.0
 40
0.4999999999998269
 50
180.0000000000065
 51
89.99999999998697
  0
LINE
  5
79
  8
PE-END
 62
     8
 10
540.8999999999995
 20
144.9999999999999
 30
0.0
 11
565.0999999999991
 21
144.9999999999999
 31
0.0
  0
ARC
  5
7A
  8
PE-END
 62
     8
 10
540.399999999999
 20
144.9999999999999
 30
0.0
 40
0.4999999999998935
 50
90.0
 51
0.000000000000573
  0
LINE
  5
7B
  8
PE-END
 62
     8
 10
423.5999999999988
 20
149.9999999999995
 30
0.0
 11
540.399999999999
 21
149.9999999999995
 31
0.0
  0
ARC
  5
7C
  8
PE-END
 62
     8
 10
423.5999999999988
 20
144.9999999999998
 30
0.0
 40
0.4999999999999601
 50
179.9999999999902
 51
90.00000000000654
  0
LINE
  5
7D
  8
PE-END
 62
     8
 10
398.8999999999985
 20
144.9999999999999
 30
0.0
 11
423.0999999999989
 21
144.9999999999999
 31
0.0
  0
ARC
  5
7E
  8
PE-END
 62
     8
 10
398.3999999999987
 20
144.9999999999998
 30
0.0
 40
0.4999999999999766
 50
89.99999999998697
 51
0.0000000000097707
  0
LINE
  5
7F
  8
PE-END
 62
     8
 10
398.3999999999986
 20
149.9999999999995
 30
0.0
 11
281.6
 21
150.0000000000002
 31
0.0
  0
ARC
  5
80
  8
PE-END
 62
     8
 10
281.5999999999999
 20
144.9999999999999
 30
0.0
 40
0.5000000000006177
 50
179.9999999999994
 51
89.99999999998697
  0
LINE
  5
81
  8
PE-END
 62
     8
 10
256.8999999999999
 20
144.9999999999999
 30
0.0
 11
281.0999999999993
 21
144.9999999999999
 31
0.0
  0
ARC
  5
82
  8
PE-END
 62
     8
 10
256.3999999999999
 20
144.9999999999998
 30
0.0
 40
0.4999999999999601
 50
89.99999999999349
 51
0.0000000000097707
  0
LINE
  5
83
  8
PE-END
 62
     8
 10
256.4
 20
150.0000000000002
 30
0.0
 11
139.5999999999999
 21
149.9999999999998
 31
0.0
  0
ARC
  5
84
  8
PE-END
 62
     8
 10
139.6
 20
144.9999999999994
 30
0.0
 40
0.4999999999999766
 50
179.9999999999902
 51
90.00000000000979
  0
LINE
  5
85
  8
PE-END
 62
     8
 10
114.3999999999999
 20
149.9999999999998
 30
0.0
 11
0.0
 21
149.9999999999998
 31
0.0
  0
LINE
  5
86
  8
PE-END
 62
     8
 10
114.8999999999997
 20
144.9999999999995
 30
0.0
 11
139.1000000000002
 21
144.9999999999995
 31
0.0
  0
ARC
  5
87
  8
PE-END
 62
     8
 10
114.3999999999997
 20
144.9999999999994
 30
0.0
 40
0.4999999999999766
 50
89.99999999999024
 51
0.0000000000097707
  0
ARC
  5
88
  8
PE-END
 62
     8
 10
155.0999954223634
 20
90.09999925047161
 30
0.0
 40
0.4999999999999143
 50
269.9999999999968
 51
180.0000000000032
  0
ARC
  5
89
  8
PE-END
 62
     8
 10
155.0999954223633
 20
84.89999925047131
 30
0.0
 40
0.5000000000006177
 50
179.9999999999984
 51
90.0
  0
ARC
  5
8A
  8
PE-END
 62
     8
 10
129.8999954223632
 20
90.09999925047161
 30
0.0
 40
0.4999999999999143
 50
359.9999999999968
 51
270.0000000000032
  0
ARC
  5
8B
  8
PE-END
 62
     8
 10
129.8999954223632
 20
84.89999925047124
 30
0.0
 40
0.4999999999999684
 50
89.99999999999024
 51
0.0000000000097707
  0
LINE
  5
8C
  8
PE-END
 62
     8
 10
155.0999954223633
 20
89.5999992504717
 30
0.0
 11
155.0999954223633
 21
85.39999925047192
 31
0.0
  0
LINE
  5
8D
  8
PE-END
 62
     8
 10
154.5999954223634
 20
90.09999925047158
 30
0.0
 11
130.3999954223632
 21
90.09999925047158
 31
0.0
  0
LINE
  5
8E
  8
PE-END
 62
     8
 10
129.8999954223632
 20
85.39999925047192
 30
0.0
 11
129.8999954223632
 21
89.5999992504717
 31
0.0
  0
LINE
  5
8F
  8
PE-END
 62
     8
 10
154.5999954223634
 20
84.89999925047132
 30
0.0
 11
130.3999954223632
 21
84.89999925047132
 31
0.0
  0
ARC
  5
90
  8
PE-END
 62
     8
 10
255.0999954223635
 20
90.09999925047187
 30
0.0
 40
0.4999999999998144
 50
270.0000000000098
 51
179.9999999999919
  0
ARC
  5
91
  8
PE-END
 62
     8
 10
255.0999954223631
 20
84.89999925047161
 30
0.0
 40
0.500000000000676
 50
179.9999999999919
 51
89.9999999999251
  0
ARC
  5
92
  8
PE-END
 62
     8
 10
229.8999954223636
 20
90.09999925047188
 30
0.0
 40
0.4999999999998227
 50
0.0000000000065138
 51
269.9999999999935
  0
ARC
  5
93
  8
PE-END
 62
     8
 10
229.8999954223635
 20
84.8999992504716
 30
0.0
 40
0.4999999999999684
 50
89.99999999999024
 51
0.0000000000097707
  0
LINE
  5
94
  8
PE-END
 62
     8
 10
255.0999954223636
 20
89.59999925047205
 30
0.0
 11
255.0999954223636
 21
85.39999925047229
 31
0.0
  0
LINE
  5
95
  8
PE-END
 62
     8
 10
254.5999954223637
 20
90.09999925047194
 30
0.0
 11
230.3999954223635
 21
90.09999925047194
 31
0.0
  0
LINE
  5
96
  8
PE-END
 62
     8
 10
229.8999954223635
 20
85.39999925047229
 30
0.0
 11
229.8999954223635
 21
89.59999925047205
 31
0.0
  0
LINE
  5
97
  8
PE-END
 62
     8
 10
254.5999954223637
 20
84.89999925047168
 30
0.0
 11
230.3999954223635
 21
84.89999925047168
 31
0.0
  0
ARC
  5
98
  8
PE-END
 62
     8
 10
624.8999893188467
 20
84.89999925047182
 30
0.0
 40
0.4999999999997436
 50
90.00000000001303
 51
359.9999999999838
  0
ARC
  5
99
  8
PE-END
 62
     8
 10
624.8999893188467
 20
90.09999925047192
 30
0.0
 40
0.5000000000006011
 50
0.0000000000016284
 51
269.999999999987
  0
ARC
  5
9A
  8
PE-END
 62
     8
 10
650.0999893188467
 20
84.89999925047161
 30
0.0
 40
0.4999999999999517
 50
179.9999999999919
 51
90.00000000001303
  0
ARC
  5
9B
  8
PE-END
 62
     8
 10
650.0999893188467
 20
90.09999925047201
 30
0.0
 40
0.4999999999999642
 50
269.999999999987
 51
180.0000000000082
  0
LINE
  5
9C
  8
PE-END
 62
     8
 10
624.8999893188466
 20
85.39999925047157
 30
0.0
 11
624.8999893188466
 21
89.59999925047133
 31
0.0
  0
LINE
  5
9D
  8
PE-END
 62
     8
 10
625.3999893188465
 20
84.89999925047168
 30
0.0
 11
649.5999893188467
 21
84.89999925047168
 31
0.0
  0
LINE
  5
9E
  8
PE-END
 62
     8
 10
650.0999893188466
 20
89.59999925047133
 30
0.0
 11
650.0999893188466
 21
85.39999925047157
 31
0.0
  0
LINE
  5
9F
  8
PE-END
 62
     8
 10
625.3999893188465
 20
90.09999925047194
 30
0.0
 11
649.5999893188467
 21
90.09999925047194
 31
0.0
  0
ARC
  5
A0
  8
PE-END
 62
     8
 10
524.8999893188471
 20
84.8999992504716
 30
0.0
 40
0.4999999999999684
 50
90.00000000006514
 51
0.0000000000097707
  0
ARC
  5
A1
  8
PE-END
 62
     8
 10
524.899989318847
 20
90.099999250472
 30
0.0
 40
0.5000000000006677
 50
359.9999999999935
 51
270.000000000026
  0
ARC
  5
A2
  8
PE-END
 62
     8
 10
550.0999893188473
 20
84.89999925047165
 30
0.0
 40
0.4999999999999101
 50
179.9999999999968
 51
90.00000000007817
  0
ARC
  5
A3
  8
PE-END
 62
     8
 10
550.0999893188473
 20
90.09999925047188
 30
0.0
 40
0.5000000000005511
 50
270.0
 51
179.9999999999935
  0
LINE
  5
A4
  8
PE-END
 62
     8
 10
524.8999893188466
 20
85.39999925047157
 30
0.0
 11
524.8999893188472
 21
89.59999925047133
 31
0.0
  0
LINE
  5
A5
  8
PE-END
 62
     8
 10
525.3999893188471
 20
84.89999925047168
 30
0.0
 11
549.5999893188467
 21
84.89999925047168
 31
0.0
  0
LINE
  5
A6
  8
PE-END
 62
     8
 10
550.0999893188473
 20
89.59999925047133
 30
0.0
 11
550.0999893188466
 21
85.39999925047157
 31
0.0
  0
LINE
  5
A7
  8
PE-END
 62
     8
 10
525.3999893188465
 20
90.09999925047194
 30
0.0
 11
549.5999893188467
 21
90.09999925047194
 31
0.0
  0
ARC
  5
A8
  8
PE-END
 62
     8
 10
424.8999893188468
 20
84.89999925047158
 30
0.0
 40
0.499999999999985
 50
89.99999999998697
 51
0.0000000000113991
  0
ARC
  5
A9
  8
PE-END
 62
     8
 10
424.8999893188469
 20
90.09999925047197
 30
0.0
 40
0.5000000000006344
 50
359.9999999999968
 51
270.0
  0
ARC
  5
AA
  8
PE-END
 62
     8
 10
450.099989318847
 20
84.89999925047157
 30
0.0
 40
0.5000000000000017
 50
179.999999999987
 51
90.00000000001303
  0
ARC
  5
AB
  8
PE-END
 62
     8
 10
450.0999893188467
 20
90.09999925047197
 30
0.0
 40
0.4999999999999143
 50
270.0
 51
180.0000000000032
  0
LINE
  5
AC
  8
PE-END
 62
     8
 10
424.8999893188469
 20
85.39999925047157
 30
0.0
 11
424.8999893188469
 21
89.59999925047133
 31
0.0
  0
LINE
  5
AD
  8
PE-END
 62
     8
 10
425.3999893188468
 20
84.89999925047168
 30
0.0
 11
449.599989318847
 21
84.89999925047168
 31
0.0
  0
LINE
  5
AE
  8
PE-END
 62
     8
 10
450.0999893188467
 20
89.59999925047133
 30
0.0
 11
450.0999893188467
 21
85.39999925047157
 31
0.0
  0
LINE
  5
AF
  8
PE-END
 62
     8
 10
425.3999893188468
 20
90.09999925047194
 30
0.0
 11
449.599989318847
 21
90.09999925047194
 31
0.0
  0
CIRCLE
  5
B0
  8
PE-END
 62
     8
 10
-340.0432524775903
 20
71.4063373273726
 30
0.0
 40
15.00000000000006
210
0.0
220
0.0
230
-1.0
  0
CIRCLE
  5
B1
  8
PE-END
 62
   150
 10
317.2932524775903
 20
94.15633732737248
 30
0.0
 40
4.0
  0
CIRCLE
  5
B2
  8
PE-END
 62
   150
 10
362.7932524775915
 20
94.15633732737248
 30
0.0
 40
4.0
  0
CIRCLE
  5
B3
  8
PE-END
 62
   150
 10
317.2932524775903
 20
48.65633732737236
 30
0.0
 40
4.0
  0
CIRCLE
  5
B4
  8
PE-END
 62
   150
 10
362.7932524775915
 20
48.65633732737236
 30
0.0
 40
4.0
  0
DIMENSION
  5
B6
  8
DIMENSION
 62
   150
  2
*D1
 10
679.9999999999994
 20
-45.26924738452645
 30
0.0
 11
339.9999999999997
 21
-45.26924738452645
 31
0.0
 70
    32
  3
ROTATEDDIM18
 13
0.0
 23
0.0
 33
0.0
 14
679.9999999999994
 24
0.000000000000361
 34
0.0
  0
DIMENSION
  5
C6
  8
DIMENSION
 62
   150
  2
*D2
 10
689.9999999999993
 20
0.0000000000003603
 30
0.0
 11
689.9999999999993
 21
74.9999999999999
 31
0.0
 70
    32
  3
ROTATEDDIM19
 13
679.9999999999989
 23
149.9999999999995
 33
0.0
 14
679.9999999999994
 24
0.000000000000361
 34
0.0
 50
90.0
  0
DIMENSION
  5
D5
  8
DIMENSION
 62
   150
  2
*D3
 10
340.0432524775903
 20
71.4063373273726
 30
0.0
 11
381.0789561320924
 21
72.15816535488344
 31
0.0
 70
    36
  3
RADIALDIM20
 15
355.0407355820035
 25
71.68111093025637
 35
0.0
 40
0.0
  0
DIMENSION
  5
E0
  8
DIMENSION
 62
   150
  2
*D4
 10
362.7932524775915
 20
94.15633732737248
 30
0.0
 11
389.4054103427954
 21
97.35367348994416
 31
0.0
 70
    36
  3
RADIALDIM21
 15
366.7646913426825
 25
94.63348860406023
 35
0.0
 40
0.0
  0
ENDSEC
  0
EOF
