  0
SECTION
  2
HEADER
  9
$ACADVER
  1
AC1009
  9
$DWGCODEPAGE
  3
ansi_1252
  9
$INSBASE
 10
0.0
 20
0.0
 30
0.0
  9
$EXTMIN
 10
-0.0000000000000007
 20
-40.13756442625782
 30
-0.0000000000000009
  9
$EXTMAX
 10
699.7222220020176
 20
165.0
 30
72.8574907112215
  9
$LIMMIN
 10
0.0
 20
0.0
  9
$LIMMAX
 10
420.0
 20
297.0
  9
$ORTHOMODE
 70
     0
  9
$REGENMODE
 70
     1
  9
$FILLMODE
 70
     1
  9
$QTEXTMODE
 70
     0
  9
$MIRRTEXT
 70
     1
  9
$DRAGMODE
 70
     2
  9
$LTSCALE
 40
1.0
  9
$OSMODE
 70
    37
  9
$ATTMODE
 70
     1
  9
$TEXTSIZE
 40
2.5
  9
$TRACEWID
 40
1.0
  9
$TEXTSTYLE
  7
STANDARD
  9
$CLAYER
  8
0
  9
$CELTYPE
  6
BYLAYER
  9
$CECOLOR
 62
   256
  9
$DIMSCALE
 40
1.0
  9
$DIMASZ
 40
2.5
  9
$DIMEXO
 40
0.625
  9
$DIMDLI
 40
3.75
  9
$DIMRND
 40
0.0
  9
$DIMDLE
 40
0.0
  9
$DIMEXE
 40
1.25
  9
$DIMTP
 40
0.0
  9
$DIMTM
 40
0.0
  9
$DIMTXT
 40
2.5
  9
$DIMCEN
 40
2.5
  9
$DIMTSZ
 40
0.0
  9
$DIMTOL
 70
     0
  9
$DIMLIM
 70
     0
  9
$DIMTIH
 70
     0
  9
$DIMTOH
 70
     0
  9
$DIMSE1
 70
     0
  9
$DIMSE2
 70
     0
  9
$DIMTAD
 70
     1
  9
$DIMZIN
 70
     8
  9
$DIMBLK
  1

  9
$DIMASO
 70
     1
  9
$DIMSHO
 70
     1
  9
$DIMPOST
  1

  9
$DIMAPOST
  1

  9
$DIMALT
 70
     0
  9
$DIMALTD
 70
     3
  9
$DIMALTF
 40
0.03937007874016
  9
$DIMLFAC
 40
1.0
  9
$DIMTOFL
 70
     1
  9
$DIMTVP
 40
0.0
  9
$DIMTIX
 70
     0
  9
$DIMSOXD
 70
     0
  9
$DIMSAH
 70
     0
  9
$DIMBLK1
  1

  9
$DIMBLK2
  1

  9
$DIMSTYLE
  2
ISO-25
  9
$DIMCLRD
 70
     0
  9
$DIMCLRE
 70
     0
  9
$DIMCLRT
 70
     0
  9
$DIMTFAC
 40
1.0
  9
$DIMGAP
 40
0.625
  9
$LUNITS
 70
     2
  9
$LUPREC
 70
     4
  9
$SKETCHINC
 40
1.0
  9
$FILLETRAD
 40
10.0
  9
$AUNITS
 70
     0
  9
$AUPREC
 70
     0
  9
$MENU
  1
.
  9
$ELEVATION
 40
0.0
  9
$PELEVATION
 40
0.0
  9
$THICKNESS
 40
0.0
  9
$LIMCHECK
 70
     0
  9
$CHAMFERA
 40
10.0
  9
$CHAMFERB
 40
10.0
  9
$SKPOLY
 70
     0
  9
$TDCREATE
 40
2305814.443553241
  9
$TDUPDATE
 40
2456135.360224954
  9
$TDINDWG
 40
0.0000000116
  9
$TDUSRTIMER
 40
0.0000000116
  9
$USRTIMER
 70
     1
  9
$ANGBASE
 50
0.0
  9
$ANGDIR
 70
     0
  9
$PDMODE
 70
     0
  9
$PDSIZE
 40
0.0
  9
$PLINEWID
 40
0.0
  9
$COORDS
 70
     1
  9
$SPLFRAME
 70
     0
  9
$SPLINETYPE
 70
     6
  9
$SPLINESEGS
 70
     8
  9
$ATTDIA
 70
     0
  9
$ATTREQ
 70
     1
  9
$HANDLING
 70
     1
  9
$HANDSEED
  5
205
  9
$SURFTAB1
 70
     6
  9
$SURFTAB2
 70
     6
  9
$SURFTYPE
 70
     6
  9
$SURFU
 70
     6
  9
$SURFV
 70
     6
  9
$UCSNAME
  2

  9
$UCSORG
 10
0.0
 20
0.0
 30
0.0
  9
$UCSXDIR
 10
1.0
 20
0.0
 30
0.0
  9
$UCSYDIR
 10
0.0
 20
1.0
 30
0.0
  9
$PUCSNAME
  2

  9
$PUCSORG
 10
0.0
 20
0.0
 30
0.0
  9
$PUCSXDIR
 10
1.0
 20
0.0
 30
0.0
  9
$PUCSYDIR
 10
0.0
 20
1.0
 30
0.0
  9
$USERI1
 70
     0
  9
$USERI2
 70
     0
  9
$USERI3
 70
     0
  9
$USERI4
 70
     0
  9
$USERI5
 70
     0
  9
$USERR1
 40
0.0
  9
$USERR2
 40
0.0
  9
$USERR3
 40
0.0
  9
$USERR4
 40
0.0
  9
$USERR5
 40
0.0
  9
$WORLDVIEW
 70
     1
  9
$SHADEDGE
 70
     3
  9
$SHADEDIF
 70
    70
  9
$TILEMODE
 70
     1
  9
$MAXACTVP
 70
    64
  9
$PLIMCHECK
 70
     0
  9
$PEXTMIN
 10
1.000000000000000E+20
 20
1.000000000000000E+20
 30
1.000000000000000E+20
  9
$PEXTMAX
 10
-1.000000000000000E+20
 20
-1.000000000000000E+20
 30
-1.000000000000000E+20
  9
$PLIMMIN
 10
0.0
 20
0.0
  9
$PLIMMAX
 10
420.0
 20
297.0
  9
$UNITMODE
 70
     0
  9
$VISRETAIN
 70
     1
  9
$PLINEGEN
 70
     0
  9
$PSLTSCALE
 70
     1
  0
ENDSEC
  0
SECTION
  2
TABLES
  0
TABLE
  2
VPORT
 70
     1
  0
VPORT
  2
*ACTIVE
 70
     0
 10
0.0
 20
0.0
 11
1.0
 21
1.0
 12
348.2475713593627
 22
63.71936071322345
 13
0.0
 23
0.0
 14
10.0
 24
10.0
 15
10.0
 25
10.0
 16
0.0
 26
0.0
 36
1.0
 17
0.0
 27
0.0
 37
0.0
 40
206.6125041450242
 41
3.438441678604518
 42
50.0
 43
0.0
 44
0.0
 50
0.0
 51
0.0
 71
     0
 72
   100
 73
     1
 74
     3
 75
     0
 76
     0
 77
     0
 78
     0
  0
ENDTAB
  0
TABLE
  2
LTYPE
 70
    11
  0
LTYPE
  2
CONTINUOUS
 70
     0
  3
Solid line
 72
    65
 73
     0
 40
0.0
  0
LTYPE
  2
BORDER
 70
     0
  3
__ __ . __ __ . __ 
 72
    65
 73
     6
 40
0.875
 49
0.25
 49
-0.125
 49
0.25
 49
-0.125
 49
0.0
 49
-0.125
  0
LTYPE
  2
CENTER
 70
     0
  3
___ _ ___ _ ___ _ _
 72
    65
 73
     4
 40
1.125
 49
0.75
 49
-0.125
 49
0.125
 49
-0.125
  0
LTYPE
  2
DASHDOT
 70
     0
  3
_._._._._._._._._._
 72
    65
 73
     4
 40
0.5
 49
0.25
 49
-0.125
 49
0.0
 49
-0.125
  0
LTYPE
  2
DASHED
 70
     0
  3
_ _ _ _ _ _ _ _ _ _
 72
    65
 73
     2
 40
0.375
 49
0.25
 49
-0.125
  0
LTYPE
  2
DIVIDE
 70
     0
  3
__..__..__..__..__.
 72
    65
 73
     6
 40
0.625
 49
0.25
 49
-0.125
 49
0.0
 49
-0.125
 49
0.0
 49
-0.125
  0
LTYPE
  2
DOT
 70
     0
  3
...................
 72
    65
 73
     2
 40
0.125
 49
0.0
 49
-0.125
  0
LTYPE
  2
HIDDEN
 70
     0
  3
__ __ __ __ __ __ _
 72
    65
 73
     2
 40
0.1875
 49
0.125
 49
-0.0625
  0
LTYPE
  2
PHANTOM
 70
     0
  3
___ _ _ ___ _ _ ___
 72
    65
 73
     6
 40
1.25
 49
0.625
 49
-0.125
 49
0.125
 49
-0.125
 49
0.125
 49
-0.125
  0
LTYPE
  2
CUTTING
 70
     0
  3
________ _ _ ______
 72
    65
 73
     6
 40
1.4675
 49
1.0
 49
-0.0725
 49
0.125
 49
-0.0725
 49
0.125
 49
-0.0725
  0
LTYPE
  2
STITCH
 70
     0
  3
_ _ _ _ _ _ _ _ _ _
 72
    65
 73
     2
 40
0.145
 49
0.0725
 49
-0.0725
  0
ENDTAB
  0
TABLE
  2
LAYER
 70
     4
  0
LAYER
  2
0
 70
     0
 62
     7
  6
CONTINUOUS
  0
LAYER
  2
DIMENSION
 70
     0
 62
     7
  6
CONTINUOUS
  0
LAYER
  2
PE-FRONT
 70
     0
 62
    18
  6
CONTINUOUS
  0
LAYER
  2
DEFPOINTS
 70
     0
 62
     7
  6
CONTINUOUS
  0
ENDTAB
  0
TABLE
  2
STYLE
 70
     1
  0
STYLE
  2
STANDARD
 70
     0
 40
0.0
 41
1.0
 50
0.0
 71
     0
 42
2.5
  3
txt
  4

  0
ENDTAB
  0
TABLE
  2
VIEW
 70
     0
  0
ENDTAB
  0
TABLE
  2
UCS
 70
     0
  0
ENDTAB
  0
TABLE
  2
APPID
 70
     2
  0
APPID
  2
ACAD
 70
     0
  0
APPID
  2
ENCORE_SOFTWARE_VIACAD
 70
     0
  0
ENDTAB
  0
TABLE
  2
DIMSTYLE
 70
     6
  0
DIMSTYLE
  2
ISO-25
 70
     0
  3

  4

  5

  6

  7

 40
1.0
 41
2.5
 42
0.625
 43
3.75
 44
1.25
 45
0.0
 46
0.0
 47
0.0
 48
0.0
140
2.5
141
2.5
142
0.0
143
0.03937007874016
144
1.0
145
0.0
146
1.0
147
0.625
 71
     0
 72
     0
 73
     0
 74
     0
 75
     0
 76
     0
 77
     1
 78
     8
170
     0
171
     3
172
     1
173
     0
174
     0
175
     0
176
     0
177
     0
178
     0
  0
DIMSTYLE
  2
RADIALDIM13
 70
     0
  3

  4

  5

  6

  7

 40
1.0
 41
8.105938112967356
 42
2.598057087489537
 43
3.75
 44
6.495142718723842
 45
0.0
 46
0.0
 47
0.0
 48
0.0
140
7.159999847412109
141
2.5
142
0.0
143
0.03937007874016
144
1.0
145
0.0
146
1.0
147
0.625
 71
     0
 72
     0
 73
     0
 74
     0
 75
     0
 76
     0
 77
     0
 78
     8
170
     0
171
     3
172
     1
173
     0
174
     0
175
     0
176
     0
177
     0
178
     0
  0
DIMSTYLE
  2
RADIALDIM14
 70
     0
  3

  4

  5

  6

  7

 40
1.0
 41
8.105938112967356
 42
2.598057087489537
 43
3.75
 44
6.495142718723842
 45
0.0
 46
0.0
 47
0.0
 48
0.0
140
7.159999847412109
141
2.5
142
0.0
143
0.03937007874016
144
1.0
145
0.0
146
1.0
147
0.625
 71
     0
 72
     0
 73
     0
 74
     0
 75
     0
 76
     0
 77
     0
 78
     8
170
     0
171
     3
172
     1
173
     0
174
     0
175
     0
176
     0
177
     0
178
     0
  0
DIMSTYLE
  2
ROTATEDDIM15
 70
     0
  3

  4

  5

  6

  7

 40
1.0
 41
8.105938112967356
 42
2.598057087489537
 43
3.75
 44
6.495142718723842
 45
0.0
 46
0.0
 47
0.0
 48
0.0
140
7.159999847412109
141
2.5
142
0.0
143
0.03937007874016
144
1.0
145
0.0
146
1.0
147
0.625
 71
     0
 72
     0
 73
     0
 74
     0
 75
     0
 76
     0
 77
     0
 78
     8
170
     0
171
     3
172
     1
173
     0
174
     0
175
     0
176
     0
177
     0
178
     0
  0
DIMSTYLE
  2
ROTATEDDIM16
 70
     0
  3

  4

  5

  6

  7

 40
1.0
 41
8.105938112967356
 42
2.598057087489537
 43
3.75
 44
6.495142718723842
 45
0.0
 46
0.0
 47
0.0
 48
0.0
140
7.159999847412109
141
2.5
142
0.0
143
0.03937007874016
144
1.0
145
0.0
146
1.0
147
0.625
 71
     0
 72
     0
 73
     0
 74
     0
 75
     0
 76
     0
 77
     0
 78
     8
170
     0
171
     3
172
     1
173
     0
174
     0
175
     0
176
     0
177
     0
178
     0
  0
DIMSTYLE
  2
RADIALDIM17
 70
     0
  3

  4

  5

  6

  7

 40
1.0
 41
8.105938112967356
 42
2.598057087489537
 43
3.75
 44
6.495142718723842
 45
0.0
 46
0.0
 47
0.0
 48
0.0
140
7.159999847412109
141
2.5
142
0.0
143
0.03937007874016
144
1.0
145
0.0
146
1.0
147
0.625
 71
     0
 72
     0
 73
     0
 74
     0
 75
     0
 76
     0
 77
     0
 78
     8
170
     0
171
     3
172
     1
173
     0
174
     0
175
     0
176
     0
177
     0
178
     0
  0
ENDTAB
  0
ENDSEC
  0
SECTION
  2
BLOCKS
  0
BLOCK
  8
0
  2
$MODEL_SPACE
 70
     0
 10
0.0
 20
0.0
 30
0.0
  3
$MODEL_SPACE
  1

  0
ENDBLK
  5
21
  8
0
  0
BLOCK
 67
     1
  8
0
  2
$PAPER_SPACE
 70
     0
 10
0.0
 20
0.0
 30
0.0
  3
$PAPER_SPACE
  1

  0
ENDBLK
  5
1D
 67
     1
  8
0
  0
BLOCK
  8
0
  2
*D1
 70
     1
 10
0.0
 20
0.0
 30
0.0
  3
*D1
  1

  0
LINE
  5
1C2
  8
DIMENSION
 62
     0
 10
363.1444517391561
 20
71.87427830405679
 30
0.0
 11
371.2487273861378
 21
72.03843959363391
 31
0.0
  0
TEXT
  5
1C3
  8
DIMENSION
  6
CONTINUOUS
 62
     0
 10
370.5825714993537
 20
68.44421154608825
 30
0.0
 40
7.159999847412109
  1
R15
 50
1.160432264546987
  0
LINE
  5
1C4
  8
DIMENSION
 62
     0
 10
340.0432524775892
 20
71.40633732737378
 30
0.0
 11
355.0401760921744
 21
71.71011701447966
 31
0.0
  0
SOLID
  5
1C5
  8
DIMENSION
 62
     0
 10
363.1170915242266
 20
73.22499091188708
 30
0.0
 11
363.1718119540856
 21
70.5235656962265
 31
0.0
 12
355.0401760921744
 22
71.71011701447966
 32
0.0
 13
355.0401760921744
 23
71.71011701447966
 33
0.0
  0
POINT
  5
1C6
  8
DEFPOINTS
 62
     0
 10
355.0401760921744
 20
71.71011701447966
 30
0.0
  0
POINT
  5
1C7
  8
DEFPOINTS
 62
     0
 10
340.0432524775892
 20
71.40633732737378
 30
0.0
  0
ENDBLK
  5
1C9
  8
0
  0
BLOCK
  8
0
  2
*D2
 70
     1
 10
0.0
 20
0.0
 30
0.0
  3
*D2
  1

  0
LINE
  5
1CD
  8
DIMENSION
 62
     0
 10
374.6350005602953
 20
96.67163849040541
 30
0.0
 11
382.5640413510241
 21
98.35584300002294
 31
0.0
  0
TEXT
  5
1CE
  8
DIMENSION
  6
CONTINUOUS
 62
     0
 10
382.5851865156102
 20
94.70046452368487
 30
0.0
 40
7.159999847412109
  1
R4
 50
11.99194433892739
  0
LINE
  5
1CF
  8
DIMENSION
 62
     0
 10
362.7932524775903
 20
94.15633732737365
 30
0.0
 11
366.7059597695665
 21
94.98743398078788
 31
0.0
  0
SOLID
  5
1D0
  8
DIMENSION
 62
     0
 10
374.3542998086924
 20
97.9931452888602
 30
0.0
 11
374.9157013118982
 21
95.35013169195062
 31
0.0
 12
366.7059597695665
 22
94.98743398078788
 32
0.0
 13
366.7059597695665
 23
94.98743398078788
 33
0.0
  0
POINT
  5
1D1
  8
DEFPOINTS
 62
     0
 10
366.7059597695665
 20
94.98743398078788
 30
0.0
  0
POINT
  5
1D2
  8
DEFPOINTS
 62
     0
 10
362.7932524775903
 20
94.15633732737365
 30
0.0
  0
ENDBLK
  5
1D4
  8
0
  0
BLOCK
  8
0
  2
*D3
 70
     1
 10
0.0
 20
0.0
 30
0.0
  3
*D3
  1

  0
LINE
  5
1D8
  8
DIMENSION
 62
     0
 10
-0.0000000000000006
 20
-2.598057087489537
 30
0.0
 11
0.0000000000000001
 21
-37.5612785735531
 31
0.0
  0
LINE
  5
1D9
  8
DIMENSION
 62
     0
 10
680.0000000000015
 20
-2.598057087489537
 30
0.0
 11
680.0000000000015
 21
-37.5612785735531
 31
0.0
  0
LINE
  5
1DA
  8
DIMENSION
 62
     0
 10
8.105938112967356
 20
-31.06613585482926
 30
0.0
 11
330.339762097314
 21
-31.06613585482926
 31
0.0
  0
LINE
  5
1DB
  8
DIMENSION
 62
     0
 10
671.8940618870341
 20
-31.06613585482926
 30
0.0
 11
349.6602379026875
 21
-31.06613585482926
 31
0.0
  0
SOLID
  5
1DC
  8
DIMENSION
 62
     0
 10
8.105938112967356
 20
-29.71514616933469
 30
0.0
 11
8.105938112967356
 21
-32.41712554032382
 31
0.0
 12
0.0
 22
-31.06613585482926
 32
0.0
 13
0.0
 23
-31.06613585482926
 33
0.0
  0
SOLID
  5
1DD
  8
DIMENSION
 62
     0
 10
671.8940618870341
 20
-32.41712554032382
 30
0.0
 11
671.8940618870341
 21
-29.71514616933469
 31
0.0
 12
680.0000000000015
 22
-31.06613585482926
 32
0.0
 13
680.0000000000015
 23
-31.06613585482926
 33
0.0
  0
TEXT
  5
1DE
  8
DIMENSION
  6
CONTINUOUS
 62
     0
 10
329.6009526025688
 20
-34.64613577853531
 30
0.0
 40
7.159999847412109
  1
680
  0
POINT
  5
1DF
  8
DEFPOINTS
 62
     0
 10
-0.0000000000000007
 20
0.0
 30
0.0
  0
POINT
  5
1E0
  8
DEFPOINTS
 62
     0
 10
680.0000000000015
 20
0.0
 30
0.0
  0
POINT
  5
1E1
  8
DEFPOINTS
 62
     0
 10
680.0000000000015
 20
-31.06613585482926
 30
0.0
  0
ENDBLK
  5
1E3
  8
0
  0
BLOCK
  8
0
  2
*D4
 70
     1
 10
0.0
 20
0.0
 30
0.0
  3
*D4
  1

  0
LINE
  5
1E7
  8
DIMENSION
 62
     0
 10
682.598057087491
 20
165.0
 30
0.0
 11
696.4951427187253
 21
165.0
 31
0.0
  0
LINE
  5
1E8
  8
DIMENSION
 62
     0
 10
682.598057087491
 20
-0.0000000000000002
 30
0.0
 11
696.4951427187253
 21
-0.000000000000001
 31
0.0
  0
LINE
  5
1E9
  8
DIMENSION
 62
     0
 10
690.0000000000015
 20
156.8940618870326
 30
0.0
 11
690.0000000000015
 21
91.81928552900047
 31
0.0
  0
LINE
  5
1EA
  8
DIMENSION
 62
     0
 10
690.0000000000015
 20
8.105938112967356
 30
0.0
 11
690.0000000000015
 21
73.18071447099953
 31
0.0
  0
SOLID
  5
1EB
  8
DIMENSION
 62
     0
 10
691.3509896854961
 20
156.8940618870326
 30
0.0
 11
688.6490103145069
 21
156.8940618870326
 31
0.0
 12
690.0000000000015
 22
165.0
 32
0.0
 13
690.0000000000015
 23
165.0
 33
0.0
  0
SOLID
  5
1EC
  8
DIMENSION
 62
     0
 10
688.6490103145069
 20
8.105938112967356
 30
0.0
 11
691.3509896854961
 21
8.105938112967356
 31
0.0
 12
690.0000000000015
 22
-0.0000000000000006
 32
0.0
 13
690.0000000000015
 23
-0.0000000000000006
 33
0.0
  0
TEXT
  5
1ED
  8
DIMENSION
  6
CONTINUOUS
 62
     0
 10
693.5799999237075
 20
71.76000022888184
 30
0.0
 40
7.159999847412109
  1
165
 50
90.0
  0
POINT
  5
1EE
  8
DEFPOINTS
 62
     0
 10
680.0000000000015
 20
165.0
 30
0.0
  0
POINT
  5
1EF
  8
DEFPOINTS
 62
     0
 10
680.0000000000015
 20
0.0
 30
0.0
  0
POINT
  5
1F0
  8
DEFPOINTS
 62
     0
 10
690.0000000000015
 20
-0.0000000000000006
 30
0.0
  0
ENDBLK
  5
1F2
  8
0
  0
BLOCK
  8
0
  2
*D5
 70
     1
 10
0.0
 20
0.0
 30
0.0
  3
*D5
  1

  0
LINE
  5
1F6
  8
DIMENSION
 62
     0
 10
209.4577326337583
 20
155.6511727026692
 30
0.0
 11
217.4601595586783
 21
154.3598958142471
 31
0.0
  0
TEXT
  5
1F7
  8
DIMENSION
  6
CONTINUOUS
 62
     0
 10
216.2691176113758
 20
151.6165011652076
 30
0.0
 40
7.159999847412109
  1
R3,5
 50
350.8337251543709
  0
LINE
  5
1F8
  8
DIMENSION
 62
     0
 10
198.0000000000009
 20
157.5000000000003
 30
0.0
 11
201.4553057088384
 21
156.9424495910912
 31
0.0
  0
SOLID
  5
1F9
  8
DIMENSION
 62
     0
 10
209.6729454484953
 20
156.9849105234892
 30
0.0
 11
209.2425198190213
 21
154.3174348818492
 31
0.0
 12
201.4553057088384
 22
156.9424495910912
 32
0.0
 13
201.4553057088384
 23
156.9424495910912
 33
0.0
  0
POINT
  5
1FA
  8
DEFPOINTS
 62
     0
 10
201.4553057088384
 20
156.9424495910912
 30
0.0
  0
POINT
  5
1FB
  8
DEFPOINTS
 62
     0
 10
198.0000000000009
 20
157.5000000000003
 30
0.0
  0
ENDBLK
  5
1FD
  8
0
  0
ENDSEC
  0
SECTION
  2
ENTITIES
  0
LINE
  5
4C
  8
PE-FRONT
 62
     5
 10
-0.0000000000000007
 20
0.0
 30
0.0
 11
680.0000000000015
 21
0.0
 31
0.0
  0
LINE
  5
4D
  8
PE-FRONT
 62
     5
 10
-0.0000000000000007
 20
165.0
 30
0.0
 11
680.0000000000015
 21
165.0
 31
0.0
  0
LINE
  5
4E
  8
PE-FRONT
 62
     5
 10
680.0000000000015
 20
117.5000000000007
 30
0.0
 11
680.0000000000015
 21
92.50000000000063
 31
0.0
  0
CIRCLE
  5
4F
  8
PE-FRONT
 62
     5
 10
622.7499999999986
 20
157.5000000000003
 30
0.0
 40
3.499999999999659
  0
CIRCLE
  5
50
  8
PE-FRONT
 62
     5
 10
482.0000000000003
 20
157.5000000000003
 30
0.0
 40
3.5
  0
CIRCLE
  5
51
  8
PE-FRONT
 62
     5
 10
-339.9999999999977
 20
157.5000000000003
 30
0.0
 40
3.500000000000114
210
0.0
220
0.0
230
-1.0
  0
CIRCLE
  5
52
  8
PE-FRONT
 62
     5
 10
-57.24999999999707
 20
157.5000000000003
 30
0.000000000000014
 40
3.500000000000092
210
2.449293598294707E-16
220
0.0
230
-1.0
  0
CIRCLE
  5
53
  8
PE-FRONT
 62
     5
 10
-198.0000000000009
 20
157.5000000000003
 30
0.0000000000000485
 40
3.499999999999943
210
2.449293598294707E-16
220
0.0
230
-1.0
  0
ARC
  5
54
  8
PE-FRONT
 62
     5
 10
139.599999999997
 20
144.9000000000003
 30
0.0
 40
0.4999999999969467
 50
180.0000000000065
 51
89.99999999999675
  0
ARC
  5
55
  8
PE-FRONT
 62
     5
 10
139.599999999997
 20
150.1000000000005
 30
0.0
 40
0.4999999999998851
 50
270.0
 51
179.9999999999994
  0
ARC
  5
56
  8
PE-FRONT
 62
     5
 10
114.3999999999971
 20
144.9000000000003
 30
0.0
 40
0.4999999999998851
 50
90.0
 51
0.000000000000573
  0
ARC
  5
57
  8
PE-FRONT
 62
     5
 10
114.3999999999971
 20
150.1000000000004
 30
0.0
 40
0.5000000000027445
 50
0.0000000000032569
 51
269.9999999999984
  0
LINE
  5
58
  8
PE-FRONT
 62
     5
 10
139.599999999997
 20
145.4000000000001
 30
0.0
 11
139.599999999997
 21
149.6000000000005
 31
0.0
  0
LINE
  5
59
  8
PE-FRONT
 62
     5
 10
139.1000000000001
 20
144.9000000000003
 30
0.0
 11
114.8999999999999
 21
144.9000000000003
 31
0.0
  0
LINE
  5
5A
  8
PE-FRONT
 62
     5
 10
114.3999999999971
 20
149.6000000000005
 30
0.0
 11
114.3999999999971
 21
145.4000000000001
 31
0.0
  0
LINE
  5
5B
  8
PE-FRONT
 62
     5
 10
139.1000000000001
 20
150.1000000000005
 30
0.0
 11
114.8999999999999
 21
150.1000000000005
 31
0.0
  0
ARC
  5
5C
  8
PE-FRONT
 62
     5
 10
281.5999999999993
 20
144.9000000000003
 30
0.0
 40
0.500000000002732
 50
179.9999999999994
 51
89.99999999997397
  0
ARC
  5
5D
  8
PE-FRONT
 62
     5
 10
281.5999999999996
 20
150.1000000000004
 30
0.0
 40
0.4999999999998518
 50
270.0000000000065
 51
179.9999999999968
  0
ARC
  5
5E
  8
PE-FRONT
 62
     5
 10
256.3999999999994
 20
144.9000000000002
 30
0.0
 40
0.4999999999999268
 50
89.99999999999349
 51
0.0000000000032569
  0
ARC
  5
5F
  8
PE-FRONT
 62
     5
 10
256.3999999999994
 20
150.1000000000004
 30
0.0
 40
0.4999999999969466
 50
0.0000000000065138
 51
270.000000000013
  0
LINE
  5
60
  8
PE-FRONT
 62
     5
 10
281.5999999999997
 20
145.4000000000001
 30
0.0
 11
281.5999999999997
 21
149.6000000000005
 31
0.0
  0
LINE
  5
61
  8
PE-FRONT
 62
     5
 10
281.0999999999967
 20
144.9000000000003
 30
0.0
 11
256.9000000000024
 21
144.9000000000003
 31
0.0
  0
LINE
  5
62
  8
PE-FRONT
 62
     5
 10
256.3999999999994
 20
149.6000000000005
 30
0.0
 11
256.3999999999994
 21
145.4000000000001
 31
0.0
  0
LINE
  5
63
  8
PE-FRONT
 62
     5
 10
281.0999999999967
 20
150.1000000000005
 30
0.0
 11
256.8999999999965
 21
150.1000000000005
 31
0.0
  0
ARC
  5
64
  8
PE-FRONT
 62
     5
 10
423.5999999999961
 20
144.9000000000002
 30
0.0
 40
0.4999999999970299
 50
179.9999999999994
 51
89.99999999999349
  0
ARC
  5
65
  8
PE-FRONT
 62
     5
 10
423.5999999999963
 20
150.1000000000006
 30
0.0
 40
0.4999999999999684
 50
269.9999999999935
 51
180.0000000000097
  0
ARC
  5
66
  8
PE-FRONT
 62
     5
 10
398.3999999999959
 20
144.9000000000003
 30
0.0
 40
0.4999999999998935
 50
90.0
 51
0.000000000000573
  0
ARC
  5
67
  8
PE-FRONT
 62
     5
 10
398.3999999999959
 20
150.1000000000005
 30
0.0
 40
0.5000000000028486
 50
359.9999999999935
 51
269.9999999999674
  0
LINE
  5
68
  8
PE-FRONT
 62
     5
 10
423.5999999999963
 20
145.4000000000001
 30
0.0
 11
423.5999999999963
 21
149.6000000000005
 31
0.0
  0
LINE
  5
69
  8
PE-FRONT
 62
     5
 10
423.0999999999992
 20
144.9000000000003
 30
0.0
 11
398.8999999999989
 21
144.9000000000003
 31
0.0
  0
LINE
  5
6A
  8
PE-FRONT
 62
     5
 10
398.3999999999959
 20
149.6000000000005
 30
0.0
 11
398.3999999999959
 21
145.4000000000001
 31
0.0
  0
LINE
  5
6B
  8
PE-FRONT
 62
     5
 10
423.0999999999992
 20
150.1000000000005
 30
0.0
 11
398.8999999999989
 21
150.1000000000005
 31
0.0
  0
ARC
  5
6C
  8
PE-FRONT
 62
     5
 10
565.5999999999985
 20
144.9000000000003
 30
0.0
 40
0.5000000000028154
 50
180.0000000000065
 51
90.0
  0
ARC
  5
6D
  8
PE-FRONT
 62
     5
 10
565.5999999999985
 20
150.1000000000004
 30
0.0
 40
0.4999999999998685
 50
270.0
 51
179.9999999999968
  0
ARC
  5
6E
  8
PE-FRONT
 62
     5
 10
540.3999999999985
 20
144.9000000000002
 30
0.0
 40
0.4999999999998935
 50
90.0
 51
0.000000000000573
  0
ARC
  5
6F
  8
PE-FRONT
 62
     5
 10
540.3999999999985
 20
150.1000000000004
 30
0.0
 40
0.4999999999969299
 50
0.0000000000097707
 51
270.0
  0
LINE
  5
70
  8
PE-FRONT
 62
     5
 10
565.5999999999985
 20
145.4000000000001
 30
0.0
 11
565.5999999999985
 21
149.6000000000005
 31
0.0
  0
LINE
  5
71
  8
PE-FRONT
 62
     5
 10
565.0999999999957
 20
144.9000000000003
 30
0.0
 11
540.8999999999954
 21
144.9000000000003
 31
0.0
  0
LINE
  5
72
  8
PE-FRONT
 62
     5
 10
540.3999999999985
 20
149.6000000000005
 30
0.0
 11
540.3999999999985
 21
145.4000000000001
 31
0.0
  0
LINE
  5
73
  8
PE-FRONT
 62
     5
 10
565.0999999999957
 20
150.1000000000005
 30
0.0
 11
540.8999999999954
 21
150.1000000000005
 31
0.0
  0
LINE
  5
74
  8
PE-FRONT
 62
     5
 10
680.0000000000015
 20
59.90000000000082
 30
0.0
 11
680.0000000000015
 21
0.0
 31
0.0
  0
LINE
  5
75
  8
PE-FRONT
 62
     5
 10
675.3999999999966
 20
59.90000000000082
 30
0.0
 11
680.0000000000015
 21
59.90000000000082
 31
0.0
  0
ARC
  5
76
  8
PE-FRONT
 62
     5
 10
674.8999999999997
 20
59.9000000000008
 30
0.0
 40
0.4999999999998976
 50
90.0
 51
0.0000000000016284
  0
LINE
  5
77
  8
PE-FRONT
 62
     5
 10
680.0000000000015
 20
92.50000000000063
 30
0.0
 11
675.3999999999966
 21
92.50000000000063
 31
0.0
  0
LINE
  5
78
  8
PE-FRONT
 62
     5
 10
674.8999999999997
 20
92.00000000000074
 30
0.0
 11
674.8999999999997
 21
60.4000000000007
 31
0.0
  0
ARC
  5
79
  8
PE-FRONT
 62
     5
 10
674.8999999999995
 20
92.5000000000007
 30
0.0
 40
0.4999999999970715
 50
359.9999999999919
 51
270.000000000026
  0
LINE
  5
7A
  8
PE-FRONT
 62
     5
 10
675.3999999999966
 20
117.5000000000007
 30
0.0
 11
680.0000000000015
 21
117.5000000000007
 31
0.0
  0
ARC
  5
7B
  8
PE-FRONT
 62
     5
 10
674.8999999999997
 20
117.5000000000007
 30
0.0
 40
0.4999999999998976
 50
90.0
 51
0.0000000000016284
  0
LINE
  5
7C
  8
PE-FRONT
 62
     5
 10
680.0000000000015
 20
165.0
 30
0.0
 11
680.0000000000015
 21
145.1000000000002
 31
0.0
  0
LINE
  5
7D
  8
PE-FRONT
 62
     5
 10
680.0000000000015
 20
145.1000000000002
 30
0.0
 11
675.3999999999966
 21
145.1000000000002
 31
0.0
  0
LINE
  5
7E
  8
PE-FRONT
 62
     5
 10
674.8999999999997
 20
144.6000000000003
 30
0.0
 11
674.8999999999997
 21
118.0000000000006
 31
0.0
  0
ARC
  5
7F
  8
PE-FRONT
 62
     5
 10
674.8999999999996
 20
145.1000000000001
 30
0.0
 40
0.4999999999969467
 50
0.0000000000097707
 51
270.000000000013
  0
LINE
  5
80
  8
PE-FRONT
 62
     5
 10
-0.0000000000000007
 20
117.5000000000007
 30
0.0
 11
-0.0000000000000007
 21
92.50000000000063
 31
0.0
  0
LINE
  5
81
  8
PE-FRONT
 62
     5
 10
-0.0000000000000007
 20
59.90000000000082
 30
0.0
 11
-0.0000000000000007
 21
0.0
 31
0.0
  0
LINE
  5
82
  8
PE-FRONT
 62
     5
 10
4.599999999998953
 20
59.90000000000082
 30
0.0
 11
-0.0000000000000007
 21
59.90000000000082
 31
0.0
  0
ARC
  5
83
  8
PE-FRONT
 62
     5
 10
5.100000000001734
 20
59.90000000000081
 30
0.0
 40
0.4999999999998937
 50
179.9999999999992
 51
90.00000000000082
  0
LINE
  5
84
  8
PE-FRONT
 62
     5
 10
-0.0000000000000007
 20
92.50000000000063
 30
0.0
 11
4.599999999998953
 21
92.50000000000063
 31
0.0
  0
LINE
  5
85
  8
PE-FRONT
 62
     5
 10
5.100000000001727
 20
92.00000000000074
 30
0.0
 11
5.100000000001727
 21
60.4000000000007
 31
0.0
  0
ARC
  5
86
  8
PE-FRONT
 62
     5
 10
5.100000000001702
 20
92.50000000000058
 30
0.0
 40
0.5000000000027487
 50
270.0000000000028
 51
179.9999999999951
  0
LINE
  5
87
  8
PE-FRONT
 62
     5
 10
4.599999999998953
 20
117.5000000000007
 30
0.0
 11
-0.0000000000000007
 21
117.5000000000007
 31
0.0
  0
ARC
  5
88
  8
PE-FRONT
 62
     5
 10
5.100000000001738
 20
117.5000000000007
 30
0.0
 40
0.4999999999998972
 50
179.9999999999984
 51
90.00000000000122
  0
LINE
  5
89
  8
PE-FRONT
 62
     5
 10
-0.0000000000000007
 20
165.0
 30
0.0
 11
-0.0000000000000007
 21
145.1000000000002
 31
0.0
  0
LINE
  5
8A
  8
PE-FRONT
 62
     5
 10
-0.0000000000000007
 20
145.1000000000002
 30
0.0
 11
4.599999999998953
 21
145.1000000000002
 31
0.0
  0
LINE
  5
8B
  8
PE-FRONT
 62
     5
 10
5.100000000001727
 20
144.6000000000003
 30
0.0
 11
5.100000000001727
 21
118.0000000000006
 31
0.0
  0
ARC
  5
8C
  8
PE-FRONT
 62
     5
 10
5.100000000001686
 20
145.1000000000002
 30
0.0
 40
0.5000000000027328
 50
270.0000000000045
 51
179.9999999999935
  0
ARC
  5
8D
  8
PE-FRONT
 62
     5
 10
55.09999542236156
 20
90.09999925047227
 30
0.0
 40
0.4999999999969611
 50
270.0000000000041
 51
179.9999999999951
  0
ARC
  5
8E
  8
PE-FRONT
 62
     5
 10
55.0999954223616
 20
84.89999925047202
 30
0.0
 40
0.4999999999998935
 50
179.9999999999984
 51
90.00000000000082
  0
ARC
  5
8F
  8
PE-FRONT
 62
     5
 10
29.89999542236154
 20
90.09999925047232
 30
0.0
 40
0.4999999999998976
 50
359.9999999999984
 51
270.0000000000013
  0
ARC
  5
90
  8
PE-FRONT
 62
     5
 10
29.89999542236158
 20
84.89999925047208
 30
0.0
 40
0.5000000000027487
 50
90.00000000000286
 51
359.9999999999951
  0
LINE
  5
91
  8
PE-FRONT
 62
     5
 10
55.09999542236157
 20
89.59999925047242
 30
0.0
 11
55.09999542236157
 21
85.39999925047192
 31
0.0
  0
LINE
  5
92
  8
PE-FRONT
 62
     5
 10
54.5999954223646
 20
90.09999925047231
 30
0.0
 11
30.39999542236433
 21
90.09999925047231
 31
0.0
  0
LINE
  5
93
  8
PE-FRONT
 62
     5
 10
29.89999542236155
 20
85.39999925047192
 30
0.0
 11
29.89999542236155
 21
89.59999925047242
 31
0.0
  0
LINE
  5
94
  8
PE-FRONT
 62
     5
 10
54.5999954223646
 20
84.89999925047204
 30
0.0
 11
30.39999542236433
 21
84.89999925047204
 31
0.0
  0
ARC
  5
95
  8
PE-FRONT
 62
     5
 10
155.0999954223619
 20
90.0999992504723
 30
0.0
 40
0.4999999999969882
 50
270.0
 51
179.9999999999984
  0
ARC
  5
96
  8
PE-FRONT
 62
     5
 10
155.099995422362
 20
84.89999925047204
 30
0.0
 40
0.4999999999998893
 50
179.9999999999994
 51
90.0
  0
ARC
  5
97
  8
PE-FRONT
 62
     5
 10
129.8999954223619
 20
90.09999925047232
 30
0.0
 40
0.4999999999998976
 50
359.9999999999984
 51
270.0
  0
ARC
  5
98
  8
PE-FRONT
 62
     5
 10
129.8999954223619
 20
84.89999925047208
 30
0.0
 40
0.5000000000027405
 50
90.00000000000979
 51
359.9999999999951
  0
LINE
  5
99
  8
PE-FRONT
 62
     5
 10
155.099995422362
 20
89.59999925047242
 30
0.0
 11
155.099995422362
 21
85.39999925047192
 31
0.0
  0
LINE
  5
9A
  8
PE-FRONT
 62
     5
 10
154.5999954223649
 20
90.09999925047231
 30
0.0
 11
130.3999954223646
 21
90.09999925047231
 31
0.0
  0
LINE
  5
9B
  8
PE-FRONT
 62
     5
 10
129.8999954223619
 20
85.39999925047192
 30
0.0
 11
129.8999954223619
 21
89.59999925047242
 31
0.0
  0
LINE
  5
9C
  8
PE-FRONT
 62
     5
 10
154.5999954223649
 20
84.89999925047204
 30
0.0
 11
130.3999954223646
 21
84.89999925047204
 31
0.0
  0
ARC
  5
9D
  8
PE-FRONT
 62
     5
 10
255.0999954223623
 20
90.0999992504723
 30
0.0
 40
0.4999999999969882
 50
270.0
 51
179.9999999999984
  0
ARC
  5
9E
  8
PE-FRONT
 62
     5
 10
255.0999954223623
 20
84.89999925047202
 30
0.0
 40
0.4999999999998976
 50
179.9999999999984
 51
90.0
  0
ARC
  5
9F
  8
PE-FRONT
 62
     5
 10
229.8999954223623
 20
90.09999925047227
 30
0.0
 40
0.4999999999998435
 50
0.0000000000048853
 51
269.9999999999935
  0
ARC
  5
A0
  8
PE-FRONT
 62
     5
 10
229.8999954223623
 20
84.89999925047204
 30
0.0
 40
0.5000000000027903
 50
89.99999999999675
 51
0.000000000000573
  0
LINE
  5
A1
  8
PE-FRONT
 62
     5
 10
255.0999954223624
 20
89.59999925047242
 30
0.0
 11
255.0999954223624
 21
85.39999925047192
 31
0.0
  0
LINE
  5
A2
  8
PE-FRONT
 62
     5
 10
254.5999954223653
 20
90.09999925047231
 30
0.0
 11
230.399995422365
 21
90.09999925047231
 31
0.0
  0
LINE
  5
A3
  8
PE-FRONT
 62
     5
 10
229.8999954223623
 20
85.39999925047192
 30
0.0
 11
229.8999954223623
 21
89.59999925047242
 31
0.0
  0
LINE
  5
A4
  8
PE-FRONT
 62
     5
 10
254.5999954223653
 20
84.89999925047204
 30
0.0
 11
230.399995422365
 21
84.89999925047204
 31
0.0
  0
ARC
  5
A5
  8
PE-FRONT
 62
     5
 10
624.8999893188463
 20
84.899999250472
 30
0.0
 40
0.5000000000027113
 50
89.99999999997397
 51
0.0000000000032569
  0
ARC
  5
A6
  8
PE-FRONT
 62
     5
 10
624.8999893188462
 20
90.09999925047234
 30
0.0
 40
0.5000000000006344
 50
359.9999999999968
 51
270.0000000000391
  0
ARC
  5
A7
  8
PE-FRONT
 62
     5
 10
650.0999893188466
 20
84.89999925047204
 30
0.0
 40
0.499999999999881
 50
179.9999999999994
 51
90.0
  0
ARC
  5
A8
  8
PE-FRONT
 62
     5
 10
650.0999893188464
 20
90.09999925047241
 30
0.0
 40
0.4999999999970965
 50
270.000000000026
 51
180.0000000000114
  0
LINE
  5
A9
  8
PE-FRONT
 62
     5
 10
624.8999893188466
 20
85.39999925047192
 30
0.0
 11
624.8999893188466
 21
89.5999992504717
 31
0.0
  0
LINE
  5
AA
  8
PE-FRONT
 62
     5
 10
625.3999893188491
 20
84.89999925047204
 30
0.0
 11
649.5999893188437
 21
84.89999925047204
 31
0.0
  0
LINE
  5
AB
  8
PE-FRONT
 62
     5
 10
650.0999893188466
 20
89.5999992504717
 30
0.0
 11
650.0999893188466
 21
85.39999925047192
 31
0.0
  0
LINE
  5
AC
  8
PE-FRONT
 62
     5
 10
625.3999893188491
 20
90.09999925047231
 30
0.0
 11
649.5999893188493
 21
90.09999925047231
 31
0.0
  0
ARC
  5
AD
  8
PE-FRONT
 62
     5
 10
524.8999893188462
 20
84.89999925047198
 30
0.0
 40
0.5000000000027487
 50
90.00000000001303
 51
0.0000000000065138
  0
ARC
  5
AE
  8
PE-FRONT
 62
     5
 10
524.8999893188461
 20
90.09999925047241
 30
0.0
 40
0.5000000000007051
 50
359.9999999999886
 51
270.0
  0
ARC
  5
AF
  8
PE-FRONT
 62
     5
 10
550.0999893188462
 20
84.89999925047204
 30
0.0
 40
0.499999999999881
 50
179.9999999999994
 51
90.0
  0
ARC
  5
B0
  8
PE-FRONT
 62
     5
 10
550.0999893188463
 20
90.09999925047234
 30
0.0
 40
0.4999999999970257
 50
269.999999999987
 51
180.0000000000032
  0
LINE
  5
B1
  8
PE-FRONT
 62
     5
 10
524.8999893188461
 20
85.39999925047192
 30
0.0
 11
524.8999893188461
 21
89.5999992504717
 31
0.0
  0
LINE
  5
B2
  8
PE-FRONT
 62
     5
 10
525.399989318849
 20
84.89999925047204
 30
0.0
 11
549.5999893188492
 21
84.89999925047204
 31
0.0
  0
LINE
  5
B3
  8
PE-FRONT
 62
     5
 10
550.0999893188462
 20
89.5999992504717
 30
0.0
 11
550.0999893188462
 21
85.39999925047192
 31
0.0
  0
LINE
  5
B4
  8
PE-FRONT
 62
     5
 10
525.399989318849
 20
90.09999925047231
 30
0.0
 11
549.5999893188492
 21
90.09999925047231
 31
0.0
  0
ARC
  5
B5
  8
PE-FRONT
 62
     5
 10
424.8999893188457
 20
84.89999925047202
 30
0.0
 40
0.5000000000028029
 50
90.0
 51
0.0000000000016284
  0
ARC
  5
B6
  8
PE-FRONT
 62
     5
 10
424.8999893188457
 20
90.09999925047234
 30
0.0
 40
0.5000000000006344
 50
359.9999999999968
 51
270.0
  0
ARC
  5
B7
  8
PE-FRONT
 62
     5
 10
450.0999893188459
 20
84.89999925047196
 30
0.0
 40
0.4999999999999517
 50
179.9999999999919
 51
90.00000000000654
  0
ARC
  5
B8
  8
PE-FRONT
 62
     5
 10
450.0999893188459
 20
90.09999925047224
 30
0.0
 40
0.4999999999969341
 50
270.0000000000065
 51
179.9999999999919
  0
LINE
  5
B9
  8
PE-FRONT
 62
     5
 10
424.8999893188458
 20
85.39999925047192
 30
0.0
 11
424.8999893188458
 21
89.5999992504717
 31
0.0
  0
LINE
  5
BA
  8
PE-FRONT
 62
     5
 10
425.3999893188485
 20
84.89999925047204
 30
0.0
 11
449.5999893188488
 21
84.89999925047204
 31
0.0
  0
LINE
  5
BB
  8
PE-FRONT
 62
     5
 10
450.0999893188459
 20
89.5999992504717
 30
0.0
 11
450.0999893188459
 21
85.39999925047192
 31
0.0
  0
LINE
  5
BC
  8
PE-FRONT
 62
     5
 10
425.3999893188485
 20
90.09999925047231
 30
0.0
 11
449.5999893188488
 21
90.09999925047231
 31
0.0
  0
LINE
  5
BD
  8
PE-FRONT
 62
     5
 10
495.7769614219646
 20
43.10586530550967
 30
0.0
 11
499.1318438529947
 21
52.96926519259463
 31
0.0
  0
POLYLINE
  5
BE
  8
PE-FRONT
 62
     5
 10
0.0
 20
0.0
 30
0.0
 66
     1
 70
     8
  0
VERTEX
  5
BF
  8
PE-FRONT
 62
     5
 10
499.6686327934243
 20
55.31771680697451
 30
0.0
 70
    32
  0
VERTEX
  5
C0
  8
PE-FRONT
 62
     5
 10
499.6181288477717
 20
54.91866021428977
 30
0.0
 70
    32
  0
VERTEX
  5
C1
  8
PE-FRONT
 62
     5
 10
499.4711712146047
 20
54.1278889423503
 30
0.0
 70
    32
  0
VERTEX
  5
C2
  8
PE-FRONT
 62
     5
 10
499.253032188065
 20
53.35295235592164
 30
0.0
 70
    32
  0
VERTEX
  5
C3
  8
PE-FRONT
 62
     5
 10
499.1318438529947
 20
52.96926519259463
 30
0.0
 70
    32
  0
SEQEND
  5
C4
  8
PE-FRONT
 62
     5
  0
POLYLINE
  5
C5
  8
PE-FRONT
 62
     5
 10
0.0
 20
0.0
 30
0.0
 66
     1
 70
     8
  0
VERTEX
  5
C6
  8
PE-FRONT
 62
     5
 10
498.628604221342
 20
57.76679212435732
 30
0.0
 70
    32
  0
VERTEX
  5
C7
  8
PE-FRONT
 62
     5
 10
498.9486913377209
 20
57.43827255184479
 30
0.0
 70
    32
  0
VERTEX
  5
C8
  8
PE-FRONT
 62
     5
 10
499.4574781557217
 20
56.67585942536773
 30
0.0
 70
    32
  0
VERTEX
  5
C9
  8
PE-FRONT
 62
     5
 10
499.6477722300951
 20
55.77634052789142
 30
0.0
 70
    32
  0
VERTEX
  5
CA
  8
PE-FRONT
 62
     5
 10
499.6686327934243
 20
55.31771680697451
 30
0.0
 70
    32
  0
SEQEND
  5
CB
  8
PE-FRONT
 62
     5
  0
POLYLINE
  5
CC
  8
PE-FRONT
 62
     5
 10
0.0
 20
0.0
 30
0.0
 66
     1
 70
     8
  0
VERTEX
  5
CD
  8
PE-FRONT
 62
     5
 10
495.8776093482953
 20
58.57195131167421
 30
0.0
 70
    32
  0
VERTEX
  5
CE
  8
PE-FRONT
 62
     5
 10
496.3625975050574
 20
58.54751288962675
 30
0.0
 70
    32
  0
VERTEX
  5
CF
  8
PE-FRONT
 62
     5
 10
497.3249548405756
 20
58.40216392857629
 30
0.0
 70
    32
  0
VERTEX
  5
D0
  8
PE-FRONT
 62
     5
 10
498.2144935337843
 20
58.01923126982481
 30
0.0
 70
    32
  0
VERTEX
  5
D1
  8
PE-FRONT
 62
     5
 10
498.5056459338567
 20
57.84535713302552
 30
0.0
 70
    32
  0
VERTEX
  5
D2
  8
PE-FRONT
 62
     5
 10
498.628604221342
 20
57.76679212435732
 30
0.0
 70
    32
  0
SEQEND
  5
D3
  8
PE-FRONT
 62
     5
  0
POLYLINE
  5
D4
  8
PE-FRONT
 62
     5
 10
0.0
 20
0.0
 30
0.0
 66
     1
 70
     8
  0
VERTEX
  5
D5
  8
PE-FRONT
 62
     5
 10
491.7510685920695
 20
57.3306511102582
 30
0.0
 70
    32
  0
VERTEX
  5
D6
  8
PE-FRONT
 62
     5
 10
492.390745055102
 20
57.67451979140125
 30
0.0
 70
    32
  0
VERTEX
  5
D7
  8
PE-FRONT
 62
     5
 10
493.7283605939609
 20
58.24390746494775
 30
0.0
 70
    32
  0
VERTEX
  5
D8
  8
PE-FRONT
 62
     5
 10
495.1539496048661
 20
58.51449258567857
 30
0.0
 70
    32
  0
VERTEX
  5
D9
  8
PE-FRONT
 62
     5
 10
495.8776093482953
 20
58.57195131167421
 30
0.0
 70
    32
  0
SEQEND
  5
DA
  8
PE-FRONT
 62
     5
  0
POLYLINE
  5
DB
  8
PE-FRONT
 62
     5
 10
0.0
 20
0.0
 30
0.0
 66
     1
 70
     8
  0
VERTEX
  5
DC
  8
PE-FRONT
 62
     5
 10
489.8052329063397
 20
55.72028428896914
 30
0.0
 70
    32
  0
VERTEX
  5
DD
  8
PE-FRONT
 62
     5
 10
490.1051967177269
 20
56.01696201998887
 30
0.0
 70
    32
  0
VERTEX
  5
DE
  8
PE-FRONT
 62
     5
 10
490.7279872941592
 20
56.58656456201418
 30
0.0
 70
    32
  0
VERTEX
  5
DF
  8
PE-FRONT
 62
     5
 10
491.4018137282513
 20
57.09406118085805
 30
0.0
 70
    32
  0
VERTEX
  5
E0
  8
PE-FRONT
 62
     5
 10
491.7510685920695
 20
57.3306511102582
 30
0.0
 70
    32
  0
SEQEND
  5
E1
  8
PE-FRONT
 62
     5
  0
POLYLINE
  5
E2
  8
PE-FRONT
 62
     5
 10
0.0
 20
0.0
 30
0.0
 66
     1
 70
     8
  0
VERTEX
  5
E3
  8
PE-FRONT
 62
     5
 10
488.9329508781414
 20
57.39774972781191
 30
0.0
 70
    32
  0
VERTEX
  5
E4
  8
PE-FRONT
 62
     5
 10
489.1241585952167
 20
57.14496735106591
 30
0.0
 70
    32
  0
VERTEX
  5
E5
  8
PE-FRONT
 62
     5
 10
489.4574436296971
 20
56.60618259844608
 30
0.0
 70
    32
  0
VERTEX
  5
E6
  8
PE-FRONT
 62
     5
 10
489.7011795549687
 20
56.01989890856278
 30
0.0
 70
    32
  0
VERTEX
  5
E7
  8
PE-FRONT
 62
     5
 10
489.8052329063397
 20
55.72028428896914
 30
0.0
 70
    32
  0
SEQEND
  5
E8
  8
PE-FRONT
 62
     5
  0
POLYLINE
  5
E9
  8
PE-FRONT
 62
     5
 10
0.0
 20
0.0
 30
0.0
 66
     1
 70
     8
  0
VERTEX
  5
EA
  8
PE-FRONT
 62
     5
 10
485.5444949150064
 20
58.53840200289736
 30
0.0
 70
    32
  0
VERTEX
  5
EB
  8
PE-FRONT
 62
     5
 10
486.0050609827328
 20
58.51520940729358
 30
0.0
 70
    32
  0
VERTEX
  5
EC
  8
PE-FRONT
 62
     5
 10
486.8509527617985
 20
58.4265683250152
 30
0.0
 70
    32
  0
VERTEX
  5
ED
  8
PE-FRONT
 62
     5
 10
488.022322039287
 20
58.05335436026317
 30
0.0
 70
    32
  0
VERTEX
  5
EE
  8
PE-FRONT
 62
     5
 10
488.6471558686627
 20
57.63084952209638
 30
0.0
 70
    32
  0
VERTEX
  5
EF
  8
PE-FRONT
 62
     5
 10
488.9329508781414
 20
57.39774972781191
 30
0.0
 70
    32
  0
SEQEND
  5
F0
  8
PE-FRONT
 62
     5
  0
POLYLINE
  5
F1
  8
PE-FRONT
 62
     5
 10
0.0
 20
0.0
 30
0.0
 66
     1
 70
     8
  0
VERTEX
  5
F2
  8
PE-FRONT
 62
     5
 10
482.1225138664227
 20
57.76679212435732
 30
0.0
 70
    32
  0
VERTEX
  5
F3
  8
PE-FRONT
 62
     5
 10
482.6683993334527
 20
57.98712282196695
 30
0.0
 70
    32
  0
VERTEX
  5
F4
  8
PE-FRONT
 62
     5
 10
483.7908420759622
 20
58.34358761882341
 30
0.0
 70
    32
  0
VERTEX
  5
F5
  8
PE-FRONT
 62
     5
 10
484.9568177497548
 20
58.50511673442797
 30
0.0
 70
    32
  0
VERTEX
  5
F6
  8
PE-FRONT
 62
     5
 10
485.5444949150064
 20
58.53840200289736
 30
0.0
 70
    32
  0
SEQEND
  5
F7
  8
PE-FRONT
 62
     5
  0
POLYLINE
  5
F8
  8
PE-FRONT
 62
     5
 10
0.0
 20
0.0
 30
0.0
 66
     1
 70
     8
  0
VERTEX
  5
F9
  8
PE-FRONT
 62
     5
 10
479.9082837104777
 20
56.4248197732831
 30
0.0
 70
    32
  0
VERTEX
  5
FA
  8
PE-FRONT
 62
     5
 10
480.2634885117931
 20
56.67074164662004
 30
0.0
 70
    32
  0
VERTEX
  5
FB
  8
PE-FRONT
 62
     5
 10
480.9857663633993
 20
57.14532109080017
 30
0.0
 70
    32
  0
VERTEX
  5
FC
  8
PE-FRONT
 62
     5
 10
481.737989301929
 20
57.56997776397334
 30
0.0
 70
    32
  0
VERTEX
  5
FD
  8
PE-FRONT
 62
     5
 10
482.1225138664227
 20
57.76679212435732
 30
0.0
 70
    32
  0
SEQEND
  5
FE
  8
PE-FRONT
 62
     5
  0
LINE
  5
FF
  8
PE-FRONT
 62
     5
 10
479.9082837104777
 20
56.4248197732831
 30
0.0
 11
480.5456963539104
 21
58.30355684145937
 31
0.0
  0
LINE
  5
100
  8
PE-FRONT
 62
     5
 10
480.5456963539104
 20
58.30355684145937
 30
0.0
 11
475.1443060874921
 21
58.30355684145937
 31
0.0
  0
LINE
  5
101
  8
PE-FRONT
 62
     5
 10
475.1443060874921
 20
58.30355684145937
 30
0.0
 11
469.9777609825112
 21
43.10586530550967
 31
0.0
  0
LINE
  5
102
  8
PE-FRONT
 62
     5
 10
469.9777609825112
 20
43.10586530550967
 30
0.0
 11
475.3791512489301
 21
43.10586530550967
 31
0.0
  0
LINE
  5
103
  8
PE-FRONT
 62
     5
 10
475.3791512489312
 20
43.10586530551111
 30
0.0
 11
477.9288744926449
 21
50.58728849276697
 31
0.0
  0
POLYLINE
  5
104
  8
PE-FRONT
 62
     5
 10
0.0
 20
0.0
 30
0.0
 66
     1
 70
     8
  0
VERTEX
  5
105
  8
PE-FRONT
 62
     5
 10
478.6166353225688
 20
52.31506578310976
 30
0.0
 70
    32
  0
VERTEX
  5
106
  8
PE-FRONT
 62
     5
 10
478.3585938890701
 20
51.75130716871017
 30
0.0
 70
    32
  0
VERTEX
  5
107
  8
PE-FRONT
 62
     5
 10
478.1265202925268
 20
51.17545492191649
 30
0.0
 70
    32
  0
VERTEX
  5
108
  8
PE-FRONT
 62
     5
 10
477.9560475307176
 20
50.67644051208366
 30
0.0
 70
    32
  0
VERTEX
  5
109
  8
PE-FRONT
 62
     5
 10
477.9288744926434
 20
50.58728849276552
 30
0.0
 70
    32
  0
SEQEND
  5
10A
  8
PE-FRONT
 62
     5
  0
POLYLINE
  5
10B
  8
PE-FRONT
 62
     5
 10
0.0
 20
0.0
 30
0.0
 66
     1
 70
     8
  0
VERTEX
  5
10C
  8
PE-FRONT
 62
     5
 10
479.3379454612713
 20
53.30475828036318
 30
0.0
 70
    32
  0
VERTEX
  5
10D
  8
PE-FRONT
 62
     5
 10
479.1953691010161
 20
53.15749193906494
 30
0.0
 70
    32
  0
VERTEX
  5
10E
  8
PE-FRONT
 62
     5
 10
478.9331373072303
 20
52.84255362750333
 30
0.0
 70
    32
  0
VERTEX
  5
10F
  8
PE-FRONT
 62
     5
 10
478.7157758657665
 20
52.49455180442288
 30
0.0
 70
    32
  0
VERTEX
  5
110
  8
PE-FRONT
 62
     5
 10
478.6166353225688
 20
52.31506578310976
 30
0.0
 70
    32
  0
SEQEND
  5
111
  8
PE-FRONT
 62
     5
  0
POLYLINE
  5
112
  8
PE-FRONT
 62
     5
 10
0.0
 20
0.0
 30
0.0
 66
     1
 70
     8
  0
VERTEX
  5
113
  8
PE-FRONT
 62
     5
 10
481.6528235435468
 20
54.31123754366885
 30
0.0
 70
    32
  0
VERTEX
  5
114
  8
PE-FRONT
 62
     5
 10
481.2250836200653
 20
54.26635840199103
 30
0.0
 70
    32
  0
VERTEX
  5
115
  8
PE-FRONT
 62
     5
 10
480.3946132520123
 20
54.04534108226049
 30
0.0
 70
    32
  0
VERTEX
  5
116
  8
PE-FRONT
 62
     5
 10
479.6679344941179
 20
53.58122670616914
 30
0.0
 70
    32
  0
VERTEX
  5
117
  8
PE-FRONT
 62
     5
 10
479.3379454612713
 20
53.30475828036318
 30
0.0
 70
    32
  0
SEQEND
  5
118
  8
PE-FRONT
 62
     5
  0
POLYLINE
  5
119
  8
PE-FRONT
 62
     5
 10
0.0
 20
0.0
 30
0.0
 66
     1
 70
     8
  0
VERTEX
  5
11A
  8
PE-FRONT
 62
     5
 10
483.2631661415081
 20
53.1370117364789
 30
0.0
 70
    32
  0
VERTEX
  5
11B
  8
PE-FRONT
 62
     5
 10
483.185099219916
 20
53.36595078150499
 30
0.0
 70
    32
  0
VERTEX
  5
11C
  8
PE-FRONT
 62
     5
 10
482.9829456294332
 20
53.7656525106126
 30
0.0
 70
    32
  0
VERTEX
  5
11D
  8
PE-FRONT
 62
     5
 10
482.3905332343321
 20
54.19455169919505
 30
0.0
 70
    32
  0
VERTEX
  5
11E
  8
PE-FRONT
 62
     5
 10
481.9221788283485
 20
54.29004368833226
 30
0.0
 70
    32
  0
VERTEX
  5
11F
  8
PE-FRONT
 62
     5
 10
481.6528235435468
 20
54.31123754366885
 30
0.0
 70
    32
  0
SEQEND
  5
120
  8
PE-FRONT
 62
     5
  0
POLYLINE
  5
121
  8
PE-FRONT
 62
     5
 10
0.0
 20
0.0
 30
0.0
 66
     1
 70
     8
  0
VERTEX
  5
122
  8
PE-FRONT
 62
     5
 10
480.176653957365
 20
43.10586530550967
 30
0.0
 70
    32
  0
VERTEX
  5
123
  8
PE-FRONT
 62
     5
 10
481.0260166285924
 20
45.599861143644
 30
0.0
 70
    32
  0
VERTEX
  5
124
  8
PE-FRONT
 62
     5
 10
482.000373659351
 20
48.47504790971433
 30
0.0
 70
    32
  0
VERTEX
  5
125
  8
PE-FRONT
 62
     5
 10
482.4062234078901
 20
49.6809722869428
 30
0.0
 70
    32
  0
VERTEX
  5
126
  8
PE-FRONT
 62
     5
 10
482.6513061888251
 20
50.41241093756013
 30
0.0
 70
    32
  0
VERTEX
  5
127
  8
PE-FRONT
 62
     5
 10
482.8724816872698
 20
51.07811826402162
 30
0.0
 70
    32
  0
VERTEX
  5
128
  8
PE-FRONT
 62
     5
 10
483.0465080352382
 20
51.62903543718289
 30
0.0
 70
    32
  0
VERTEX
  5
129
  8
PE-FRONT
 62
     5
 10
483.250784604846
 20
52.48362629710265
 30
0.0
 70
    32
  0
VERTEX
  5
12A
  8
PE-FRONT
 62
     5
 10
483.2688827012446
 20
52.95277187593973
 30
0.0
 70
    32
  0
VERTEX
  5
12B
  8
PE-FRONT
 62
     5
 10
483.2631661415081
 20
53.1370117364789
 30
0.0
 70
    32
  0
SEQEND
  5
12C
  8
PE-FRONT
 62
     5
  0
LINE
  5
12D
  8
PE-FRONT
 62
     5
 10
480.176653957365
 20
43.10586530550967
 30
0.0
 11
485.5780442237834
 21
43.10586530550967
 31
0.0
  0
LINE
  5
12E
  8
PE-FRONT
 62
     5
 10
485.5780442237834
 20
43.10586530550967
 30
0.0
 11
488.1277674674969
 21
50.62083780154238
 31
0.0
  0
POLYLINE
  5
12F
  8
PE-FRONT
 62
     5
 10
0.0
 20
0.0
 30
0.0
 66
     1
 70
     8
  0
VERTEX
  5
130
  8
PE-FRONT
 62
     5
 10
489.503289127348
 20
53.17056104525576
 30
0.0
 70
    32
  0
VERTEX
  5
131
  8
PE-FRONT
 62
     5
 10
489.4110591628119
 20
53.05760400444075
 30
0.0
 70
    32
  0
VERTEX
  5
132
  8
PE-FRONT
 62
     5
 10
489.2035335172244
 20
52.7887945694148
 30
0.0
 70
    32
  0
VERTEX
  5
133
  8
PE-FRONT
 62
     5
 10
488.685342126893
 20
51.96858346415389
 30
0.0
 70
    32
  0
VERTEX
  5
134
  8
PE-FRONT
 62
     5
 10
488.2979312684148
 20
51.07600166111662
 30
0.0
 70
    32
  0
VERTEX
  5
135
  8
PE-FRONT
 62
     5
 10
488.1277674674969
 20
50.62083780154238
 30
0.0
 70
    32
  0
SEQEND
  5
136
  8
PE-FRONT
 62
     5
  0
POLYLINE
  5
137
  8
PE-FRONT
 62
     5
 10
0.0
 20
0.0
 30
0.0
 66
     1
 70
     8
  0
VERTEX
  5
138
  8
PE-FRONT
 62
     5
 10
491.9523644447308
 20
54.3447868524457
 30
0.0
 70
    32
  0
VERTEX
  5
139
  8
PE-FRONT
 62
     5
 10
491.8132172340559
 20
54.33156674687369
 30
0.0
 70
    32
  0
VERTEX
  5
13A
  8
PE-FRONT
 62
     5
 10
491.4918030813299
 20
54.28956289712008
 30
0.0
 70
    32
  0
VERTEX
  5
13B
  8
PE-FRONT
 62
     5
 10
490.6044023337021
 20
54.02418837174657
 30
0.0
 70
    32
  0
VERTEX
  5
13C
  8
PE-FRONT
 62
     5
 10
489.8442623558917
 20
53.48612793106868
 30
0.0
 70
    32
  0
VERTEX
  5
13D
  8
PE-FRONT
 62
     5
 10
489.503289127348
 20
53.17056104525576
 30
0.0
 70
    32
  0
SEQEND
  5
13E
  8
PE-FRONT
 62
     5
  0
POLYLINE
  5
13F
  8
PE-FRONT
 62
     5
 10
0.0
 20
0.0
 30
0.0
 66
     1
 70
     8
  0
VERTEX
  5
140
  8
PE-FRONT
 62
     5
 10
493.4285098075849
 20
53.27120897158633
 30
0.0
 70
    32
  0
VERTEX
  5
141
  8
PE-FRONT
 62
     5
 10
493.35879671091
 20
53.4806854043057
 30
0.0
 70
    32
  0
VERTEX
  5
142
  8
PE-FRONT
 62
     5
 10
493.1759920440574
 20
53.84666112932976
 30
0.0
 70
    32
  0
VERTEX
  5
143
  8
PE-FRONT
 62
     5
 10
492.6316694300721
 20
54.23876382878731
 30
0.0
 70
    32
  0
VERTEX
  5
144
  8
PE-FRONT
 62
     5
 10
492.2008637411864
 20
54.32566739648453
 30
0.0
 70
    32
  0
VERTEX
  5
145
  8
PE-FRONT
 62
     5
 10
491.9523644447308
 20
54.3447868524457
 30
0.0
 70
    32
  0
SEQEND
  5
146
  8
PE-FRONT
 62
     5
  0
POLYLINE
  5
147
  8
PE-FRONT
 62
     5
 10
0.0
 20
0.0
 30
0.0
 66
     1
 70
     8
  0
VERTEX
  5
148
  8
PE-FRONT
 62
     5
 10
490.3755711555462
 20
43.10586530550967
 30
0.0
 70
    32
  0
VERTEX
  5
149
  8
PE-FRONT
 62
     5
 10
491.225038841249
 20
45.6110051858355
 30
0.0
 70
    32
  0
VERTEX
  5
14A
  8
PE-FRONT
 62
     5
 10
491.5035849112571
 20
46.43392694870588
 30
0.0
 70
    32
  0
VERTEX
  5
14B
  8
PE-FRONT
 62
     5
 10
492.0486502583798
 20
48.04814329697562
 30
0.0
 70
    32
  0
VERTEX
  5
14C
  8
PE-FRONT
 62
     5
 10
492.1993969205102
 20
48.4957440383832
 30
0.0
 70
    32
  0
VERTEX
  5
14D
  8
PE-FRONT
 62
     5
 10
492.320414766372
 20
48.85550499344579
 30
0.0
 70
    32
  0
VERTEX
  5
14E
  8
PE-FRONT
 62
     5
 10
492.4560662943792
 20
49.25926198957636
 30
0.0
 70
    32
  0
VERTEX
  5
14F
  8
PE-FRONT
 62
     5
 10
492.6253923796395
 20
49.76403689050048
 30
0.0
 70
    32
  0
VERTEX
  5
150
  8
PE-FRONT
 62
     5
 10
492.8732157811414
 20
50.50454553343016
 30
0.0
 70
    32
  0
VERTEX
  5
151
  8
PE-FRONT
 62
     5
 10
493.2465163806934
 20
51.66920443282392
 30
0.0
 70
    32
  0
VERTEX
  5
152
  8
PE-FRONT
 62
     5
 10
493.300811265679
 20
51.8618851124268
 30
0.0
 70
    32
  0
VERTEX
  5
153
  8
PE-FRONT
 62
     5
 10
493.4388899637592
 20
52.55981447424239
 30
0.0
 70
    32
  0
VERTEX
  5
154
  8
PE-FRONT
 62
     5
 10
493.4420595100237
 20
53.06308297215717
 30
0.0
 70
    32
  0
VERTEX
  5
155
  8
PE-FRONT
 62
     5
 10
493.4285098075849
 20
53.27120897158633
 30
0.0
 70
    32
  0
SEQEND
  5
156
  8
PE-FRONT
 62
     5
  0
LINE
  5
157
  8
PE-FRONT
 62
     5
 10
490.3755711555462
 20
43.10586530550967
 30
0.0
 11
495.7769614219646
 21
43.10586530550967
 31
0.0
  0
LINE
  5
158
  8
PE-FRONT
 62
     5
 10
547.2746659278852
 20
43.10586530550967
 30
0.0
 11
551.5353796958905
 21
65.48306047305117
 31
0.0
  0
LINE
  5
159
  8
PE-FRONT
 62
     5
 10
551.5353796958905
 20
65.48306047305117
 30
0.0
 11
545.7314219474771
 21
65.48306047305117
 31
0.0
  0
LINE
  5
15A
  8
PE-FRONT
 62
     5
 10
545.7314219474771
 20
65.48306047305117
 30
0.0
 11
536.8744771003705
 21
53.53960344180117
 31
0.0
  0
LINE
  5
15B
  8
PE-FRONT
 62
     5
 10
536.8744771003705
 20
53.53960344180117
 30
0.0
 11
536.4383360862714
 21
65.48306047305117
 31
0.0
  0
LINE
  5
15C
  8
PE-FRONT
 62
     5
 10
536.4383360862714
 20
65.48306047305117
 30
0.0
 11
530.6679034233072
 21
65.48306047305117
 31
0.0
  0
LINE
  5
15D
  8
PE-FRONT
 62
     5
 10
530.6679034233072
 20
65.48306047305117
 30
0.0
 11
519.2612595558145
 21
43.10586530550967
 31
0.0
  0
LINE
  5
15E
  8
PE-FRONT
 62
     5
 10
519.2612595558145
 20
43.10586530550967
 30
0.0
 11
525.0652173042279
 21
43.10586530550967
 31
0.0
  0
LINE
  5
15F
  8
PE-FRONT
 62
     5
 10
525.0652173042279
 20
43.10586530550967
 30
0.0
 11
531.3388895988443
 21
55.98867875918398
 31
0.0
  0
LINE
  5
160
  8
PE-FRONT
 62
     5
 10
531.3388895988443
 20
55.98867875918398
 30
0.0
 11
532.110523700712
 21
43.10586530550967
 31
0.0
  0
LINE
  5
161
  8
PE-FRONT
 62
     5
 10
532.110523700712
 20
43.10586530550967
 30
0.0
 11
534.4254017829877
 21
43.10586530550967
 31
0.0
  0
LINE
  5
162
  8
PE-FRONT
 62
     5
 10
534.4254017829877
 20
43.10586530550967
 30
0.0
 11
544.1881537437417
 21
55.98867875918398
 31
0.0
  0
LINE
  5
163
  8
PE-FRONT
 62
     5
 10
544.1881537437417
 20
55.98867875918398
 30
0.0
 11
541.4706839561443
 21
43.10586530550967
 31
0.0
  0
LINE
  5
164
  8
PE-FRONT
 62
     5
 10
541.4706839561443
 20
43.10586530550967
 30
0.0
 11
547.2746659278852
 21
43.10586530550967
 31
0.0
  0
POLYLINE
  5
165
  8
PE-FRONT
 62
     5
 10
0.0
 20
0.0
 30
0.0
 66
     1
 70
     8
  0
VERTEX
  5
166
  8
PE-FRONT
 62
     5
 10
563.1601182937604
 20
66.28823177203188
 30
0.0
 70
    32
  0
VERTEX
  5
167
  8
PE-FRONT
 62
     5
 10
563.2661484303804
 20
66.0860879916495
 30
0.0
 70
    32
  0
VERTEX
  5
168
  8
PE-FRONT
 62
     5
 10
563.4382106765053
 20
65.6613753165638
 30
0.0
 70
    32
  0
VERTEX
  5
169
  8
PE-FRONT
 62
     5
 10
563.4844117718595
 20
64.91438726591527
 30
0.0
 70
    32
  0
VERTEX
  5
16A
  8
PE-FRONT
 62
     5
 10
563.3850459856448
 20
64.4116742069358
 30
0.0
 70
    32
  0
VERTEX
  5
16B
  8
PE-FRONT
 62
     5
 10
563.3110901832563
 20
64.14108812197695
 30
0.0
 70
    32
  0
SEQEND
  5
16C
  8
PE-FRONT
 62
     5
  0
POLYLINE
  5
16D
  8
PE-FRONT
 62
     5
 10
0.0
 20
0.0
 30
0.0
 66
     1
 70
     8
  0
VERTEX
  5
16E
  8
PE-FRONT
 62
     5
 10
561.2981558799726
 20
67.1605016885663
 30
0.0
 70
    32
  0
VERTEX
  5
16F
  8
PE-FRONT
 62
     5
 10
561.6534094503916
 20
67.13405087153664
 30
0.0
 70
    32
  0
VERTEX
  5
170
  8
PE-FRONT
 62
     5
 10
562.3494245886467
 20
66.96940476522786
 30
0.0
 70
    32
  0
VERTEX
  5
171
  8
PE-FRONT
 62
     5
 10
562.9220649742805
 20
66.55212820420634
 30
0.0
 70
    32
  0
VERTEX
  5
172
  8
PE-FRONT
 62
     5
 10
563.090670328877
 20
66.37003940810818
 30
0.0
 70
    32
  0
VERTEX
  5
173
  8
PE-FRONT
 62
     5
 10
563.1601182937604
 20
66.28823177203188
 30
0.0
 70
    32
  0
SEQEND
  5
174
  8
PE-FRONT
 62
     5
  0
POLYLINE
  5
175
  8
PE-FRONT
 62
     5
 10
0.0
 20
0.0
 30
0.0
 66
     1
 70
     8
  0
VERTEX
  5
176
  8
PE-FRONT
 62
     5
 10
558.8826177597027
 20
66.28823177203188
 30
0.0
 70
    32
  0
VERTEX
  5
177
  8
PE-FRONT
 62
     5
 10
559.24589257063
 20
66.5269974108206
 30
0.0
 70
    32
  0
VERTEX
  5
178
  8
PE-FRONT
 62
     5
 10
560.0194273878387
 20
66.92653371698155
 30
0.0
 70
    32
  0
VERTEX
  5
179
  8
PE-FRONT
 62
     5
 10
560.8656965968394
 20
67.11942342291928
 30
0.0
 70
    32
  0
VERTEX
  5
17A
  8
PE-FRONT
 62
     5
 10
561.2981558799726
 20
67.1605016885663
 30
0.0
 70
    32
  0
SEQEND
  5
17B
  8
PE-FRONT
 62
     5
  0
POLYLINE
  5
17C
  8
PE-FRONT
 62
     5
 10
0.0
 20
0.0
 30
0.0
 66
     1
 70
     8
  0
VERTEX
  5
17D
  8
PE-FRONT
 62
     5
 10
557.2722630500772
 20
64.14108812197695
 30
0.0
 70
    32
  0
VERTEX
  5
17E
  8
PE-FRONT
 62
     5
 10
557.452434207142
 20
64.55708328700872
 30
0.0
 70
    32
  0
VERTEX
  5
17F
  8
PE-FRONT
 62
     5
 10
557.9075708147165
 20
65.34095672261054
 30
0.0
 70
    32
  0
VERTEX
  5
180
  8
PE-FRONT
 62
     5
 10
558.5362605432297
 20
65.99548608097372
 30
0.0
 70
    32
  0
VERTEX
  5
181
  8
PE-FRONT
 62
     5
 10
558.8826177597027
 20
66.28823177203188
 30
0.0
 70
    32
  0
SEQEND
  5
182
  8
PE-FRONT
 62
     5
  0
POLYLINE
  5
183
  8
PE-FRONT
 62
     5
 10
0.0
 20
0.0
 30
0.0
 66
     1
 70
     8
  0
VERTEX
  5
184
  8
PE-FRONT
 62
     5
 10
557.423234939573
 20
62.01073123797426
 30
0.0
 70
    32
  0
VERTEX
  5
185
  8
PE-FRONT
 62
     5
 10
557.3724164089024
 20
62.10924602942782
 30
0.0
 70
    32
  0
VERTEX
  5
186
  8
PE-FRONT
 62
     5
 10
557.264651533761
 20
62.34207469092509
 30
0.0
 70
    32
  0
VERTEX
  5
187
  8
PE-FRONT
 62
     5
 10
557.0848742316723
 20
63.05253844776755
 30
0.0
 70
    32
  0
VERTEX
  5
188
  8
PE-FRONT
 62
     5
 10
557.174985995337
 20
63.78593757215899
 30
0.0
 70
    32
  0
VERTEX
  5
189
  8
PE-FRONT
 62
     5
 10
557.2722630500772
 20
64.14108812197695
 30
0.0
 70
    32
  0
SEQEND
  5
18A
  8
PE-FRONT
 62
     5
  0
POLYLINE
  5
18B
  8
PE-FRONT
 62
     5
 10
0.0
 20
0.0
 30
0.0
 66
     1
 70
     8
  0
VERTEX
  5
18C
  8
PE-FRONT
 62
     5
 10
559.2516480445844
 20
61.12167455538759
 30
0.0
 70
    32
  0
VERTEX
  5
18D
  8
PE-FRONT
 62
     5
 10
558.9002166327009
 20
61.14987638587387
 30
0.0
 70
    32
  0
VERTEX
  5
18E
  8
PE-FRONT
 62
     5
 10
558.2139377007234
 20
61.32146341480498
 30
0.0
 70
    32
  0
VERTEX
  5
18F
  8
PE-FRONT
 62
     5
 10
557.6546781925796
 20
61.74564951963338
 30
0.0
 70
    32
  0
VERTEX
  5
190
  8
PE-FRONT
 62
     5
 10
557.4908187034887
 20
61.92874662723194
 30
0.0
 70
    32
  0
VERTEX
  5
191
  8
PE-FRONT
 62
     5
 10
557.423234939573
 20
62.01073123797426
 30
0.0
 70
    32
  0
SEQEND
  5
192
  8
PE-FRONT
 62
     5
  0
POLYLINE
  5
193
  8
PE-FRONT
 62
     5
 10
0.0
 20
0.0
 30
0.0
 66
     1
 70
     8
  0
VERTEX
  5
194
  8
PE-FRONT
 62
     5
 10
561.7007354736309
 20
61.99395658358583
 30
0.0
 70
    32
  0
VERTEX
  5
195
  8
PE-FRONT
 62
     5
 10
561.3323978881854
 20
61.7531496425253
 30
0.0
 70
    32
  0
VERTEX
  5
196
  8
PE-FRONT
 62
     5
 10
560.5476089462348
 20
61.3524075388251
 30
0.0
 70
    32
  0
VERTEX
  5
197
  8
PE-FRONT
 62
     5
 10
559.6896280813816
 20
61.16174980761703
 30
0.0
 70
    32
  0
VERTEX
  5
198
  8
PE-FRONT
 62
     5
 10
559.2516480445844
 20
61.12167455538759
 30
0.0
 70
    32
  0
SEQEND
  5
199
  8
PE-FRONT
 62
     5
  0
POLYLINE
  5
19A
  8
PE-FRONT
 62
     5
 10
0.0
 20
0.0
 30
0.0
 66
     1
 70
     8
  0
VERTEX
  5
19B
  8
PE-FRONT
 62
     5
 10
563.3110901832563
 20
64.14108812197695
 30
0.0
 70
    32
  0
VERTEX
  5
19C
  8
PE-FRONT
 62
     5
 10
563.130916952785
 20
63.72509596116764
 30
0.0
 70
    32
  0
VERTEX
  5
19D
  8
PE-FRONT
 62
     5
 10
562.6757776728844
 20
62.9412286587397
 30
0.0
 70
    32
  0
VERTEX
  5
19E
  8
PE-FRONT
 62
     5
 10
562.0470902358495
 20
62.28670223441278
 30
0.0
 70
    32
  0
VERTEX
  5
19F
  8
PE-FRONT
 62
     5
 10
561.7007354736309
 20
61.99395658358583
 30
0.0
 70
    32
  0
SEQEND
  5
1A0
  8
PE-FRONT
 62
     5
  0
LINE
  5
1A1
  8
PE-FRONT
 62
     5
 10
574.0132227897626
 20
43.10586530550967
 30
0.0
 11
582.3669280052166
 21
67.69729062899599
 31
0.0
  0
LINE
  5
1A2
  8
PE-FRONT
 62
     5
 10
582.3669280052166
 20
67.69729062899599
 30
0.0
 11
576.9655377387983
 21
67.69729062899599
 31
0.0
  0
LINE
  5
1A3
  8
PE-FRONT
 62
     5
 10
576.9655377387978
 20
67.69729062899599
 30
0.0
 11
568.611832523344
 21
43.10586530550967
 31
0.0
  0
LINE
  5
1A4
  8
PE-FRONT
 62
     5
 10
568.611832523344
 20
43.10586530550967
 30
0.0
 11
574.0132227897626
 21
43.10586530550967
 31
0.0
  0
LINE
  5
1A5
  8
PE-FRONT
 62
     5
 10
564.9549820899944
 20
43.10586530550967
 30
0.0
 11
573.3086873054483
 21
67.69729062899599
 31
0.0
  0
LINE
  5
1A6
  8
PE-FRONT
 62
     5
 10
573.3086873054486
 20
67.69729062899599
 30
0.0
 11
567.90729703903
 21
67.69729062899599
 31
0.0
  0
LINE
  5
1A7
  8
PE-FRONT
 62
     5
 10
567.90729703903
 20
67.69729062899599
 30
0.0
 11
559.5535918235757
 21
43.10586530550967
 31
0.0
  0
LINE
  5
1A8
  8
PE-FRONT
 62
     5
 10
559.5535918235761
 20
43.10586530550967
 30
0.0
 11
564.9549820899945
 21
43.10586530550967
 31
0.0
  0
LINE
  5
1A9
  8
PE-FRONT
 62
     5
 10
555.8632163047771
 20
43.10586530550967
 30
0.0
 11
561.0297614097577
 21
58.30355684145937
 31
0.0
  0
LINE
  5
1AA
  8
PE-FRONT
 62
     5
 10
561.0297614097577
 20
58.30355684145937
 30
0.0
 11
555.6283711433391
 21
58.30355684145937
 31
0.0
  0
LINE
  5
1AB
  8
PE-FRONT
 62
     5
 10
555.6283711433391
 20
58.30355684145937
 30
0.0
 11
550.4618260383584
 21
43.10586530550967
 31
0.0
  0
LINE
  5
1AC
  8
PE-FRONT
 62
     5
 10
550.4618260383588
 20
43.10586530550967
 30
0.0
 11
555.8632163047771
 21
43.10586530550967
 31
0.0
  0
LINE
  5
1AD
  8
PE-FRONT
 62
     5
 10
523.0858323097211
 20
58.30355684145937
 30
0.0
 11
516.946381473539
 21
58.30355684145937
 31
0.0
  0
LINE
  5
1AE
  8
PE-FRONT
 62
     5
 10
516.946381473539
 20
58.30355684145937
 30
0.0
 11
510.3372160911541
 21
50.52018987521181
 31
0.0
  0
LINE
  5
1AF
  8
PE-FRONT
 62
     5
 10
510.3372160911541
 20
50.52018987521181
 30
0.0
 11
508.9281693458539
 21
58.30355684145937
 31
0.0
  0
LINE
  5
1B0
  8
PE-FRONT
 62
     5
 10
508.9281693458539
 20
58.30355684145937
 30
0.0
 11
502.688046360014
 21
58.30355684145937
 31
0.0
  0
LINE
  5
1B1
  8
PE-FRONT
 62
     5
 10
502.688046360014
 20
58.30355684145937
 30
0.0
 11
505.5732626914958
 21
45.18589822634706
 31
0.0
  0
LINE
  5
1B2
  8
PE-FRONT
 62
     5
 10
505.5732626914958
 20
45.18589822634706
 30
0.0
 11
497.1189095497112
 21
35.49024488314638
 31
0.0
  0
LINE
  5
1B3
  8
PE-FRONT
 62
     5
 10
497.1189095497112
 20
35.49024488314638
 30
0.0
 11
503.1577366828899
 21
35.49024488314638
 31
0.0
  0
LINE
  5
1B4
  8
PE-FRONT
 62
     5
 10
503.1577366828899
 20
35.49024488314638
 30
0.0
 11
523.0858323097211
 21
58.30355684145937
 31
0.0
  0
LINE
  5
1B5
  8
PE-FRONT
 62
     5
 10
467.025446033476
 20
38.87870084628115
 30
0.0
 11
467.6628829002361
 21
40.75743791445742
 31
0.0
  0
LINE
  5
1B6
  8
PE-FRONT
 62
     5
 10
467.6628829002361
 20
40.75743791445742
 30
0.0
 11
450.418707752226
 21
40.75743791445742
 31
0.0
  0
LINE
  5
1B7
  8
PE-FRONT
 62
     5
 10
450.418707752226
 20
40.75743791445742
 30
0.0
 11
449.7812708854653
 21
38.87870084628115
 31
0.0
  0
LINE
  5
1B8
  8
PE-FRONT
 62
     5
 10
449.7812708854653
 20
38.87870084628115
 30
0.0
 11
467.025446033476
 21
38.87870084628115
 31
0.0
  0
CIRCLE
  5
1B9
  8
PE-FRONT
 62
     8
 10
-340.0432524775892
 20
71.40633732737378
 30
0.0
 40
15.0
210
0.0
220
0.0
230
-1.0
  0
CIRCLE
  5
1BA
  8
PE-FRONT
 62
   150
 10
317.2932524775891
 20
94.15633732737365
 30
0.0
 40
4.0
  0
CIRCLE
  5
1BB
  8
PE-FRONT
 62
   150
 10
362.7932524775903
 20
94.15633732737365
 30
0.0
 40
4.0
  0
CIRCLE
  5
1BC
  8
PE-FRONT
 62
   150
 10
317.2932524775891
 20
48.65633732737354
 30
0.0
 40
4.0
  0
CIRCLE
  5
1BD
  8
PE-FRONT
 62
   150
 10
362.7932524775903
 20
48.65633732737354
 30
0.0
 40
4.0
  0
DIMENSION
  5
1BF
  8
DIMENSION
 62
   150
  2
*D1
 10
340.0432524775892
 20
71.40633732737378
 30
0.0
 11
381.0774252713048
 21
72.23753101031024
 31
0.0
 70
    36
  3
RADIALDIM13
 15
355.0401760921744
 25
71.71011701447966
 35
0.0
 40
0.0
  0
DIMENSION
  5
1CB
  8
DIMENSION
 62
   150
  2
*D2
 10
362.7932524775903
 20
94.15633732737365
 30
0.0
 11
389.0118567848782
 21
99.72542100037529
 31
0.0
 70
    36
  3
RADIALDIM14
 15
366.7059597695665
 25
94.98743398078788
 35
0.0
 40
0.0
  0
DIMENSION
  5
1D6
  8
DIMENSION
 62
   150
  2
*D3
 10
680.0000000000015
 20
-31.06613585482926
 30
0.0
 11
340.0000000000007
 21
-31.06613585482926
 31
0.0
 70
    32
  3
ROTATEDDIM15
 13
-0.0000000000000007
 23
0.0
 33
0.0
 14
680.0000000000015
 24
0.0
 34
0.0
  0
DIMENSION
  5
1E5
  8
DIMENSION
 62
   150
  2
*D4
 10
690.0000000000015
 20
-0.0000000000000006
 30
0.0
 11
690.0000000000015
 21
82.5
 31
0.0
 70
    32
  3
ROTATEDDIM16
 13
680.0000000000015
 23
165.0
 33
0.0
 14
680.0000000000015
 24
0.0
 34
0.0
 50
90.0
  0
DIMENSION
  5
1F4
  8
DIMENSION
 62
   150
  2
*D5
 10
198.0000000000009
 20
157.5000000000003
 30
0.0
 11
228.8483298248788
 21
152.5222931464406
 31
0.0
 70
    36
  3
RADIALDIM17
 15
201.4553057088384
 25
156.9424495910912
 35
0.0
 40
0.0
  0
ENDSEC
  0
EOF
