  0
SECTION
  2
HEADER
  9
$ACADVER
  1
AC1009
  9
$DWGCODEPAGE
  3
ansi_1252
  9
$INSBASE
 10
0.0
 20
0.0
 30
0.0
  9
$EXTMIN
 10
-18.19569430049299
 20
-36.28571428571428
 30
-0.0000000058001973
  9
$EXTMAX
 10
1219.071331564727
 20
121.2857100895473
 30
95.37744689235474
  9
$LIMMIN
 10
0.0
 20
0.0
  9
$LIMMAX
 10
420.0
 20
297.0
  9
$ORTHOMODE
 70
     0
  9
$REGENMODE
 70
     1
  9
$FILLMODE
 70
     1
  9
$QTEXTMODE
 70
     0
  9
$MIRRTEXT
 70
     1
  9
$DRAGMODE
 70
     2
  9
$LTSCALE
 40
1.0
  9
$OSMODE
 70
    37
  9
$ATTMODE
 70
     1
  9
$TEXTSIZE
 40
2.5
  9
$TRACEWID
 40
1.0
  9
$TEXTSTYLE
  7
STANDARD
  9
$CLAYER
  8
0
  9
$CELTYPE
  6
BYLAYER
  9
$CECOLOR
 62
   256
  9
$DIMSCALE
 40
1.0
  9
$DIMASZ
 40
2.5
  9
$DIMEXO
 40
0.625
  9
$DIMDLI
 40
3.75
  9
$DIMRND
 40
0.0
  9
$DIMDLE
 40
0.0
  9
$DIMEXE
 40
1.25
  9
$DIMTP
 40
0.0
  9
$DIMTM
 40
0.0
  9
$DIMTXT
 40
2.5
  9
$DIMCEN
 40
2.5
  9
$DIMTSZ
 40
0.0
  9
$DIMTOL
 70
     0
  9
$DIMLIM
 70
     0
  9
$DIMTIH
 70
     0
  9
$DIMTOH
 70
     0
  9
$DIMSE1
 70
     0
  9
$DIMSE2
 70
     0
  9
$DIMTAD
 70
     1
  9
$DIMZIN
 70
     8
  9
$DIMBLK
  1

  9
$DIMASO
 70
     1
  9
$DIMSHO
 70
     1
  9
$DIMPOST
  1

  9
$DIMAPOST
  1

  9
$DIMALT
 70
     0
  9
$DIMALTD
 70
     3
  9
$DIMALTF
 40
0.03937007874016
  9
$DIMLFAC
 40
1.0
  9
$DIMTOFL
 70
     1
  9
$DIMTVP
 40
0.0
  9
$DIMTIX
 70
     0
  9
$DIMSOXD
 70
     0
  9
$DIMSAH
 70
     0
  9
$DIMBLK1
  1

  9
$DIMBLK2
  1

  9
$DIMSTYLE
  2
ISO-25
  9
$DIMCLRD
 70
     0
  9
$DIMCLRE
 70
     0
  9
$DIMCLRT
 70
     0
  9
$DIMTFAC
 40
1.0
  9
$DIMGAP
 40
0.625
  9
$LUNITS
 70
     2
  9
$LUPREC
 70
     4
  9
$SKETCHINC
 40
1.0
  9
$FILLETRAD
 40
10.0
  9
$AUNITS
 70
     0
  9
$AUPREC
 70
     0
  9
$MENU
  1
.
  9
$ELEVATION
 40
0.0
  9
$PELEVATION
 40
0.0
  9
$THICKNESS
 40
0.0
  9
$LIMCHECK
 70
     0
  9
$CHAMFERA
 40
10.0
  9
$CHAMFERB
 40
10.0
  9
$SKPOLY
 70
     0
  9
$TDCREATE
 40
2305814.455104167
  9
$TDUPDATE
 40
2456135.371780637
  9
$TDINDWG
 40
0.0000000116
  9
$TDUSRTIMER
 40
0.0000000116
  9
$USRTIMER
 70
     1
  9
$ANGBASE
 50
0.0
  9
$ANGDIR
 70
     0
  9
$PDMODE
 70
     0
  9
$PDSIZE
 40
0.0
  9
$PLINEWID
 40
0.0
  9
$COORDS
 70
     1
  9
$SPLFRAME
 70
     0
  9
$SPLINETYPE
 70
     6
  9
$SPLINESEGS
 70
     8
  9
$ATTDIA
 70
     0
  9
$ATTREQ
 70
     1
  9
$HANDLING
 70
     1
  9
$HANDSEED
  5
192
  9
$SURFTAB1
 70
     6
  9
$SURFTAB2
 70
     6
  9
$SURFTYPE
 70
     6
  9
$SURFU
 70
     6
  9
$SURFV
 70
     6
  9
$UCSNAME
  2

  9
$UCSORG
 10
0.0
 20
0.0
 30
0.0
  9
$UCSXDIR
 10
1.0
 20
0.0
 30
0.0
  9
$UCSYDIR
 10
0.0
 20
1.0
 30
0.0
  9
$PUCSNAME
  2

  9
$PUCSORG
 10
0.0
 20
0.0
 30
0.0
  9
$PUCSXDIR
 10
1.0
 20
0.0
 30
0.0
  9
$PUCSYDIR
 10
0.0
 20
1.0
 30
0.0
  9
$USERI1
 70
     0
  9
$USERI2
 70
     0
  9
$USERI3
 70
     0
  9
$USERI4
 70
     0
  9
$USERI5
 70
     0
  9
$USERR1
 40
0.0
  9
$USERR2
 40
0.0
  9
$USERR3
 40
0.0
  9
$USERR4
 40
0.0
  9
$USERR5
 40
0.0
  9
$WORLDVIEW
 70
     1
  9
$SHADEDGE
 70
     3
  9
$SHADEDIF
 70
    70
  9
$TILEMODE
 70
     1
  9
$MAXACTVP
 70
    64
  9
$PLIMCHECK
 70
     0
  9
$PEXTMIN
 10
1.000000000000000E+20
 20
1.000000000000000E+20
 30
1.000000000000000E+20
  9
$PEXTMAX
 10
-1.000000000000000E+20
 20
-1.000000000000000E+20
 30
-1.000000000000000E+20
  9
$PLIMMIN
 10
0.0
 20
0.0
  9
$PLIMMAX
 10
420.0
 20
297.0
  9
$UNITMODE
 70
     0
  9
$VISRETAIN
 70
     1
  9
$PLINEGEN
 70
     0
  9
$PSLTSCALE
 70
     1
  0
ENDSEC
  0
SECTION
  2
TABLES
  0
TABLE
  2
VPORT
 70
     1
  0
VPORT
  2
*ACTIVE
 70
     0
 10
0.0
 20
0.0
 11
1.0
 21
1.0
 12
600.4378186321169
 22
30.55826887704501
 13
0.0
 23
0.0
 14
10.0
 24
10.0
 15
10.0
 25
10.0
 16
0.0
 26
0.0
 36
1.0
 17
0.0
 27
0.0
 37
0.0
 40
121.2611304208056
 41
10.36405267608635
 42
50.0
 43
0.0
 44
0.0
 50
0.0
 51
0.0
 71
     0
 72
   100
 73
     1
 74
     3
 75
     0
 76
     0
 77
     0
 78
     0
  0
ENDTAB
  0
TABLE
  2
LTYPE
 70
    11
  0
LTYPE
  2
CONTINUOUS
 70
     0
  3
Solid line
 72
    65
 73
     0
 40
0.0
  0
LTYPE
  2
BORDER
 70
     0
  3
__ __ . __ __ . __ 
 72
    65
 73
     6
 40
0.875
 49
0.25
 49
-0.125
 49
0.25
 49
-0.125
 49
0.0
 49
-0.125
  0
LTYPE
  2
CENTER
 70
     0
  3
___ _ ___ _ ___ _ _
 72
    65
 73
     4
 40
1.125
 49
0.75
 49
-0.125
 49
0.125
 49
-0.125
  0
LTYPE
  2
DASHDOT
 70
     0
  3
_._._._._._._._._._
 72
    65
 73
     4
 40
0.5
 49
0.25
 49
-0.125
 49
0.0
 49
-0.125
  0
LTYPE
  2
DASHED
 70
     0
  3
_ _ _ _ _ _ _ _ _ _
 72
    65
 73
     2
 40
0.375
 49
0.25
 49
-0.125
  0
LTYPE
  2
DIVIDE
 70
     0
  3
__..__..__..__..__.
 72
    65
 73
     6
 40
0.625
 49
0.25
 49
-0.125
 49
0.0
 49
-0.125
 49
0.0
 49
-0.125
  0
LTYPE
  2
DOT
 70
     0
  3
...................
 72
    65
 73
     2
 40
0.125
 49
0.0
 49
-0.125
  0
LTYPE
  2
HIDDEN
 70
     0
  3
__ __ __ __ __ __ _
 72
    65
 73
     2
 40
0.1875
 49
0.125
 49
-0.0625
  0
LTYPE
  2
PHANTOM
 70
     0
  3
___ _ _ ___ _ _ ___
 72
    65
 73
     6
 40
1.25
 49
0.625
 49
-0.125
 49
0.125
 49
-0.125
 49
0.125
 49
-0.125
  0
LTYPE
  2
CUTTING
 70
     0
  3
________ _ _ ______
 72
    65
 73
     6
 40
1.4675
 49
1.0
 49
-0.0725
 49
0.125
 49
-0.0725
 49
0.125
 49
-0.0725
  0
LTYPE
  2
STITCH
 70
     0
  3
_ _ _ _ _ _ _ _ _ _
 72
    65
 73
     2
 40
0.145
 49
0.0725
 49
-0.0725
  0
ENDTAB
  0
TABLE
  2
LAYER
 70
     4
  0
LAYER
  2
0
 70
     0
 62
     7
  6
CONTINUOUS
  0
LAYER
  2
DIMENSION
 70
     0
 62
     7
  6
CONTINUOUS
  0
LAYER
  2
PS
 70
     0
 62
    18
  6
CONTINUOUS
  0
LAYER
  2
DEFPOINTS
 70
     0
 62
     7
  6
CONTINUOUS
  0
ENDTAB
  0
TABLE
  2
STYLE
 70
     1
  0
STYLE
  2
STANDARD
 70
     0
 40
0.0
 41
1.0
 50
0.0
 71
     0
 42
2.5
  3
txt
  4

  0
ENDTAB
  0
TABLE
  2
VIEW
 70
     0
  0
ENDTAB
  0
TABLE
  2
UCS
 70
     0
  0
ENDTAB
  0
TABLE
  2
APPID
 70
     2
  0
APPID
  2
ACAD
 70
     0
  0
APPID
  2
ENCORE_SOFTWARE_VIACAD
 70
     0
  0
ENDTAB
  0
TABLE
  2
DIMSTYLE
 70
     5
  0
DIMSTYLE
  2
ISO-25
 70
     0
  3

  4

  5

  6

  7

 40
1.0
 41
2.5
 42
0.625
 43
3.75
 44
1.25
 45
0.0
 46
0.0
 47
0.0
 48
0.0
140
2.5
141
2.5
142
0.0
143
0.03937007874016
144
1.0
145
0.0
146
1.0
147
0.625
 71
     0
 72
     0
 73
     0
 74
     0
 75
     0
 76
     0
 77
     1
 78
     8
170
     0
171
     3
172
     1
173
     0
174
     0
175
     0
176
     0
177
     0
178
     0
  0
DIMSTYLE
  2
ROTATEDDIM24
 70
     0
  3

  4

  5

  6

  7

 40
1.0
 41
8.105938112967356
 42
2.598057087489537
 43
3.75
 44
6.495142718723842
 45
0.0
 46
0.0
 47
0.0
 48
0.0
140
7.159999847412109
141
2.5
142
0.0
143
0.03937007874016
144
1.0
145
0.0
146
1.0
147
0.625
 71
     0
 72
     0
 73
     0
 74
     0
 75
     0
 76
     0
 77
     0
 78
     8
170
     0
171
     3
172
     1
173
     0
174
     0
175
     0
176
     0
177
     0
178
     0
  0
DIMSTYLE
  2
ROTATEDDIM25
 70
     0
  3

  4

  5

  6

  7

 40
1.0
 41
8.105938112967356
 42
2.598057087489537
 43
3.75
 44
6.495142718723842
 45
0.0
 46
0.0
 47
0.0
 48
0.0
140
7.159999847412109
141
2.5
142
0.0
143
0.03937007874016
144
1.0
145
0.0
146
1.0
147
0.625
 71
     0
 72
     0
 73
     0
 74
     0
 75
     0
 76
     0
 77
     0
 78
     8
170
     0
171
     3
172
     1
173
     0
174
     0
175
     0
176
     0
177
     0
178
     0
  0
DIMSTYLE
  2
RADIALDIM26
 70
     0
  3

  4

  5

  6

  7

 40
1.0
 41
8.105938112967356
 42
2.598057087489537
 43
3.75
 44
6.495142718723842
 45
0.0
 46
0.0
 47
0.0
 48
0.0
140
7.159999847412109
141
2.5
142
0.0
143
0.03937007874016
144
1.0
145
0.0
146
1.0
147
0.625
 71
     0
 72
     0
 73
     0
 74
     0
 75
     0
 76
     0
 77
     0
 78
     8
170
     0
171
     3
172
     1
173
     0
174
     0
175
     0
176
     0
177
     0
178
     0
  0
DIMSTYLE
  2
ROTATEDDIM27
 70
     0
  3

  4

  5

  6

  7

 40
1.0
 41
8.105938112967356
 42
2.598057087489537
 43
3.75
 44
6.495142718723842
 45
0.0
 46
0.0
 47
0.0
 48
0.0
140
7.159999847412109
141
2.5
142
0.0
143
0.03937007874016
144
1.0
145
0.0
146
1.0
147
0.625
 71
     0
 72
     0
 73
     0
 74
     0
 75
     0
 76
     0
 77
     0
 78
     8
170
     0
171
     3
172
     1
173
     0
174
     0
175
     0
176
     0
177
     0
178
     0
  0
ENDTAB
  0
ENDSEC
  0
SECTION
  2
BLOCKS
  0
BLOCK
  8
0
  2
$MODEL_SPACE
 70
     0
 10
0.0
 20
0.0
 30
0.0
  3
$MODEL_SPACE
  1

  0
ENDBLK
  5
21
  8
0
  0
BLOCK
 67
     1
  8
0
  2
$PAPER_SPACE
 70
     0
 10
0.0
 20
0.0
 30
0.0
  3
$PAPER_SPACE
  1

  0
ENDBLK
  5
1D
 67
     1
  8
0
  0
BLOCK
  8
0
  2
*D1
 70
     1
 10
0.0
 20
0.0
 30
0.0
  3
*D1
  1

  0
LINE
  5
156
  8
DIMENSION
 62
     0
 10
1202.597739778799
 20
89.99999744156878
 30
0.0
 11
1216.495045712022
 21
89.99999744156878
 31
0.0
  0
LINE
  5
157
  8
DIMENSION
 62
     0
 10
1202.597960080788
 20
-0.0000000000000002
 30
0.0
 11
1216.495045712022
 21
-0.000000000000001
 31
0.0
  0
LINE
  5
158
  8
DIMENSION
 62
     0
 10
1209.999902993298
 20
81.89405932860143
 30
0.0
 11
1209.999902993298
 21
51.42118907345139
 31
0.0
  0
LINE
  5
159
  8
DIMENSION
 62
     0
 10
1209.999902993298
 20
8.105938112967356
 30
0.0
 11
1209.999902993298
 21
38.57880836811729
 31
0.0
  0
SOLID
  5
15A
  8
DIMENSION
 62
     0
 10
1211.350892678793
 20
81.89405932860143
 30
0.0
 11
1208.648913307803
 21
81.89405932860143
 31
0.0
 12
1209.999902993298
 22
89.99999744156878
 32
0.0
 13
1209.999902993298
 23
89.99999744156878
 33
0.0
  0
SOLID
  5
15B
  8
DIMENSION
 62
     0
 10
1208.648913307803
 20
8.105938112967356
 30
0.0
 11
1211.350892678793
 21
8.105938112967356
 31
0.0
 12
1209.999902993298
 22
-0.0000000000000006
 32
0.0
 13
1209.999902993298
 23
-0.0000000000000006
 33
0.0
  0
TEXT
  5
15C
  8
DIMENSION
  6
CONTINUOUS
 62
     0
 10
1213.579902917004
 20
38.18095124705837
 30
0.0
 40
7.159999847412109
  1
90
 50
90.0
  0
POINT
  5
15D
  8
DEFPOINTS
 62
     0
 10
1199.99968269131
 20
89.99999744156878
 30
0.0
  0
POINT
  5
15E
  8
DEFPOINTS
 62
     0
 10
1199.999902993298
 20
0.0
 30
0.0
  0
POINT
  5
15F
  8
DEFPOINTS
 62
     0
 10
1209.999902993298
 20
-0.0000000000000006
 30
0.0
  0
ENDBLK
  5
161
  8
0
  0
BLOCK
  8
0
  2
*D2
 70
     1
 10
0.0
 20
0.0
 30
0.0
  3
*D2
  1

  0
LINE
  5
165
  8
DIMENSION
 62
     0
 10
0.0
 20
-2.598057087489537
 30
0.0
 11
0.0
 21
-28.88346172138909
 31
0.0
  0
LINE
  5
166
  8
DIMENSION
 62
     0
 10
1199.999902993298
 20
-2.598057087489537
 30
0.0
 11
1199.999902993298
 21
-28.88346172138909
 31
0.0
  0
LINE
  5
167
  8
DIMENSION
 62
     0
 10
8.105938112967356
 20
-22.38831900266525
 30
0.0
 11
587.2711422307857
 21
-22.38831900266525
 31
0.0
  0
LINE
  5
168
  8
DIMENSION
 62
     0
 10
1191.893964880331
 20
-22.38831900266525
 30
0.0
 11
612.7287607625124
 21
-22.38831900266525
 31
0.0
  0
SOLID
  5
169
  8
DIMENSION
 62
     0
 10
8.105938112967356
 20
-21.03732931717069
 30
0.0
 11
8.105938112967356
 21
-23.73930868815981
 31
0.0
 12
0.0
 22
-22.38831900266525
 32
0.0
 13
0.0
 23
-22.38831900266525
 33
0.0
  0
SOLID
  5
16A
  8
DIMENSION
 62
     0
 10
1191.893964880331
 20
-23.73930868815981
 30
0.0
 11
1191.893964880331
 21
-21.03732931717069
 31
0.0
 12
1199.999902993298
 22
-22.38831900266525
 32
0.0
 13
1199.999902993298
 23
-22.38831900266525
 33
0.0
  0
TEXT
  5
16B
  8
DIMENSION
  6
CONTINUOUS
 62
     0
 10
585.850427988668
 20
-25.9683189263713
 30
0.0
 40
7.159999847412109
  1
1200
  0
POINT
  5
16C
  8
DEFPOINTS
 62
     0
 10
0.0
 20
0.0
 30
0.0
  0
POINT
  5
16D
  8
DEFPOINTS
 62
     0
 10
1199.999902993298
 20
0.0
 30
0.0
  0
POINT
  5
16E
  8
DEFPOINTS
 62
     0
 10
1199.999902993298
 20
-22.38831900266525
 30
0.0
  0
ENDBLK
  5
170
  8
0
  0
BLOCK
  8
0
  2
*D3
 70
     1
 10
0.0
 20
0.0
 30
0.0
  3
*D3
  1

  0
LINE
  5
174
  8
DIMENSION
 62
     0
 10
580.1976324157191
 20
45.42887727508551
 30
0.0
 11
588.2969664714835
 21
45.75601722127352
 31
0.0
  0
TEXT
  5
175
  8
DIMENSION
  6
CONTINUOUS
 62
     0
 10
587.6757204008502
 20
42.83046625772229
 30
0.0
 40
7.159999847412109
  1
R2,1
 50
2.312974749442001
  0
LINE
  5
176
  8
DIMENSION
 62
     0
 10
570.0000092686654
 20
45.01698540044448
 30
0.0
 11
572.0982983599547
 21
45.1017373288975
 31
0.0
  0
SOLID
  5
177
  8
DIMENSION
 62
     0
 10
580.1431090913544
 20
46.77876628437958
 30
0.0
 11
580.2521557400838
 21
44.07898826579144
 31
0.0
 12
572.0982983599547
 22
45.1017373288975
 32
0.0
 13
572.0982983599547
 23
45.1017373288975
 33
0.0
  0
POINT
  5
178
  8
DEFPOINTS
 62
     0
 10
572.0982983599547
 20
45.1017373288975
 30
0.0
  0
POINT
  5
179
  8
DEFPOINTS
 62
     0
 10
570.0000092686654
 20
45.01698540044448
 30
0.0
  0
ENDBLK
  5
17B
  8
0
  0
BLOCK
  8
0
  2
*D4
 70
     1
 10
0.0
 20
0.0
 30
0.0
  3
*D4
  1

  0
LINE
  5
17F
  8
DIMENSION
 62
     0
 10
-2.598057087489537
 20
84.999995803833
 30
0.0
 11
-15.61940844778826
 21
84.999995803833
 31
0.0
  0
LINE
  5
180
  8
DIMENSION
 62
     0
 10
-2.598057087489537
 20
0.0000000000000002
 30
0.0
 11
-15.61940844778826
 21
0.000000000000001
 31
0.0
  0
LINE
  5
181
  8
DIMENSION
 62
     0
 10
-9.124265729064414
 20
76.89405769086565
 30
0.0
 11
-9.124265729064415
 21
48.92118825458346
 31
0.0
  0
LINE
  5
182
  8
DIMENSION
 62
     0
 10
-9.124265729064419
 20
8.105938112967356
 30
0.0
 11
-9.124265729064417
 21
36.07880754924957
 31
0.0
  0
SOLID
  5
183
  8
DIMENSION
 62
     0
 10
-7.773276043569854
 20
76.89405769086565
 30
0.0
 11
-10.47525541455897
 21
76.89405769086565
 31
0.0
 12
-9.124265729064414
 22
84.999995803833
 32
0.0
 13
-9.124265729064414
 23
84.999995803833
 33
0.0
  0
SOLID
  5
184
  8
DIMENSION
 62
     0
 10
-10.47525541455898
 20
8.105938112967356
 30
0.0
 11
-7.77327604356986
 21
8.105938112967356
 31
0.0
 12
-9.124265729064419
 22
0.0000000000000006
 32
0.0
 13
-9.124265729064419
 23
0.0000000000000006
 33
0.0
  0
TEXT
  5
185
  8
DIMENSION
  6
CONTINUOUS
 62
     0
 10
-5.544265805358364
 20
35.68095042819068
 30
0.0
 40
7.159999847412109
  1
85
 50
90.0
  0
POINT
  5
186
  8
DEFPOINTS
 62
     0
 10
0.0
 20
84.999995803833
 30
0.0
  0
POINT
  5
187
  8
DEFPOINTS
 62
     0
 10
0.0
 20
0.0
 30
0.0
  0
POINT
  5
188
  8
DEFPOINTS
 62
     0
 10
-9.124265729064419
 20
0.0000000000000006
 30
0.0
  0
ENDBLK
  5
18A
  8
0
  0
ENDSEC
  0
SECTION
  2
ENTITIES
  0
CIRCLE
  5
4C
  8
PS
 62
    18
 10
30.00000926866515
 20
45.01698540044448
 30
0.0
 40
2.1
  0
CIRCLE
  5
4D
  8
PS
 62
    18
 10
90.00000926866522
 20
45.01698540044448
 30
0.0
 40
2.1
  0
CIRCLE
  5
4E
  8
PS
 62
    18
 10
150.0000092686653
 20
45.01698540044448
 30
0.0
 40
2.1
  0
CIRCLE
  5
4F
  8
PS
 62
    18
 10
270.0000092686655
 20
45.01698540044448
 30
0.0
 40
2.1
  0
CIRCLE
  5
50
  8
PS
 62
    18
 10
330.0000092686655
 20
45.01698540044448
 30
0.0
 40
2.1
  0
CIRCLE
  5
51
  8
PS
 62
    18
 10
390.0000092686656
 20
45.01698540044448
 30
0.0
 40
2.1
  0
CIRCLE
  5
52
  8
PS
 62
    18
 10
450.0000092686653
 20
45.01698540044448
 30
0.0
 40
2.1
  0
CIRCLE
  5
53
  8
PS
 62
    18
 10
510.0000092686653
 20
45.01698540044448
 30
0.0
 40
2.1
  0
CIRCLE
  5
54
  8
PS
 62
    18
 10
570.0000092686654
 20
45.01698540044448
 30
0.0
 40
2.1
  0
CIRCLE
  5
55
  8
PS
 62
    18
 10
630.0000092686655
 20
45.01698540044448
 30
0.0
 40
2.1
  0
CIRCLE
  5
56
  8
PS
 62
    18
 10
690.0000092686655
 20
45.01698540044448
 30
0.0
 40
2.1
  0
CIRCLE
  5
57
  8
PS
 62
    18
 10
750.0000092686655
 20
45.01698540044448
 30
0.0
 40
2.1
  0
CIRCLE
  5
58
  8
PS
 62
    18
 10
810.0000092686654
 20
45.01698540044448
 30
0.0
 40
2.1
  0
CIRCLE
  5
59
  8
PS
 62
    18
 10
870.0000092686654
 20
45.01698540044448
 30
0.0
 40
2.1
  0
CIRCLE
  5
5A
  8
PS
 62
    18
 10
930.0000092686655
 20
45.01698540044448
 30
0.0
 40
2.1
  0
CIRCLE
  5
5B
  8
PS
 62
    18
 10
990.0000092686655
 20
45.01698540044448
 30
0.0
 40
2.1
  0
CIRCLE
  5
5C
  8
PS
 62
    18
 10
1050.000009268666
 20
45.01698540044448
 30
0.0
 40
2.1
  0
CIRCLE
  5
5D
  8
PS
 62
    18
 10
1110.000009268666
 20
45.01698540044448
 30
0.0
 40
2.1
  0
CIRCLE
  5
5E
  8
PS
 62
    18
 10
1170.000009268666
 20
45.01698540044448
 30
0.0
 40
2.1
  0
LINE
  5
5F
  8
PS
 62
    18
 10
50.10000000000016
 20
89.99999580383259
 30
0.0
 11
50.10000000000016
 21
85.49999580383289
 31
0.0
  0
LINE
  5
60
  8
PS
 62
    18
 10
357.8571521258078
 20
85.4999994754787
 30
0.0
 11
357.8571521258078
 21
89.99999947547911
 31
0.0
  0
LINE
  5
61
  8
PS
 62
    18
 10
357.8571521258078
 20
89.99999947547911
 30
0.0
 11
332.8571521258077
 21
89.99999947547911
 31
0.0
  0
LINE
  5
62
  8
PS
 62
    18
 10
332.8571521258077
 20
89.99999947547911
 30
0.0
 11
332.8571521258077
 21
85.4999994754787
 31
0.0
  0
ARC
  5
63
  8
PS
 62
    18
 10
332.8571521258077
 20
84.99999947547882
 30
0.0
 40
0.4999999999998863
 50
179.9999999999994
 51
90.0
  0
ARC
  5
64
  8
PS
 62
    18
 10
357.8571521258078
 20
84.99999947547882
 30
0.0
 40
0.5000000000002842
 50
90.0
 51
0.000000000000573
  0
LINE
  5
65
  8
PS
 62
    18
 10
295.25730930742
 20
89.99999581404741
 30
0.0
 11
295.2573091959677
 21
85.49999581404771
 31
0.0
  0
LINE
  5
66
  8
PS
 62
    18
 10
395.4569950556478
 20
85.49999580383289
 30
0.0
 11
395.4569950556478
 21
89.99999580383259
 31
0.0
  0
LINE
  5
67
  8
PS
 62
    18
 10
186.4285806972364
 20
85.4999994754787
 30
0.0
 11
186.4285806972364
 21
89.99999947547911
 31
0.0
  0
LINE
  5
68
  8
PS
 62
    18
 10
186.4285806972364
 20
89.99999947547911
 30
0.0
 11
161.4285806972363
 21
89.99999947547911
 31
0.0
  0
LINE
  5
69
  8
PS
 62
    18
 10
161.4285806972363
 20
89.99999947547911
 30
0.0
 11
161.4285806972363
 21
85.4999994754787
 31
0.0
  0
ARC
  5
6A
  8
PS
 62
    18
 10
161.4285806972363
 20
84.99999947547882
 30
0.0
 40
0.4999999999998863
 50
180.0000000000016
 51
90.0
  0
ARC
  5
6B
  8
PS
 62
    18
 10
186.4285806972364
 20
84.99999947547882
 30
0.0
 40
0.5000000000002274
 50
90.0
 51
359.9999999999984
  0
LINE
  5
6C
  8
PS
 62
    18
 10
123.8287378788486
 20
89.99999580951466
 30
0.0
 11
123.8287377673963
 21
85.49999580951497
 31
0.0
  0
LINE
  5
6D
  8
PS
 62
    18
 10
529.2857235543793
 20
85.4999994754787
 30
0.0
 11
529.2857235543793
 21
89.99999947547911
 31
0.0
  0
LINE
  5
6E
  8
PS
 62
    18
 10
529.2857235543793
 20
89.99999947547911
 30
0.0
 11
504.2857235543792
 21
89.99999947547911
 31
0.0
  0
LINE
  5
6F
  8
PS
 62
    18
 10
504.2857235543792
 20
89.99999947547911
 30
0.0
 11
504.2857235543792
 21
85.4999994754787
 31
0.0
  0
ARC
  5
70
  8
PS
 62
    18
 10
504.2857235543792
 20
84.99999947547882
 30
0.0
 40
0.4999999999998863
 50
180.0000000000016
 51
90.0
  0
ARC
  5
71
  8
PS
 62
    18
 10
529.2857235543793
 20
84.99999947547882
 30
0.0
 40
0.5000000000002274
 50
90.0
 51
359.9999999999984
  0
LINE
  5
72
  8
PS
 62
    18
 10
466.6858807359914
 20
89.99999581537585
 30
0.0
 11
466.6858806245391
 21
85.49999581537617
 31
0.0
  0
LINE
  5
73
  8
PS
 62
    18
 10
566.8855664842192
 20
85.49999580383289
 30
0.0
 11
566.8855664842192
 21
89.99999580383259
 31
0.0
  0
LINE
  5
74
  8
PS
 62
    18
 10
700.7142949829506
 20
85.4999994754787
 30
0.0
 11
700.7142949829506
 21
89.99999947547911
 31
0.0
  0
LINE
  5
75
  8
PS
 62
    18
 10
700.7142949829506
 20
89.99999947547911
 30
0.0
 11
675.7142949829506
 21
89.99999947547911
 31
0.0
  0
LINE
  5
76
  8
PS
 62
    18
 10
675.7142949829506
 20
89.99999947547911
 30
0.0
 11
675.7142949829506
 21
85.4999994754787
 31
0.0
  0
ARC
  5
77
  8
PS
 62
    18
 10
675.7142949829506
 20
84.99999947547882
 30
0.0
 40
0.4999999999998863
 50
180.0000000000016
 51
90.0
  0
ARC
  5
78
  8
PS
 62
    18
 10
700.7142949829506
 20
84.99999947547882
 30
0.0
 40
0.5000000000002274
 50
90.0
 51
0.000000000000573
  0
LINE
  5
79
  8
PS
 62
    18
 10
638.1144521645629
 20
89.9999958121504
 30
0.0
 11
638.1144520531105
 21
85.4999958121507
 31
0.0
  0
LINE
  5
7A
  8
PS
 62
    18
 10
738.3141379127906
 20
85.49999580383289
 30
0.0
 11
738.3141379127906
 21
89.99999580383259
 31
0.0
  0
LINE
  5
7B
  8
PS
 62
    18
 10
872.142866411522
 20
85.4999994754787
 30
0.0
 11
872.142866411522
 21
89.99999947547911
 31
0.0
  0
LINE
  5
7C
  8
PS
 62
    18
 10
872.142866411522
 20
89.99999947547911
 30
0.0
 11
847.1428664115216
 21
89.99999947547911
 31
0.0
  0
LINE
  5
7D
  8
PS
 62
    18
 10
847.1428664115216
 20
89.99999947547911
 30
0.0
 11
847.1428664115216
 21
85.4999994754787
 31
0.0
  0
ARC
  5
7E
  8
PS
 62
    18
 10
847.1428664115216
 20
84.99999947547882
 30
0.0
 40
0.4999999999998863
 50
179.9999999999994
 51
90.0
  0
ARC
  5
7F
  8
PS
 62
    18
 10
872.142866411522
 20
84.99999947547882
 30
0.0
 40
0.4999999999998863
 50
90.0
 51
0.000000000000573
  0
LINE
  5
80
  8
PS
 62
    18
 10
809.543023593134
 20
89.9999958057512
 30
0.0
 11
809.5430234816816
 21
85.49999580575151
 31
0.0
  0
LINE
  5
81
  8
PS
 62
    18
 10
909.7427093413621
 20
85.49999580383289
 30
0.0
 11
909.7427093413621
 21
89.99999580383259
 31
0.0
  0
LINE
  5
82
  8
PS
 62
    18
 10
1043.571437840093
 20
85.4999994754787
 30
0.0
 11
1043.571437840093
 21
89.99999947547911
 31
0.0
  0
LINE
  5
83
  8
PS
 62
    18
 10
1043.571437840093
 20
89.99999947547911
 30
0.0
 11
1018.571437840093
 21
89.99999947547911
 31
0.0
  0
LINE
  5
84
  8
PS
 62
    18
 10
1018.571437840093
 20
89.99999947547911
 30
0.0
 11
1018.571437840093
 21
85.4999994754787
 31
0.0
  0
ARC
  5
85
  8
PS
 62
    18
 10
1018.571437840093
 20
84.99999947547882
 30
0.0
 40
0.4999999999998863
 50
179.9999999999984
 51
89.99999999998697
  0
ARC
  5
86
  8
PS
 62
    18
 10
1043.571437840093
 20
84.99999947547882
 30
0.0
 40
0.5000000000006821
 50
90.0
 51
359.9999999999984
  0
LINE
  5
87
  8
PS
 62
    18
 10
980.9715950217056
 20
89.99999580943313
 30
0.0
 11
980.9715949102534
 21
85.49999580943343
 31
0.0
  0
LINE
  5
88
  8
PS
 62
    18
 10
1081.171280769933
 20
85.49999580383289
 30
0.0
 11
1081.171280769933
 21
89.99999580383259
 31
0.0
  0
LINE
  5
89
  8
PS
 62
    18
 10
224.0284237385287
 20
89.99999580098212
 30
0.0
 11
224.0284236270764
 21
85.49999580098242
 31
0.0
  0
LINE
  5
8A
  8
PS
 62
    18
 10
1149.899681946651
 20
89.99999744394819
 30
0.0
 11
1149.899681946651
 21
85.4999974439485
 31
0.0
  0
CIRCLE
  5
8B
  8
PS
 62
    18
 10
210.0000092686646
 20
45.01699143605258
 30
0.0
 40
2.1
  0
ARC
  5
8C
  8
PS
 62
    18
 10
29.900006979847
 20
30.09999872595021
 30
0.0
 40
0.5000000000000675
 50
0.000000000000573
 51
270.0
  0
ARC
  5
8D
  8
PS
 62
    18
 10
29.900006979847
 20
24.89999872595022
 30
0.0
 40
0.4999999999999787
 50
90.0
 51
0.000000000000573
  0
ARC
  5
8E
  8
PS
 62
    18
 10
55.10000697984704
 20
30.09999872595021
 30
0.0
 40
0.5000000000000213
 50
270.0
 51
179.9999999999994
  0
ARC
  5
8F
  8
PS
 62
    18
 10
55.10000697984704
 20
24.89999872595022
 30
0.0
 40
0.500000000000064
 50
179.9999999999994
 51
90.0
  0
LINE
  5
90
  8
PS
 62
    18
 10
29.900006979847
 20
29.59999872595023
 30
0.0
 11
29.900006979847
 21
25.3999987259502
 31
0.0
  0
LINE
  5
91
  8
PS
 62
    18
 10
30.40000697984707
 20
30.09999872595021
 30
0.0
 11
54.60000697984698
 21
30.09999872595021
 31
0.0
  0
LINE
  5
92
  8
PS
 62
    18
 10
55.10000697984704
 20
25.3999987259502
 30
0.0
 11
55.10000697984704
 21
29.59999872595019
 31
0.0
  0
LINE
  5
93
  8
PS
 62
    18
 10
30.40000697984707
 20
24.89999872595022
 30
0.0
 11
54.60000697984698
 21
24.89999872595022
 31
0.0
  0
ARC
  5
94
  8
PS
 62
    18
 10
201.3285781397537
 20
30.09999872595057
 30
0.0
 40
0.5000000000000568
 50
0.000000000000573
 51
270.0
  0
ARC
  5
95
  8
PS
 62
    18
 10
201.3285781397537
 20
24.89999872595058
 30
0.0
 40
0.4999999999999751
 50
90.0
 51
0.000000000000573
  0
ARC
  5
96
  8
PS
 62
    18
 10
226.5285781397537
 20
30.09999872595057
 30
0.0
 40
0.5000000000000213
 50
270.0
 51
179.9999999999994
  0
ARC
  5
97
  8
PS
 62
    18
 10
226.5285781397537
 20
24.89999872595058
 30
0.0
 40
0.5000000000000853
 50
179.9999999999994
 51
90.0
  0
LINE
  5
98
  8
PS
 62
    18
 10
201.3285781397537
 20
29.5999987259506
 30
0.0
 11
201.3285781397537
 21
25.39999872595056
 31
0.0
  0
LINE
  5
99
  8
PS
 62
    18
 10
201.8285781397537
 20
30.09999872595057
 30
0.0
 11
226.0285781397536
 21
30.09999872595057
 31
0.0
  0
LINE
  5
9A
  8
PS
 62
    18
 10
226.5285781397537
 20
25.39999872595056
 30
0.0
 11
226.5285781397537
 21
29.59999872595055
 31
0.0
  0
LINE
  5
9B
  8
PS
 62
    18
 10
201.8285781397537
 20
24.89999872595058
 30
0.0
 11
226.0285781397536
 21
24.89999872595058
 31
0.0
  0
ARC
  5
9C
  8
PS
 62
    18
 10
372.7571495683251
 20
30.09999872595057
 30
0.0
 40
0.5000000000001137
 50
0.000000000000573
 51
270.0
  0
ARC
  5
9D
  8
PS
 62
    18
 10
372.7571495683251
 20
24.89999872595058
 30
0.0
 40
0.4999999999999751
 50
90.0
 51
0.000000000000573
  0
ARC
  5
9E
  8
PS
 62
    18
 10
397.9571495683251
 20
30.09999872595057
 30
0.0
 40
0.5000000000000213
 50
270.0
 51
179.9999999999994
  0
ARC
  5
9F
  8
PS
 62
    18
 10
397.9571495683251
 20
24.89999872595058
 30
0.0
 40
0.5000000000000568
 50
179.9999999999994
 51
90.0
  0
LINE
  5
A0
  8
PS
 62
    18
 10
372.7571495683251
 20
29.5999987259506
 30
0.0
 11
372.7571495683251
 21
25.39999872595056
 31
0.0
  0
LINE
  5
A1
  8
PS
 62
    18
 10
373.2571495683252
 20
30.09999872595057
 30
0.0
 11
397.4571495683251
 21
30.09999872595057
 31
0.0
  0
LINE
  5
A2
  8
PS
 62
    18
 10
397.9571495683251
 20
25.39999872595056
 30
0.0
 11
397.9571495683251
 21
29.59999872595055
 31
0.0
  0
LINE
  5
A3
  8
PS
 62
    18
 10
373.2571495683252
 20
24.89999872595058
 30
0.0
 11
397.4571495683251
 21
24.89999872595058
 31
0.0
  0
ARC
  5
A4
  8
PS
 62
    18
 10
544.1857209968965
 20
30.09999872595057
 30
0.0
 40
0.5000000000001137
 50
0.000000000000573
 51
270.0
  0
ARC
  5
A5
  8
PS
 62
    18
 10
544.1857209968965
 20
24.89999872595058
 30
0.0
 40
0.4999999999999751
 50
90.0
 51
0.000000000000573
  0
ARC
  5
A6
  8
PS
 62
    18
 10
569.3857209968966
 20
30.09999872595057
 30
0.0
 40
0.5000000000000213
 50
270.0
 51
179.9999999999994
  0
ARC
  5
A7
  8
PS
 62
    18
 10
569.3857209968966
 20
24.89999872595058
 30
0.0
 40
0.5000000000001137
 50
179.9999999999994
 51
90.0
  0
LINE
  5
A8
  8
PS
 62
    18
 10
544.1857209968965
 20
29.5999987259506
 30
0.0
 11
544.1857209968965
 21
25.39999872595056
 31
0.0
  0
LINE
  5
A9
  8
PS
 62
    18
 10
544.6857209968966
 20
30.09999872595057
 30
0.0
 11
568.8857209968965
 21
30.09999872595057
 31
0.0
  0
LINE
  5
AA
  8
PS
 62
    18
 10
569.3857209968966
 20
25.39999872595056
 30
0.0
 11
569.3857209968966
 21
29.59999872595055
 31
0.0
  0
LINE
  5
AB
  8
PS
 62
    18
 10
544.6857209968966
 20
24.89999872595058
 30
0.0
 11
568.8857209968965
 21
24.89999872595058
 31
0.0
  0
ARC
  5
AC
  8
PS
 62
    18
 10
715.6222298960431
 20
30.09999872595057
 30
0.0
 40
0.4999999999998863
 50
0.000000000000573
 51
270.0
  0
ARC
  5
AD
  8
PS
 62
    18
 10
715.6222298960431
 20
24.89999872595058
 30
0.0
 40
0.4999999999999751
 50
90.0
 51
0.000000000000573
  0
ARC
  5
AE
  8
PS
 62
    18
 10
740.8222298960432
 20
30.09999872595057
 30
0.0
 40
0.5000000000000213
 50
270.0
 51
179.9999999999994
  0
ARC
  5
AF
  8
PS
 62
    18
 10
740.8222298960432
 20
24.89999872595058
 30
0.0
 40
0.5000000000002274
 50
179.9999999999994
 51
90.0
  0
LINE
  5
B0
  8
PS
 62
    18
 10
715.6222298960431
 20
29.5999987259506
 30
0.0
 11
715.6222298960431
 21
25.39999872595056
 31
0.0
  0
LINE
  5
B1
  8
PS
 62
    18
 10
716.122229896043
 20
30.09999872595057
 30
0.0
 11
740.3222298960429
 21
30.09999872595057
 31
0.0
  0
LINE
  5
B2
  8
PS
 62
    18
 10
740.8222298960432
 20
25.39999872595056
 30
0.0
 11
740.8222298960432
 21
29.59999872595055
 31
0.0
  0
LINE
  5
B3
  8
PS
 62
    18
 10
716.122229896043
 20
24.89999872595058
 30
0.0
 11
740.3222298960429
 21
24.89999872595058
 31
0.0
  0
ARC
  5
B4
  8
PS
 62
    18
 10
887.0428638540392
 20
30.09999872595057
 30
0.0
 40
0.4999999999998863
 50
0.000000000000573
 51
270.0
  0
ARC
  5
B5
  8
PS
 62
    18
 10
887.0428638540392
 20
24.89999872595058
 30
0.0
 40
0.4999999999999751
 50
90.0
 51
0.000000000000573
  0
ARC
  5
B6
  8
PS
 62
    18
 10
912.2428638540392
 20
30.09999872595057
 30
0.0
 40
0.5000000000000213
 50
270.0
 51
179.9999999999994
  0
ARC
  5
B7
  8
PS
 62
    18
 10
912.2428638540392
 20
24.89999872595058
 30
0.0
 40
0.4999999999998863
 50
179.9999999999994
 51
90.0
  0
LINE
  5
B8
  8
PS
 62
    18
 10
887.0428638540392
 20
29.5999987259506
 30
0.0
 11
887.0428638540392
 21
25.39999872595056
 31
0.0
  0
LINE
  5
B9
  8
PS
 62
    18
 10
887.5428638540391
 20
30.09999872595057
 30
0.0
 11
911.7428638540393
 21
30.09999872595057
 31
0.0
  0
LINE
  5
BA
  8
PS
 62
    18
 10
912.2428638540392
 20
25.39999872595056
 30
0.0
 11
912.2428638540392
 21
29.59999872595055
 31
0.0
  0
LINE
  5
BB
  8
PS
 62
    18
 10
887.5428638540391
 20
24.89999872595058
 30
0.0
 11
911.7428638540393
 21
24.89999872595058
 31
0.0
  0
ARC
  5
BC
  8
PS
 62
    18
 10
1058.471435282611
 20
30.09999872595057
 30
0.0
 40
0.4999999999997726
 50
0.000000000000573
 51
270.0
  0
ARC
  5
BD
  8
PS
 62
    18
 10
1058.471435282611
 20
24.89999872595058
 30
0.0
 40
0.4999999999999751
 50
90.0
 51
0.000000000000573
  0
ARC
  5
BE
  8
PS
 62
    18
 10
1083.671435282611
 20
30.09999872595057
 30
0.0
 40
0.5000000000000213
 50
270.0
 51
179.9999999999994
  0
ARC
  5
BF
  8
PS
 62
    18
 10
1083.671435282611
 20
24.89999872595058
 30
0.0
 40
0.5
 50
179.9999999999994
 51
90.0
  0
LINE
  5
C0
  8
PS
 62
    18
 10
1058.471435282611
 20
29.5999987259506
 30
0.0
 11
1058.471435282611
 21
25.39999872595056
 31
0.0
  0
LINE
  5
C1
  8
PS
 62
    18
 10
1058.97143528261
 20
30.09999872595057
 30
0.0
 11
1083.171435282611
 21
30.09999872595057
 31
0.0
  0
LINE
  5
C2
  8
PS
 62
    18
 10
1083.671435282611
 20
25.39999872595056
 30
0.0
 11
1083.671435282611
 21
29.59999872595055
 31
0.0
  0
LINE
  5
C3
  8
PS
 62
    18
 10
1058.97143528261
 20
24.89999872595058
 30
0.0
 11
1083.171435282611
 21
24.89999872595058
 31
0.0
  0
ARC
  5
C4
  8
PS
 62
    18
 10
1144.899997711183
 20
30.09999872595057
 30
0.0
 40
0.4999999999997726
 50
0.000000000000573
 51
270.0
  0
ARC
  5
C5
  8
PS
 62
    18
 10
1144.899997711183
 20
24.89999872595058
 30
0.0
 40
0.4999999999999751
 50
90.0
 51
0.000000000000573
  0
ARC
  5
C6
  8
PS
 62
    18
 10
1170.099997711183
 20
30.09999872595057
 30
0.0
 40
0.5000000000000213
 50
270.0
 51
179.9999999999994
  0
ARC
  5
C7
  8
PS
 62
    18
 10
1170.099997711183
 20
24.89999872595058
 30
0.0
 40
0.5000000000006821
 50
179.9999999999994
 51
90.0
  0
LINE
  5
C8
  8
PS
 62
    18
 10
1144.899997711183
 20
29.5999987259506
 30
0.0
 11
1144.899997711183
 21
25.39999872595056
 31
0.0
  0
LINE
  5
C9
  8
PS
 62
    18
 10
1145.399997711183
 20
30.09999872595057
 30
0.0
 11
1169.599997711182
 21
30.09999872595057
 31
0.0
  0
LINE
  5
CA
  8
PS
 62
    18
 10
1170.099997711183
 20
25.39999872595056
 30
0.0
 11
1170.099997711183
 21
29.59999872595055
 31
0.0
  0
LINE
  5
CB
  8
PS
 62
    18
 10
1145.399997711183
 20
24.89999872595058
 30
0.0
 11
1169.599997711182
 21
24.89999872595058
 31
0.0
  0
ARC
  5
CC
  8
PS
 62
    18
 10
1194.899682011365
 20
32.40000137785515
 30
0.0
 40
0.4999999999998863
 50
90.0
 51
359.9999999999789
  0
ARC
  5
CD
  8
PS
 62
    18
 10
1194.899682011365
 20
57.60000137785519
 30
0.0
 40
0.5
 50
359.9999999999789
 51
270.0
  0
LINE
  5
CE
  8
PS
 62
    18
 10
1194.899682011365
 20
32.90000137785503
 30
0.0
 11
1194.899682011365
 21
57.10000137785494
 31
0.0
  0
ARC
  5
CF
  8
PS
 62
    18
 10
1028.471437840077
 20
85.09999085281666
 30
-0.0000000058001973
 40
0.5000000000006821
 50
0.000000000000573
 51
270.0
  0
ARC
  5
D0
  8
PS
 62
    18
 10
1033.671437840078
 20
85.09999085281666
 30
-0.0000000058001973
 40
0.500000000000071
 50
270.0
 51
179.9999999999994
  0
ARC
  5
D1
  8
PS
 62
    18
 10
1028.471437840077
 20
64.89999085281664
 30
-0.0000000058001973
 40
0.500000000000071
 50
90.0
 51
0.000000000000573
  0
ARC
  5
D2
  8
PS
 62
    18
 10
1033.671437840078
 20
64.89999085281664
 30
-0.0000000058001973
 40
0.5
 50
179.9999999999994
 51
90.0
  0
LINE
  5
D3
  8
PS
 62
    18
 10
1028.971437840078
 20
85.09999085281666
 30
-0.0000000058001973
 11
1033.171437840078
 21
85.09999085281666
 31
-0.0000000058001973
  0
LINE
  5
D4
  8
PS
 62
    18
 10
1028.471437840077
 20
84.59999085281659
 30
-0.0000000058001973
 11
1028.471437840077
 21
65.39999085281671
 31
-0.0000000058001973
  0
LINE
  5
D5
  8
PS
 62
    18
 10
1033.671437840078
 20
65.39999085281671
 30
-0.0000000058001973
 11
1033.671437840078
 21
84.59999085281659
 31
-0.0000000058001973
  0
LINE
  5
D6
  8
PS
 62
    18
 10
1028.971437840078
 20
64.89999085281664
 30
-0.0000000058001973
 11
1033.171437840078
 21
64.89999085281664
 31
-0.0000000058001973
  0
ARC
  5
D7
  8
PS
 62
    18
 10
857.0428664115075
 20
85.1000080974113
 30
-0.0000000058001973
 40
0.5000000000005684
 50
0.000000000000573
 51
270.0
  0
ARC
  5
D8
  8
PS
 62
    18
 10
862.2428664115077
 20
85.1000080974113
 30
-0.0000000058001973
 40
0.500000000000071
 50
270.0
 51
179.9999999999994
  0
ARC
  5
D9
  8
PS
 62
    18
 10
857.0428664115075
 20
64.90000809741129
 30
-0.0000000058001973
 40
0.500000000000071
 50
90.0
 51
0.000000000000573
  0
ARC
  5
DA
  8
PS
 62
    18
 10
862.2428664115077
 20
64.90000809741129
 30
-0.0000000058001973
 40
0.4999999999998863
 50
179.9999999999994
 51
90.0
  0
LINE
  5
DB
  8
PS
 62
    18
 10
857.542866411508
 20
85.1000080974113
 30
-0.0000000058001973
 11
861.7428664115079
 21
85.1000080974113
 31
-0.0000000058001973
  0
LINE
  5
DC
  8
PS
 62
    18
 10
857.0428664115075
 20
84.60000809741123
 30
-0.0000000058001973
 11
857.0428664115075
 21
65.40000809741136
 31
-0.0000000058001973
  0
LINE
  5
DD
  8
PS
 62
    18
 10
862.2428664115077
 20
65.40000809741136
 30
-0.0000000058001973
 11
862.2428664115077
 21
84.60000809741123
 31
-0.0000000058001973
  0
LINE
  5
DE
  8
PS
 62
    18
 10
857.542866411508
 20
64.90000809741129
 30
-0.0000000058001973
 11
861.7428664115079
 21
64.90000809741129
 31
-0.0000000058001973
  0
ARC
  5
DF
  8
PS
 62
    18
 10
1028.471437840079
 20
20.10000809741129
 30
-0.0000000058001973
 40
0.5000000000006821
 50
0.000000000000573
 51
270.0
  0
ARC
  5
E0
  8
PS
 62
    18
 10
1033.671437840079
 20
20.10000809741129
 30
-0.0000000058001973
 40
0.5000000000000675
 50
270.0
 51
179.9999999999994
  0
LINE
  5
E1
  8
PS
 62
    18
 10
1028.971437840079
 20
20.10000809741129
 30
-0.0000000058001973
 11
1033.171437840079
 21
20.10000809741129
 31
-0.0000000058001973
  0
ARC
  5
E2
  8
PS
 62
    18
 10
857.0428664115075
 20
20.10000809741129
 30
-0.0000000058001973
 40
0.5000000000005684
 50
0.000000000000573
 51
270.0
  0
ARC
  5
E3
  8
PS
 62
    18
 10
862.2428664115077
 20
20.10000809741129
 30
-0.0000000058001973
 40
0.5000000000000675
 50
270.0
 51
179.9999999999994
  0
LINE
  5
E4
  8
PS
 62
    18
 10
857.542866411508
 20
20.10000809741129
 30
-0.0000000058001973
 11
861.7428664115079
 21
20.10000809741129
 31
-0.0000000058001973
  0
ARC
  5
E5
  8
PS
 62
    18
 10
685.6142949829359
 20
85.1000080974113
 30
-0.0000000058001973
 40
0.4999999999998863
 50
0.000000000000573
 51
270.0
  0
ARC
  5
E6
  8
PS
 62
    18
 10
690.8142949829358
 20
85.1000080974113
 30
-0.0000000058001973
 40
0.500000000000071
 50
270.0
 51
179.9999999999994
  0
ARC
  5
E7
  8
PS
 62
    18
 10
685.6142949829359
 20
64.90000809741129
 30
-0.0000000058001973
 40
0.500000000000071
 50
90.0
 51
0.000000000000573
  0
ARC
  5
E8
  8
PS
 62
    18
 10
690.8142949829358
 20
64.90000809741129
 30
-0.0000000058001973
 40
0.4999999999998863
 50
179.9999999999994
 51
90.0
  0
LINE
  5
E9
  8
PS
 62
    18
 10
686.1142949829358
 20
85.1000080974113
 30
-0.0000000058001973
 11
690.314294982936
 21
85.1000080974113
 31
-0.0000000058001973
  0
LINE
  5
EA
  8
PS
 62
    18
 10
685.6142949829359
 20
84.60000809741123
 30
-0.0000000058001973
 11
685.6142949829359
 21
65.40000809741136
 31
-0.0000000058001973
  0
LINE
  5
EB
  8
PS
 62
    18
 10
690.8142949829358
 20
65.40000809741136
 30
-0.0000000058001973
 11
690.8142949829358
 21
84.60000809741123
 31
-0.0000000058001973
  0
LINE
  5
EC
  8
PS
 62
    18
 10
686.1142949829358
 20
64.90000809741129
 30
-0.0000000058001973
 11
690.314294982936
 21
64.90000809741129
 31
-0.0000000058001973
  0
ARC
  5
ED
  8
PS
 62
    18
 10
514.1857235543649
 20
85.1000080974113
 30
-0.0000000058001973
 40
0.5000000000001137
 50
0.000000000000573
 51
270.0
  0
ARC
  5
EE
  8
PS
 62
    18
 10
519.3857235543651
 20
85.1000080974113
 30
-0.0000000058001973
 40
0.500000000000071
 50
270.0
 51
179.9999999999994
  0
ARC
  5
EF
  8
PS
 62
    18
 10
514.1857235543649
 20
64.90000809741129
 30
-0.0000000058001973
 40
0.500000000000071
 50
90.0
 51
0.000000000000573
  0
ARC
  5
F0
  8
PS
 62
    18
 10
519.3857235543651
 20
64.90000809741129
 30
-0.0000000058001973
 40
0.5000000000001137
 50
179.9999999999994
 51
90.0
  0
LINE
  5
F1
  8
PS
 62
    18
 10
514.685723554365
 20
85.1000080974113
 30
-0.0000000058001973
 11
518.885723554365
 21
85.1000080974113
 31
-0.0000000058001973
  0
LINE
  5
F2
  8
PS
 62
    18
 10
514.1857235543649
 20
84.60000809741123
 30
-0.0000000058001973
 11
514.1857235543649
 21
65.40000809741136
 31
-0.0000000058001973
  0
LINE
  5
F3
  8
PS
 62
    18
 10
519.3857235543651
 20
65.40000809741136
 30
-0.0000000058001973
 11
519.3857235543651
 21
84.60000809741123
 31
-0.0000000058001973
  0
LINE
  5
F4
  8
PS
 62
    18
 10
514.685723554365
 20
64.90000809741129
 30
-0.0000000058001973
 11
518.885723554365
 21
64.90000809741129
 31
-0.0000000058001973
  0
ARC
  5
F5
  8
PS
 62
    18
 10
514.1857235543649
 20
20.10000809741129
 30
-0.0000000058001973
 40
0.5000000000001137
 50
0.000000000000573
 51
270.0
  0
ARC
  5
F6
  8
PS
 62
    18
 10
519.3857235543651
 20
20.10000809741129
 30
-0.0000000058001973
 40
0.5000000000000675
 50
270.0
 51
179.9999999999994
  0
LINE
  5
F7
  8
PS
 62
    18
 10
514.685723554365
 20
20.10000809741129
 30
-0.0000000058001973
 11
518.885723554365
 21
20.10000809741129
 31
-0.0000000058001973
  0
ARC
  5
F8
  8
PS
 62
    18
 10
342.7571521257939
 20
85.1000080974113
 30
-0.0000000058001973
 40
0.5000000000001137
 50
0.000000000000573
 51
270.0
  0
ARC
  5
F9
  8
PS
 62
    18
 10
347.957152125794
 20
85.1000080974113
 30
-0.0000000058001973
 40
0.500000000000071
 50
270.0
 51
179.9999999999994
  0
ARC
  5
FA
  8
PS
 62
    18
 10
342.7571521257939
 20
64.90000809741129
 30
-0.0000000058001973
 40
0.500000000000071
 50
90.0
 51
0.000000000000573
  0
ARC
  5
FB
  8
PS
 62
    18
 10
347.957152125794
 20
64.90000809741129
 30
-0.0000000058001973
 40
0.5000000000000568
 50
179.9999999999994
 51
90.0
  0
LINE
  5
FC
  8
PS
 62
    18
 10
343.257152125794
 20
85.1000080974113
 30
-0.0000000058001973
 11
347.4571521257939
 21
85.1000080974113
 31
-0.0000000058001973
  0
LINE
  5
FD
  8
PS
 62
    18
 10
342.7571521257939
 20
84.60000809741123
 30
-0.0000000058001973
 11
342.7571521257939
 21
65.40000809741136
 31
-0.0000000058001973
  0
LINE
  5
FE
  8
PS
 62
    18
 10
347.957152125794
 20
65.40000809741136
 30
-0.0000000058001973
 11
347.957152125794
 21
84.60000809741123
 31
-0.0000000058001973
  0
LINE
  5
FF
  8
PS
 62
    18
 10
343.257152125794
 20
64.90000809741129
 30
-0.0000000058001973
 11
347.4571521257939
 21
64.90000809741129
 31
-0.0000000058001973
  0
ARC
  5
100
  8
PS
 62
    18
 10
171.3285806972221
 20
85.1000080974113
 30
-0.0000000058001973
 40
0.5000000000000568
 50
0.000000000000573
 51
270.0
  0
ARC
  5
101
  8
PS
 62
    18
 10
176.5285806972222
 20
85.1000080974113
 30
-0.0000000058001973
 40
0.500000000000071
 50
270.0
 51
179.9999999999994
  0
ARC
  5
102
  8
PS
 62
    18
 10
171.3285806972221
 20
64.90000809741129
 30
-0.0000000058001973
 40
0.500000000000071
 50
90.0
 51
0.000000000000573
  0
ARC
  5
103
  8
PS
 62
    18
 10
176.5285806972222
 20
64.90000809741129
 30
-0.0000000058001973
 40
0.5000000000000568
 50
179.9999999999994
 51
90.0
  0
LINE
  5
104
  8
PS
 62
    18
 10
171.8285806972222
 20
85.1000080974113
 30
-0.0000000058001973
 11
176.0285806972221
 21
85.1000080974113
 31
-0.0000000058001973
  0
LINE
  5
105
  8
PS
 62
    18
 10
171.3285806972221
 20
84.60000809741123
 30
-0.0000000058001973
 11
171.3285806972221
 21
65.40000809741136
 31
-0.0000000058001973
  0
LINE
  5
106
  8
PS
 62
    18
 10
176.5285806972222
 20
65.40000809741136
 30
-0.0000000058001973
 11
176.5285806972222
 21
84.60000809741123
 31
-0.0000000058001973
  0
LINE
  5
107
  8
PS
 62
    18
 10
171.8285806972222
 20
64.90000809741129
 30
-0.0000000058001973
 11
176.0285806972221
 21
64.90000809741129
 31
-0.0000000058001973
  0
ARC
  5
108
  8
PS
 62
    18
 10
171.3285806972225
 20
20.10000809741129
 30
-0.0000000058001973
 40
0.5000000000000568
 50
0.000000000000573
 51
270.0
  0
ARC
  5
109
  8
PS
 62
    18
 10
176.5285806972226
 20
20.10000809741129
 30
-0.0000000058001973
 40
0.5000000000000675
 50
270.0
 51
179.9999999999994
  0
LINE
  5
10A
  8
PS
 62
    18
 10
171.8285806972225
 20
20.10000809741129
 30
-0.0000000058001973
 11
176.0285806972225
 21
20.10000809741129
 31
-0.0000000058001973
  0
LINE
  5
10B
  8
PS
 62
    18
 10
1033.671437840079
 20
0.0
 30
-0.0000000058001973
 11
1033.671437840079
 21
19.60000809741122
 31
-0.0000000058001973
  0
LINE
  5
10C
  8
PS
 62
    18
 10
1199.999902993298
 20
0.0
 30
0.0
 11
1033.671437840079
 21
0.0
 31
0.0
  0
LINE
  5
10D
  8
PS
 62
    18
 10
1028.471437840079
 20
19.60000809741122
 30
-0.0000000058001973
 11
1028.471437840079
 21
0.0
 31
-0.0000000058001973
  0
LINE
  5
10E
  8
PS
 62
    18
 10
862.2428664115077
 20
0.0
 30
-0.0000000058001973
 11
862.2428664115077
 21
19.60000809741122
 31
-0.0000000058001973
  0
LINE
  5
10F
  8
PS
 62
    18
 10
1028.471437840079
 20
0.0
 30
0.0
 11
862.2428664115077
 21
0.0
 31
0.0
  0
LINE
  5
110
  8
PS
 62
    18
 10
857.0428664115075
 20
19.60000809741122
 30
-0.0000000058001973
 11
857.0428664115075
 21
0.0
 31
-0.0000000058001973
  0
ARC
  5
111
  8
PS
 62
    18
 10
685.6222324535117
 20
20.10000809741129
 30
-0.0000000058001973
 40
0.5000000000002274
 50
0.000000000000573
 51
270.0
  0
ARC
  5
112
  8
PS
 62
    18
 10
690.822232453512
 20
20.10000809741129
 30
-0.0000000058001973
 40
0.5000000000000675
 50
270.0
 51
179.9999999999994
  0
LINE
  5
113
  8
PS
 62
    18
 10
686.122232453512
 20
20.10000809741129
 30
-0.0000000058001973
 11
690.3222324535118
 21
20.10000809741129
 31
-0.0000000058001973
  0
LINE
  5
114
  8
PS
 62
    18
 10
685.6222324535117
 20
19.60000809741122
 30
-0.0000000058001973
 11
685.6222324535117
 21
0.0
 31
-0.0000000058001973
  0
LINE
  5
115
  8
PS
 62
    18
 10
857.0428664115075
 20
0.0
 30
0.0
 11
690.822232453512
 21
0.0
 31
0.0
  0
LINE
  5
116
  8
PS
 62
    18
 10
690.822232453512
 20
0.0
 30
-0.0000000058001973
 11
690.822232453512
 21
19.60000809741122
 31
-0.0000000058001973
  0
LINE
  5
117
  8
PS
 62
    18
 10
685.6222324535117
 20
0.0
 30
0.0
 11
519.3857235543651
 21
0.0
 31
0.0
  0
LINE
  5
118
  8
PS
 62
    18
 10
519.3857235543651
 20
0.0
 30
-0.0000000058001973
 11
519.3857235543651
 21
19.60000809741122
 31
-0.0000000058001973
  0
LINE
  5
119
  8
PS
 62
    18
 10
514.1857235543649
 20
19.60000809741122
 30
-0.0000000058001973
 11
514.1857235543649
 21
0.0
 31
-0.0000000058001973
  0
ARC
  5
11A
  8
PS
 62
    18
 10
342.7571521257935
 20
20.10000809741129
 30
-0.0000000058001973
 40
0.5000000000000568
 50
0.000000000000573
 51
270.0
  0
ARC
  5
11B
  8
PS
 62
    18
 10
347.9571521257936
 20
20.10000809741129
 30
-0.0000000058001973
 40
0.5000000000000675
 50
270.0
 51
179.9999999999994
  0
LINE
  5
11C
  8
PS
 62
    18
 10
343.2571521257936
 20
20.10000809741129
 30
-0.0000000058001973
 11
347.4571521257936
 21
20.10000809741129
 31
-0.0000000058001973
  0
LINE
  5
11D
  8
PS
 62
    18
 10
514.1857235543649
 20
0.0
 30
0.0
 11
347.9571521257936
 21
0.0
 31
0.0
  0
LINE
  5
11E
  8
PS
 62
    18
 10
347.9571521257936
 20
0.0
 30
-0.0000000058001973
 11
347.9571521257936
 21
19.60000809741122
 31
-0.0000000058001973
  0
LINE
  5
11F
  8
PS
 62
    18
 10
342.7571521257935
 20
19.60000809741122
 30
-0.0000000058001973
 11
342.7571521257935
 21
0.0
 31
-0.0000000058001973
  0
LINE
  5
120
  8
PS
 62
    18
 10
342.7571521257935
 20
0.0
 30
0.0
 11
176.5285806972226
 21
0.0
 31
0.0
  0
LINE
  5
121
  8
PS
 62
    18
 10
176.5285806972226
 20
0.0
 30
-0.0000000058001973
 11
176.5285806972226
 21
19.60000809741122
 31
-0.0000000058001973
  0
LINE
  5
122
  8
PS
 62
    18
 10
171.3285806972225
 20
0.0
 30
0.0
 11
0.0
 21
0.0
 31
0.0
  0
LINE
  5
123
  8
PS
 62
    18
 10
171.3285806972225
 20
19.60000809741122
 30
-0.0000000058001973
 11
171.3285806972225
 21
0.0
 31
-0.0000000058001973
  0
ARC
  5
124
  8
PS
 62
    18
 10
5.099999935286339
 20
32.39999973774008
 30
0.0
 40
0.5000000000000666
 50
180.0000000000212
 51
90.0
  0
ARC
  5
125
  8
PS
 62
    18
 10
5.099999935286339
 20
57.59999973773994
 30
0.0
 40
0.500000000000064
 50
270.0
 51
179.9999999999994
  0
LINE
  5
126
  8
PS
 62
    18
 10
5.099999935286339
 20
32.89999973773961
 30
0.0
 11
5.099999935286339
 21
57.09999973773988
 31
0.0
  0
LINE
  5
127
  8
PS
 62
    18
 10
0.0
 20
0.0
 30
0.0
 11
0.0
 21
32.39999973773972
 31
0.0000000645144647
  0
LINE
  5
128
  8
PS
 62
    18
 10
0.0
 20
32.39999973773972
 30
0.0
 11
4.599999935286273
 21
32.3999997377399
 31
0.0
  0
LINE
  5
129
  8
PS
 62
    18
 10
0.0
 20
57.59999973773976
 30
0.0000000644782613
 11
0.0
 21
84.999995803833
 31
0.0
  0
LINE
  5
12A
  8
PS
 62
    18
 10
4.599999935286273
 20
57.59999973773994
 30
0.0
 11
0.0
 21
57.59999973773976
 31
0.0
  0
LINE
  5
12B
  8
PS
 62
    18
 10
1199.999902993298
 20
0.0
 30
0.0
 11
1199.99968269131
 21
32.40000137785515
 31
0.0
  0
LINE
  5
12C
  8
PS
 62
    18
 10
1195.399682011365
 20
32.40000137785496
 30
0.0
 11
1199.99968269131
 21
32.40000137785515
 31
0.0
  0
LINE
  5
12D
  8
PS
 62
    18
 10
1199.99968201113
 20
57.60000137785519
 30
0.0
 11
1199.999681946651
 21
84.99999744394862
 31
0.0
  0
LINE
  5
12E
  8
PS
 62
    18
 10
1199.99968201113
 20
57.60000137785519
 30
0.0
 11
1195.399682011365
 21
57.60000137785501
 31
0.0
  0
ARC
  5
12F
  8
PS
 62
    18
 10
1149.899681946651
 20
84.99999744394862
 30
0.0
 40
0.4999999999998863
 50
90.0
 51
0.000000000000573
  0
LINE
  5
130
  8
PS
 62
    18
 10
1199.999681946651
 20
84.99999744394862
 30
0.0
 11
1150.399681946651
 21
84.99999744394862
 31
0.0
  0
LINE
  5
131
  8
PS
 62
    18
 10
1081.171280769933
 20
89.99999580621201
 30
0.0
 11
1149.899681946651
 21
89.99999744156878
 31
0.0
  0
ARC
  5
132
  8
PS
 62
    18
 10
1081.171280769933
 20
84.999995803833
 30
0.0
 40
0.4999999999998863
 50
180.0000011527152
 51
90.0
  0
LINE
  5
133
  8
PS
 62
    18
 10
1044.071437840094
 20
84.99999947547882
 30
0.0
 11
1080.671280769934
 21
84.99999579377366
 31
0.0
  0
LINE
  5
134
  8
PS
 62
    18
 10
981.4715949102533
 20
84.99999579377366
 30
0.0
 11
1018.071437840093
 21
84.99999947547882
 31
0.0
  0
ARC
  5
135
  8
PS
 62
    18
 10
980.9715949102534
 20
84.99999580943354
 30
0.0
 40
0.4999999999998865
 50
90.0
 51
359.9999982055101
  0
LINE
  5
136
  8
PS
 62
    18
 10
909.7427093413621
 20
89.99999580383259
 30
0.0
 11
980.9715950217056
 21
89.99999580383259
 31
0.0
  0
LINE
  5
137
  8
PS
 62
    18
 10
872.6428664115219
 20
84.99999947547882
 30
0.0
 11
909.2427093413622
 21
84.99999579377366
 31
0.0
  0
ARC
  5
138
  8
PS
 62
    18
 10
909.7427093413621
 20
84.999995803833
 30
0.0
 40
0.4999999999998863
 50
180.0000011527152
 51
90.0
  0
ARC
  5
139
  8
PS
 62
    18
 10
809.5430234816816
 20
84.99999580575162
 30
0.0
 40
0.5000000000003412
 50
90.0
 51
359.9999986274269
  0
LINE
  5
13A
  8
PS
 62
    18
 10
810.043023481682
 20
84.99999579377366
 30
0.0
 11
846.6428664115217
 21
84.99999947547882
 31
0.0
  0
LINE
  5
13B
  8
PS
 62
    18
 10
738.3141379127906
 20
89.99999580383259
 30
0.0
 11
809.543023593134
 21
89.99999580383259
 31
0.0
  0
ARC
  5
13C
  8
PS
 62
    18
 10
738.3141379127906
 20
84.999995803833
 30
0.0
 40
0.4999999999998863
 50
180.0000011527152
 51
90.0
  0
LINE
  5
13D
  8
PS
 62
    18
 10
701.2142949829508
 20
84.99999947547882
 30
0.0
 11
737.8141379127907
 21
84.99999579377366
 31
0.0
  0
ARC
  5
13E
  8
PS
 62
    18
 10
638.1144520531105
 20
84.99999581215081
 30
0.0
 40
0.5000000000002277
 50
90.0
 51
359.9999978941337
  0
LINE
  5
13F
  8
PS
 62
    18
 10
638.6144520531108
 20
84.99999579377366
 30
0.0
 11
675.2142949829507
 21
84.99999947547882
 31
0.0
  0
LINE
  5
140
  8
PS
 62
    18
 10
566.8855664842192
 20
89.99999580383259
 30
0.0
 11
638.1144521645629
 21
89.99999580383259
 31
0.0
  0
ARC
  5
141
  8
PS
 62
    18
 10
566.8855664842192
 20
84.999995803833
 30
0.0
 40
0.4999999999998863
 50
180.0000011527152
 51
90.0
  0
LINE
  5
142
  8
PS
 62
    18
 10
529.7857235543795
 20
84.99999947547882
 30
0.0
 11
566.3855664842193
 21
84.99999579377366
 31
0.0
  0
LINE
  5
143
  8
PS
 62
    18
 10
467.1858806245394
 20
84.99999579377366
 30
0.0
 11
503.7857235543793
 21
84.99999947547882
 31
0.0
  0
ARC
  5
144
  8
PS
 62
    18
 10
466.6858806245391
 20
84.99999581537628
 30
0.0
 40
0.5000000000002847
 50
90.0
 51
359.9999975245225
  0
LINE
  5
145
  8
PS
 62
    18
 10
395.4569950556478
 20
89.99999580383259
 30
0.0
 11
466.6858807359914
 21
89.99999580383259
 31
0.0
  0
ARC
  5
146
  8
PS
 62
    18
 10
395.4569950556478
 20
84.999995803833
 30
0.0
 40
0.4999999999998863
 50
180.0000011527152
 51
90.0
  0
LINE
  5
147
  8
PS
 62
    18
 10
358.3571521258081
 20
84.99999947547882
 30
0.0
 11
394.956995055648
 21
84.99999579377366
 31
0.0
  0
LINE
  5
148
  8
PS
 62
    18
 10
295.7573091959679
 20
84.99999579377366
 30
0.0
 11
332.3571521258078
 21
84.99999947547882
 31
0.0
  0
ARC
  5
149
  8
PS
 62
    18
 10
295.2573091959677
 20
84.99999581404782
 30
0.0
 40
0.5000000000002277
 50
90.0
 51
359.9999976767527
  0
LINE
  5
14A
  8
PS
 62
    18
 10
224.0284237385287
 20
89.99999580383259
 30
0.0
 11
295.25730930742
 21
89.99999580383259
 31
0.0
  0
ARC
  5
14B
  8
PS
 62
    18
 10
224.0284236270764
 20
84.99999580098253
 30
0.0
 40
0.4999999999998863
 50
180.0000008260754
 51
90.0
  0
LINE
  5
14C
  8
PS
 62
    18
 10
186.9285806972366
 20
84.99999947547882
 30
0.0
 11
223.5284236270765
 21
84.99999579377366
 31
0.0
  0
ARC
  5
14D
  8
PS
 62
    18
 10
123.8287377673963
 20
84.99999580951508
 30
0.0
 40
0.500000000000256
 50
90.0
 51
359.9999981961661
  0
LINE
  5
14E
  8
PS
 62
    18
 10
124.3287377673965
 20
84.99999579377366
 30
0.0
 11
160.9285806972364
 21
84.99999947547882
 31
0.0
  0
LINE
  5
14F
  8
PS
 62
    18
 10
50.10000000000016
 20
89.99999580383259
 30
0.0
 11
123.8287378788486
 21
89.99999580383259
 31
0.0
  0
ARC
  5
150
  8
PS
 62
    18
 10
50.10000000000016
 20
84.999995803833
 30
0.0
 40
0.4999999999998863
 50
179.9999999999994
 51
90.0
  0
LINE
  5
151
  8
PS
 62
    18
 10
0.0
 20
84.999995803833
 30
0.0
 11
49.60000000000027
 21
84.999995803833
 31
0.0
  0
DIMENSION
  5
153
  8
DIMENSION
 62
   150
  2
*D1
 10
1209.999902993298
 20
-0.0000000000000006
 30
0.0
 11
1209.999902993298
 21
44.99999872078439
 31
0.0
 70
    32
  3
ROTATEDDIM24
 13
1199.99968269131
 23
89.99999744156878
 33
0.0
 14
1199.999902993298
 24
0.0
 34
0.0
 50
90.0
  0
DIMENSION
  5
163
  8
DIMENSION
 62
   150
  2
*D2
 10
1199.999902993298
 20
-22.38831900266525
 30
0.0
 11
599.999951496649
 21
-22.38831900266525
 31
0.0
 70
    32
  3
ROTATEDDIM25
 13
0.0
 23
0.0
 33
0.0
 14
1199.999902993298
 24
0.0
 34
0.0
  0
DIMENSION
  5
172
  8
DIMENSION
 62
   150
  2
*D3
 10
570.0000092686654
 20
45.01698540044448
 30
0.0
 11
598.8010204840332
 21
46.18028613533022
 31
0.0
 70
    36
  3
RADIALDIM26
 15
572.0982983599547
 25
45.1017373288975
 35
0.0
 40
0.0
  0
DIMENSION
  5
17D
  8
DIMENSION
 62
   150
  2
*D4
 10
-9.124265729064419
 20
0.0000000000000006
 30
0.0
 11
-9.124265729064415
 21
42.4999979019165
 31
0.0
 70
    32
  3
ROTATEDDIM27
 13
0.0
 23
84.999995803833
 33
0.0
 14
0.0
 24
0.0
 34
0.0
 50
90.0
  0
ENDSEC
  0
EOF
