  0
SECTION
  2
HEADER
  9
$ACADVER
  1
AC1009
  9
$DWGCODEPAGE
  3
ansi_1252
  9
$INSBASE
 10
0.0
 20
0.0
 30
0.0
  9
$EXTMIN
 10
-42.47438910381372
 20
-70.99903248776545
 30
0.0
  9
$EXTMAX
 10
1194.999885445675
 20
289.9999999996596
 30
75.40474844898164
  9
$LIMMIN
 10
0.0
 20
0.0
  9
$LIMMAX
 10
420.0
 20
297.0
  9
$ORTHOMODE
 70
     0
  9
$REGENMODE
 70
     1
  9
$FILLMODE
 70
     1
  9
$QTEXTMODE
 70
     0
  9
$MIRRTEXT
 70
     1
  9
$DRAGMODE
 70
     2
  9
$LTSCALE
 40
1.0
  9
$OSMODE
 70
    37
  9
$ATTMODE
 70
     1
  9
$TEXTSIZE
 40
2.5
  9
$TRACEWID
 40
1.0
  9
$TEXTSTYLE
  7
STANDARD
  9
$CLAYER
  8
0
  9
$CELTYPE
  6
BYLAYER
  9
$CECOLOR
 62
   256
  9
$DIMSCALE
 40
1.0
  9
$DIMASZ
 40
2.5
  9
$DIMEXO
 40
0.625
  9
$DIMDLI
 40
3.75
  9
$DIMRND
 40
0.0
  9
$DIMDLE
 40
0.0
  9
$DIMEXE
 40
1.25
  9
$DIMTP
 40
0.0
  9
$DIMTM
 40
0.0
  9
$DIMTXT
 40
2.5
  9
$DIMCEN
 40
2.5
  9
$DIMTSZ
 40
0.0
  9
$DIMTOL
 70
     0
  9
$DIMLIM
 70
     0
  9
$DIMTIH
 70
     0
  9
$DIMTOH
 70
     0
  9
$DIMSE1
 70
     0
  9
$DIMSE2
 70
     0
  9
$DIMTAD
 70
     1
  9
$DIMZIN
 70
     8
  9
$DIMBLK
  1

  9
$DIMASO
 70
     1
  9
$DIMSHO
 70
     1
  9
$DIMPOST
  1

  9
$DIMAPOST
  1

  9
$DIMALT
 70
     0
  9
$DIMALTD
 70
     3
  9
$DIMALTF
 40
0.03937007874016
  9
$DIMLFAC
 40
1.0
  9
$DIMTOFL
 70
     1
  9
$DIMTVP
 40
0.0
  9
$DIMTIX
 70
     0
  9
$DIMSOXD
 70
     0
  9
$DIMSAH
 70
     0
  9
$DIMBLK1
  1

  9
$DIMBLK2
  1

  9
$DIMSTYLE
  2
ISO-25
  9
$DIMCLRD
 70
     0
  9
$DIMCLRE
 70
     0
  9
$DIMCLRT
 70
     0
  9
$DIMTFAC
 40
1.0
  9
$DIMGAP
 40
0.625
  9
$LUNITS
 70
     2
  9
$LUPREC
 70
     4
  9
$SKETCHINC
 40
1.0
  9
$FILLETRAD
 40
10.0
  9
$AUNITS
 70
     0
  9
$AUPREC
 70
     0
  9
$MENU
  1
.
  9
$ELEVATION
 40
0.0
  9
$PELEVATION
 40
0.0
  9
$THICKNESS
 40
0.0
  9
$LIMCHECK
 70
     0
  9
$CHAMFERA
 40
10.0
  9
$CHAMFERB
 40
10.0
  9
$SKPOLY
 70
     0
  9
$TDCREATE
 40
2305814.460104167
  9
$TDUPDATE
 40
2456135.376772836
  9
$TDINDWG
 40
0.0000000116
  9
$TDUSRTIMER
 40
0.0000000116
  9
$USRTIMER
 70
     1
  9
$ANGBASE
 50
0.0
  9
$ANGDIR
 70
     0
  9
$PDMODE
 70
     0
  9
$PDSIZE
 40
0.0
  9
$PLINEWID
 40
0.0
  9
$COORDS
 70
     1
  9
$SPLFRAME
 70
     0
  9
$SPLINETYPE
 70
     6
  9
$SPLINESEGS
 70
     8
  9
$ATTDIA
 70
     0
  9
$ATTREQ
 70
     1
  9
$HANDLING
 70
     1
  9
$HANDSEED
  5
F4
  9
$SURFTAB1
 70
     6
  9
$SURFTAB2
 70
     6
  9
$SURFTYPE
 70
     6
  9
$SURFU
 70
     6
  9
$SURFV
 70
     6
  9
$UCSNAME
  2

  9
$UCSORG
 10
0.0
 20
0.0
 30
0.0
  9
$UCSXDIR
 10
1.0
 20
0.0
 30
0.0
  9
$UCSYDIR
 10
0.0
 20
1.0
 30
0.0
  9
$PUCSNAME
  2

  9
$PUCSORG
 10
0.0
 20
0.0
 30
0.0
  9
$PUCSXDIR
 10
1.0
 20
0.0
 30
0.0
  9
$PUCSYDIR
 10
0.0
 20
1.0
 30
0.0
  9
$USERI1
 70
     0
  9
$USERI2
 70
     0
  9
$USERI3
 70
     0
  9
$USERI4
 70
     0
  9
$USERI5
 70
     0
  9
$USERR1
 40
0.0
  9
$USERR2
 40
0.0
  9
$USERR3
 40
0.0
  9
$USERR4
 40
0.0
  9
$USERR5
 40
0.0
  9
$WORLDVIEW
 70
     1
  9
$SHADEDGE
 70
     3
  9
$SHADEDIF
 70
    70
  9
$TILEMODE
 70
     1
  9
$MAXACTVP
 70
    64
  9
$PLIMCHECK
 70
     0
  9
$PEXTMIN
 10
1.000000000000000E+20
 20
1.000000000000000E+20
 30
1.000000000000000E+20
  9
$PEXTMAX
 10
-1.000000000000000E+20
 20
-1.000000000000000E+20
 30
-1.000000000000000E+20
  9
$PLIMMIN
 10
0.0
 20
0.0
  9
$PLIMMAX
 10
420.0
 20
297.0
  9
$UNITMODE
 70
     0
  9
$VISRETAIN
 70
     1
  9
$PLINEGEN
 70
     0
  9
$PSLTSCALE
 70
     1
  0
ENDSEC
  0
SECTION
  2
TABLES
  0
TABLE
  2
VPORT
 70
     1
  0
VPORT
  2
*ACTIVE
 70
     0
 10
0.0
 20
0.0
 11
1.0
 21
1.0
 12
577.8762878125767
 22
110.7886266822995
 13
0.0
 23
0.0
 14
10.0
 24
10.0
 15
10.0
 25
10.0
 16
0.0
 26
0.0
 36
1.0
 17
0.0
 27
0.0
 37
0.0
 40
365.5912015674148
 41
3.44355152359807
 42
50.0
 43
0.0
 44
0.0
 50
0.0
 51
0.0
 71
     0
 72
   100
 73
     1
 74
     3
 75
     0
 76
     0
 77
     0
 78
     0
  0
ENDTAB
  0
TABLE
  2
LTYPE
 70
    11
  0
LTYPE
  2
CONTINUOUS
 70
     0
  3
Solid line
 72
    65
 73
     0
 40
0.0
  0
LTYPE
  2
BORDER
 70
     0
  3
__ __ . __ __ . __ 
 72
    65
 73
     6
 40
0.875
 49
0.25
 49
-0.125
 49
0.25
 49
-0.125
 49
0.0
 49
-0.125
  0
LTYPE
  2
CENTER
 70
     0
  3
___ _ ___ _ ___ _ _
 72
    65
 73
     4
 40
1.125
 49
0.75
 49
-0.125
 49
0.125
 49
-0.125
  0
LTYPE
  2
DASHDOT
 70
     0
  3
_._._._._._._._._._
 72
    65
 73
     4
 40
0.5
 49
0.25
 49
-0.125
 49
0.0
 49
-0.125
  0
LTYPE
  2
DASHED
 70
     0
  3
_ _ _ _ _ _ _ _ _ _
 72
    65
 73
     2
 40
0.375
 49
0.25
 49
-0.125
  0
LTYPE
  2
DIVIDE
 70
     0
  3
__..__..__..__..__.
 72
    65
 73
     6
 40
0.625
 49
0.25
 49
-0.125
 49
0.0
 49
-0.125
 49
0.0
 49
-0.125
  0
LTYPE
  2
DOT
 70
     0
  3
...................
 72
    65
 73
     2
 40
0.125
 49
0.0
 49
-0.125
  0
LTYPE
  2
HIDDEN
 70
     0
  3
__ __ __ __ __ __ _
 72
    65
 73
     2
 40
0.1875
 49
0.125
 49
-0.0625
  0
LTYPE
  2
PHANTOM
 70
     0
  3
___ _ _ ___ _ _ ___
 72
    65
 73
     6
 40
1.25
 49
0.625
 49
-0.125
 49
0.125
 49
-0.125
 49
0.125
 49
-0.125
  0
LTYPE
  2
CUTTING
 70
     0
  3
________ _ _ ______
 72
    65
 73
     6
 40
1.4675
 49
1.0
 49
-0.0725
 49
0.125
 49
-0.0725
 49
0.125
 49
-0.0725
  0
LTYPE
  2
STITCH
 70
     0
  3
_ _ _ _ _ _ _ _ _ _
 72
    65
 73
     2
 40
0.145
 49
0.0725
 49
-0.0725
  0
ENDTAB
  0
TABLE
  2
LAYER
 70
     4
  0
LAYER
  2
0
 70
     0
 62
     7
  6
CONTINUOUS
  0
LAYER
  2
DIMENSION
 70
     0
 62
     7
  6
CONTINUOUS
  0
LAYER
  2
PSM
 70
     0
 62
    18
  6
CONTINUOUS
  0
LAYER
  2
DEFPOINTS
 70
     0
 62
     7
  6
CONTINUOUS
  0
ENDTAB
  0
TABLE
  2
STYLE
 70
     1
  0
STYLE
  2
STANDARD
 70
     0
 40
0.0
 41
1.0
 50
0.0
 71
     0
 42
2.5
  3
txt
  4

  0
ENDTAB
  0
TABLE
  2
VIEW
 70
     0
  0
ENDTAB
  0
TABLE
  2
UCS
 70
     0
  0
ENDTAB
  0
TABLE
  2
APPID
 70
     2
  0
APPID
  2
ACAD
 70
     0
  0
APPID
  2
ENCORE_SOFTWARE_VIACAD
 70
     0
  0
ENDTAB
  0
TABLE
  2
DIMSTYLE
 70
     3
  0
DIMSTYLE
  2
ISO-25
 70
     0
  3

  4

  5

  6

  7

 40
1.0
 41
2.5
 42
0.625
 43
3.75
 44
1.25
 45
0.0
 46
0.0
 47
0.0
 48
0.0
140
2.5
141
2.5
142
0.0
143
0.03937007874016
144
1.0
145
0.0
146
1.0
147
0.625
 71
     0
 72
     0
 73
     0
 74
     0
 75
     0
 76
     0
 77
     1
 78
     8
170
     0
171
     3
172
     1
173
     0
174
     0
175
     0
176
     0
177
     0
178
     0
  0
DIMSTYLE
  2
ROTATEDDIM28
 70
     0
  3

  4

  5

  6

  7

 40
1.0
 41
8.105938112967356
 42
2.598057087489537
 43
3.75
 44
6.495142718723842
 45
0.0
 46
0.0
 47
0.0
 48
0.0
140
7.159999847412109
141
2.5
142
0.0
143
0.03937007874016
144
1.0
145
0.0
146
1.0
147
0.625
 71
     0
 72
     0
 73
     0
 74
     0
 75
     0
 76
     0
 77
     0
 78
     8
170
     0
171
     3
172
     1
173
     0
174
     0
175
     0
176
     0
177
     0
178
     0
  0
DIMSTYLE
  2
ROTATEDDIM29
 70
     0
  3

  4

  5

  6

  7

 40
1.0
 41
8.105938112967356
 42
2.598057087489537
 43
3.75
 44
6.495142718723842
 45
0.0
 46
0.0
 47
0.0
 48
0.0
140
7.159999847412109
141
2.5
142
0.0
143
0.03937007874016
144
1.0
145
0.0
146
1.0
147
0.625
 71
     0
 72
     0
 73
     0
 74
     0
 75
     0
 76
     0
 77
     0
 78
     8
170
     0
171
     3
172
     1
173
     0
174
     0
175
     0
176
     0
177
     0
178
     0
  0
ENDTAB
  0
ENDSEC
  0
SECTION
  2
BLOCKS
  0
BLOCK
  8
0
  2
$MODEL_SPACE
 70
     0
 10
0.0
 20
0.0
 30
0.0
  3
$MODEL_SPACE
  1

  0
ENDBLK
  5
21
  8
0
  0
BLOCK
 67
     1
  8
0
  2
$PAPER_SPACE
 70
     0
 10
0.0
 20
0.0
 30
0.0
  3
$PAPER_SPACE
  1

  0
ENDBLK
  5
1D
 67
     1
  8
0
  0
BLOCK
  8
0
  2
*D1
 70
     1
 10
0.0
 20
0.0
 30
0.0
  3
*D1
  1

  0
LINE
  5
CF
  8
DIMENSION
 62
     0
 10
-2.597612779562635
 20
289.9999999996596
 30
0.0
 11
-39.24730982052137
 21
289.9999999996596
 31
0.0
  0
LINE
  5
D0
  8
DIMENSION
 62
     0
 10
-2.598057087489537
 20
0.0000000000000002
 30
0.0
 11
-39.24730982052139
 21
0.0000000000000024
 31
0.0
  0
LINE
  5
D1
  8
DIMENSION
 62
     0
 10
-32.75216710179753
 20
281.8940618866923
 30
0.0
 11
-32.75216710179754
 21
154.8307140893597
 31
0.0
  0
LINE
  5
D2
  8
DIMENSION
 62
     0
 10
-32.75216710179755
 20
8.105938112967358
 30
0.0
 11
-32.75216710179754
 21
135.1692859102999
 31
0.0
  0
SOLID
  5
D3
  8
DIMENSION
 62
     0
 10
-31.40117741630297
 20
281.8940618866923
 30
0.0
 11
-34.10315678729209
 21
281.8940618866923
 31
0.0
 12
-32.75216710179753
 22
289.9999999996596
 32
0.0
 13
-32.75216710179753
 23
289.9999999996596
 33
0.0
  0
SOLID
  5
D4
  8
DIMENSION
 62
     0
 10
-34.10315678729211
 20
8.105938112967358
 30
0.0
 11
-31.40117741630299
 21
8.105938112967358
 31
0.0
 12
-32.75216710179755
 22
0.000000000000002
 32
0.0
 13
-32.75216710179755
 23
0.000000000000002
 33
0.0
  0
TEXT
  5
D5
  8
DIMENSION
  6
CONTINUOUS
 62
     0
 10
-29.17216717809148
 20
134.7714287892411
 30
0.0
 40
7.159999847412109
  1
290
 50
90.0
  0
POINT
  5
D6
  8
DEFPOINTS
 62
     0
 10
0.0004443079269022
 20
289.9999999996596
 30
0.0
  0
POINT
  5
D7
  8
DEFPOINTS
 62
     0
 10
0.0
 20
0.0
 30
0.0
  0
POINT
  5
D8
  8
DEFPOINTS
 62
     0
 10
-32.75216710179755
 20
0.000000000000002
 30
0.0
  0
ENDBLK
  5
DA
  8
0
  0
BLOCK
  8
0
  2
*D2
 70
     1
 10
0.0
 20
0.0
 30
0.0
  3
*D2
  1

  0
LINE
  5
E1
  8
DIMENSION
 62
     0
 10
-5.000000000004635
 20
22.39243204601242
 30
0.0
 11
-5.00000000000454
 21
-68.42274663506072
 31
0.0
  0
LINE
  5
E2
  8
DIMENSION
 62
     0
 10
1194.999885445675
 20
22.39243205181225
 30
0.0
 11
1194.999885445675
 21
-68.42274663506072
 31
0.0
  0
LINE
  5
E3
  8
DIMENSION
 62
     0
 10
3.105938112962809
 20
-61.92760391633688
 30
0.0
 11
582.2711334569718
 21
-61.92760391633688
 31
0.0
  0
LINE
  5
E4
  8
DIMENSION
 62
     0
 10
1186.893947332708
 20
-61.92760391633688
 30
0.0
 11
607.7287519886985
 21
-61.92760391633688
 31
0.0
  0
SOLID
  5
E5
  8
DIMENSION
 62
     0
 10
3.105938112962809
 20
-60.57661423084232
 30
0.0
 11
3.105938112962809
 21
-63.27859360183144
 31
0.0
 12
-5.000000000004547
 22
-61.92760391633688
 32
0.0
 13
-5.000000000004547
 23
-61.92760391633688
 33
0.0
  0
SOLID
  5
E6
  8
DIMENSION
 62
     0
 10
1186.893947332708
 20
-63.27859360183144
 30
0.0
 11
1186.893947332708
 21
-60.57661423084232
 31
0.0
 12
1194.999885445675
 22
-61.92760391633688
 32
0.0
 13
1194.999885445675
 23
-61.92760391633688
 33
0.0
  0
TEXT
  5
E7
  8
DIMENSION
  6
CONTINUOUS
 62
     0
 10
580.8504192148541
 20
-65.50760384004293
 30
0.0
 40
7.159999847412109
  1
1200
  0
POINT
  5
E8
  8
DEFPOINTS
 62
     0
 10
-5.000000000004638
 20
24.99048913350195
 30
0.0
  0
POINT
  5
E9
  8
DEFPOINTS
 62
     0
 10
1194.999885445675
 20
24.99048913930179
 30
0.0
  0
POINT
  5
EA
  8
DEFPOINTS
 62
     0
 10
1194.999885445675
 20
-61.92760391633688
 30
0.0
  0
ENDBLK
  5
EC
  8
0
  0
ENDSEC
  0
SECTION
  2
ENTITIES
  0
LINE
  5
4C
  8
PSM
 62
     8
 10
564.7857074192409
 20
-0.0095215360500447
 30
0.0
 11
710.2222163183903
 21
-0.0095215360500447
 31
0.0
  0
LINE
  5
4D
  8
PSM
 62
     8
 10
392.857135990671
 20
-5.009521536048908
 30
0.0
 11
392.857135990671
 21
-0.509521536049931
 31
0.0
  0
LINE
  5
4E
  8
PSM
 62
     8
 10
564.2857074192439
 20
-5.009521536048908
 30
0.0
 11
564.2857074192439
 21
-0.509521536049931
 31
0.0
  0
LINE
  5
4F
  8
PSM
 62
     8
 10
735.7222163183875
 20
-5.009521536048908
 30
0.0
 11
735.7222163183875
 21
-0.509521536049931
 31
0.0
  0
LINE
  5
50
  8
PSM
 62
     8
 10
907.1428522965518
 20
-5.009521541850187
 30
0.0
 11
907.1428522965518
 21
-0.5095215418497673
 31
0.0
  0
LINE
  5
51
  8
PSM
 62
     8
 10
1078.571421704957
 20
-5.009521536048908
 30
0.0
 11
1078.571421704957
 21
-0.509521536049931
 31
0.0
  0
LINE
  5
52
  8
PSM
 62
     8
 10
1139.99989002331
 20
-5.009521533618954
 30
0.0
 11
1139.99989002331
 21
-0.5095215336185334
 31
0.0
  0
LINE
  5
53
  8
PSM
 62
     8
 10
1079.071421704954
 20
-0.0095215360500447
 30
0.0
 11
1139.499890023308
 21
-0.009521533618647
 31
0.0
  0
LINE
  5
54
  8
PSM
 62
     8
 10
221.928566582269
 20
-0.009521541849881
 30
0.0
 11
367.3571359906739
 21
-0.0095215360500447
 31
0.0
  0
LINE
  5
55
  8
PSM
 62
     8
 10
49.99999542235987
 20
-5.009521541850187
 30
0.0
 11
49.99999542235987
 21
-0.5095215418512111
 31
0.0
  0
LINE
  5
56
  8
PSM
 62
     8
 10
50.49999542236264
 20
-0.009521541849881
 30
0.0
 11
195.9285665822691
 21
-0.0095215418513249
 31
0.0
  0
LINE
  5
57
  8
PSM
 62
     8
 10
221.4285665822662
 20
-5.009521541850187
 30
0.0
 11
221.4285665822662
 21
-0.5095215418497673
 31
0.0
  0
LINE
  5
58
  8
PSM
 62
     8
 10
196.4285665822661
 20
-0.5095215418512111
 30
0.0
 11
196.4285665822661
 21
-5.009521541850187
 31
0.0
  0
LINE
  5
59
  8
PSM
 62
     8
 10
196.4285665822661
 20
-5.009521541850187
 30
0.0
 11
221.4285665822662
 21
-5.009521541850187
 31
0.0
  0
ARC
  5
5A
  8
PSM
 62
     8
 10
221.4285665822662
 20
-0.009521541849881
 30
0.0
 40
0.5000000000027853
 50
0.000000000000573
 51
270.0
  0
ARC
  5
5B
  8
PSM
 62
     8
 10
196.428566582269
 20
-0.0095215418513248
 30
0.0
 40
0.4999999999998863
 50
269.9999999996678
 51
180.0000000000006
  0
LINE
  5
5C
  8
PSM
 62
     8
 10
9.132609128699459
 20
-0.0095116199975109
 30
0.0
 11
24.49999542236278
 21
-0.0095215418513249
 31
0.0
  0
LINE
  5
5D
  8
PSM
 62
     8
 10
24.99999542235978
 20
-0.5095215418512111
 30
0.0
 11
24.99999542235978
 21
-5.009521541850187
 31
0.0
  0
LINE
  5
5E
  8
PSM
 62
     8
 10
24.99999542235978
 20
-5.009521541850187
 30
0.0
 11
49.99999542235987
 21
-5.009521541850187
 31
0.0
  0
ARC
  5
5F
  8
PSM
 62
     8
 10
49.99999542235987
 20
-0.009521541849881
 30
0.0
 40
0.5000000000027782
 50
0.000000000000573
 51
270.0
  0
ARC
  5
60
  8
PSM
 62
     8
 10
24.99999542236267
 20
-0.0095215418513248
 30
0.0
 40
0.4999999999998863
 50
269.999999999669
 51
180.0000000000006
  0
LINE
  5
61
  8
PSM
 62
     8
 10
367.8571359906709
 20
-0.509521536049931
 30
0.0
 11
367.8571359906709
 21
-5.009521536050351
 31
0.0
  0
LINE
  5
62
  8
PSM
 62
     8
 10
367.8571359906709
 20
-5.009521536050351
 30
0.0
 11
392.857135990671
 21
-5.009521536050351
 31
0.0
  0
ARC
  5
63
  8
PSM
 62
     8
 10
392.857135990671
 20
-0.0095215360500447
 30
0.0
 40
0.5000000000027853
 50
0.000000000000573
 51
270.0
  0
ARC
  5
64
  8
PSM
 62
     8
 10
367.8571359906738
 20
-0.0095215360500447
 30
0.0
 40
0.4999999999998863
 50
269.9999999996743
 51
179.9999999999994
  0
LINE
  5
65
  8
PSM
 62
     8
 10
393.3571359906738
 20
-0.0095215360500447
 30
0.0
 11
538.785705399073
 21
-0.0095215302487645
 31
0.0
  0
LINE
  5
66
  8
PSM
 62
     8
 10
539.2857074192437
 20
-0.509521536049931
 30
0.0
 11
539.2857074192437
 21
-5.009521536050351
 31
0.0
  0
LINE
  5
67
  8
PSM
 62
     8
 10
539.2857074192437
 20
-5.009521536050351
 30
0.0
 11
564.2857074192439
 21
-5.009521536050351
 31
0.0
  0
ARC
  5
68
  8
PSM
 62
     8
 10
564.2857074192439
 20
-0.0095215360500447
 30
0.0
 40
0.4999999999970441
 50
0.000000000000573
 51
270.0
  0
ARC
  5
69
  8
PSM
 62
     8
 10
539.2857074192409
 20
-0.0095215360500447
 30
0.0
 40
0.4999999999998863
 50
270.0000000003257
 51
179.9999999999994
  0
LINE
  5
6A
  8
PSM
 62
     8
 10
710.7222163183874
 20
-0.509521536049931
 30
0.0
 11
710.7222163183874
 21
-5.009521536048908
 31
0.0
  0
LINE
  5
6B
  8
PSM
 62
     8
 10
710.7222163183874
 20
-5.009521536048908
 30
0.0
 11
735.7222163183875
 21
-5.009521536048908
 31
0.0
  0
ARC
  5
6C
  8
PSM
 62
     8
 10
735.7222163183875
 20
-0.0095215360500447
 30
0.0
 40
0.5000000000027285
 50
0.000000000000573
 51
270.0
  0
ARC
  5
6D
  8
PSM
 62
     8
 10
710.7222163183902
 20
-0.0095215360500447
 30
0.0
 40
0.4999999999998863
 50
269.9999999996743
 51
179.9999999999994
  0
LINE
  5
6E
  8
PSM
 62
     8
 10
882.1428522965518
 20
-0.5095215418497673
 30
0.0
 11
882.1428522965518
 21
-5.009521541850187
 31
0.0
  0
LINE
  5
6F
  8
PSM
 62
     8
 10
882.1428522965518
 20
-5.009521541850187
 30
0.0
 11
907.1428522965518
 21
-5.009521541850187
 31
0.0
  0
ARC
  5
70
  8
PSM
 62
     8
 10
907.1428522965518
 20
-0.009521541849881
 30
0.0
 40
0.5000000000028422
 50
0.000000000000573
 51
270.0
  0
ARC
  5
71
  8
PSM
 62
     8
 10
882.1428522965547
 20
-0.009521541849881
 30
0.0
 40
0.4999999999998863
 50
269.9999999996743
 51
180.0000000000006
  0
LINE
  5
72
  8
PSM
 62
     8
 10
907.6428522965547
 20
-0.009521541849881
 30
0.0
 11
1053.07142170496
 21
-0.0095215360500447
 31
0.0
  0
LINE
  5
73
  8
PSM
 62
     8
 10
1053.571421704957
 20
-0.509521536049931
 30
0.0
 11
1053.571421704957
 21
-5.009521536048908
 31
0.0
  0
LINE
  5
74
  8
PSM
 62
     8
 10
1053.571421704957
 20
-5.009521536048908
 30
0.0
 11
1078.571421704957
 21
-5.009521536048908
 31
0.0
  0
ARC
  5
75
  8
PSM
 62
     8
 10
1078.571421704957
 20
-0.0095215360500447
 30
0.0
 40
0.4999999999970441
 50
0.000000000000573
 51
270.0
  0
ARC
  5
76
  8
PSM
 62
     8
 10
1053.571421704957
 20
-0.0095215360530005
 30
0.0
 40
0.4999999999969305
 50
270.0
 51
179.9999999996613
  0
LINE
  5
77
  8
PSM
 62
     8
 10
1180.867276316971
 20
-0.0095116117662769
 30
0.0
 11
1165.499890023307
 21
-0.0095215336200908
 31
0.0
  0
LINE
  5
78
  8
PSM
 62
     8
 10
1164.99989002331
 20
-0.5095215336199771
 30
0.0
 11
1164.99989002331
 21
-5.009521533618954
 31
0.0
  0
LINE
  5
79
  8
PSM
 62
     8
 10
1164.99989002331
 20
-5.009521533618954
 30
0.0
 11
1139.99989002331
 21
-5.009521533618954
 31
0.0
  0
ARC
  5
7A
  8
PSM
 62
     8
 10
1139.99989002331
 20
-0.009521533618647
 30
0.0
 40
0.5000000000027285
 50
270.0
 51
179.9999999999994
  0
ARC
  5
7B
  8
PSM
 62
     8
 10
1164.999890023308
 20
-0.0095215336200908
 30
0.0
 40
0.4999999999998863
 50
359.9999999999994
 51
270.0000000003127
  0
ARC
  5
7C
  8
PSM
 62
     8
 10
0.0
 20
0.0
 30
0.0
 40
9.132614081878183
 50
359.940326419596
 51
90.0
  0
LINE
  5
7D
  8
PSM
 62
     8
 10
736.2222163183902
 20
-0.0095215360500447
 30
0.0
 11
881.6428522965548
 21
-0.0095215302487645
 31
0.0
  0
LINE
  5
7E
  8
PSM
 62
     8
 10
171.5285711599034
 20
99.99048913930206
 30
0.0
 11
337.7571405683094
 21
99.99048914510334
 31
0.0
  0
LINE
  5
7F
  8
PSM
 62
     8
 10
342.9571405683082
 20
99.99048914510334
 30
0.0
 11
509.1857119968765
 21
99.99048914510334
 31
0.0
  0
LINE
  5
80
  8
PSM
 62
     8
 10
514.3857119968811
 20
99.99048914510334
 30
0.0
 11
680.6222208960259
 21
99.99048914510334
 31
0.0
  0
LINE
  5
81
  8
PSM
 62
     8
 10
685.8222208960246
 20
99.99048914510334
 30
0.0
 11
852.0428568741903
 21
99.99048913930206
 31
0.0
  0
LINE
  5
82
  8
PSM
 62
     8
 10
857.2428568741891
 20
99.99048913930206
 30
0.0
 11
1023.471426282595
 21
99.99048914510334
 31
0.0
  0
LINE
  5
83
  8
PSM
 62
     8
 10
1194.999885445675
 20
49.99048913930188
 30
0.0
 11
1194.999885445675
 21
24.99048913930179
 31
0.0
  0
LINE
  5
84
  8
PSM
 62
     8
 10
1194.999885445675
 20
24.99048913930179
 30
0.0
 11
1190.499885445673
 21
24.99048913930179
 31
0.0
  0
ARC
  5
85
  8
PSM
 62
     8
 10
1189.999885445674
 20
24.99048913930098
 30
0.0
 40
0.4999999999990735
 50
0.0000000000932284
 51
270.0000000002345
  0
LINE
  5
86
  8
PSM
 62
     8
 10
1190.499885445673
 20
49.99048913923691
 30
0.0
 11
1194.999885445675
 21
49.99048913930188
 31
0.0
  0
ARC
  5
87
  8
PSM
 62
     8
 10
1189.999885445676
 20
49.99048913922969
 30
0.0
 40
0.4999999999970441
 50
90.0
 51
0.0000000008272496
  0
LINE
  5
88
  8
PSM
 62
     8
 10
1028.671426282594
 20
99.99048914510334
 30
0.0
 11
1070.253541073361
 21
99.9904891457112
 31
0.0
  0
LINE
  5
89
  8
PSM
 62
     8
 10
1194.999885445675
 20
249.9904891393026
 30
0.0
 11
1194.999885445675
 21
224.9904891393025
 31
0.0
  0
LINE
  5
8A
  8
PSM
 62
     8
 10
1194.999885445675
 20
224.9904891393025
 30
0.0
 11
1190.499885445673
 21
224.9904891393025
 31
0.0
  0
ARC
  5
8B
  8
PSM
 62
     8
 10
1189.999885445674
 20
224.9904891393017
 30
0.0
 40
0.4999999999990808
 50
0.0000000000911929
 51
270.0000000002345
  0
LINE
  5
8C
  8
PSM
 62
     8
 10
1190.499885445673
 20
249.9904891392362
 30
0.0
 11
1194.999885445675
 21
249.9904891393026
 31
0.0
  0
ARC
  5
8D
  8
PSM
 62
     8
 10
1189.999885445676
 20
249.990489139229
 30
0.0
 40
0.4999999999970441
 50
90.0
 51
0.0000000008272496
  0
LINE
  5
8E
  8
PSM
 62
     8
 10
1194.999885445675
 20
149.9904891393022
 30
0.0
 11
1194.999885445675
 21
124.9904891393022
 31
0.0
  0
LINE
  5
8F
  8
PSM
 62
     8
 10
1194.999885445675
 20
124.9904891393022
 30
0.0
 11
1190.499885445673
 21
124.9904891393022
 31
0.0
  0
ARC
  5
90
  8
PSM
 62
     8
 10
1189.999885445674
 20
124.9904891393013
 30
0.0
 40
0.4999999999990711
 50
0.0000000000928213
 51
270.0000000002345
  0
LINE
  5
91
  8
PSM
 62
     8
 10
1190.499885445673
 20
149.9904891392358
 30
0.0
 11
1194.999885445675
 21
149.9904891393022
 31
0.0
  0
ARC
  5
92
  8
PSM
 62
     8
 10
1189.999885445676
 20
149.99048913923
 30
0.0
 40
0.4999999999970441
 50
90.0
 51
0.0000000006611483
  0
LINE
  5
93
  8
PSM
 62
     8
 10
1189.999885445676
 20
9.132614087680816
 30
0.0
 11
1189.999885445676
 21
24.4904891393019
 31
0.0
  0
LINE
  5
94
  8
PSM
 62
     8
 10
1189.999885445676
 20
50.49048913922957
 30
0.0
 11
1189.999885445676
 21
124.4904891393023
 31
0.0
  0
LINE
  5
95
  8
PSM
 62
     8
 10
1189.999885445676
 20
150.4904891392299
 30
0.0
 11
1189.999885445676
 21
224.4904891393026
 31
0.0
  0
LINE
  5
96
  8
PSM
 62
     8
 10
-5.000000000004638
 20
49.99048913350205
 30
0.0
 11
-5.000000000004638
 21
24.99048913350195
 31
0.0
  0
LINE
  5
97
  8
PSM
 62
     8
 10
-5.000000000004638
 20
24.99048913350195
 30
0.0
 11
-0.5000000000027739
 21
24.99048913350195
 31
0.0
  0
ARC
  5
98
  8
PSM
 62
     8
 10
-0.0000000000023154
 20
24.99048913350252
 30
0.0
 40
0.5000000000004585
 50
269.9999999996035
 51
180.0000000000655
  0
LINE
  5
99
  8
PSM
 62
     8
 10
-0.5000000000027739
 20
49.99048913343707
 30
0.0
 11
-5.000000000004638
 21
49.99048913350205
 31
0.0
  0
ARC
  5
9A
  8
PSM
 62
     8
 10
-0.0000000000057753
 20
49.99048913342841
 30
0.0
 40
0.4999999999969986
 50
179.9999999990075
 51
90.0
  0
LINE
  5
9B
  8
PSM
 62
     8
 10
0.0004443079269022
 20
289.9999999996596
 30
0.0
 11
10.0004443079304
 21
289.9999999996596
 31
0.0
  0
LINE
  5
9C
  8
PSM
 62
     8
 10
-5.000000000004638
 20
249.9904891335013
 30
0.0
 11
-5.000000000004638
 21
224.9904891335012
 31
0.0
  0
LINE
  5
9D
  8
PSM
 62
     8
 10
-5.000000000004638
 20
224.9904891335012
 30
0.0
 11
-0.5000000000027739
 21
224.9904891335012
 31
0.0
  0
ARC
  5
9E
  8
PSM
 62
     8
 10
-0.0000000000023178
 20
224.9904891335018
 30
0.0
 40
0.5000000000004561
 50
269.9999999996039
 51
180.0000000000651
  0
LINE
  5
9F
  8
PSM
 62
     8
 10
-0.5000000000027739
 20
249.9904891334363
 30
0.0
 11
-5.000000000004638
 21
249.9904891335013
 31
0.0
  0
ARC
  5
A0
  8
PSM
 62
     8
 10
-0.0000000000057753
 20
249.9904891334291
 30
0.0
 40
0.4999999999969986
 50
179.9999999991727
 51
90.0
  0
LINE
  5
A1
  8
PSM
 62
     8
 10
-5.000000000004638
 20
149.9904891335024
 30
0.0
 11
-5.000000000004638
 21
124.9904891335023
 31
0.0
  0
LINE
  5
A2
  8
PSM
 62
     8
 10
-5.000000000004638
 20
124.9904891335023
 30
0.0
 11
-0.5000000000027739
 21
124.9904891335023
 31
0.0
  0
ARC
  5
A3
  8
PSM
 62
     8
 10
-0.0000000000028113
 20
124.9904891335024
 30
0.0
 40
0.4999999999999626
 50
269.9999999996604
 51
180.0000000000082
  0
LINE
  5
A4
  8
PSM
 62
     8
 10
-0.5000000000027739
 20
149.990489133436
 30
0.0
 11
-5.000000000004638
 21
149.9904891335024
 31
0.0
  0
ARC
  5
A5
  8
PSM
 62
     8
 10
-0.0000000000057753
 20
149.9904891334288
 30
0.0
 40
0.4999999999969986
 50
179.9999999991727
 51
90.0
  0
LINE
  5
A6
  8
PSM
 62
     8
 10
0.0
 20
9.132614081880979
 30
0.0
 11
-0.0000000000057753
 21
24.49048913350207
 31
0.0
  0
LINE
  5
A7
  8
PSM
 62
     8
 10
-0.0000000000057753
 20
50.49048913342974
 30
0.0
 11
-0.0000000000057753
 21
124.4904891335024
 31
0.0
  0
LINE
  5
A8
  8
PSM
 62
     8
 10
-0.0000000000057753
 20
150.4904891334287
 30
0.0
 11
-0.0000000000057753
 21
224.4904891335013
 31
0.0
  0
LINE
  5
A9
  8
PSM
 62
     8
 10
119.7463443728807
 20
99.990489138661
 30
0.0
 11
166.3285711599046
 21
99.99048913930206
 31
0.0
  0
ARC
  5
AA
  8
PSM
 62
     8
 10
1190.004641251877
 20
-0.0047508498064062
 30
0.0
 40
9.137366175135659
 50
90.02982124504973
 51
180.0298523200975
  0
ARC
  5
AB
  8
PSM
 62
     8
 10
171.5285711599034
 20
49.99524456965175
 30
0.0
 40
0.4999999999970157
 50
179.9999999999994
 51
90.0
  0
ARC
  5
AC
  8
PSM
 62
     8
 10
166.3285711599046
 20
49.99524456965175
 30
0.0
 40
0.4999999999998863
 50
90.0
 51
0.000000000000573
  0
LINE
  5
AD
  8
PSM
 62
     8
 10
166.8285711599074
 20
49.99524456965175
 30
0.0
 11
171.0285711599064
 21
49.99524456965175
 31
0.0
  0
ARC
  5
AE
  8
PSM
 62
     8
 10
1028.671426282594
 20
49.99048914510316
 30
0.0
 40
0.5000000000027285
 50
179.9999999999994
 51
90.0
  0
ARC
  5
AF
  8
PSM
 62
     8
 10
1023.471426282595
 20
49.99048914510316
 30
0.0
 40
0.4999999999998863
 50
90.0
 51
0.000000000000573
  0
LINE
  5
B0
  8
PSM
 62
     8
 10
1023.971426282592
 20
49.99048914510316
 30
0.0
 11
1028.171426282591
 21
49.99048914510316
 31
0.0
  0
LINE
  5
B1
  8
PSM
 62
     8
 10
337.7571405683094
 20
50.49048914510305
 30
0.0
 11
337.7571405683094
 21
99.99048914510334
 31
0.0
  0
LINE
  5
B2
  8
PSM
 62
     8
 10
342.9571405683082
 20
50.49048914510305
 30
0.0
 11
342.9571405683082
 21
99.99048914510334
 31
0.0
  0
LINE
  5
B3
  8
PSM
 62
     8
 10
509.1857119968765
 20
50.49048914510305
 30
0.0
 11
509.1857119968765
 21
99.99048914510334
 31
0.0
  0
LINE
  5
B4
  8
PSM
 62
     8
 10
514.3857119968811
 20
50.49048914510305
 30
0.0
 11
514.3857119968811
 21
99.99048914510334
 31
0.0
  0
LINE
  5
B5
  8
PSM
 62
     8
 10
680.6222208960259
 20
50.49048914510305
 30
0.0
 11
680.6222208960259
 21
99.99048914510334
 31
0.0
  0
LINE
  5
B6
  8
PSM
 62
     8
 10
685.8222208960246
 20
50.49048914510305
 30
0.0
 11
685.8222208960246
 21
99.99048914510334
 31
0.0
  0
LINE
  5
B7
  8
PSM
 62
     8
 10
852.0428568741903
 20
50.49048913930321
 30
0.0
 11
852.0428568741903
 21
99.99048913930206
 31
0.0
  0
LINE
  5
B8
  8
PSM
 62
     8
 10
857.2428568741891
 20
50.49048913930176
 30
0.0
 11
857.2428568741891
 21
99.99048913930206
 31
0.0
  0
LINE
  5
B9
  8
PSM
 62
     8
 10
1023.471426282595
 20
50.49048914510305
 30
0.0
 11
1023.471426282595
 21
99.99048914510334
 31
0.0
  0
LINE
  5
BA
  8
PSM
 62
     8
 10
1028.671426282594
 20
50.49048914510305
 30
0.0
 11
1028.671426282594
 21
99.99048914510334
 31
0.0
  0
ARC
  5
BB
  8
PSM
 62
     8
 10
857.2428568741891
 20
49.99048913930188
 30
0.0
 40
0.4999999999970441
 50
179.9999999999994
 51
90.0
  0
ARC
  5
BC
  8
PSM
 62
     8
 10
852.0428568741903
 20
49.99048913930188
 30
0.0
 40
0.5000000000013287
 50
90.0
 51
0.000000000000573
  0
LINE
  5
BD
  8
PSM
 62
     8
 10
852.542856874193
 20
49.99048913930188
 30
0.0
 11
856.7428568741921
 21
49.99048913930188
 31
0.0
  0
ARC
  5
BE
  8
PSM
 62
     8
 10
685.8222208960246
 20
49.99048914510316
 30
0.0
 40
0.4999999999969305
 50
179.9999999999994
 51
90.0
  0
ARC
  5
BF
  8
PSM
 62
     8
 10
680.6222208960259
 20
49.99048914510316
 30
0.0
 40
0.4999999999998863
 50
90.0
 51
0.000000000000573
  0
LINE
  5
C0
  8
PSM
 62
     8
 10
681.1222208960287
 20
49.99048914510316
 30
0.0
 11
685.3222208960277
 21
49.99048914510316
 31
0.0
  0
ARC
  5
C1
  8
PSM
 62
     8
 10
514.3857119968811
 20
49.99048914510316
 30
0.0
 40
0.5000000000028422
 50
179.9999999999994
 51
90.0
  0
ARC
  5
C2
  8
PSM
 62
     8
 10
509.1857119968765
 20
49.99048914510316
 30
0.0
 40
0.4999999999998863
 50
90.0
 51
0.000000000000573
  0
LINE
  5
C3
  8
PSM
 62
     8
 10
509.6857119968793
 20
49.99048914510316
 30
0.0
 11
513.8857119968783
 21
49.99048914510316
 31
0.0
  0
ARC
  5
C4
  8
PSM
 62
     8
 10
342.9571405683082
 20
49.99048914510316
 30
0.0
 40
0.5000000000027285
 50
179.9999999999994
 51
90.0
  0
ARC
  5
C5
  8
PSM
 62
     8
 10
337.7571405683094
 20
49.99048914510316
 30
0.0
 40
0.4999999999998863
 50
90.0
 51
0.000000000000573
  0
LINE
  5
C6
  8
PSM
 62
     8
 10
338.2571405683064
 20
49.99048914510316
 30
0.0
 11
342.4571405683055
 21
49.99048914510316
 31
0.0
  0
LINE
  5
C7
  8
PSM
 62
     8
 10
166.3285711599046
 20
50.49524456965164
 30
0.0
 11
166.3285711599046
 21
99.99048913930206
 31
0.0
  0
LINE
  5
C8
  8
PSM
 62
     8
 10
171.5285711599034
 20
50.49524456965164
 30
0.0
 11
171.5285711599034
 21
99.99048913930206
 31
0.0
  0
LINE
  5
C9
  8
PSM
 62
   150
 10
119.7463443728807
 20
99.990489138661
 30
0.0
 11
10.0004443079304
 21
289.9999999996596
 31
0.0
  0
LINE
  5
CA
  8
PSM
 62
   150
 10
-0.0000000000057753
 20
250.4904891334261
 30
0.0
 11
0.0004443079269022
 21
289.9999999996596
 31
0.0
  0
DIMENSION
  5
CC
  8
DIMENSION
 62
   150
  2
*D1
 10
-32.75216710179755
 20
0.000000000000002
 30
0.0
 11
-32.75216710179754
 21
144.9999999998298
 31
0.0
 70
    32
  3
ROTATEDDIM28
 13
0.0004443079269022
 23
289.9999999996596
 33
0.0
 14
0.0
 24
0.0
 34
0.0
 50
90.0
  0
LINE
  5
DB
  8
PSM
 62
   150
 10
1070.253541073361
 20
99.9904891457112
 30
0.0
 11
1180.000265445044
 21
289.9952491171804
 31
0.0
  0
LINE
  5
DC
  8
PSM
 62
     8
 10
1189.999885445676
 20
250.4904891392303
 30
0.0
 11
1189.999420897799
 21
289.9952491171804
 31
0.0
  0
LINE
  5
DD
  8
PSM
 62
     8
 10
1189.999420897799
 20
289.9952491171804
 30
0.0
 11
1180.000265445044
 21
289.9952491171804
 31
0.0
  0
DIMENSION
  5
DF
  8
DIMENSION
 62
   150
  2
*D2
 10
1194.999885445675
 20
-61.92760391633688
 30
0.0
 11
594.9999427228352
 21
-61.92760391633688
 31
0.0
 70
    32
  3
ROTATEDDIM29
 13
-5.000000000004638
 23
24.99048913350195
 33
0.0
 14
1194.999885445675
 24
24.99048913930179
 34
0.0
  0
ENDSEC
  0
EOF
