  0
SECTION
  2
HEADER
  9
$ACADVER
  1
AC1009
  9
$DWGCODEPAGE
  3
ansi_1252
  9
$INSBASE
 10
0.0
 20
0.0
 30
0.0
  9
$EXTMIN
 10
0.0
 20
-36.28571428571428
 30
0.0
  9
$EXTMAX
 10
741.071149621693
 20
198.0680257779017
 30
198.0680257779017
  9
$LIMMIN
 10
0.0
 20
0.0
  9
$LIMMAX
 10
420.0
 20
297.0
  9
$ORTHOMODE
 70
     0
  9
$REGENMODE
 70
     1
  9
$FILLMODE
 70
     1
  9
$QTEXTMODE
 70
     0
  9
$MIRRTEXT
 70
     1
  9
$DRAGMODE
 70
     2
  9
$LTSCALE
 40
1.0
  9
$OSMODE
 70
    37
  9
$ATTMODE
 70
     1
  9
$TEXTSIZE
 40
2.5
  9
$TRACEWID
 40
1.0
  9
$TEXTSTYLE
  7
STANDARD
  9
$CLAYER
  8
0
  9
$CELTYPE
  6
BYLAYER
  9
$CECOLOR
 62
   256
  9
$DIMSCALE
 40
1.0
  9
$DIMASZ
 40
2.5
  9
$DIMEXO
 40
0.625
  9
$DIMDLI
 40
3.75
  9
$DIMRND
 40
0.0
  9
$DIMDLE
 40
0.0
  9
$DIMEXE
 40
1.25
  9
$DIMTP
 40
0.0
  9
$DIMTM
 40
0.0
  9
$DIMTXT
 40
2.5
  9
$DIMCEN
 40
2.5
  9
$DIMTSZ
 40
0.0
  9
$DIMTOL
 70
     0
  9
$DIMLIM
 70
     0
  9
$DIMTIH
 70
     0
  9
$DIMTOH
 70
     0
  9
$DIMSE1
 70
     0
  9
$DIMSE2
 70
     0
  9
$DIMTAD
 70
     1
  9
$DIMZIN
 70
     8
  9
$DIMBLK
  1

  9
$DIMASO
 70
     1
  9
$DIMSHO
 70
     1
  9
$DIMPOST
  1

  9
$DIMAPOST
  1

  9
$DIMALT
 70
     0
  9
$DIMALTD
 70
     3
  9
$DIMALTF
 40
0.03937007874016
  9
$DIMLFAC
 40
1.0
  9
$DIMTOFL
 70
     1
  9
$DIMTVP
 40
0.0
  9
$DIMTIX
 70
     0
  9
$DIMSOXD
 70
     0
  9
$DIMSAH
 70
     0
  9
$DIMBLK1
  1

  9
$DIMBLK2
  1

  9
$DIMSTYLE
  2
ISO-25
  9
$DIMCLRD
 70
     0
  9
$DIMCLRE
 70
     0
  9
$DIMCLRT
 70
     0
  9
$DIMTFAC
 40
1.0
  9
$DIMGAP
 40
0.625
  9
$LUNITS
 70
     2
  9
$LUPREC
 70
     4
  9
$SKETCHINC
 40
1.0
  9
$FILLETRAD
 40
10.0
  9
$AUNITS
 70
     0
  9
$AUPREC
 70
     0
  9
$MENU
  1
.
  9
$ELEVATION
 40
0.0
  9
$PELEVATION
 40
0.0
  9
$THICKNESS
 40
0.0
  9
$LIMCHECK
 70
     0
  9
$CHAMFERA
 40
10.0
  9
$CHAMFERB
 40
10.0
  9
$SKPOLY
 70
     0
  9
$TDCREATE
 40
2305814.772777778
  9
$TDUPDATE
 40
2456148.689450741
  9
$TDINDWG
 40
0.0000000116
  9
$TDUSRTIMER
 40
0.0000000116
  9
$USRTIMER
 70
     1
  9
$ANGBASE
 50
0.0
  9
$ANGDIR
 70
     0
  9
$PDMODE
 70
     0
  9
$PDSIZE
 40
0.0
  9
$PLINEWID
 40
0.0
  9
$COORDS
 70
     1
  9
$SPLFRAME
 70
     0
  9
$SPLINETYPE
 70
     6
  9
$SPLINESEGS
 70
     8
  9
$ATTDIA
 70
     0
  9
$ATTREQ
 70
     1
  9
$HANDLING
 70
     1
  9
$HANDSEED
  5
9D
  9
$SURFTAB1
 70
     6
  9
$SURFTAB2
 70
     6
  9
$SURFTYPE
 70
     6
  9
$SURFU
 70
     6
  9
$SURFV
 70
     6
  9
$UCSNAME
  2

  9
$UCSORG
 10
0.0
 20
0.0
 30
0.0
  9
$UCSXDIR
 10
1.0
 20
0.0
 30
0.0
  9
$UCSYDIR
 10
0.0
 20
1.0
 30
0.0
  9
$PUCSNAME
  2

  9
$PUCSORG
 10
0.0
 20
0.0
 30
0.0
  9
$PUCSXDIR
 10
1.0
 20
0.0
 30
0.0
  9
$PUCSYDIR
 10
0.0
 20
1.0
 30
0.0
  9
$USERI1
 70
     0
  9
$USERI2
 70
     0
  9
$USERI3
 70
     0
  9
$USERI4
 70
     0
  9
$USERI5
 70
     0
  9
$USERR1
 40
0.0
  9
$USERR2
 40
0.0
  9
$USERR3
 40
0.0
  9
$USERR4
 40
0.0
  9
$USERR5
 40
0.0
  9
$WORLDVIEW
 70
     1
  9
$SHADEDGE
 70
     3
  9
$SHADEDIF
 70
    70
  9
$TILEMODE
 70
     1
  9
$MAXACTVP
 70
    64
  9
$PLIMCHECK
 70
     0
  9
$PEXTMIN
 10
1.000000000000000E+20
 20
1.000000000000000E+20
 30
1.000000000000000E+20
  9
$PEXTMAX
 10
-1.000000000000000E+20
 20
-1.000000000000000E+20
 30
-1.000000000000000E+20
  9
$PLIMMIN
 10
0.0
 20
0.0
  9
$PLIMMAX
 10
420.0
 20
297.0
  9
$UNITMODE
 70
     0
  9
$VISRETAIN
 70
     1
  9
$PLINEGEN
 70
     0
  9
$PSLTSCALE
 70
     1
  0
ENDSEC
  0
SECTION
  2
TABLES
  0
TABLE
  2
VPORT
 70
     1
  0
VPORT
  2
*ACTIVE
 70
     0
 10
0.0
 20
0.0
 11
1.0
 21
1.0
 12
369.2474318844942
 22
11.89841393460034
 13
0.0
 23
0.0
 14
10.0
 24
10.0
 15
10.0
 25
10.0
 16
0.0
 26
0.0
 36
1.0
 17
0.0
 27
0.0
 37
0.0
 40
77.72723557341496
 41
9.691130213075624
 42
50.0
 43
0.0
 44
0.0
 50
0.0
 51
0.0
 71
     0
 72
   100
 73
     1
 74
     3
 75
     0
 76
     0
 77
     0
 78
     0
  0
ENDTAB
  0
TABLE
  2
LTYPE
 70
    11
  0
LTYPE
  2
CONTINUOUS
 70
     0
  3
Solid line
 72
    65
 73
     0
 40
0.0
  0
LTYPE
  2
BORDER
 70
     0
  3
__ __ . __ __ . __ 
 72
    65
 73
     6
 40
0.875
 49
0.25
 49
-0.125
 49
0.25
 49
-0.125
 49
0.0
 49
-0.125
  0
LTYPE
  2
CENTER
 70
     0
  3
___ _ ___ _ ___ _ _
 72
    65
 73
     4
 40
1.125
 49
0.75
 49
-0.125
 49
0.125
 49
-0.125
  0
LTYPE
  2
DASHDOT
 70
     0
  3
_._._._._._._._._._
 72
    65
 73
     4
 40
0.5
 49
0.25
 49
-0.125
 49
0.0
 49
-0.125
  0
LTYPE
  2
DASHED
 70
     0
  3
_ _ _ _ _ _ _ _ _ _
 72
    65
 73
     2
 40
0.375
 49
0.25
 49
-0.125
  0
LTYPE
  2
DIVIDE
 70
     0
  3
__..__..__..__..__.
 72
    65
 73
     6
 40
0.625
 49
0.25
 49
-0.125
 49
0.0
 49
-0.125
 49
0.0
 49
-0.125
  0
LTYPE
  2
DOT
 70
     0
  3
...................
 72
    65
 73
     2
 40
0.125
 49
0.0
 49
-0.125
  0
LTYPE
  2
HIDDEN
 70
     0
  3
__ __ __ __ __ __ _
 72
    65
 73
     2
 40
0.1875
 49
0.125
 49
-0.0625
  0
LTYPE
  2
PHANTOM
 70
     0
  3
___ _ _ ___ _ _ ___
 72
    65
 73
     6
 40
1.25
 49
0.625
 49
-0.125
 49
0.125
 49
-0.125
 49
0.125
 49
-0.125
  0
LTYPE
  2
CUTTING
 70
     0
  3
________ _ _ ______
 72
    65
 73
     6
 40
1.4675
 49
1.0
 49
-0.0725
 49
0.125
 49
-0.0725
 49
0.125
 49
-0.0725
  0
LTYPE
  2
STITCH
 70
     0
  3
_ _ _ _ _ _ _ _ _ _
 72
    65
 73
     2
 40
0.145
 49
0.0725
 49
-0.0725
  0
ENDTAB
  0
TABLE
  2
LAYER
 70
     4
  0
LAYER
  2
0
 70
     0
 62
     7
  6
CONTINUOUS
  0
LAYER
  2
DIMENSION
 70
     0
 62
     7
  6
CONTINUOUS
  0
LAYER
  2
PTE
 70
     0
 62
    18
  6
CONTINUOUS
  0
LAYER
  2
DEFPOINTS
 70
     0
 62
     7
  6
CONTINUOUS
  0
ENDTAB
  0
TABLE
  2
STYLE
 70
     1
  0
STYLE
  2
STANDARD
 70
     0
 40
0.0
 41
1.0
 50
0.0
 71
     0
 42
2.5
  3
txt
  4

  0
ENDTAB
  0
TABLE
  2
VIEW
 70
     0
  0
ENDTAB
  0
TABLE
  2
UCS
 70
     0
  0
ENDTAB
  0
TABLE
  2
APPID
 70
     2
  0
APPID
  2
ACAD
 70
     0
  0
APPID
  2
ENCORE_SOFTWARE_VIACAD
 70
     0
  0
ENDTAB
  0
TABLE
  2
DIMSTYLE
 70
     4
  0
DIMSTYLE
  2
ISO-25
 70
     0
  3

  4

  5

  6

  7

 40
1.0
 41
2.5
 42
0.625
 43
3.75
 44
1.25
 45
0.0
 46
0.0
 47
0.0
 48
0.0
140
2.5
141
2.5
142
0.0
143
0.03937007874016
144
1.0
145
0.0
146
1.0
147
0.625
 71
     0
 72
     0
 73
     0
 74
     0
 75
     0
 76
     0
 77
     1
 78
     8
170
     0
171
     3
172
     1
173
     0
174
     0
175
     0
176
     0
177
     0
178
     0
  0
DIMSTYLE
  2
ROTATEDDIM0
 70
     0
  3

  4

  5

  6

  7

 40
1.0
 41
8.105938112967356
 42
2.598057087489537
 43
3.75
 44
6.495142718723842
 45
0.0
 46
0.0
 47
0.0
 48
0.0
140
7.159999847412109
141
2.5
142
0.0
143
0.03937007874016
144
1.0
145
0.0
146
1.0
147
0.625
 71
     0
 72
     0
 73
     0
 74
     0
 75
     0
 76
     0
 77
     0
 78
     8
170
     0
171
     3
172
     1
173
     0
174
     0
175
     0
176
     0
177
     0
178
     0
  0
DIMSTYLE
  2
ROTATEDDIM1
 70
     0
  3

  4

  5

  6

  7

 40
1.0
 41
8.105938112967356
 42
2.598057087489537
 43
3.75
 44
6.495142718723842
 45
0.0
 46
0.0
 47
0.0
 48
0.0
140
7.159999847412109
141
2.5
142
0.0
143
0.03937007874016
144
1.0
145
0.0
146
1.0
147
0.625
 71
     0
 72
     0
 73
     0
 74
     0
 75
     0
 76
     0
 77
     0
 78
     8
170
     0
171
     3
172
     1
173
     0
174
     0
175
     0
176
     0
177
     0
178
     0
  0
DIMSTYLE
  2
ROTATEDDIM2
 70
     0
  3

  4

  5

  6

  7

 40
1.0
 41
8.105938112967356
 42
2.598057087489537
 43
3.75
 44
6.495142718723842
 45
0.0
 46
0.0
 47
0.0
 48
0.0
140
7.159999847412109
141
2.5
142
0.0
143
0.03937007874016
144
1.0
145
0.0
146
1.0
147
0.625
 71
     0
 72
     0
 73
     0
 74
     0
 75
     0
 76
     0
 77
     0
 78
     8
170
     0
171
     3
172
     1
173
     0
174
     0
175
     0
176
     0
177
     0
178
     0
  0
ENDTAB
  0
ENDSEC
  0
SECTION
  2
BLOCKS
  0
BLOCK
  8
0
  2
$MODEL_SPACE
 70
     0
 10
0.0
 20
0.0
 30
0.0
  3
$MODEL_SPACE
  1

  0
ENDBLK
  5
21
  8
0
  0
BLOCK
 67
     1
  8
0
  2
$PAPER_SPACE
 70
     0
 10
0.0
 20
0.0
 30
0.0
  3
$PAPER_SPACE
  1

  0
ENDBLK
  5
1D
 67
     1
  8
0
  0
BLOCK
  8
0
  2
*D1
 70
     1
 10
0.0
 20
0.0
 30
0.0
  3
*D1
  1

  0
LINE
  5
6A
  8
DIMENSION
 62
     0
 10
0.0
 20
-2.598057087489537
 30
0.0
 11
0.0
 21
-26.20317213079916
 31
0.0
  0
LINE
  5
6B
  8
DIMENSION
 62
     0
 10
721.9997210502645
 20
-2.598057087489537
 30
0.0
 11
721.9997210502645
 21
-26.20317213079916
 31
0.0
  0
LINE
  5
6C
  8
DIMENSION
 62
     0
 10
8.105938112967356
 20
-19.70802941207532
 30
0.0
 11
351.1691464356024
 21
-19.70802941207532
 31
0.0
  0
LINE
  5
6D
  8
DIMENSION
 62
     0
 10
713.8937829372971
 20
-19.70802941207532
 30
0.0
 11
370.8305746146621
 21
-19.70802941207532
 31
0.0
  0
SOLID
  5
6E
  8
DIMENSION
 62
     0
 10
8.105938112967356
 20
-18.35703972658076
 30
0.0
 11
8.105938112967356
 21
-21.05901909756988
 31
0.0
 12
0.0
 22
-19.70802941207532
 32
0.0
 13
0.0
 23
-19.70802941207532
 33
0.0
  0
SOLID
  5
6F
  8
DIMENSION
 62
     0
 10
713.8937829372971
 20
-21.05901909756988
 30
0.0
 11
713.8937829372971
 21
-18.35703972658076
 31
0.0
 12
721.9997210502645
 22
-19.70802941207532
 32
0.0
 13
721.9997210502645
 23
-19.70802941207532
 33
0.0
  0
TEXT
  5
70
  8
DIMENSION
  6
CONTINUOUS
 62
     0
 10
350.7712893145435
 20
-23.28802933578137
 30
0.0
 40
7.159999847412109
  1
722
  0
POINT
  5
71
  8
DEFPOINTS
 62
     0
 10
0.0
 20
0.0
 30
0.0
  0
POINT
  5
72
  8
DEFPOINTS
 62
     0
 10
721.9997210502645
 20
0.0
 30
0.0
  0
POINT
  5
73
  8
DEFPOINTS
 62
     0
 10
721.9997210502645
 20
-19.70802941207532
 30
0.0
  0
ENDBLK
  5
75
  8
0
  0
BLOCK
  8
0
  2
*D2
 70
     1
 10
0.0
 20
0.0
 30
0.0
  3
*D2
  1

  0
LINE
  5
79
  8
DIMENSION
 62
     0
 10
589.0979176126232
 20
49.99999999999982
 30
0.0
 11
602.9950032438575
 21
49.99999999999982
 31
0.0
  0
LINE
  5
7A
  8
DIMENSION
 62
     0
 10
589.0979176126232
 20
-0.0000000000000002
 30
0.0
 11
602.9950032438575
 21
-0.000000000000001
 31
0.0
  0
LINE
  5
7B
  8
DIMENSION
 62
     0
 10
596.4998605251336
 20
41.89406188703246
 30
0.0
 11
596.4998605251336
 21
31.42119035266683
 31
0.0
  0
LINE
  5
7C
  8
DIMENSION
 62
     0
 10
596.4998605251336
 20
8.105938112967356
 30
0.0
 11
596.4998605251336
 21
18.57880964733294
 31
0.0
  0
SOLID
  5
7D
  8
DIMENSION
 62
     0
 10
597.8508502106282
 20
41.89406188703246
 30
0.0
 11
595.148870839639
 21
41.89406188703246
 31
0.0
 12
596.4998605251336
 22
49.99999999999982
 32
0.0
 13
596.4998605251336
 23
49.99999999999982
 33
0.0
  0
SOLID
  5
7E
  8
DIMENSION
 62
     0
 10
595.148870839639
 20
8.105938112967356
 30
0.0
 11
597.8508502106282
 21
8.105938112967356
 31
0.0
 12
596.4998605251336
 22
-0.0000000000000006
 32
0.0
 13
596.4998605251336
 23
-0.0000000000000006
 33
0.0
  0
TEXT
  5
7F
  8
DIMENSION
  6
CONTINUOUS
 62
     0
 10
600.0798604488397
 20
18.18095252627404
 30
0.0
 40
7.159999847412109
  1
50
 50
90.0
  0
POINT
  5
80
  8
DEFPOINTS
 62
     0
 10
586.4998605251336
 20
49.99999999999982
 30
0.0
  0
POINT
  5
81
  8
DEFPOINTS
 62
     0
 10
586.4998605251336
 20
0.0
 30
0.0
  0
POINT
  5
82
  8
DEFPOINTS
 62
     0
 10
596.4998605251336
 20
-0.0000000000000006
 30
0.0
  0
ENDBLK
  5
84
  8
0
  0
BLOCK
  8
0
  2
*D3
 70
     1
 10
0.0
 20
0.0
 30
0.0
  3
*D3
  1

  0
LINE
  5
88
  8
DIMENSION
 62
     0
 10
724.5977781377541
 20
45.00000000000023
 30
0.0
 11
738.4948637689884
 21
45.00000000000023
 31
0.0
  0
LINE
  5
89
  8
DIMENSION
 62
     0
 10
724.5977781377541
 20
-0.0000000000000002
 30
0.0
 11
738.4948637689884
 21
-0.000000000000001
 31
0.0
  0
LINE
  5
8A
  8
DIMENSION
 62
     0
 10
731.9997210502645
 20
36.89406188703288
 30
0.0
 11
731.9997210502645
 21
28.92119035266705
 31
0.0
  0
LINE
  5
8B
  8
DIMENSION
 62
     0
 10
731.9997210502645
 20
8.105938112967356
 30
0.0
 11
731.9997210502645
 21
16.07880964733318
 31
0.0
  0
SOLID
  5
8C
  8
DIMENSION
 62
     0
 10
733.3507107357591
 20
36.89406188703288
 30
0.0
 11
730.6487313647699
 21
36.89406188703288
 31
0.0
 12
731.9997210502645
 22
45.00000000000023
 32
0.0
 13
731.9997210502645
 23
45.00000000000023
 33
0.0
  0
SOLID
  5
8D
  8
DIMENSION
 62
     0
 10
730.6487313647699
 20
8.105938112967356
 30
0.0
 11
733.3507107357591
 21
8.105938112967356
 31
0.0
 12
731.9997210502645
 22
-0.0000000000000006
 32
0.0
 13
731.9997210502645
 23
-0.0000000000000006
 33
0.0
  0
TEXT
  5
8E
  8
DIMENSION
  6
CONTINUOUS
 62
     0
 10
735.5797209739706
 20
15.68095252627427
 30
0.0
 40
7.159999847412109
  1
45
 50
90.0
  0
POINT
  5
8F
  8
DEFPOINTS
 62
     0
 10
721.9997210502645
 20
45.00000000000023
 30
0.0
  0
POINT
  5
90
  8
DEFPOINTS
 62
     0
 10
721.9997210502645
 20
0.0
 30
0.0
  0
POINT
  5
91
  8
DEFPOINTS
 62
     0
 10
731.9997210502645
 20
-0.0000000000000006
 30
0.0
  0
ENDBLK
  5
93
  8
0
  0
ENDSEC
  0
SECTION
  2
ENTITIES
  0
LINE
  5
4C
  8
PTE
 62
     8
 10
561.4998605251336
 20
49.99999999999982
 30
0.0
 11
561.4998605251336
 21
45.50000000000012
 31
0.0
  0
ARC
  5
4D
  8
PTE
 62
     8
 10
561.4998605251336
 20
45.00000000000023
 30
0.0
 40
0.4999999999998863
 50
179.9999999999994
 51
90.0
  0
ARC
  5
4E
  8
PTE
 62
     8
 10
586.4998605251336
 20
45.00000000000023
 30
0.0
 40
0.4999999999998863
 50
90.0
 51
359.9999999999993
  0
LINE
  5
4F
  8
PTE
 62
     8
 10
419.4998605251334
 20
49.99999999999982
 30
0.0
 11
444.4998605251334
 21
49.99999999999982
 31
0.0
  0
LINE
  5
50
  8
PTE
 62
     8
 10
444.4998605251334
 20
45.50000000000012
 30
0.0
 11
444.4998605251334
 21
49.99999999999982
 31
0.0
  0
LINE
  5
51
  8
PTE
 62
     8
 10
419.4998605251334
 20
49.99999999999982
 30
0.0
 11
419.4998605251334
 21
45.50000000000012
 31
0.0
  0
ARC
  5
52
  8
PTE
 62
     8
 10
419.4998605251334
 20
45.00000000000023
 30
0.0
 40
0.4999999999998863
 50
180.0000000000008
 51
90.0
  0
ARC
  5
53
  8
PTE
 62
     8
 10
444.4998605251334
 20
45.00000000000023
 30
0.0
 40
0.4999999999998863
 50
90.00000000000654
 51
0.000000000000573
  0
LINE
  5
54
  8
PTE
 62
     8
 10
277.4998605251325
 20
49.99999999999982
 30
0.0
 11
302.4998605251325
 21
49.99999999999982
 31
0.0
  0
LINE
  5
55
  8
PTE
 62
     8
 10
302.4998605251325
 20
45.50000000000012
 30
0.0
 11
302.4998605251325
 21
49.99999999999982
 31
0.0
  0
LINE
  5
56
  8
PTE
 62
     8
 10
277.4998605251325
 20
49.99999999999982
 30
0.0
 11
277.4998605251325
 21
45.50000000000012
 31
0.0
  0
ARC
  5
57
  8
PTE
 62
     8
 10
277.4998605251325
 20
45.00000000000023
 30
0.0
 40
0.4999999999998863
 50
180.0000000000008
 51
90.0
  0
ARC
  5
58
  8
PTE
 62
     8
 10
302.4998605251325
 20
45.00000000000023
 30
0.0
 40
0.4999999999998863
 50
90.0
 51
0.000000000000573
  0
LINE
  5
59
  8
PTE
 62
     8
 10
135.4998605251323
 20
49.99999999999982
 30
0.0
 11
160.4998605251331
 21
49.99999999999982
 31
0.0
  0
LINE
  5
5A
  8
PTE
 62
     8
 10
160.4998605251331
 20
45.50000000000012
 30
0.0
 11
160.4998605251331
 21
49.99999999999982
 31
0.0
  0
LINE
  5
5B
  8
PTE
 62
     8
 10
135.4998605251323
 20
49.99999999999982
 30
0.0
 11
135.4998605251323
 21
45.50000000000012
 31
0.0
  0
ARC
  5
5C
  8
PTE
 62
     8
 10
135.4998605251323
 20
45.00000000000023
 30
0.0
 40
0.4999999999998863
 50
179.9999999999992
 51
90.0
  0
ARC
  5
5D
  8
PTE
 62
     8
 10
160.4998605251331
 20
45.00000000000023
 30
0.0
 40
0.4999999999998863
 50
90.0
 51
359.9999999999993
  0
LINE
  5
5E
  8
PTE
 62
     8
 10
560.9998605251329
 20
45.00000000000023
 30
0.0
 11
444.9998605251333
 21
45.00000000000023
 31
0.0
  0
LINE
  5
5F
  8
PTE
 62
     8
 10
418.9998605251328
 20
45.00000000000023
 30
0.0
 11
302.9998605251324
 21
45.00000000000023
 31
0.0
  0
LINE
  5
60
  8
PTE
 62
     8
 10
276.9998605251326
 20
45.00000000000023
 30
0.0
 11
160.999860525133
 21
45.00000000000023
 31
0.0
  0
LINE
  5
61
  8
PTE
 62
     8
 10
0.0
 20
45.00000000000023
 30
0.0
 11
134.9998605251324
 21
45.00000000000023
 31
0.0
  0
LINE
  5
62
  8
PTE
 62
     8
 10
0.0
 20
0.0
 30
0.0
 11
0.0
 21
45.00000000000023
 31
0.0
  0
LINE
  5
63
  8
PTE
 62
     8
 10
721.9997210502645
 20
0.0
 30
0.0
 11
0.0
 21
0.0
 31
0.0
  0
LINE
  5
64
  8
PTE
 62
     8
 10
586.9998605251335
 20
45.00000000000023
 30
0.0
 11
721.9997210502645
 21
45.00000000000023
 31
0.0
  0
LINE
  5
65
  8
PTE
 62
     8
 10
721.9997210502645
 20
45.00000000000023
 30
0.0
 11
721.9997210502645
 21
0.0
 31
0.0
  0
DIMENSION
  5
67
  8
DIMENSION
 62
   150
  2
*D1
 10
721.9997210502645
 20
-19.70802941207532
 30
0.0
 11
360.9998605251322
 21
-19.70802941207532
 31
0.0
 70
    32
  3
ROTATEDDIM0
 13
0.0
 23
0.0
 33
0.0
 14
721.9997210502645
 24
0.0
 34
0.0
  0
DIMENSION
  5
77
  8
DIMENSION
 62
   150
  2
*D2
 10
596.4998605251336
 20
-0.0000000000000006
 30
0.0
 11
596.4998605251336
 21
24.99999999999991
 31
0.0
 70
    32
  3
ROTATEDDIM1
 13
586.4998605251336
 23
49.99999999999982
 33
0.0
 14
586.4998605251336
 24
0.0
 34
0.0
 50
90.0
  0
DIMENSION
  5
86
  8
DIMENSION
 62
   150
  2
*D3
 10
731.9997210502645
 20
-0.0000000000000006
 30
0.0
 11
731.9997210502645
 21
22.50000000000012
 31
0.0
 70
    32
  3
ROTATEDDIM2
 13
721.9997210502645
 23
45.00000000000023
 33
0.0
 14
721.9997210502645
 24
0.0
 34
0.0
 50
90.0
  0
LINE
  5
94
  8
PTE
 62
   150
 10
561.4998605251336
 20
49.99999999999982
 30
0.0
 11
586.4998605251336
 21
49.99999999999982
 31
0.0
  0
LINE
  5
95
  8
PTE
 62
   150
 10
586.4998605251336
 20
49.99999999999982
 30
0.0
 11
586.4998605251336
 21
45.50000000000012
 31
0.0
  0
ENDSEC
  0
EOF
