  0
SECTION
  2
HEADER
  9
$ACADVER
  1
AC1009
  9
$DWGCODEPAGE
  3
ansi_1252
  9
$INSBASE
 10
0.0
 20
0.0
 30
0.0
  9
$EXTMIN
 10
0.0
 20
-27.2014767193933
 30
0.0
  9
$EXTMAX
 10
741.7219783185234
 20
99.99966163635253
 30
54.20913716595725
  9
$LIMMIN
 10
0.0
 20
0.0
  9
$LIMMAX
 10
420.0
 20
297.0
  9
$ORTHOMODE
 70
     0
  9
$REGENMODE
 70
     1
  9
$FILLMODE
 70
     1
  9
$QTEXTMODE
 70
     0
  9
$MIRRTEXT
 70
     1
  9
$DRAGMODE
 70
     2
  9
$LTSCALE
 40
1.0
  9
$OSMODE
 70
    37
  9
$ATTMODE
 70
     1
  9
$TEXTSIZE
 40
2.5
  9
$TRACEWID
 40
1.0
  9
$TEXTSTYLE
  7
STANDARD
  9
$CLAYER
  8
0
  9
$CELTYPE
  6
BYLAYER
  9
$CECOLOR
 62
   256
  9
$DIMSCALE
 40
1.0
  9
$DIMASZ
 40
2.5
  9
$DIMEXO
 40
0.625
  9
$DIMDLI
 40
3.75
  9
$DIMRND
 40
0.0
  9
$DIMDLE
 40
0.0
  9
$DIMEXE
 40
1.25
  9
$DIMTP
 40
0.0
  9
$DIMTM
 40
0.0
  9
$DIMTXT
 40
2.5
  9
$DIMCEN
 40
2.5
  9
$DIMTSZ
 40
0.0
  9
$DIMTOL
 70
     0
  9
$DIMLIM
 70
     0
  9
$DIMTIH
 70
     0
  9
$DIMTOH
 70
     0
  9
$DIMSE1
 70
     0
  9
$DIMSE2
 70
     0
  9
$DIMTAD
 70
     1
  9
$DIMZIN
 70
     8
  9
$DIMBLK
  1

  9
$DIMASO
 70
     1
  9
$DIMSHO
 70
     1
  9
$DIMPOST
  1

  9
$DIMAPOST
  1

  9
$DIMALT
 70
     0
  9
$DIMALTD
 70
     3
  9
$DIMALTF
 40
0.03937007874016
  9
$DIMLFAC
 40
1.0
  9
$DIMTOFL
 70
     1
  9
$DIMTVP
 40
0.0
  9
$DIMTIX
 70
     0
  9
$DIMSOXD
 70
     0
  9
$DIMSAH
 70
     0
  9
$DIMBLK1
  1

  9
$DIMBLK2
  1

  9
$DIMSTYLE
  2
ISO-25
  9
$DIMCLRD
 70
     0
  9
$DIMCLRE
 70
     0
  9
$DIMCLRT
 70
     0
  9
$DIMTFAC
 40
1.0
  9
$DIMGAP
 40
0.625
  9
$LUNITS
 70
     2
  9
$LUPREC
 70
     4
  9
$SKETCHINC
 40
1.0
  9
$FILLETRAD
 40
10.0
  9
$AUNITS
 70
     0
  9
$AUPREC
 70
     0
  9
$MENU
  1
.
  9
$ELEVATION
 40
0.0
  9
$PELEVATION
 40
0.0
  9
$THICKNESS
 40
0.0
  9
$LIMCHECK
 70
     0
  9
$CHAMFERA
 40
10.0
  9
$CHAMFERB
 40
10.0
  9
$SKPOLY
 70
     0
  9
$TDCREATE
 40
2305814.466944444
  9
$TDUPDATE
 40
2456135.383619085
  9
$TDINDWG
 40
0.0000000116
  9
$TDUSRTIMER
 40
0.0000000116
  9
$USRTIMER
 70
     1
  9
$ANGBASE
 50
0.0
  9
$ANGDIR
 70
     0
  9
$PDMODE
 70
     0
  9
$PDSIZE
 40
0.0
  9
$PLINEWID
 40
0.0
  9
$COORDS
 70
     1
  9
$SPLFRAME
 70
     0
  9
$SPLINETYPE
 70
     6
  9
$SPLINESEGS
 70
     8
  9
$ATTDIA
 70
     0
  9
$ATTREQ
 70
     1
  9
$HANDLING
 70
     1
  9
$HANDSEED
  5
A6
  9
$SURFTAB1
 70
     6
  9
$SURFTAB2
 70
     6
  9
$SURFTYPE
 70
     6
  9
$SURFU
 70
     6
  9
$SURFV
 70
     6
  9
$UCSNAME
  2

  9
$UCSORG
 10
0.0
 20
0.0
 30
0.0
  9
$UCSXDIR
 10
1.0
 20
0.0
 30
0.0
  9
$UCSYDIR
 10
0.0
 20
1.0
 30
0.0
  9
$PUCSNAME
  2

  9
$PUCSORG
 10
0.0
 20
0.0
 30
0.0
  9
$PUCSXDIR
 10
1.0
 20
0.0
 30
0.0
  9
$PUCSYDIR
 10
0.0
 20
1.0
 30
0.0
  9
$USERI1
 70
     0
  9
$USERI2
 70
     0
  9
$USERI3
 70
     0
  9
$USERI4
 70
     0
  9
$USERI5
 70
     0
  9
$USERR1
 40
0.0
  9
$USERR2
 40
0.0
  9
$USERR3
 40
0.0
  9
$USERR4
 40
0.0
  9
$USERR5
 40
0.0
  9
$WORLDVIEW
 70
     1
  9
$SHADEDGE
 70
     3
  9
$SHADEDIF
 70
    70
  9
$TILEMODE
 70
     1
  9
$MAXACTVP
 70
    64
  9
$PLIMCHECK
 70
     0
  9
$PEXTMIN
 10
1.000000000000000E+20
 20
1.000000000000000E+20
 30
1.000000000000000E+20
  9
$PEXTMAX
 10
-1.000000000000000E+20
 20
-1.000000000000000E+20
 30
-1.000000000000000E+20
  9
$PLIMMIN
 10
0.0
 20
0.0
  9
$PLIMMAX
 10
420.0
 20
297.0
  9
$UNITMODE
 70
     0
  9
$VISRETAIN
 70
     1
  9
$PLINEGEN
 70
     0
  9
$PSLTSCALE
 70
     1
  0
ENDSEC
  0
SECTION
  2
TABLES
  0
TABLE
  2
VPORT
 70
     1
  0
VPORT
  2
*ACTIVE
 70
     0
 10
0.0
 20
0.0
 11
1.0
 21
1.0
 12
369.2474495176155
 22
37.68723538483198
 13
0.0
 23
0.0
 14
10.0
 24
10.0
 15
10.0
 25
10.0
 16
0.0
 26
0.0
 36
1.0
 17
0.0
 27
0.0
 37
0.0
 40
127.1173495531019
 41
5.925743414759189
 42
50.0
 43
0.0
 44
0.0
 50
0.0
 51
0.0
 71
     0
 72
   100
 73
     1
 74
     3
 75
     0
 76
     0
 77
     0
 78
     0
  0
ENDTAB
  0
TABLE
  2
LTYPE
 70
    11
  0
LTYPE
  2
CONTINUOUS
 70
     0
  3
Solid line
 72
    65
 73
     0
 40
0.0
  0
LTYPE
  2
BORDER
 70
     0
  3
__ __ . __ __ . __ 
 72
    65
 73
     6
 40
0.875
 49
0.25
 49
-0.125
 49
0.25
 49
-0.125
 49
0.0
 49
-0.125
  0
LTYPE
  2
CENTER
 70
     0
  3
___ _ ___ _ ___ _ _
 72
    65
 73
     4
 40
1.125
 49
0.75
 49
-0.125
 49
0.125
 49
-0.125
  0
LTYPE
  2
DASHDOT
 70
     0
  3
_._._._._._._._._._
 72
    65
 73
     4
 40
0.5
 49
0.25
 49
-0.125
 49
0.0
 49
-0.125
  0
LTYPE
  2
DASHED
 70
     0
  3
_ _ _ _ _ _ _ _ _ _
 72
    65
 73
     2
 40
0.375
 49
0.25
 49
-0.125
  0
LTYPE
  2
DIVIDE
 70
     0
  3
__..__..__..__..__.
 72
    65
 73
     6
 40
0.625
 49
0.25
 49
-0.125
 49
0.0
 49
-0.125
 49
0.0
 49
-0.125
  0
LTYPE
  2
DOT
 70
     0
  3
...................
 72
    65
 73
     2
 40
0.125
 49
0.0
 49
-0.125
  0
LTYPE
  2
HIDDEN
 70
     0
  3
__ __ __ __ __ __ _
 72
    65
 73
     2
 40
0.1875
 49
0.125
 49
-0.0625
  0
LTYPE
  2
PHANTOM
 70
     0
  3
___ _ _ ___ _ _ ___
 72
    65
 73
     6
 40
1.25
 49
0.625
 49
-0.125
 49
0.125
 49
-0.125
 49
0.125
 49
-0.125
  0
LTYPE
  2
CUTTING
 70
     0
  3
________ _ _ ______
 72
    65
 73
     6
 40
1.4675
 49
1.0
 49
-0.0725
 49
0.125
 49
-0.0725
 49
0.125
 49
-0.0725
  0
LTYPE
  2
STITCH
 70
     0
  3
_ _ _ _ _ _ _ _ _ _
 72
    65
 73
     2
 40
0.145
 49
0.0725
 49
-0.0725
  0
ENDTAB
  0
TABLE
  2
LAYER
 70
     4
  0
LAYER
  2
0
 70
     0
 62
     7
  6
CONTINUOUS
  0
LAYER
  2
DIMENSION
 70
     0
 62
     7
  6
CONTINUOUS
  0
LAYER
  2
LAYER1
 70
     0
 62
    18
  6
CONTINUOUS
  0
LAYER
  2
DEFPOINTS
 70
     0
 62
     7
  6
CONTINUOUS
  0
ENDTAB
  0
TABLE
  2
STYLE
 70
     1
  0
STYLE
  2
STANDARD
 70
     0
 40
0.0
 41
1.0
 50
0.0
 71
     0
 42
2.5
  3
txt
  4

  0
ENDTAB
  0
TABLE
  2
VIEW
 70
     0
  0
ENDTAB
  0
TABLE
  2
UCS
 70
     0
  0
ENDTAB
  0
TABLE
  2
APPID
 70
     2
  0
APPID
  2
ACAD
 70
     0
  0
APPID
  2
ENCORE_SOFTWARE_VIACAD
 70
     0
  0
ENDTAB
  0
TABLE
  2
DIMSTYLE
 70
     3
  0
DIMSTYLE
  2
ISO-25
 70
     0
  3

  4

  5

  6

  7

 40
1.0
 41
2.5
 42
0.625
 43
3.75
 44
1.25
 45
0.0
 46
0.0
 47
0.0
 48
0.0
140
2.5
141
2.5
142
0.0
143
0.03937007874016
144
1.0
145
0.0
146
1.0
147
0.625
 71
     0
 72
     0
 73
     0
 74
     0
 75
     0
 76
     0
 77
     1
 78
     8
170
     0
171
     3
172
     1
173
     0
174
     0
175
     0
176
     0
177
     0
178
     0
  0
DIMSTYLE
  2
ROTATEDDIM33
 70
     0
  3

  4

  5

  6

  7

 40
1.0
 41
8.105938112967356
 42
2.598057087489537
 43
3.75
 44
6.495142718723842
 45
0.0
 46
0.0
 47
0.0
 48
0.0
140
7.159999847412109
141
2.5
142
0.0
143
0.03937007874016
144
1.0
145
0.0
146
1.0
147
0.625
 71
     0
 72
     0
 73
     0
 74
     0
 75
     0
 76
     0
 77
     0
 78
     8
170
     0
171
     3
172
     1
173
     0
174
     0
175
     0
176
     0
177
     0
178
     0
  0
DIMSTYLE
  2
ROTATEDDIM34
 70
     0
  3

  4

  5

  6

  7

 40
1.0
 41
8.105938112967356
 42
2.598057087489537
 43
3.75
 44
6.495142718723842
 45
0.0
 46
0.0
 47
0.0
 48
0.0
140
7.159999847412109
141
2.5
142
0.0
143
0.03937007874016
144
1.0
145
0.0
146
1.0
147
0.625
 71
     0
 72
     0
 73
     0
 74
     0
 75
     0
 76
     0
 77
     0
 78
     8
170
     0
171
     3
172
     1
173
     0
174
     0
175
     0
176
     0
177
     0
178
     0
  0
ENDTAB
  0
ENDSEC
  0
SECTION
  2
BLOCKS
  0
BLOCK
  8
0
  2
$MODEL_SPACE
 70
     0
 10
0.0
 20
0.0
 30
0.0
  3
$MODEL_SPACE
  1

  0
ENDBLK
  5
21
  8
0
  0
BLOCK
 67
     1
  8
0
  2
$PAPER_SPACE
 70
     0
 10
0.0
 20
0.0
 30
0.0
  3
$PAPER_SPACE
  1

  0
ENDBLK
  5
1D
 67
     1
  8
0
  0
BLOCK
  8
0
  2
*D1
 70
     1
 10
0.0
 20
0.0
 30
0.0
  3
*D1
  1

  0
LINE
  5
84
  8
DIMENSION
 62
     0
 10
724.5978134039967
 20
99.99966163635253
 30
0.0
 11
738.494899035231
 21
99.99966163635253
 31
0.0
  0
LINE
  5
85
  8
DIMENSION
 62
     0
 10
724.5978134039967
 20
-0.0000000000000002
 30
0.0
 11
738.494899035231
 21
-0.000000000000001
 31
0.0
  0
LINE
  5
86
  8
DIMENSION
 62
     0
 10
731.9997563165072
 20
91.89372352338518
 30
0.0
 11
731.9997563165072
 21
59.31911634717676
 31
0.0
  0
LINE
  5
87
  8
DIMENSION
 62
     0
 10
731.9997563165072
 20
8.105938112967356
 30
0.0
 11
731.9997563165072
 21
40.68054528917583
 31
0.0
  0
SOLID
  5
88
  8
DIMENSION
 62
     0
 10
733.3507460020018
 20
91.89372352338518
 30
0.0
 11
730.6487666310126
 21
91.89372352338518
 31
0.0
 12
731.9997563165072
 22
99.99966163635253
 32
0.0
 13
731.9997563165072
 23
99.99966163635253
 33
0.0
  0
SOLID
  5
89
  8
DIMENSION
 62
     0
 10
730.6487666310126
 20
8.105938112967356
 30
0.0
 11
733.3507460020018
 21
8.105938112967356
 31
0.0
 12
731.9997563165072
 22
-0.0000000000000006
 32
0.0
 13
731.9997563165072
 23
-0.0000000000000006
 33
0.0
  0
TEXT
  5
8A
  8
DIMENSION
  6
CONTINUOUS
 62
     0
 10
735.5797562402132
 20
39.25983104705813
 30
0.0
 40
7.159999847412109
  1
100
 50
90.0
  0
POINT
  5
8B
  8
DEFPOINTS
 62
     0
 10
721.9997563165072
 20
99.99966163635253
 30
0.0
  0
POINT
  5
8C
  8
DEFPOINTS
 62
     0
 10
721.9997563165072
 20
0.0
 30
0.0
  0
POINT
  5
8D
  8
DEFPOINTS
 62
     0
 10
731.9997563165072
 20
-0.0000000000000006
 30
0.0
  0
ENDBLK
  5
8F
  8
0
  0
BLOCK
  8
0
  2
*D2
 70
     1
 10
0.0
 20
0.0
 30
0.0
  3
*D2
  1

  0
LINE
  5
93
  8
DIMENSION
 62
     0
 10
0.0
 20
-2.598057087489537
 30
0.0
 11
0.0
 21
-24.62519086668857
 31
0.0
  0
LINE
  5
94
  8
DIMENSION
 62
     0
 10
721.9997563165072
 20
-2.598057087489537
 30
0.0
 11
721.9997563165072
 21
-24.62519086668857
 31
0.0
  0
LINE
  5
95
  8
DIMENSION
 62
     0
 10
8.105938112967356
 20
-18.13004814796473
 30
0.0
 11
351.1691640687237
 21
-18.13004814796473
 31
0.0
  0
LINE
  5
96
  8
DIMENSION
 62
     0
 10
713.8938182035398
 20
-18.13004814796473
 30
0.0
 11
370.8305922477834
 21
-18.13004814796473
 31
0.0
  0
SOLID
  5
97
  8
DIMENSION
 62
     0
 10
8.105938112967356
 20
-16.77905846247017
 30
0.0
 11
8.105938112967356
 21
-19.48103783345929
 31
0.0
 12
0.0
 22
-18.13004814796473
 32
0.0
 13
0.0
 23
-18.13004814796473
 33
0.0
  0
SOLID
  5
98
  8
DIMENSION
 62
     0
 10
713.8938182035398
 20
-19.48103783345929
 30
0.0
 11
713.8938182035398
 21
-16.77905846247017
 31
0.0
 12
721.9997563165072
 22
-18.13004814796473
 32
0.0
 13
721.9997563165072
 23
-18.13004814796473
 33
0.0
  0
TEXT
  5
99
  8
DIMENSION
  6
CONTINUOUS
 62
     0
 10
350.7713069476649
 20
-21.71004807167079
 30
0.0
 40
7.159999847412109
  1
722
  0
POINT
  5
9A
  8
DEFPOINTS
 62
     0
 10
0.0
 20
0.0
 30
0.0
  0
POINT
  5
9B
  8
DEFPOINTS
 62
     0
 10
721.9997563165072
 20
0.0
 30
0.0
  0
POINT
  5
9C
  8
DEFPOINTS
 62
     0
 10
721.9997563165072
 20
-18.13004814796473
 30
0.0
  0
ENDBLK
  5
9E
  8
0
  0
ENDSEC
  0
SECTION
  2
ENTITIES
  0
LINE
  5
4C
  8
LAYER1
 62
     8
 10
0.0
 20
99.99966163635253
 30
0.0
 11
0.0
 21
0.0
 31
0.0
  0
LINE
  5
4D
  8
LAYER1
 62
     8
 10
0.0
 20
0.0
 30
0.0
 11
721.9997563165072
 21
0.0
 31
0.0
  0
LINE
  5
4E
  8
LAYER1
 62
     8
 10
721.9997563165072
 20
0.0
 30
0.0
 11
721.9997563165072
 21
99.99966163635253
 31
0.0
  0
ARC
  5
4F
  8
LAYER1
 62
     8
 10
160.5998781582526
 20
47.39966081879982
 30
0.0
 40
0.5000000000005969
 50
179.9999999999994
 51
90.0
  0
ARC
  5
50
  8
LAYER1
 62
     8
 10
160.5998781582526
 20
52.59966081879971
 30
0.0
 40
0.5000000000002487
 50
270.0
 51
179.9999999999994
  0
ARC
  5
51
  8
LAYER1
 62
     8
 10
135.3998781582526
 20
47.39966081879982
 30
0.0
 40
0.4999999999998863
 50
90.0
 51
0.000000000000573
  0
ARC
  5
52
  8
LAYER1
 62
     8
 10
135.3998781582526
 20
52.59966081879971
 30
0.0
 40
0.4999999999998863
 50
0.000000000000573
 51
270.0
  0
LINE
  5
53
  8
LAYER1
 62
     8
 10
160.5998781582526
 20
47.8996608187997
 30
0.0
 11
160.5998781582526
 21
52.09966081879946
 31
0.0
  0
LINE
  5
54
  8
LAYER1
 62
     8
 10
160.099878158252
 20
47.39966081879982
 30
0.0
 11
135.8998781582525
 21
47.39966081879982
 31
0.0
  0
LINE
  5
55
  8
LAYER1
 62
     8
 10
135.3998781582526
 20
52.09966081879946
 30
0.0
 11
135.3998781582526
 21
47.8996608187997
 31
0.0
  0
LINE
  5
56
  8
LAYER1
 62
     8
 10
160.099878158252
 20
52.59966081879971
 30
0.0
 11
135.8998781582525
 21
52.59966081879971
 31
0.0
  0
ARC
  5
57
  8
LAYER1
 62
     8
 10
302.5998781582527
 20
47.39966081879982
 30
0.0
 40
0.5000000000005684
 50
179.9999999999994
 51
90.0
  0
ARC
  5
58
  8
LAYER1
 62
     8
 10
302.5998781582527
 20
52.59966081879971
 30
0.0
 40
0.5000000000002487
 50
270.0
 51
179.9999999999994
  0
ARC
  5
59
  8
LAYER1
 62
     8
 10
277.3998781582527
 20
47.39966081879982
 30
0.0
 40
0.4999999999998863
 50
90.0
 51
0.000000000000573
  0
ARC
  5
5A
  8
LAYER1
 62
     8
 10
277.3998781582527
 20
52.59966081879971
 30
0.0
 40
0.4999999999998863
 50
0.000000000000573
 51
270.0
  0
LINE
  5
5B
  8
LAYER1
 62
     8
 10
302.5998781582527
 20
47.8996608187997
 30
0.0
 11
302.5998781582527
 21
52.09966081879946
 31
0.0
  0
LINE
  5
5C
  8
LAYER1
 62
     8
 10
302.0998781582522
 20
47.39966081879982
 30
0.0
 11
277.8998781582526
 21
47.39966081879982
 31
0.0
  0
LINE
  5
5D
  8
LAYER1
 62
     8
 10
277.3998781582527
 20
52.09966081879946
 30
0.0
 11
277.3998781582527
 21
47.8996608187997
 31
0.0
  0
LINE
  5
5E
  8
LAYER1
 62
     8
 10
302.0998781582522
 20
52.59966081879971
 30
0.0
 11
277.8998781582526
 21
52.59966081879971
 31
0.0
  0
ARC
  5
5F
  8
LAYER1
 62
     8
 10
444.5998781582523
 20
47.39966081879982
 30
0.0
 40
0.4999999999998863
 50
179.9999999999994
 51
90.0
  0
ARC
  5
60
  8
LAYER1
 62
     8
 10
444.5998781582523
 20
52.59966081879971
 30
0.0
 40
0.5000000000002487
 50
270.0
 51
179.9999999999994
  0
ARC
  5
61
  8
LAYER1
 62
     8
 10
419.3998781582522
 20
47.39966081879982
 30
0.0
 40
0.4999999999998863
 50
90.0
 51
0.000000000000573
  0
ARC
  5
62
  8
LAYER1
 62
     8
 10
419.3998781582522
 20
52.59966081879971
 30
0.0
 40
0.4999999999998863
 50
0.000000000000573
 51
270.0
  0
LINE
  5
63
  8
LAYER1
 62
     8
 10
444.5998781582523
 20
47.8996608187997
 30
0.0
 11
444.5998781582523
 21
52.09966081879946
 31
0.0
  0
LINE
  5
64
  8
LAYER1
 62
     8
 10
444.0998781582524
 20
47.39966081879982
 30
0.0
 11
419.8998781582521
 21
47.39966081879982
 31
0.0
  0
LINE
  5
65
  8
LAYER1
 62
     8
 10
419.3998781582522
 20
52.09966081879946
 30
0.0
 11
419.3998781582522
 21
47.8996608187997
 31
0.0
  0
LINE
  5
66
  8
LAYER1
 62
     8
 10
444.0998781582524
 20
52.59966081879971
 30
0.0
 11
419.8998781582521
 21
52.59966081879971
 31
0.0
  0
ARC
  5
67
  8
LAYER1
 62
     8
 10
586.5998781582525
 20
47.39966081879982
 30
0.0
 40
0.4999999999998863
 50
179.9999999999994
 51
90.0
  0
ARC
  5
68
  8
LAYER1
 62
     8
 10
586.5998781582525
 20
52.59966081879971
 30
0.0
 40
0.5000000000002487
 50
270.0
 51
179.9999999999994
  0
ARC
  5
69
  8
LAYER1
 62
     8
 10
561.3998781582525
 20
47.39966081879982
 30
0.0
 40
0.4999999999998863
 50
90.0
 51
0.000000000000573
  0
ARC
  5
6A
  8
LAYER1
 62
     8
 10
561.3998781582525
 20
52.59966081879971
 30
0.0
 40
0.4999999999998863
 50
0.000000000000573
 51
270.0
  0
LINE
  5
6B
  8
LAYER1
 62
     8
 10
586.5998781582525
 20
47.8996608187997
 30
0.0
 11
586.5998781582525
 21
52.09966081879946
 31
0.0
  0
LINE
  5
6C
  8
LAYER1
 62
     8
 10
586.0998781582526
 20
47.39966081879982
 30
0.0
 11
561.8998781582524
 21
47.39966081879982
 31
0.0
  0
LINE
  5
6D
  8
LAYER1
 62
     8
 10
561.3998781582525
 20
52.09966081879946
 30
0.0
 11
561.3998781582525
 21
47.8996608187997
 31
0.0
  0
LINE
  5
6E
  8
LAYER1
 62
     8
 10
586.0998781582526
 20
52.59966081879971
 30
0.0
 11
561.8998781582524
 21
52.59966081879971
 31
0.0
  0
ARC
  5
6F
  8
LAYER1
 62
     8
 10
701.0999946194319
 20
62.59966070734695
 30
0.0
 40
0.4999999999998863
 50
270.0
 51
179.9999999999994
  0
ARC
  5
70
  8
LAYER1
 62
     8
 10
695.8999946194316
 20
62.59966070734695
 30
0.0
 40
0.4999999999998863
 50
0.000000000000573
 51
270.0
  0
ARC
  5
71
  8
LAYER1
 62
     8
 10
701.0999946194319
 20
37.3996607073469
 30
0.0
 40
0.5000000000005684
 50
179.9999999999994
 51
90.0
  0
ARC
  5
72
  8
LAYER1
 62
     8
 10
695.8999946194316
 20
37.3996607073469
 30
0.0
 40
0.5000000000002487
 50
90.0
 51
0.000000000000573
  0
LINE
  5
73
  8
LAYER1
 62
     8
 10
700.5999946194313
 20
62.59966070734695
 30
0.0
 11
696.3999946194315
 21
62.59966070734695
 31
0.0
  0
LINE
  5
74
  8
LAYER1
 62
     8
 10
701.0999946194319
 20
62.09966070734706
 30
0.0
 11
701.0999946194319
 21
37.89966070734715
 31
0.0
  0
LINE
  5
75
  8
LAYER1
 62
     8
 10
696.3999946194315
 20
37.3996607073469
 30
0.0
 11
700.5999946194313
 21
37.3996607073469
 31
0.0
  0
LINE
  5
76
  8
LAYER1
 62
     8
 10
695.8999946194316
 20
62.09966070734706
 30
0.0
 11
695.8999946194316
 21
37.89966070734715
 31
0.0
  0
ARC
  5
77
  8
LAYER1
 62
     8
 10
26.09999461363104
 20
62.59966081879924
 30
0.0
 40
0.4999999999998863
 50
270.0
 51
179.9999999999994
  0
ARC
  5
78
  8
LAYER1
 62
     8
 10
20.89999461363078
 20
62.59966081879924
 30
0.0
 40
0.5000000000006075
 50
0.000000000000573
 51
270.0
  0
ARC
  5
79
  8
LAYER1
 62
     8
 10
26.09999461363104
 20
37.3996608187992
 30
0.0
 40
0.4999999999998863
 50
179.9999999999994
 51
90.0
  0
ARC
  5
7A
  8
LAYER1
 62
     8
 10
20.89999461363078
 20
37.3996608187992
 30
0.0
 40
0.5000000000002487
 50
90.0
 51
0.000000000000573
  0
LINE
  5
7B
  8
LAYER1
 62
     8
 10
25.59999461363115
 20
62.59966081879924
 30
0.0
 11
21.39999461363139
 21
62.59966081879924
 31
0.0
  0
LINE
  5
7C
  8
LAYER1
 62
     8
 10
26.09999461363104
 20
62.09966081879936
 30
0.0
 11
26.09999461363104
 21
37.89966081879945
 31
0.0
  0
LINE
  5
7D
  8
LAYER1
 62
     8
 10
21.39999461363139
 20
37.3996608187992
 30
0.0
 11
25.59999461363115
 21
37.3996608187992
 31
0.0
  0
LINE
  5
7E
  8
LAYER1
 62
     8
 10
20.89999461363078
 20
62.09966081879936
 30
0.0
 11
20.89999461363078
 21
37.89966081879945
 31
0.0
  0
LINE
  5
7F
  8
LAYER1
 62
     8
 10
721.9997563165072
 20
99.99966163635253
 30
0.0
 11
0.0
 21
99.99966163635253
 31
0.0
  0
DIMENSION
  5
81
  8
DIMENSION
 62
   150
  2
*D1
 10
731.9997563165072
 20
-0.0000000000000006
 30
0.0
 11
731.9997563165072
 21
49.99983081817626
 31
0.0
 70
    32
  3
ROTATEDDIM33
 13
721.9997563165072
 23
99.99966163635253
 33
0.0
 14
721.9997563165072
 24
0.0
 34
0.0
 50
90.0
  0
DIMENSION
  5
91
  8
DIMENSION
 62
   150
  2
*D2
 10
721.9997563165072
 20
-18.13004814796473
 30
0.0
 11
360.9998781582536
 21
-18.13004814796473
 31
0.0
 70
    32
  3
ROTATEDDIM34
 13
0.0
 23
0.0
 33
0.0
 14
721.9997563165072
 24
0.0
 34
0.0
  0
ENDSEC
  0
EOF
