  0
SECTION
  2
HEADER
  9
$ACADVER
  1
AC1009
  9
$DWGCODEPAGE
  3
ansi_1252
  9
$INSBASE
 10
0.0
 20
0.0
 30
0.0
  9
$EXTMIN
 10
-0.0000000000001805
 20
-23.70760804496819
 30
0.0
  9
$EXTMAX
 10
779.0714460713514
 20
99.89999999999993
 30
53.50453883708424
  9
$LIMMIN
 10
0.0
 20
0.0
  9
$LIMMAX
 10
420.0
 20
297.0
  9
$ORTHOMODE
 70
     0
  9
$REGENMODE
 70
     1
  9
$FILLMODE
 70
     1
  9
$QTEXTMODE
 70
     0
  9
$MIRRTEXT
 70
     1
  9
$DRAGMODE
 70
     2
  9
$LTSCALE
 40
1.0
  9
$OSMODE
 70
    37
  9
$ATTMODE
 70
     1
  9
$TEXTSIZE
 40
2.5
  9
$TRACEWID
 40
1.0
  9
$TEXTSTYLE
  7
STANDARD
  9
$CLAYER
  8
0
  9
$CELTYPE
  6
BYLAYER
  9
$CECOLOR
 62
   256
  9
$DIMSCALE
 40
1.0
  9
$DIMASZ
 40
2.5
  9
$DIMEXO
 40
0.625
  9
$DIMDLI
 40
3.75
  9
$DIMRND
 40
0.0
  9
$DIMDLE
 40
0.0
  9
$DIMEXE
 40
1.25
  9
$DIMTP
 40
0.0
  9
$DIMTM
 40
0.0
  9
$DIMTXT
 40
2.5
  9
$DIMCEN
 40
2.5
  9
$DIMTSZ
 40
0.0
  9
$DIMTOL
 70
     0
  9
$DIMLIM
 70
     0
  9
$DIMTIH
 70
     0
  9
$DIMTOH
 70
     0
  9
$DIMSE1
 70
     0
  9
$DIMSE2
 70
     0
  9
$DIMTAD
 70
     1
  9
$DIMZIN
 70
     8
  9
$DIMBLK
  1

  9
$DIMASO
 70
     1
  9
$DIMSHO
 70
     1
  9
$DIMPOST
  1

  9
$DIMAPOST
  1

  9
$DIMALT
 70
     0
  9
$DIMALTD
 70
     3
  9
$DIMALTF
 40
0.03937007874016
  9
$DIMLFAC
 40
1.0
  9
$DIMTOFL
 70
     1
  9
$DIMTVP
 40
0.0
  9
$DIMTIX
 70
     0
  9
$DIMSOXD
 70
     0
  9
$DIMSAH
 70
     0
  9
$DIMBLK1
  1

  9
$DIMBLK2
  1

  9
$DIMSTYLE
  2
ISO-25
  9
$DIMCLRD
 70
     0
  9
$DIMCLRE
 70
     0
  9
$DIMCLRT
 70
     0
  9
$DIMTFAC
 40
1.0
  9
$DIMGAP
 40
0.625
  9
$LUNITS
 70
     2
  9
$LUPREC
 70
     4
  9
$SKETCHINC
 40
1.0
  9
$FILLETRAD
 40
10.0
  9
$AUNITS
 70
     0
  9
$AUPREC
 70
     0
  9
$MENU
  1
.
  9
$ELEVATION
 40
0.0
  9
$PELEVATION
 40
0.0
  9
$THICKNESS
 40
0.0
  9
$LIMCHECK
 70
     0
  9
$CHAMFERA
 40
10.0
  9
$CHAMFERB
 40
10.0
  9
$SKPOLY
 70
     0
  9
$TDCREATE
 40
2305814.590648148
  9
$TDUPDATE
 40
2456150.507319988
  9
$TDINDWG
 40
0.0000000116
  9
$TDUSRTIMER
 40
0.0000000116
  9
$USRTIMER
 70
     1
  9
$ANGBASE
 50
0.0
  9
$ANGDIR
 70
     0
  9
$PDMODE
 70
     0
  9
$PDSIZE
 40
0.0
  9
$PLINEWID
 40
0.0
  9
$COORDS
 70
     1
  9
$SPLFRAME
 70
     0
  9
$SPLINETYPE
 70
     6
  9
$SPLINESEGS
 70
     8
  9
$ATTDIA
 70
     0
  9
$ATTREQ
 70
     1
  9
$HANDLING
 70
     1
  9
$HANDSEED
  5
A2
  9
$SURFTAB1
 70
     6
  9
$SURFTAB2
 70
     6
  9
$SURFTYPE
 70
     6
  9
$SURFU
 70
     6
  9
$SURFV
 70
     6
  9
$UCSNAME
  2

  9
$UCSORG
 10
0.0
 20
0.0
 30
0.0
  9
$UCSXDIR
 10
1.0
 20
0.0
 30
0.0
  9
$UCSYDIR
 10
0.0
 20
1.0
 30
0.0
  9
$PUCSNAME
  2

  9
$PUCSORG
 10
0.0
 20
0.0
 30
0.0
  9
$PUCSXDIR
 10
1.0
 20
0.0
 30
0.0
  9
$PUCSYDIR
 10
0.0
 20
1.0
 30
0.0
  9
$USERI1
 70
     0
  9
$USERI2
 70
     0
  9
$USERI3
 70
     0
  9
$USERI4
 70
     0
  9
$USERI5
 70
     0
  9
$USERR1
 40
0.0
  9
$USERR2
 40
0.0
  9
$USERR3
 40
0.0
  9
$USERR4
 40
0.0
  9
$USERR5
 40
0.0
  9
$WORLDVIEW
 70
     1
  9
$SHADEDGE
 70
     3
  9
$SHADEDIF
 70
    70
  9
$TILEMODE
 70
     1
  9
$MAXACTVP
 70
    64
  9
$PLIMCHECK
 70
     0
  9
$PEXTMIN
 10
1.000000000000000E+20
 20
1.000000000000000E+20
 30
1.000000000000000E+20
  9
$PEXTMAX
 10
-1.000000000000000E+20
 20
-1.000000000000000E+20
 30
-1.000000000000000E+20
  9
$PLIMMIN
 10
0.0
 20
0.0
  9
$PLIMMAX
 10
420.0
 20
297.0
  9
$UNITMODE
 70
     0
  9
$VISRETAIN
 70
     1
  9
$PLINEGEN
 70
     0
  9
$PSLTSCALE
 70
     1
  0
ENDSEC
  0
SECTION
  2
TABLES
  0
TABLE
  2
VPORT
 70
     1
  0
VPORT
  2
*ACTIVE
 70
     0
 10
0.0
 20
0.0
 11
1.0
 21
1.0
 12
388.2475801093232
 22
39.38433890386824
 13
0.0
 23
0.0
 14
10.0
 24
10.0
 15
10.0
 25
10.0
 16
0.0
 26
0.0
 36
1.0
 17
0.0
 27
0.0
 37
0.0
 40
123.4519486361087
 41
6.415654610342529
 42
50.0
 43
0.0
 44
0.0
 50
0.0
 51
0.0
 71
     0
 72
   100
 73
     1
 74
     3
 75
     0
 76
     0
 77
     0
 78
     0
  0
ENDTAB
  0
TABLE
  2
LTYPE
 70
    13
  0
LTYPE
  2
CONTINUOUS
 70
     0
  3
Solid line
 72
    65
 73
     0
 40
0.0
  0
LTYPE
  2
BORDER
 70
     0
  3
__ __ . __ __ . __ 
 72
    65
 73
     6
 40
0.875
 49
0.25
 49
-0.125
 49
0.25
 49
-0.125
 49
0.0
 49
-0.125
  0
LTYPE
  2
CENTER
 70
     0
  3
___ _ ___ _ ___ _ _
 72
    65
 73
     4
 40
1.125
 49
0.75
 49
-0.125
 49
0.125
 49
-0.125
  0
LTYPE
  2
DASHDOT
 70
     0
  3
_._._._._._._._._._
 72
    65
 73
     4
 40
0.5
 49
0.25
 49
-0.125
 49
0.0
 49
-0.125
  0
LTYPE
  2
DASHED
 70
     0
  3
_ _ _ _ _ _ _ _ _ _
 72
    65
 73
     2
 40
0.375
 49
0.25
 49
-0.125
  0
LTYPE
  2
DIVIDE
 70
     0
  3
__..__..__..__..__.
 72
    65
 73
     6
 40
0.625
 49
0.25
 49
-0.125
 49
0.0
 49
-0.125
 49
0.0
 49
-0.125
  0
LTYPE
  2
DOT
 70
     0
  3
...................
 72
    65
 73
     2
 40
0.125
 49
0.0
 49
-0.125
  0
LTYPE
  2
HIDDEN
 70
     0
  3
__ __ __ __ __ __ _
 72
    65
 73
     2
 40
0.1875
 49
0.125
 49
-0.0625
  0
LTYPE
  2
PHANTOM
 70
     0
  3
___ _ _ ___ _ _ ___
 72
    65
 73
     6
 40
1.25
 49
0.625
 49
-0.125
 49
0.125
 49
-0.125
 49
0.125
 49
-0.125
  0
LTYPE
  2
CUTTING
 70
     0
  3
________ _ _ ______
 72
    65
 73
     6
 40
1.4675
 49
1.0
 49
-0.0725
 49
0.125
 49
-0.0725
 49
0.125
 49
-0.0725
  0
LTYPE
  2
STITCH
 70
     0
  3
_ _ _ _ _ _ _ _ _ _
 72
    65
 73
     2
 40
0.145
 49
0.0725
 49
-0.0725
  0
LTYPE
  2
AM_ISO08W050
 70
     0
  3
____ . ____ . ____ 
 72
    65
 73
     4
 40
18.0
 49
12.0
 49
-1.5
 49
3.0
 49
-1.5
  0
LTYPE
  2
AM_ISO08W050X2
 70
     0
  3
__ . __ . __ . __ .
 72
    65
 73
     4
 40
9.0
 49
6.0
 49
-0.75
 49
1.5
 49
-0.75
  0
ENDTAB
  0
TABLE
  2
LAYER
 70
     4
  0
LAYER
  2
0
 70
     0
 62
     7
  6
CONTINUOUS
  0
LAYER
  2
DIMENSION
 70
     0
 62
     7
  6
CONTINUOUS
  0
LAYER
  2
XT
 70
     0
 62
    18
  6
CONTINUOUS
  0
LAYER
  2
DEFPOINTS
 70
     0
 62
     7
  6
CONTINUOUS
  0
ENDTAB
  0
TABLE
  2
STYLE
 70
     1
  0
STYLE
  2
STANDARD
 70
     0
 40
0.0
 41
1.0
 50
0.0
 71
     0
 42
2.5
  3
txt
  4

  0
ENDTAB
  0
TABLE
  2
VIEW
 70
     0
  0
ENDTAB
  0
TABLE
  2
UCS
 70
     0
  0
ENDTAB
  0
TABLE
  2
APPID
 70
     2
  0
APPID
  2
ACAD
 70
     0
  0
APPID
  2
ENCORE_SOFTWARE_VIACAD
 70
     0
  0
ENDTAB
  0
TABLE
  2
DIMSTYLE
 70
     3
  0
DIMSTYLE
  2
ISO-25
 70
     0
  3

  4

  5

  6

  7

 40
1.0
 41
2.5
 42
0.625
 43
3.75
 44
1.25
 45
0.0
 46
0.0
 47
0.0
 48
0.0
140
2.5
141
2.5
142
0.0
143
0.03937007874016
144
1.0
145
0.0
146
1.0
147
0.625
 71
     0
 72
     0
 73
     0
 74
     0
 75
     0
 76
     0
 77
     1
 78
     8
170
     0
171
     3
172
     1
173
     0
174
     0
175
     0
176
     0
177
     0
178
     0
  0
DIMSTYLE
  2
ROTATEDDIM2
 70
     0
  3

  4

  5

  6

  7

 40
1.0
 41
8.105938112967356
 42
2.598057087489537
 43
3.75
 44
6.495142718723842
 45
0.0
 46
0.0
 47
0.0
 48
0.0
140
7.159999847412109
141
2.5
142
0.0
143
0.03937007874016
144
1.0
145
0.0
146
1.0
147
0.625
 71
     0
 72
     0
 73
     0
 74
     0
 75
     0
 76
     0
 77
     0
 78
     8
170
     0
171
     3
172
     1
173
     0
174
     0
175
     0
176
     0
177
     0
178
     0
  0
DIMSTYLE
  2
ROTATEDDIM3
 70
     0
  3

  4

  5

  6

  7

 40
1.0
 41
8.105938112967356
 42
2.598057087489537
 43
3.75
 44
6.495142718723842
 45
0.0
 46
0.0
 47
0.0
 48
0.0
140
7.159999847412109
141
2.5
142
0.0
143
0.03937007874016
144
1.0
145
0.0
146
1.0
147
0.625
 71
     0
 72
     0
 73
     0
 74
     0
 75
     0
 76
     0
 77
     0
 78
     8
170
     0
171
     3
172
     1
173
     0
174
     0
175
     0
176
     0
177
     0
178
     0
  0
ENDTAB
  0
ENDSEC
  0
SECTION
  2
BLOCKS
  0
BLOCK
  8
0
  2
$MODEL_SPACE
 70
     0
 10
0.0
 20
0.0
 30
0.0
  3
$MODEL_SPACE
  1

  0
ENDBLK
  5
21
  8
0
  0
BLOCK
 67
     1
  8
0
  2
$PAPER_SPACE
 70
     0
 10
0.0
 20
0.0
 30
0.0
  3
$PAPER_SPACE
  1

  0
ENDBLK
  5
1D
 67
     1
  8
0
  0
BLOCK
  8
0
  2
*D1
 70
     1
 10
0.0
 20
0.0
 30
0.0
  3
*D1
  1

  0
LINE
  5
80
  8
DIMENSION
 62
     0
 10
762.5980745874124
 20
90.00000000000001
 30
0.0
 11
776.4951602186467
 21
90.00000000000001
 31
0.0
  0
LINE
  5
81
  8
DIMENSION
 62
     0
 10
762.5980745874124
 20
-0.0000000000000002
 30
0.0
 11
776.4951602186467
 21
-0.000000000000001
 31
0.0
  0
LINE
  5
82
  8
DIMENSION
 62
     0
 10
770.0000174999228
 20
81.89406188703266
 30
0.0
 11
770.0000174999228
 21
51.42119035266694
 31
0.0
  0
LINE
  5
83
  8
DIMENSION
 62
     0
 10
770.0000174999228
 20
8.105938112967356
 30
0.0
 11
770.0000174999228
 21
38.57880964733306
 31
0.0
  0
SOLID
  5
84
  8
DIMENSION
 62
     0
 10
771.3510071854174
 20
81.89406188703266
 30
0.0
 11
768.6490278144282
 21
81.89406188703266
 31
0.0
 12
770.0000174999228
 22
90.00000000000001
 32
0.0
 13
770.0000174999228
 23
90.00000000000001
 33
0.0
  0
SOLID
  5
85
  8
DIMENSION
 62
     0
 10
768.6490278144282
 20
8.105938112967356
 30
0.0
 11
771.3510071854174
 21
8.105938112967356
 31
0.0
 12
770.0000174999228
 22
-0.0000000000000006
 32
0.0
 13
770.0000174999228
 23
-0.0000000000000006
 33
0.0
  0
TEXT
  5
86
  8
DIMENSION
  6
CONTINUOUS
 62
     0
 10
773.5800174236289
 20
38.18095252627415
 30
0.0
 40
7.159999847412109
  1
90
 50
90.0
  0
POINT
  5
87
  8
DEFPOINTS
 62
     0
 10
760.0000174999228
 20
90.00000000000001
 30
0.0
  0
POINT
  5
88
  8
DEFPOINTS
 62
     0
 10
760.0000174999228
 20
0.0
 30
0.0
  0
POINT
  5
89
  8
DEFPOINTS
 62
     0
 10
770.0000174999228
 20
-0.0000000000000006
 30
0.0
  0
ENDBLK
  5
8B
  8
0
  0
BLOCK
  8
0
  2
*D2
 70
     1
 10
0.0
 20
0.0
 30
0.0
  3
*D2
  1

  0
LINE
  5
8F
  8
DIMENSION
 62
     0
 10
0.0
 20
-2.598057087489537
 30
0.0
 11
0.0
 21
-21.13132219226346
 31
0.0
  0
LINE
  5
90
  8
DIMENSION
 62
     0
 10
760.0000174999228
 20
-2.598057087489537
 30
0.0
 11
760.0000174999228
 21
-21.13132219226346
 31
0.0
  0
LINE
  5
91
  8
DIMENSION
 62
     0
 10
8.105938112967356
 20
-14.63617947353962
 30
0.0
 11
370.1692946604315
 21
-14.63617947353962
 31
0.0
  0
LINE
  5
92
  8
DIMENSION
 62
     0
 10
751.8940793869555
 20
-14.63617947353962
 30
0.0
 11
389.8307228394913
 21
-14.63617947353962
 31
0.0
  0
SOLID
  5
93
  8
DIMENSION
 62
     0
 10
8.105938112967356
 20
-13.28518978804506
 30
0.0
 11
8.105938112967356
 21
-15.98716915903418
 31
0.0
 12
0.0
 22
-14.63617947353962
 32
0.0
 13
0.0
 23
-14.63617947353962
 33
0.0
  0
SOLID
  5
94
  8
DIMENSION
 62
     0
 10
751.8940793869555
 20
-15.98716915903418
 30
0.0
 11
751.8940793869555
 21
-13.28518978804506
 31
0.0
 12
760.0000174999228
 22
-14.63617947353962
 32
0.0
 13
760.0000174999228
 23
-14.63617947353962
 33
0.0
  0
TEXT
  5
95
  8
DIMENSION
  6
CONTINUOUS
 62
     0
 10
369.7714375393727
 20
-18.21617939724567
 30
0.0
 40
7.159999847412109
  1
760
  0
POINT
  5
96
  8
DEFPOINTS
 62
     0
 10
0.0
 20
0.0
 30
0.0
  0
POINT
  5
97
  8
DEFPOINTS
 62
     0
 10
760.0000174999228
 20
0.0
 30
0.0
  0
POINT
  5
98
  8
DEFPOINTS
 62
     0
 10
760.0000174999228
 20
-14.63617947353962
 30
0.0
  0
ENDBLK
  5
9A
  8
0
  0
ENDSEC
  0
SECTION
  2
ENTITIES
  0
LINE
  5
4E
  8
XT
 62
    18
 10
750.5000174999226
 20
34.89999999999924
 30
0.0000000000012633
 11
760.000017499923
 21
34.89999999999924
 31
0.0000000000012633
  0
LINE
  5
4F
  8
XT
 62
    18
 10
760.000017499923
 20
55.10000000000024
 30
0.0000000000012633
 11
750.5000174999223
 21
55.10000000000024
 31
0.0000000000012633
  0
LINE
  5
50
  8
XT
 62
    18
 10
55.00000000000021
 20
99.89999999999993
 30
0.0
 11
30.00000000000012
 21
99.89999999999993
 31
0.0
  0
ARC
  5
51
  8
XT
 62
    18
 10
30.00000000000016
 20
89.99999999999997
 30
0.0
 40
0.4999999999999226
 50
179.9999999999788
 51
90.00000000000895
  0
ARC
  5
52
  8
XT
 62
    18
 10
55.00000000000009
 20
89.99999999999989
 30
0.0
 40
0.5000000000006906
 50
89.99999999999105
 51
0.000000000014656
  0
LINE
  5
53
  8
XT
 62
    18
 10
55.00000000000017
 20
99.89999999999993
 30
0.0
 11
55.00000000000017
 21
90.4999999999999
 31
0.0
  0
ARC
  5
54
  8
XT
 62
    18
 10
561.5000131249429
 20
89.99999999999994
 30
0.0000000000009024
 40
0.5000000000006344
 50
89.99999999997397
 51
0.0000000000081422
  0
LINE
  5
55
  8
XT
 62
    18
 10
704.5000174999238
 20
90.00000000000001
 30
0.0000000000012633
 11
562.000013124943
 21
90.00000000000001
 31
0.0000000000009024
  0
LINE
  5
56
  8
XT
 62
    18
 10
536.000013124943
 20
90.00000000000001
 30
0.0000000000009024
 11
393.000008749962
 21
90.00000000000001
 31
0.0000000000005414
  0
LINE
  5
57
  8
XT
 62
    18
 10
367.0000087499622
 20
90.00000000000001
 30
0.0000000000005414
 11
224.2500043749812
 21
90.00000000000001
 31
0.0000000000001805
  0
LINE
  5
58
  8
XT
 62
    18
 10
198.2500043749811
 20
90.00000000000001
 30
0.0000000000001805
 11
55.50000000000006
 21
90.00000000000001
 31
0.0
  0
LINE
  5
59
  8
XT
 62
    18
 10
29.5000000000002
 20
90.00000000000001
 30
0.0
 11
0.0
 21
90.00000000000001
 31
0.0
  0
ARC
  5
5A
  8
XT
 62
    18
 10
750.0000174999224
 20
55.10000000000027
 30
0.0000000000012633
 40
0.4999999999999185
 50
359.9999999999756
 51
270.0000000000391
  0
LINE
  5
5B
  8
XT
 62
    18
 10
750.0000174999227
 20
54.60000000000035
 30
0.0000000000012633
 11
750.0000174999227
 21
35.3999999999993
 31
0.0000000000012633
  0
ARC
  5
5C
  8
XT
 62
    18
 10
750.0000174999227
 20
34.89999999999944
 30
0.0000000000012633
 40
0.499999999999858
 50
90.0
 51
0.0000000000179129
  0
ARC
  5
5D
  8
XT
 62
    18
 10
198.7500043749811
 20
89.99999999999997
 30
0.0000000000001805
 40
0.4999999999999308
 50
179.9999999999788
 51
90.00000000000654
  0
ARC
  5
5E
  8
XT
 62
    18
 10
223.7500043749812
 20
89.99999999999986
 30
0.0000000000001805
 40
0.5000000000007218
 50
90.00000000000979
 51
0.0000000000179129
  0
ARC
  5
5F
  8
XT
 62
    18
 10
367.500008749962
 20
89.99999999999994
 30
0.0000000000005414
 40
0.4999999999998353
 50
179.9999999999919
 51
89.99999999999349
  0
ARC
  5
60
  8
XT
 62
    18
 10
392.5000087499621
 20
89.99999999999993
 30
0.0000000000005414
 40
0.5000000000006468
 50
89.99999999997397
 51
0.0000000000097707
  0
ARC
  5
61
  8
XT
 62
    18
 10
536.500013124943
 20
89.99999999999993
 30
0.0000000000009024
 40
0.4999999999999725
 50
179.9999999999739
 51
90.00000000001303
  0
ARC
  5
62
  8
XT
 62
    18
 10
705.0000174999237
 20
89.9999999999999
 30
0.0000000000012633
 40
0.4999999999998685
 50
179.999999999987
 51
90.0
  0
ARC
  5
63
  8
XT
 62
    18
 10
730.000017499924
 20
89.99999999999997
 30
0.0000000000012633
 40
0.5000000000006094
 50
90.00000000001303
 51
0.0000000000048853
  0
LINE
  5
64
  8
XT
 62
    18
 10
30.00000000000012
 20
99.89999999999993
 30
0.0
 11
30.00000000000012
 21
90.4999999999999
 31
0.0
  0
LINE
  5
65
  8
XT
 62
    18
 10
223.7500043749813
 20
99.89999999999993
 30
0.0000000000002133
 11
198.750004374981
 21
99.89999999999993
 31
0.0000000000002133
  0
LINE
  5
66
  8
XT
 62
    18
 10
223.7500043749813
 20
99.89999999999993
 30
0.0000000000002133
 11
223.7500043749813
 21
90.4999999999999
 31
0.0000000000002133
  0
LINE
  5
67
  8
XT
 62
    18
 10
198.750004374981
 20
99.89999999999993
 30
0.0000000000002133
 11
198.750004374981
 21
90.4999999999999
 31
0.0000000000002133
  0
LINE
  5
68
  8
XT
 62
    18
 10
392.5000087499621
 20
99.89999999999975
 30
0.0000000000005414
 11
367.5000087499621
 21
99.89999999999975
 31
0.0000000000005414
  0
LINE
  5
69
  8
XT
 62
    18
 10
392.5000087499621
 20
99.89999999999975
 30
0.0000000000005414
 11
392.5000087499621
 21
90.49999999999977
 31
0.0000000000005414
  0
LINE
  5
6A
  8
XT
 62
    18
 10
367.5000087499621
 20
99.89999999999975
 30
0.0000000000005414
 11
367.5000087499621
 21
90.49999999999977
 31
0.0000000000005414
  0
LINE
  5
6B
  8
XT
 62
    18
 10
561.500013124943
 20
99.89999999999975
 30
0.0000000000009695
 11
536.5000131249429
 21
99.89999999999975
 31
0.0000000000009695
  0
LINE
  5
6C
  8
XT
 62
    18
 10
561.500013124943
 20
99.89999999999975
 30
0.0000000000009695
 11
561.500013124943
 21
90.49999999999977
 31
0.0000000000009695
  0
LINE
  5
6D
  8
XT
 62
    18
 10
536.5000131249429
 20
99.89999999999975
 30
0.0000000000009695
 11
536.5000131249429
 21
90.49999999999977
 31
0.0000000000009695
  0
LINE
  5
6E
  8
XT
 62
    18
 10
730.0000174999238
 20
99.89999999999975
 30
0.0000000000013963
 11
705.0000174999237
 21
99.89999999999975
 31
0.0000000000013963
  0
LINE
  5
6F
  8
XT
 62
    18
 10
730.0000174999238
 20
99.89999999999975
 30
0.0000000000013963
 11
730.0000174999238
 21
90.49999999999977
 31
0.0000000000013963
  0
LINE
  5
70
  8
XT
 62
    18
 10
705.0000174999237
 20
99.89999999999975
 30
0.0000000000013963
 11
705.0000174999237
 21
90.49999999999977
 31
0.0000000000013963
  0
LINE
  5
71
  8
XT
 62
    18
 10
760.0000174999228
 20
90.00000000000001
 30
0.0000000000012633
 11
760.000017499923
 21
55.10000000000024
 31
0.0000000000012633
  0
LINE
  5
72
  8
XT
 62
    18
 10
730.5000174999245
 20
90.00000000000001
 30
0.0000000000012633
 11
760.0000174999238
 21
90.00000000000001
 31
0.0000000000012633
  0
LINE
  5
73
  8
XT
 62
   150
 10
760.000017499923
 20
34.89999999999924
 30
0.0000000000012633
 11
760.0000174999228
 21
0.0
 31
0.0000000000012633
  0
LINE
  5
74
  8
XT
 62
    18
 10
9.500000000000187
 20
34.89999999999924
 30
0.0
 11
-0.0000000000001805
 21
34.89999999999924
 31
0.0
  0
LINE
  5
75
  8
XT
 62
    18
 10
-0.0000000000001805
 20
55.10000000000024
 30
0.0
 11
9.500000000000547
 21
55.10000000000024
 31
0.0
  0
ARC
  5
76
  8
XT
 62
    18
 10
10.00000000000048
 20
55.10000000000029
 30
0.0
 40
0.4999999999999342
 50
269.999999999953
 51
180.0000000000261
  0
LINE
  5
77
  8
XT
 62
    18
 10
10.00000000000007
 20
54.60000000000035
 30
0.0
 11
10.00000000000007
 21
35.3999999999993
 31
0.0
  0
ARC
  5
78
  8
XT
 62
    18
 10
10.00000000000006
 20
34.89999999999944
 30
0.0
 40
0.4999999999998679
 50
179.9999999999813
 51
89.99999999999817
  0
LINE
  5
79
  8
XT
 62
    18
 10
0.0
 20
90.00000000000001
 30
0.0
 11
-0.0000000000001805
 21
55.10000000000024
 31
0.0
  0
LINE
  5
7A
  8
XT
 62
   150
 10
-0.0000000000001805
 20
34.89999999999924
 30
0.0
 11
0.0
 21
0.0
 31
0.0
  0
LINE
  5
7B
  8
XT
 62
   150
 10
0.0
 20
0.0
 30
0.0
 11
760.0000174999228
 21
0.0
 31
0.0000000000012633
  0
DIMENSION
  5
7D
  8
DIMENSION
 62
   150
  2
*D1
 10
770.0000174999228
 20
-0.0000000000000006
 30
0.0000000000012633
 11
770.0000174999228
 21
45.00000000000001
 31
0.0000000000012633
 70
    32
  3
ROTATEDDIM2
 13
760.0000174999228
 23
90.00000000000001
 33
0.0000000000012633
 14
760.0000174999228
 24
0.0
 34
0.0000000000012633
 50
90.0
  0
DIMENSION
  5
8D
  8
DIMENSION
 62
   150
  2
*D2
 10
760.0000174999228
 20
-14.63617947353962
 30
0.0
 11
380.0000087499614
 21
-14.63617947353962
 31
0.0
 70
    32
  3
ROTATEDDIM3
 13
0.0
 23
0.0
 33
0.0
 14
760.0000174999228
 24
0.0
 34
0.0
  0
ENDSEC
  0
EOF
