  0
SECTION
  2
HEADER
  9
$ACADVER
  1
AC1009
  9
$DWGCODEPAGE
  3
ansi_1252
  9
$INSBASE
 10
0.0
 20
0.0
 30
0.0
  9
$EXTMIN
 10
-36.28571428571428
 20
0.0
 30
0.0
  9
$EXTMAX
 10
121.3857142857152
 20
132.1714285736953
 30
46.03426110821437
  9
$LIMMIN
 10
0.0
 20
0.0
  9
$LIMMAX
 10
420.0
 20
297.0
  9
$ORTHOMODE
 70
     0
  9
$REGENMODE
 70
     1
  9
$FILLMODE
 70
     1
  9
$QTEXTMODE
 70
     0
  9
$MIRRTEXT
 70
     1
  9
$DRAGMODE
 70
     2
  9
$LTSCALE
 40
1.0
  9
$OSMODE
 70
    37
  9
$ATTMODE
 70
     1
  9
$TEXTSIZE
 40
2.5
  9
$TRACEWID
 40
1.0
  9
$TEXTSTYLE
  7
STANDARD
  9
$CLAYER
  8
0
  9
$CELTYPE
  6
BYLAYER
  9
$CECOLOR
 62
   256
  9
$DIMSCALE
 40
1.0
  9
$DIMASZ
 40
2.5
  9
$DIMEXO
 40
0.625
  9
$DIMDLI
 40
3.75
  9
$DIMRND
 40
0.0
  9
$DIMDLE
 40
0.0
  9
$DIMEXE
 40
1.25
  9
$DIMTP
 40
0.0
  9
$DIMTM
 40
0.0
  9
$DIMTXT
 40
2.5
  9
$DIMCEN
 40
2.5
  9
$DIMTSZ
 40
0.0
  9
$DIMTOL
 70
     0
  9
$DIMLIM
 70
     0
  9
$DIMTIH
 70
     0
  9
$DIMTOH
 70
     0
  9
$DIMSE1
 70
     0
  9
$DIMSE2
 70
     0
  9
$DIMTAD
 70
     1
  9
$DIMZIN
 70
     8
  9
$DIMBLK
  1

  9
$DIMASO
 70
     1
  9
$DIMSHO
 70
     1
  9
$DIMPOST
  1

  9
$DIMAPOST
  1

  9
$DIMALT
 70
     0
  9
$DIMALTD
 70
     3
  9
$DIMALTF
 40
0.03937007874016
  9
$DIMLFAC
 40
1.0
  9
$DIMTOFL
 70
     1
  9
$DIMTVP
 40
0.0
  9
$DIMTIX
 70
     0
  9
$DIMSOXD
 70
     0
  9
$DIMSAH
 70
     0
  9
$DIMBLK1
  1

  9
$DIMBLK2
  1

  9
$DIMSTYLE
  2
ISO-25
  9
$DIMCLRD
 70
     0
  9
$DIMCLRE
 70
     0
  9
$DIMCLRT
 70
     0
  9
$DIMTFAC
 40
1.0
  9
$DIMGAP
 40
0.625
  9
$LUNITS
 70
     2
  9
$LUPREC
 70
     4
  9
$SKETCHINC
 40
1.0
  9
$FILLETRAD
 40
10.0
  9
$AUNITS
 70
     0
  9
$AUPREC
 70
     0
  9
$MENU
  1
.
  9
$ELEVATION
 40
0.0
  9
$PELEVATION
 40
0.0
  9
$THICKNESS
 40
0.0
  9
$LIMCHECK
 70
     0
  9
$CHAMFERA
 40
10.0
  9
$CHAMFERB
 40
10.0
  9
$SKPOLY
 70
     0
  9
$TDCREATE
 40
2305814.71818287
  9
$TDUPDATE
 40
2456149.634860093
  9
$TDINDWG
 40
0.0000000116
  9
$TDUSRTIMER
 40
0.0000000116
  9
$USRTIMER
 70
     1
  9
$ANGBASE
 50
0.0
  9
$ANGDIR
 70
     0
  9
$PDMODE
 70
     0
  9
$PDSIZE
 40
0.0
  9
$PLINEWID
 40
0.0
  9
$COORDS
 70
     1
  9
$SPLFRAME
 70
     0
  9
$SPLINETYPE
 70
     6
  9
$SPLINESEGS
 70
     8
  9
$ATTDIA
 70
     0
  9
$ATTREQ
 70
     1
  9
$HANDLING
 70
     1
  9
$HANDSEED
  5
89
  9
$SURFTAB1
 70
     6
  9
$SURFTAB2
 70
     6
  9
$SURFTYPE
 70
     6
  9
$SURFU
 70
     6
  9
$SURFV
 70
     6
  9
$UCSNAME
  2

  9
$UCSORG
 10
0.0
 20
0.0
 30
0.0
  9
$UCSXDIR
 10
1.0
 20
0.0
 30
0.0
  9
$UCSYDIR
 10
0.0
 20
1.0
 30
0.0
  9
$PUCSNAME
  2

  9
$PUCSORG
 10
0.0
 20
0.0
 30
0.0
  9
$PUCSXDIR
 10
1.0
 20
0.0
 30
0.0
  9
$PUCSYDIR
 10
0.0
 20
1.0
 30
0.0
  9
$USERI1
 70
     0
  9
$USERI2
 70
     0
  9
$USERI3
 70
     0
  9
$USERI4
 70
     0
  9
$USERI5
 70
     0
  9
$USERR1
 40
0.0
  9
$USERR2
 40
0.0
  9
$USERR3
 40
0.0
  9
$USERR4
 40
0.0
  9
$USERR5
 40
0.0
  9
$WORLDVIEW
 70
     1
  9
$SHADEDGE
 70
     3
  9
$SHADEDIF
 70
    70
  9
$TILEMODE
 70
     1
  9
$MAXACTVP
 70
    64
  9
$PLIMCHECK
 70
     0
  9
$PEXTMIN
 10
1.000000000000000E+20
 20
1.000000000000000E+20
 30
1.000000000000000E+20
  9
$PEXTMAX
 10
-1.000000000000000E+20
 20
-1.000000000000000E+20
 30
-1.000000000000000E+20
  9
$PLIMMIN
 10
0.0
 20
0.0
  9
$PLIMMAX
 10
420.0
 20
297.0
  9
$UNITMODE
 70
     0
  9
$VISRETAIN
 70
     1
  9
$PLINEGEN
 70
     0
  9
$PSLTSCALE
 70
     1
  0
ENDSEC
  0
SECTION
  2
TABLES
  0
TABLE
  2
VPORT
 70
     1
  0
VPORT
  2
*ACTIVE
 70
     0
 10
0.0
 20
0.0
 11
1.0
 21
1.0
 12
42.55000000000047
 22
64.79757136049528
 13
0.0
 23
0.0
 14
10.0
 24
10.0
 15
10.0
 25
10.0
 16
0.0
 26
0.0
 36
1.0
 17
0.0
 27
0.0
 37
0.0
 40
132.1870455754104
 41
0.6566604134478656
 42
50.0
 43
0.0
 44
0.0
 50
0.0
 51
0.0
 71
     0
 72
   100
 73
     1
 74
     3
 75
     0
 76
     0
 77
     0
 78
     0
  0
ENDTAB
  0
TABLE
  2
LTYPE
 70
    16
  0
LTYPE
  2
CONTINUOUS
 70
     0
  3
Solid line
 72
    65
 73
     0
 40
0.0
  0
LTYPE
  2
BORDER
 70
     0
  3
__ __ . __ __ . __ 
 72
    65
 73
     6
 40
0.875
 49
0.25
 49
-0.125
 49
0.25
 49
-0.125
 49
0.0
 49
-0.125
  0
LTYPE
  2
CENTER
 70
     0
  3
___ _ ___ _ ___ _ _
 72
    65
 73
     4
 40
1.125
 49
0.75
 49
-0.125
 49
0.125
 49
-0.125
  0
LTYPE
  2
DASHDOT
 70
     0
  3
_._._._._._._._._._
 72
    65
 73
     4
 40
0.5
 49
0.25
 49
-0.125
 49
0.0
 49
-0.125
  0
LTYPE
  2
DASHED
 70
     0
  3
_ _ _ _ _ _ _ _ _ _
 72
    65
 73
     2
 40
0.375
 49
0.25
 49
-0.125
  0
LTYPE
  2
DIVIDE
 70
     0
  3
__..__..__..__..__.
 72
    65
 73
     6
 40
0.625
 49
0.25
 49
-0.125
 49
0.0
 49
-0.125
 49
0.0
 49
-0.125
  0
LTYPE
  2
DOT
 70
     0
  3
...................
 72
    65
 73
     2
 40
0.125
 49
0.0
 49
-0.125
  0
LTYPE
  2
HIDDEN
 70
     0
  3
__ __ __ __ __ __ _
 72
    65
 73
     2
 40
0.1875
 49
0.125
 49
-0.0625
  0
LTYPE
  2
PHANTOM
 70
     0
  3
___ _ _ ___ _ _ ___
 72
    65
 73
     6
 40
1.25
 49
0.625
 49
-0.125
 49
0.125
 49
-0.125
 49
0.125
 49
-0.125
  0
LTYPE
  2
CUTTING
 70
     0
  3
________ _ _ ______
 72
    65
 73
     6
 40
1.4675
 49
1.0
 49
-0.0725
 49
0.125
 49
-0.0725
 49
0.125
 49
-0.0725
  0
LTYPE
  2
STITCH
 70
     0
  3
_ _ _ _ _ _ _ _ _ _
 72
    65
 73
     2
 40
0.145
 49
0.0725
 49
-0.0725
  0
LTYPE
  2
AM_ISO02W050
 70
     0
  3
__ __ __ __ __ __ _
 72
    65
 73
     2
 40
7.5
 49
6.0
 49
-1.5
  0
LTYPE
  2
AM_ISO08W050
 70
     0
  3
____ . ____ . ____ 
 72
    65
 73
     4
 40
18.0
 49
12.0
 49
-1.5
 49
3.0
 49
-1.5
  0
LTYPE
  2
AM_ISO08W050X2
 70
     0
  3
__ . __ . __ . __ .
 72
    65
 73
     4
 40
9.0
 49
6.0
 49
-0.75
 49
1.5
 49
-0.75
  0
LTYPE
  2
AM_ISO08W050X21
 70
     0
  3
__ . __ . __ . __ .
 72
    65
 73
     4
 40
9.0
 49
6.0
 49
-0.75
 49
1.5
 49
-0.75
  0
LTYPE
  2
AM_ISO08W050X20
 70
     0
  3
__ . __ . __ . __ .
 72
    65
 73
     4
 40
9.0
 49
6.0
 49
-0.75
 49
1.5
 49
-0.75
  0
ENDTAB
  0
TABLE
  2
LAYER
 70
     4
  0
LAYER
  2
0
 70
     0
 62
     7
  6
CONTINUOUS
  0
LAYER
  2
DIMENSION
 70
     0
 62
     7
  6
CONTINUOUS
  0
LAYER
  2
ZMS
 70
     0
 62
     8
  6
CONTINUOUS
  0
LAYER
  2
DEFPOINTS
 70
     0
 62
     7
  6
CONTINUOUS
  0
ENDTAB
  0
TABLE
  2
STYLE
 70
     1
  0
STYLE
  2
STANDARD
 70
     0
 40
0.0
 41
1.0
 50
0.0
 71
     0
 42
2.5
  3
txt
  4

  0
ENDTAB
  0
TABLE
  2
VIEW
 70
     0
  0
ENDTAB
  0
TABLE
  2
UCS
 70
     0
  0
ENDTAB
  0
TABLE
  2
APPID
 70
     2
  0
APPID
  2
ACAD
 70
     0
  0
APPID
  2
ENCORE_SOFTWARE_VIACAD
 70
     0
  0
ENDTAB
  0
TABLE
  2
DIMSTYLE
 70
     3
  0
DIMSTYLE
  2
ISO-25
 70
     0
  3

  4

  5

  6

  7

 40
1.0
 41
2.5
 42
0.625
 43
3.75
 44
1.25
 45
0.0
 46
0.0
 47
0.0
 48
0.0
140
2.5
141
2.5
142
0.0
143
0.03937007874016
144
1.0
145
0.0
146
1.0
147
0.625
 71
     0
 72
     0
 73
     0
 74
     0
 75
     0
 76
     0
 77
     1
 78
     8
170
     0
171
     3
172
     1
173
     0
174
     0
175
     0
176
     0
177
     0
178
     0
  0
DIMSTYLE
  2
ROTATEDDIM2
 70
     0
  3

  4

  5

  6

  7

 40
1.0
 41
8.105938112967356
 42
2.598057087489537
 43
3.75
 44
6.495142718723842
 45
0.0
 46
0.0
 47
0.0
 48
0.0
140
7.159999847412109
141
2.5
142
0.0
143
0.03937007874016
144
1.0
145
0.0
146
1.0
147
0.625
 71
     0
 72
     0
 73
     0
 74
     0
 75
     0
 76
     0
 77
     0
 78
     8
170
     0
171
     3
172
     1
173
     0
174
     0
175
     0
176
     0
177
     0
178
     0
  0
DIMSTYLE
  2
ROTATEDDIM3
 70
     0
  3

  4

  5

  6

  7

 40
1.0
 41
8.105938112967356
 42
2.598057087489537
 43
3.75
 44
6.495142718723842
 45
0.0
 46
0.0
 47
0.0
 48
0.0
140
7.159999847412109
141
2.5
142
0.0
143
0.03937007874016
144
1.0
145
0.0
146
1.0
147
0.625
 71
     0
 72
     0
 73
     0
 74
     0
 75
     0
 76
     0
 77
     0
 78
     8
170
     0
171
     3
172
     1
173
     0
174
     0
175
     0
176
     0
177
     0
178
     0
  0
ENDTAB
  0
ENDSEC
  0
SECTION
  2
BLOCKS
  0
BLOCK
  8
0
  2
$MODEL_SPACE
 70
     0
 10
0.0
 20
0.0
 30
0.0
  3
$MODEL_SPACE
  1

  0
ENDBLK
  5
21
  8
0
  0
BLOCK
 67
     1
  8
0
  2
$PAPER_SPACE
 70
     0
 10
0.0
 20
0.0
 30
0.0
  3
$PAPER_SPACE
  1

  0
ENDBLK
  5
1D
 67
     1
  8
0
  0
BLOCK
  8
0
  2
*D1
 70
     1
 10
0.0
 20
0.0
 30
0.0
  3
*D1
  1

  0
LINE
  5
67
  8
DIMENSION
 62
     0
 10
62.79805708748884
 20
123.1000000022666
 30
0.0
 11
76.69514271872316
 21
123.1000000022666
 31
0.0
  0
LINE
  5
68
  8
DIMENSION
 62
     0
 10
62.29805708748896
 20
-0.0000000000000002
 30
0.0
 11
76.69514271872315
 21
-0.000000000000001
 31
0.0
  0
LINE
  5
69
  8
DIMENSION
 62
     0
 10
70.19999999999932
 20
114.9940618892992
 30
0.0
 11
70.19999999999932
 21
74.96071401436922
 31
0.0
  0
LINE
  5
6A
  8
DIMENSION
 62
     0
 10
70.1999999999993
 20
8.105938112967356
 30
0.0
 11
70.1999999999993
 21
48.13928598789738
 31
0.0
  0
SOLID
  5
6B
  8
DIMENSION
 62
     0
 10
71.55098968549387
 20
114.9940618892992
 30
0.0
 11
68.84901031450477
 21
114.9940618892992
 31
0.0
 12
70.19999999999932
 22
123.1000000022666
 32
0.0
 13
70.19999999999932
 23
123.1000000022666
 33
0.0
  0
SOLID
  5
6C
  8
DIMENSION
 62
     0
 10
68.84901031450475
 20
8.105938112967356
 30
0.0
 11
71.55098968549386
 21
8.105938112967356
 31
0.0
 12
70.1999999999993
 22
-0.0000000000000006
 32
0.0
 13
70.1999999999993
 23
-0.0000000000000006
 33
0.0
  0
TEXT
  5
6D
  8
DIMENSION
  6
CONTINUOUS
 62
     0
 10
73.09809517633278
 20
46.71857174577965
 30
0.0
 40
7.159999847412109
  1
123,1
 50
90.0
  0
POINT
  5
6E
  8
DEFPOINTS
 62
     0
 10
60.19999999999931
 20
123.1000000022666
 30
0.0
  0
POINT
  5
6F
  8
DEFPOINTS
 62
     0
 10
59.69999999999942
 20
0.0
 30
0.0
  0
POINT
  5
70
  8
DEFPOINTS
 62
     0
 10
70.1999999999993
 20
-0.0000000000000006
 30
0.0
  0
ENDBLK
  5
72
  8
0
  0
BLOCK
  8
0
  2
*D2
 70
     1
 10
0.0
 20
0.0
 30
0.0
  3
*D2
  1

  0
LINE
  5
76
  8
DIMENSION
 62
     0
 10
0.0
 20
115.6980570897562
 30
0.0
 11
0.0
 21
129.5951427209906
 31
0.0
  0
LINE
  5
77
  8
DIMENSION
 62
     0
 10
85.10000000000086
 20
115.6980570897562
 30
0.0
 11
85.10000000000086
 21
129.5951427209906
 31
0.0
  0
LINE
  5
78
  8
DIMENSION
 62
     0
 10
8.105938112967356
 20
123.1000000022667
 30
0.0
 11
32.03738116309799
 21
123.1000000022667
 31
0.0
  0
LINE
  5
79
  8
DIMENSION
 62
     0
 10
76.99406188703351
 20
123.1000000022667
 30
0.0
 11
53.06261883690287
 21
123.1000000022667
 31
0.0
  0
SOLID
  5
7A
  8
DIMENSION
 62
     0
 10
8.105938112967356
 20
124.4509896877613
 30
0.0
 11
8.105938112967356
 21
121.7490103167722
 31
0.0
 12
0.0
 22
123.1000000022667
 32
0.0
 13
0.0
 23
123.1000000022667
 33
0.0
  0
SOLID
  5
7B
  8
DIMENSION
 62
     0
 10
76.99406188703351
 20
121.7490103167722
 30
0.0
 11
76.99406188703351
 21
124.4509896877613
 31
0.0
 12
85.10000000000086
 22
123.1000000022667
 32
0.0
 13
85.10000000000086
 23
123.1000000022667
 33
0.0
  0
TEXT
  5
7C
  8
DIMENSION
  6
CONTINUOUS
 62
     0
 10
31.63952404203912
 20
120.2019048259332
 30
0.0
 40
7.159999847412109
  1
85,1
  0
POINT
  5
7D
  8
DEFPOINTS
 62
     0
 10
0.0
 20
113.1000000022667
 30
0.0
  0
POINT
  5
7E
  8
DEFPOINTS
 62
     0
 10
85.10000000000086
 20
113.1000000022667
 30
0.0
  0
POINT
  5
7F
  8
DEFPOINTS
 62
     0
 10
85.10000000000086
 20
123.1000000022667
 30
0.0
  0
ENDBLK
  5
81
  8
0
  0
ENDSEC
  0
SECTION
  2
ENTITIES
  0
ARC
  5
51
  8
ZMS
 62
     8
 10
60.19999999999931
 20
113.1000000022667
 30
0.0
 40
0.4999999999998935
 50
179.9999999999984
 51
90.00000000000082
  0
LINE
  5
52
  8
ZMS
 62
     8
 10
60.19999999999931
 20
123.1000000022666
 30
0.0
 11
60.19999999999931
 21
113.6000000022666
 31
0.0
  0
ARC
  5
53
  8
ZMS
 62
     8
 10
40.22276968860913
 20
27.29999999999988
 30
0.0
 40
0.4999999999998415
 50
270.0000000000049
 51
179.9999999999947
  0
LINE
  5
54
  8
ZMS
 62
     8
 10
40.22276968860918
 20
0.0
 30
0.0
 11
40.22276968860918
 21
26.80000000000004
 31
0.0
  0
LINE
  5
55
  8
ZMS
 62
   150
 10
39.72276968860929
 20
27.29999999999993
 30
0.0
 11
30.22276968860928
 21
27.29999999999993
 31
0.0
  0
LINE
  5
56
  8
ZMS
 62
   150
 10
40.22276968860918
 20
0.0
 30
0.0
 11
85.10000000000086
 21
93.30000000226688
 31
0.0
  0
ARC
  5
57
  8
ZMS
 62
    18
 10
30.02276968860946
 20
78.10000000000078
 30
0.0
 40
0.999999999999997
 50
89.99999999999756
 51
359.9999999999927
  0
ARC
  5
58
  8
ZMS
 62
    18
 10
40.22276968860928
 20
78.10000000000036
 30
0.0
 40
1.000000000000056
 50
180.0000000000049
 51
90.0000000000057
  0
ARC
  5
59
  8
ZMS
 62
    18
 10
30.02276968860956
 20
103.3000000000005
 30
0.0
 40
0.9999999999998972
 50
0.0000000000138418
 51
269.9999999999968
  0
ARC
  5
5A
  8
ZMS
 62
    18
 10
40.22276968860927
 20
103.3000000000003
 30
0.0
 40
1.000000000000051
 50
270.0000000000151
 51
179.9999999999959
  0
LINE
  5
5B
  8
ZMS
 62
    18
 10
31.02276968860946
 20
78.10000000000065
 30
0.0
 11
39.22276968860922
 21
78.10000000000065
 31
0.0
  0
LINE
  5
5C
  8
ZMS
 62
    18
 10
40.22276968860918
 20
102.3000000000002
 30
0.0
 11
40.22276968860918
 21
79.10000000000042
 31
0.0
  0
LINE
  5
5D
  8
ZMS
 62
    18
 10
39.22276968860922
 20
103.3000000000003
 30
0.0
 11
31.02276968860946
 21
103.3000000000007
 31
0.0
  0
LINE
  5
5E
  8
ZMS
 62
    18
 10
30.02276968860951
 20
102.3000000000006
 30
0.0
 11
30.02276968860951
 21
79.10000000000078
 31
0.0
  0
LINE
  5
5F
  8
ZMS
 62
     8
 10
59.69999999999942
 20
113.1000000022667
 30
0.0
 11
0.0
 21
113.1000000022667
 31
0.0
  0
LINE
  5
60
  8
ZMS
 62
   150
 10
30.22276968860928
 20
27.29999999999993
 30
0.0
 11
0.0
 21
113.1000000022667
 31
0.0
  0
LINE
  5
61
  8
ZMS
 62
     8
 10
85.10000000000086
 20
123.1000000022666
 30
0.0
 11
85.10000000000086
 21
93.30000000226688
 31
0.0
  0
LINE
  5
62
  8
ZMS
 62
     8
 10
60.19999999999931
 20
123.1000000022666
 30
0.0
 11
85.09999999999941
 21
123.1000000022666
 31
0.0
  0
DIMENSION
  5
64
  8
DIMENSION
 62
   150
  2
*D1
 10
70.1999999999993
 20
-0.0000000000000006
 30
0.0
 11
70.1999999999993
 21
61.5500000011333
 31
0.0
 70
    32
  3
ROTATEDDIM2
 13
60.19999999999931
 23
123.1000000022666
 33
0.0
 14
59.69999999999942
 24
0.0
 34
0.0
 50
90.0
  0
DIMENSION
  5
74
  8
DIMENSION
 62
   150
  2
*D2
 10
85.10000000000086
 20
123.1000000022667
 30
0.0
 11
42.55000000000043
 21
123.1000000022667
 31
0.0
 70
    32
  3
ROTATEDDIM3
 13
0.0
 23
113.1000000022667
 33
0.0
 14
85.10000000000086
 24
113.1000000022667
 34
0.0
  0
ENDSEC
  0
EOF
