  0
SECTION
  2
HEADER
  9
$ACADVER
  1
AC1009
  9
$DWGCODEPAGE
  3
ansi_1252
  9
$INSBASE
 10
0.0
 20
0.0
 30
0.0
  9
$EXTMIN
 10
-9.899999999999622
 20
-33.76088096282455
 30
0.0
  9
$EXTMAX
 10
749.9000174999235
 20
194.0714249474671
 30
69.00192643055867
  9
$LIMMIN
 10
0.0
 20
0.0
  9
$LIMMAX
 10
420.0
 20
297.0
  9
$ORTHOMODE
 70
     0
  9
$REGENMODE
 70
     1
  9
$FILLMODE
 70
     1
  9
$QTEXTMODE
 70
     0
  9
$MIRRTEXT
 70
     1
  9
$DRAGMODE
 70
     2
  9
$LTSCALE
 40
1.0
  9
$OSMODE
 70
    37
  9
$ATTMODE
 70
     1
  9
$TEXTSIZE
 40
2.5
  9
$TRACEWID
 40
1.0
  9
$TEXTSTYLE
  7
STANDARD
  9
$CLAYER
  8
0
  9
$CELTYPE
  6
BYLAYER
  9
$CECOLOR
 62
   256
  9
$DIMSCALE
 40
1.0
  9
$DIMASZ
 40
2.5
  9
$DIMEXO
 40
0.625
  9
$DIMDLI
 40
3.75
  9
$DIMRND
 40
0.0
  9
$DIMDLE
 40
0.0
  9
$DIMEXE
 40
1.25
  9
$DIMTP
 40
0.0
  9
$DIMTM
 40
0.0
  9
$DIMTXT
 40
2.5
  9
$DIMCEN
 40
2.5
  9
$DIMTSZ
 40
0.0
  9
$DIMTOL
 70
     0
  9
$DIMLIM
 70
     0
  9
$DIMTIH
 70
     0
  9
$DIMTOH
 70
     0
  9
$DIMSE1
 70
     0
  9
$DIMSE2
 70
     0
  9
$DIMTAD
 70
     1
  9
$DIMZIN
 70
     8
  9
$DIMBLK
  1

  9
$DIMASO
 70
     1
  9
$DIMSHO
 70
     1
  9
$DIMPOST
  1

  9
$DIMAPOST
  1

  9
$DIMALT
 70
     0
  9
$DIMALTD
 70
     3
  9
$DIMALTF
 40
0.03937007874016
  9
$DIMLFAC
 40
1.0
  9
$DIMTOFL
 70
     1
  9
$DIMTVP
 40
0.0
  9
$DIMTIX
 70
     0
  9
$DIMSOXD
 70
     0
  9
$DIMSAH
 70
     0
  9
$DIMBLK1
  1

  9
$DIMBLK2
  1

  9
$DIMSTYLE
  2
ISO-25
  9
$DIMCLRD
 70
     0
  9
$DIMCLRE
 70
     0
  9
$DIMCLRT
 70
     0
  9
$DIMTFAC
 40
1.0
  9
$DIMGAP
 40
0.625
  9
$LUNITS
 70
     2
  9
$LUPREC
 70
     4
  9
$SKETCHINC
 40
1.0
  9
$FILLETRAD
 40
10.0
  9
$AUNITS
 70
     0
  9
$AUPREC
 70
     0
  9
$MENU
  1
.
  9
$ELEVATION
 40
0.0
  9
$PELEVATION
 40
0.0
  9
$THICKNESS
 40
0.0
  9
$LIMCHECK
 70
     0
  9
$CHAMFERA
 40
10.0
  9
$CHAMFERB
 40
10.0
  9
$SKPOLY
 70
     0
  9
$TDCREATE
 40
2305814.516539352
  9
$TDUPDATE
 40
2456135.433217766
  9
$TDINDWG
 40
0.0000000116
  9
$TDUSRTIMER
 40
0.0000000116
  9
$USRTIMER
 70
     1
  9
$ANGBASE
 50
0.0
  9
$ANGDIR
 70
     0
  9
$PDMODE
 70
     0
  9
$PDSIZE
 40
0.0
  9
$PLINEWID
 40
0.0
  9
$COORDS
 70
     1
  9
$SPLFRAME
 70
     0
  9
$SPLINETYPE
 70
     6
  9
$SPLINESEGS
 70
     8
  9
$ATTDIA
 70
     0
  9
$ATTREQ
 70
     1
  9
$HANDLING
 70
     1
  9
$HANDSEED
  5
F2
  9
$SURFTAB1
 70
     6
  9
$SURFTAB2
 70
     6
  9
$SURFTYPE
 70
     6
  9
$SURFU
 70
     6
  9
$SURFV
 70
     6
  9
$UCSNAME
  2

  9
$UCSORG
 10
0.0
 20
0.0
 30
0.0
  9
$UCSXDIR
 10
1.0
 20
0.0
 30
0.0
  9
$UCSYDIR
 10
0.0
 20
1.0
 30
0.0
  9
$PUCSNAME
  2

  9
$PUCSORG
 10
0.0
 20
0.0
 30
0.0
  9
$PUCSXDIR
 10
1.0
 20
0.0
 30
0.0
  9
$PUCSYDIR
 10
0.0
 20
1.0
 30
0.0
  9
$USERI1
 70
     0
  9
$USERI2
 70
     0
  9
$USERI3
 70
     0
  9
$USERI4
 70
     0
  9
$USERI5
 70
     0
  9
$USERR1
 40
0.0
  9
$USERR2
 40
0.0
  9
$USERR3
 40
0.0
  9
$USERR4
 40
0.0
  9
$USERR5
 40
0.0
  9
$WORLDVIEW
 70
     1
  9
$SHADEDGE
 70
     3
  9
$SHADEDIF
 70
    70
  9
$TILEMODE
 70
     1
  9
$MAXACTVP
 70
    64
  9
$PLIMCHECK
 70
     0
  9
$PEXTMIN
 10
1.000000000000000E+20
 20
1.000000000000000E+20
 30
1.000000000000000E+20
  9
$PEXTMAX
 10
-1.000000000000000E+20
 20
-1.000000000000000E+20
 30
-1.000000000000000E+20
  9
$PLIMMIN
 10
0.0
 20
0.0
  9
$PLIMMAX
 10
420.0
 20
297.0
  9
$UNITMODE
 70
     0
  9
$VISRETAIN
 70
     1
  9
$PLINEGEN
 70
     0
  9
$PSLTSCALE
 70
     1
  0
ENDSEC
  0
SECTION
  2
TABLES
  0
TABLE
  2
VPORT
 70
     1
  0
VPORT
  2
*ACTIVE
 70
     0
 10
0.0
 20
0.0
 11
1.0
 21
1.0
 12
370.0000087499619
 22
80.15527199232126
 13
0.0
 23
0.0
 14
10.0
 24
10.0
 15
10.0
 25
10.0
 16
0.0
 26
0.0
 36
1.0
 17
0.0
 27
0.0
 37
0.0
 40
227.1333288889798
 41
3.412075284771311
 42
50.0
 43
0.0
 44
0.0
 50
0.0
 51
0.0
 71
     0
 72
   100
 73
     1
 74
     3
 75
     0
 76
     0
 77
     0
 78
     0
  0
ENDTAB
  0
TABLE
  2
LTYPE
 70
    11
  0
LTYPE
  2
CONTINUOUS
 70
     0
  3
Solid line
 72
    65
 73
     0
 40
0.0
  0
LTYPE
  2
BORDER
 70
     0
  3
__ __ . __ __ . __ 
 72
    65
 73
     6
 40
0.875
 49
0.25
 49
-0.125
 49
0.25
 49
-0.125
 49
0.0
 49
-0.125
  0
LTYPE
  2
CENTER
 70
     0
  3
___ _ ___ _ ___ _ _
 72
    65
 73
     4
 40
1.125
 49
0.75
 49
-0.125
 49
0.125
 49
-0.125
  0
LTYPE
  2
DASHDOT
 70
     0
  3
_._._._._._._._._._
 72
    65
 73
     4
 40
0.5
 49
0.25
 49
-0.125
 49
0.0
 49
-0.125
  0
LTYPE
  2
DASHED
 70
     0
  3
_ _ _ _ _ _ _ _ _ _
 72
    65
 73
     2
 40
0.375
 49
0.25
 49
-0.125
  0
LTYPE
  2
DIVIDE
 70
     0
  3
__..__..__..__..__.
 72
    65
 73
     6
 40
0.625
 49
0.25
 49
-0.125
 49
0.0
 49
-0.125
 49
0.0
 49
-0.125
  0
LTYPE
  2
DOT
 70
     0
  3
...................
 72
    65
 73
     2
 40
0.125
 49
0.0
 49
-0.125
  0
LTYPE
  2
HIDDEN
 70
     0
  3
__ __ __ __ __ __ _
 72
    65
 73
     2
 40
0.1875
 49
0.125
 49
-0.0625
  0
LTYPE
  2
PHANTOM
 70
     0
  3
___ _ _ ___ _ _ ___
 72
    65
 73
     6
 40
1.25
 49
0.625
 49
-0.125
 49
0.125
 49
-0.125
 49
0.125
 49
-0.125
  0
LTYPE
  2
CUTTING
 70
     0
  3
________ _ _ ______
 72
    65
 73
     6
 40
1.4675
 49
1.0
 49
-0.0725
 49
0.125
 49
-0.0725
 49
0.125
 49
-0.0725
  0
LTYPE
  2
STITCH
 70
     0
  3
_ _ _ _ _ _ _ _ _ _
 72
    65
 73
     2
 40
0.145
 49
0.0725
 49
-0.0725
  0
ENDTAB
  0
TABLE
  2
LAYER
 70
     4
  0
LAYER
  2
0
 70
     0
 62
     7
  6
CONTINUOUS
  0
LAYER
  2
DIMENSION
 70
     0
 62
     7
  6
CONTINUOUS
  0
LAYER
  2
X
 70
     0
 62
    18
  6
CONTINUOUS
  0
LAYER
  2
DEFPOINTS
 70
     0
 62
     7
  6
CONTINUOUS
  0
ENDTAB
  0
TABLE
  2
STYLE
 70
     1
  0
STYLE
  2
STANDARD
 70
     0
 40
0.0
 41
1.0
 50
0.0
 71
     0
 42
2.5
  3
txt
  4

  0
ENDTAB
  0
TABLE
  2
VIEW
 70
     0
  0
ENDTAB
  0
TABLE
  2
UCS
 70
     0
  0
ENDTAB
  0
TABLE
  2
APPID
 70
     2
  0
APPID
  2
ACAD
 70
     0
  0
APPID
  2
ENCORE_SOFTWARE_VIACAD
 70
     0
  0
ENDTAB
  0
TABLE
  2
DIMSTYLE
 70
     7
  0
DIMSTYLE
  2
ISO-25
 70
     0
  3

  4

  5

  6

  7

 40
1.0
 41
2.5
 42
0.625
 43
3.75
 44
1.25
 45
0.0
 46
0.0
 47
0.0
 48
0.0
140
2.5
141
2.5
142
0.0
143
0.03937007874016
144
1.0
145
0.0
146
1.0
147
0.625
 71
     0
 72
     0
 73
     0
 74
     0
 75
     0
 76
     0
 77
     1
 78
     8
170
     0
171
     3
172
     1
173
     0
174
     0
175
     0
176
     0
177
     0
178
     0
  0
DIMSTYLE
  2
RADIALDIM60
 70
     0
  3

  4

  5

  6

  7

 40
1.0
 41
8.105938112967356
 42
2.598057087489537
 43
3.75
 44
6.495142718723842
 45
0.0
 46
0.0
 47
0.0
 48
0.0
140
7.159999847412109
141
2.5
142
0.0
143
0.03937007874016
144
1.0
145
0.0
146
1.0
147
0.625
 71
     0
 72
     0
 73
     0
 74
     0
 75
     0
 76
     0
 77
     0
 78
     8
170
     0
171
     3
172
     1
173
     0
174
     0
175
     0
176
     0
177
     0
178
     0
  0
DIMSTYLE
  2
RADIALDIM61
 70
     0
  3

  4

  5

  6

  7

 40
1.0
 41
8.105938112967356
 42
2.598057087489537
 43
3.75
 44
6.495142718723842
 45
0.0
 46
0.0
 47
0.0
 48
0.0
140
7.159999847412109
141
2.5
142
0.0
143
0.03937007874016
144
1.0
145
0.0
146
1.0
147
0.625
 71
     0
 72
     0
 73
     0
 74
     0
 75
     0
 76
     0
 77
     0
 78
     8
170
     0
171
     3
172
     1
173
     0
174
     0
175
     0
176
     0
177
     0
178
     0
  0
DIMSTYLE
  2
RADIALDIM62
 70
     0
  3

  4

  5

  6

  7

 40
1.0
 41
8.105938112967356
 42
2.598057087489537
 43
3.75
 44
6.495142718723842
 45
0.0
 46
0.0
 47
0.0
 48
0.0
140
7.159999847412109
141
2.5
142
0.0
143
0.03937007874016
144
1.0
145
0.0
146
1.0
147
0.625
 71
     0
 72
     0
 73
     0
 74
     0
 75
     0
 76
     0
 77
     0
 78
     8
170
     0
171
     3
172
     1
173
     0
174
     0
175
     0
176
     0
177
     0
178
     0
  0
DIMSTYLE
  2
RADIALDIM63
 70
     0
  3

  4

  5

  6

  7

 40
1.0
 41
8.105938112967356
 42
2.598057087489537
 43
3.75
 44
6.495142718723842
 45
0.0
 46
0.0
 47
0.0
 48
0.0
140
7.159999847412109
141
2.5
142
0.0
143
0.03937007874016
144
1.0
145
0.0
146
1.0
147
0.625
 71
     0
 72
     0
 73
     0
 74
     0
 75
     0
 76
     0
 77
     0
 78
     8
170
     0
171
     3
172
     1
173
     0
174
     0
175
     0
176
     0
177
     0
178
     0
  0
DIMSTYLE
  2
ROTATEDDIM64
 70
     0
  3

  4

  5

  6

  7

 40
1.0
 41
8.105938112967356
 42
2.598057087489537
 43
3.75
 44
6.495142718723842
 45
0.0
 46
0.0
 47
0.0
 48
0.0
140
7.159999847412109
141
2.5
142
0.0
143
0.03937007874016
144
1.0
145
0.0
146
1.0
147
0.625
 71
     0
 72
     0
 73
     0
 74
     0
 75
     0
 76
     0
 77
     0
 78
     8
170
     0
171
     3
172
     1
173
     0
174
     0
175
     0
176
     0
177
     0
178
     0
  0
DIMSTYLE
  2
ROTATEDDIM65
 70
     0
  3

  4

  5

  6

  7

 40
1.0
 41
8.105938112967356
 42
2.598057087489537
 43
3.75
 44
6.495142718723842
 45
0.0
 46
0.0
 47
0.0
 48
0.0
140
7.159999847412109
141
2.5
142
0.0
143
0.03937007874016
144
1.0
145
0.0
146
1.0
147
0.625
 71
     0
 72
     0
 73
     0
 74
     0
 75
     0
 76
     0
 77
     0
 78
     8
170
     0
171
     3
172
     1
173
     0
174
     0
175
     0
176
     0
177
     0
178
     0
  0
ENDTAB
  0
ENDSEC
  0
SECTION
  2
BLOCKS
  0
BLOCK
  8
0
  2
$MODEL_SPACE
 70
     0
 10
0.0
 20
0.0
 30
0.0
  3
$MODEL_SPACE
  1

  0
ENDBLK
  5
21
  8
0
  0
BLOCK
 67
     1
  8
0
  2
$PAPER_SPACE
 70
     0
 10
0.0
 20
0.0
 30
0.0
  3
$PAPER_SPACE
  1

  0
ENDBLK
  5
1D
 67
     1
  8
0
  0
BLOCK
  8
0
  2
*D1
 70
     1
 10
0.0
 20
0.0
 30
0.0
  3
*D1
  1

  0
LINE
  5
98
  8
DIMENSION
 62
     0
 10
402.0229193681137
 20
136.8700763837337
 30
0.0
 11
408.3876086370115
 21
131.8504187059997
 31
0.0
  0
TEXT
  5
99
  8
DIMENSION
  6
CONTINUOUS
 62
     0
 10
405.5905644639241
 20
129.4969568267549
 30
0.0
 40
7.159999847412109
  1
R6
 50
321.7381142090325
  0
LINE
  5
9A
  8
DIMENSION
 62
     0
 10
390.9470991873852
 20
145.6052751434091
 30
0.0
 11
395.6582300992159
 21
141.8897340614677
 31
0.0
  0
SOLID
  5
9B
  8
DIMENSION
 62
     0
 10
402.8595289810694
 20
137.93085792855
 30
0.0
 11
401.186309755158
 21
135.8092948389174
 31
0.0
 12
395.6582300992159
 22
141.8897340614677
 32
0.0
 13
395.6582300992159
 23
141.8897340614677
 33
0.0
  0
POINT
  5
9C
  8
DEFPOINTS
 62
     0
 10
395.6582300992159
 20
141.8897340614677
 30
0.0
  0
POINT
  5
9D
  8
DEFPOINTS
 62
     0
 10
390.9470991873852
 20
145.6052751434091
 30
0.0
  0
ENDBLK
  5
9F
  8
0
  0
BLOCK
  8
0
  2
*D2
 70
     1
 10
0.0
 20
0.0
 30
0.0
  3
*D2
  1

  0
LINE
  5
A3
  8
DIMENSION
 62
     0
 10
404.8480476818452
 20
108.2092127121847
 30
0.0
 11
412.8361890805412
 21
106.8323213999543
 31
0.0
  0
TEXT
  5
A4
  8
DIMENSION
  6
CONTINUOUS
 62
     0
 10
411.5000099298352
 20
103.429842274305
 30
0.0
 40
7.159999847412109
  1
R6
 50
350.2202012096183
  0
LINE
  5
A5
  8
DIMENSION
 62
     0
 10
390.9470991873852
 20
110.605276359344
 30
0.0
 11
396.8599062831491
 21
109.5861040244151
 31
0.0
  0
SOLID
  5
A6
  8
DIMENSION
 62
     0
 10
405.0775295672169
 20
109.5405696119674
 30
0.0
 11
404.6185657964734
 21
106.877855812402
 31
0.0
 12
396.8599062831491
 22
109.5861040244151
 32
0.0
 13
396.8599062831491
 23
109.5861040244151
 33
0.0
  0
POINT
  5
A7
  8
DEFPOINTS
 62
     0
 10
396.8599062831491
 20
109.5861040244151
 30
0.0
  0
POINT
  5
A8
  8
DEFPOINTS
 62
     0
 10
390.9470991873852
 20
110.605276359344
 30
0.0
  0
ENDBLK
  5
AA
  8
0
  0
BLOCK
  8
0
  2
*D3
 70
     1
 10
0.0
 20
0.0
 30
0.0
  3
*D3
  1

  0
LINE
  5
AE
  8
DIMENSION
 62
     0
 10
406.6068413915314
 20
83.84565412165581
 30
0.0
 11
413.641309828184
 21
79.81793932229455
 31
0.0
  0
TEXT
  5
AF
  8
DIMENSION
  6
CONTINUOUS
 62
     0
 10
411.5601401143205
 20
77.67002690724823
 30
0.0
 40
7.159999847412109
  1
R7,5
 50
330.2059083368351
  0
LINE
  5
B0
  8
DIMENSION
 62
     0
 10
393.0637477298111
 20
91.60000247955429
 30
0.0
 11
399.5723729548787
 21
87.87336892101708
 31
0.0
  0
SOLID
  5
B1
  8
DIMENSION
 62
     0
 10
407.2781271914249
 20
85.01806552776459
 30
0.0
 11
405.9355555916378
 21
82.67324271554703
 31
0.0
 12
399.5723729548787
 22
87.87336892101708
 32
0.0
 13
399.5723729548787
 23
87.87336892101708
 33
0.0
  0
POINT
  5
B2
  8
DEFPOINTS
 62
     0
 10
399.5723729548787
 20
87.87336892101708
 30
0.0
  0
POINT
  5
B3
  8
DEFPOINTS
 62
     0
 10
393.0637477298111
 20
91.60000247955429
 30
0.0
  0
ENDBLK
  5
B5
  8
0
  0
BLOCK
  8
0
  2
*D4
 70
     1
 10
0.0
 20
0.0
 30
0.0
  3
*D4
  1

  0
LINE
  5
B9
  8
DIMENSION
 62
     0
 10
297.4808095706954
 20
46.85787023216826
 30
0.0
 11
302.7510064276986
 21
40.69903448344993
 31
0.0
  0
TEXT
  5
BA
  8
DIMENSION
  6
CONTINUOUS
 62
     0
 10
300.06870570577
 20
39.37613692212699
 30
0.0
 40
7.159999847412109
  1
R3,4
 50
310.5540396352278
  0
LINE
  5
BB
  8
DIMENSION
 62
     0
 10
290.0000518798827
 20
55.60000247955381
 30
0.0
 11
292.2106127136923
 21
53.01670598088659
 31
0.0
  0
SOLID
  5
BC
  8
DIMENSION
 62
     0
 10
298.5072821954818
 20
47.73623637500212
 30
0.0
 11
296.4543369459091
 21
45.9795040893344
 31
0.0
 12
292.2106127136923
 22
53.01670598088659
 32
0.0
 13
292.2106127136923
 23
53.01670598088659
 33
0.0
  0
POINT
  5
BD
  8
DEFPOINTS
 62
     0
 10
292.2106127136923
 20
53.01670598088659
 30
0.0
  0
POINT
  5
BE
  8
DEFPOINTS
 62
     0
 10
290.0000518798827
 20
55.60000247955381
 30
0.0
  0
ENDBLK
  5
C0
  8
0
  0
BLOCK
  8
0
  2
*D5
 70
     1
 10
0.0
 20
0.0
 30
0.0
  3
*D5
  1

  0
LINE
  5
D0
  8
DIMENSION
 62
     0
 10
-9.899999999999586
 20
17.40194291251167
 30
0.0
 11
-9.899999999999643
 21
-31.18459511011982
 31
0.0
  0
LINE
  5
D1
  8
DIMENSION
 62
     0
 10
749.9000174999235
 20
17.40194291251167
 30
0.0
 11
749.9000174999235
 21
-31.18459511011982
 31
0.0
  0
LINE
  5
D2
  8
DIMENSION
 62
     0
 10
-1.79406188703228
 20
-24.68945239139598
 30
0.0
 11
355.0550090551376
 21
-24.68945239139598
 31
0.0
  0
LINE
  5
D3
  8
DIMENSION
 62
     0
 10
741.7940793869561
 20
-24.68945239139598
 30
0.0
 11
384.9450084447861
 21
-24.68945239139598
 31
0.0
  0
SOLID
  5
D4
  8
DIMENSION
 62
     0
 10
-1.79406188703228
 20
-23.33846270590142
 30
0.0
 11
-1.79406188703228
 21
-26.04044207689054
 31
0.0
 12
-9.899999999999636
 22
-24.68945239139598
 32
0.0
 13
-9.899999999999636
 23
-24.68945239139598
 33
0.0
  0
SOLID
  5
D5
  8
DIMENSION
 62
     0
 10
741.7940793869561
 20
-26.04044207689054
 30
0.0
 11
741.7940793869561
 21
-23.33846270590142
 31
0.0
 12
749.9000174999235
 22
-24.68945239139598
 32
0.0
 13
749.9000174999235
 23
-24.68945239139598
 33
0.0
  0
TEXT
  5
D6
  8
DIMENSION
  6
CONTINUOUS
 62
     0
 10
354.6571519340789
 20
-27.58754756772945
 30
0.0
 40
7.159999847412109
  1
759,8
  0
POINT
  5
D7
  8
DEFPOINTS
 62
     0
 10
-9.899999999999583
 20
20.0000000000012
 30
0.0
  0
POINT
  5
D8
  8
DEFPOINTS
 62
     0
 10
749.9000174999235
 20
20.0000000000012
 30
0.0
  0
POINT
  5
D9
  8
DEFPOINTS
 62
     0
 10
749.9000174999235
 20
-24.68945239139598
 30
0.0
  0
ENDBLK
  5
DB
  8
0
  0
BLOCK
  8
0
  2
*D6
 70
     1
 10
0.0
 20
0.0
 30
0.0
  3
*D6
  1

  0
LINE
  5
DF
  8
DIMENSION
 62
     0
 10
0.0
 20
177.598053463528
 30
0.0
 11
0.0
 21
191.4951390947624
 31
0.0
  0
LINE
  5
E0
  8
DIMENSION
 62
     0
 10
740.000017499924
 20
177.598053463528
 30
0.0
 11
740.000017499924
 21
191.4951390947624
 31
0.0
  0
LINE
  5
E1
  8
DIMENSION
 62
     0
 10
8.105938112967356
 20
184.9999963760385
 30
0.0
 11
360.1692946604321
 21
184.9999963760385
 31
0.0
  0
LINE
  5
E2
  8
DIMENSION
 62
     0
 10
731.8940793869566
 20
184.9999963760385
 30
0.0
 11
379.8307228394919
 21
184.9999963760385
 31
0.0
  0
SOLID
  5
E3
  8
DIMENSION
 62
     0
 10
8.105938112967356
 20
186.3509860615331
 30
0.0
 11
8.105938112967356
 21
183.6490066905439
 31
0.0
 12
0.0
 22
184.9999963760385
 32
0.0
 13
0.0
 23
184.9999963760385
 33
0.0
  0
SOLID
  5
E4
  8
DIMENSION
 62
     0
 10
731.8940793869566
 20
183.6490066905439
 30
0.0
 11
731.8940793869566
 21
186.3509860615331
 31
0.0
 12
740.000017499924
 22
184.9999963760385
 32
0.0
 13
740.000017499924
 23
184.9999963760385
 33
0.0
  0
TEXT
  5
E5
  8
DIMENSION
  6
CONTINUOUS
 62
     0
 10
359.7714375393733
 20
181.4199964523324
 30
0.0
 40
7.159999847412109
  1
740
  0
POINT
  5
E6
  8
DEFPOINTS
 62
     0
 10
0.0
 20
174.9999963760385
 30
0.0
  0
POINT
  5
E7
  8
DEFPOINTS
 62
     0
 10
740.000017499924
 20
174.9999963760385
 30
0.0
  0
POINT
  5
E8
  8
DEFPOINTS
 62
     0
 10
740.000017499924
 20
184.9999963760385
 30
0.0
  0
ENDBLK
  5
EA
  8
0
  0
ENDSEC
  0
SECTION
  2
ENTITIES
  0
CIRCLE
  5
4C
  8
X
 62
     8
 10
-690.0000518798822
 20
55.60000247955381
 30
0.0
 40
3.400000000000091
210
0.0
220
0.0
230
-1.0
  0
CIRCLE
  5
4D
  8
X
 62
     8
 10
-610.0000518798832
 20
55.60000247955381
 30
0.0
 40
3.399999999999864
210
0.0
220
0.0
230
-1.0
  0
CIRCLE
  5
4E
  8
X
 62
     8
 10
-530.0000518798827
 20
55.60000247955381
 30
0.0
 40
3.399999999999864
210
0.0
220
0.0
230
-1.0
  0
CIRCLE
  5
4F
  8
X
 62
     8
 10
-450.0000518798834
 20
55.60000247955381
 30
0.0
 40
3.399999999999977
210
0.0
220
0.0
230
-1.0
  0
CIRCLE
  5
50
  8
X
 62
     8
 10
-370.0000518798826
 20
55.60000247955381
 30
0.0
 40
3.399999999999977
210
0.0
220
0.0
230
-1.0
  0
CIRCLE
  5
51
  8
X
 62
     8
 10
-290.0000518798827
 20
55.60000247955381
 30
0.0
 40
3.39999999999992
210
0.0
220
0.0
230
-1.0
  0
CIRCLE
  5
52
  8
X
 62
     8
 10
-210.0000518798829
 20
55.60000247955381
 30
0.0
 40
3.400000000000261
210
0.0
220
0.0
230
-1.0
  0
CIRCLE
  5
53
  8
X
 62
     8
 10
-50.00005187988315
 20
55.60000247955381
 30
0.0
 40
3.399999999999956
210
0.0
220
0.0
230
-1.0
  0
CIRCLE
  5
54
  8
X
 62
     8
 10
-130.000051879883
 20
55.60000247955381
 30
0.0
 40
3.399999999999949
210
0.0
220
0.0
230
-1.0
  0
LINE
  5
55
  8
X
 62
     8
 10
740.000017499924
 20
174.9999963760385
 30
0.0
 11
0.0
 21
174.9999963760385
 31
0.0
  0
LINE
  5
56
  8
X
 62
     8
 10
740.000017499924
 20
0.0
 30
0.0
 11
0.0
 21
0.0
 31
0.0
  0
CIRCLE
  5
57
  8
X
 62
     8
 10
-355.9471007132636
 20
110.605276359344
 30
0.0
 40
6.000000000000171
210
0.0
220
0.0
230
-1.0
  0
CIRCLE
  5
58
  8
X
 62
     8
 10
-390.9470991873852
 20
110.605276359344
 30
0.0
 40
6.000000000000057
210
0.0
220
0.0
230
-1.0
  0
CIRCLE
  5
59
  8
X
 62
     8
 10
-390.9470991873852
 20
145.6052751434091
 30
0.0
 40
6.000000000000057
210
0.0
220
0.0
230
-1.0
  0
CIRCLE
  5
5A
  8
X
 62
     8
 10
-341.063747729811
 20
91.60000247955429
 30
0.0
 40
7.500000000000057
210
0.0
220
0.0
230
-1.0
  0
CIRCLE
  5
5B
  8
X
 62
     8
 10
-393.0637477298111
 20
91.60000247955429
 30
0.0
 40
7.500000000000114
210
0.0
220
0.0
230
-1.0
  0
CIRCLE
  5
5C
  8
X
 62
     8
 10
-393.0637477298111
 20
19.60000247955334
 30
0.0
 40
7.500000000000114
210
0.0
220
0.0
230
-1.0
  0
CIRCLE
  5
5D
  8
X
 62
     8
 10
-341.063747729811
 20
19.60000247955334
 30
0.0
 40
7.500000000000057
210
0.0
220
0.0
230
-1.0
  0
ARC
  5
5E
  8
X
 62
     8
 10
45.09999999999996
 20
159.8999963760389
 30
0.0
 40
0.9999999999999992
 50
179.999999999987
 51
90.00000000001224
  0
ARC
  5
5F
  8
X
 62
     8
 10
45.09999999999985
 20
165.0999963760393
 30
0.0
 40
0.9999999999999991
 50
270.0
 51
179.9999999999994
  0
ARC
  5
60
  8
X
 62
     8
 10
19.8999999999998
 20
159.899996376039
 30
0.0
 40
1.000000000000004
 50
90.0
 51
0.000000000000573
  0
ARC
  5
61
  8
X
 62
     8
 10
19.89999999999984
 20
165.0999963760393
 30
0.0
 40
0.9999999999999992
 50
0.0000000000048853
 51
269.9999999999965
  0
ARC
  5
62
  8
X
 62
     8
 10
0.0000000000000617
 20
20.00000000000126
 30
0.0
 40
1.0
 50
269.9999999999931
 51
180.0000000000071
  0
ARC
  5
63
  8
X
 62
     8
 10
0.0000000000000601
 20
45.00000000000123
 30
0.0
 40
0.9999999999999997
 50
179.9999999999927
 51
90.00000000000689
  0
ARC
  5
64
  8
X
 62
     8
 10
0.0000000000000247
 20
119.9999890532443
 30
0.0
 40
1.000000000000002
 50
269.9999999999929
 51
180.0000000000073
  0
ARC
  5
65
  8
X
 62
     8
 10
0.0000000000000144
 20
144.9999890532443
 30
0.0
 40
0.9999999999999932
 50
179.9999999999919
 51
90.00000000000654
  0
LINE
  5
66
  8
X
 62
   150
 10
0.0
 20
174.9999963760385
 30
0.0
 11
-0.0000000000000993
 21
145.9999890532443
 31
0.0
  0
LINE
  5
67
  8
X
 62
   150
 10
0.0000000000000229
 20
118.9999890532443
 30
0.0
 11
-0.0000000000000602
 21
46.00000000000123
 31
0.0
  0
LINE
  5
68
  8
X
 62
   150
 10
0.0000000000000611
 20
19.00000000000126
 30
0.0
 11
0.0
 21
0.0
 31
0.0
  0
ARC
  5
69
  8
X
 62
     8
 10
740.0000174999238
 20
20.00000000000126
 30
0.0
 40
1.000000000000001
 50
359.999999999993
 51
270.0000000000065
  0
ARC
  5
6A
  8
X
 62
     8
 10
740.0000174999238
 20
45.00000000000123
 30
0.0
 40
1.000000000000001
 50
89.99999999999349
 51
0.000000000007328
  0
ARC
  5
6B
  8
X
 62
     8
 10
740.0000174999238
 20
119.9999890532443
 30
0.0
 40
1.000000000000003
 50
359.9999999999927
 51
270.000000000013
  0
ARC
  5
6C
  8
X
 62
     8
 10
740.0000174999238
 20
144.9999890532443
 30
0.0
 40
0.9999999999999949
 50
89.99999999998697
 51
0.0000000000081422
  0
LINE
  5
6D
  8
X
 62
   150
 10
740.000017499924
 20
174.9999963760385
 30
0.0
 11
740.0000174999241
 21
145.9999890532443
 31
0.0
  0
LINE
  5
6E
  8
X
 62
   150
 10
740.000017499924
 20
118.9999890532443
 30
0.0
 11
740.000017499924
 21
46.00000000000123
 31
0.0
  0
LINE
  5
6F
  8
X
 62
   150
 10
740.000017499924
 20
0.0
 30
0.0
 11
740.0000174999238
 21
19.00000000000126
 31
0.0
  0
LINE
  5
70
  8
X
 62
     8
 10
45.09999999999985
 20
160.8999963760389
 30
0.0
 11
45.09999999999985
 21
164.0999963760393
 31
0.0
  0
LINE
  5
71
  8
X
 62
     8
 10
44.09999999999985
 20
165.0999963760393
 30
0.0
 11
20.89999999999984
 21
165.0999963760393
 31
0.0
  0
LINE
  5
72
  8
X
 62
     8
 10
44.09999999999996
 20
159.899996376039
 30
0.0
 11
20.89999999999981
 21
159.899996376039
 31
0.0
  0
LINE
  5
73
  8
X
 62
     8
 10
19.89999999999981
 20
164.0999963760393
 30
0.0
 11
19.89999999999981
 21
160.899996376039
 31
0.0
  0
ARC
  5
74
  8
X
 62
     8
 10
213.850004374981
 20
159.8999963760389
 30
0.0
 40
1.000000000000003
 50
179.999999999987
 51
90.00000000001303
  0
ARC
  5
75
  8
X
 62
     8
 10
213.8500043749808
 20
165.0999963760393
 30
0.0
 40
0.9999999999999949
 50
270.0000000000015
 51
179.9999999999994
  0
ARC
  5
76
  8
X
 62
     8
 10
188.6500043749808
 20
159.899996376039
 30
0.0
 40
1.000000000000003
 50
90.0
 51
0.000000000000573
  0
ARC
  5
77
  8
X
 62
     8
 10
188.6500043749809
 20
165.0999963760393
 30
0.0
 40
1.000000000000004
 50
0.0000000000048853
 51
269.9999999999968
  0
LINE
  5
78
  8
X
 62
     8
 10
213.8500043749808
 20
160.8999963760389
 30
0.0
 11
213.8500043749808
 21
164.0999963760393
 31
0.0
  0
LINE
  5
79
  8
X
 62
     8
 10
212.8500043749808
 20
165.0999963760393
 30
0.0
 11
189.6500043749809
 21
165.0999963760393
 31
0.0
  0
LINE
  5
7A
  8
X
 62
     8
 10
212.850004374981
 20
159.899996376039
 30
0.0
 11
189.6500043749808
 21
159.899996376039
 31
0.0
  0
LINE
  5
7B
  8
X
 62
     8
 10
188.6500043749808
 20
164.0999963760393
 30
0.0
 11
188.6500043749808
 21
160.899996376039
 31
0.0
  0
ARC
  5
7C
  8
X
 62
     8
 10
382.6000087499623
 20
159.8999963760389
 30
0.0
 40
0.9999999999999868
 50
179.999999999987
 51
90.00000000001303
  0
ARC
  5
7D
  8
X
 62
     8
 10
382.6000087499621
 20
165.0999963760393
 30
0.0
 40
1.000000000000003
 50
270.0000000000032
 51
179.9999999999994
  0
ARC
  5
7E
  8
X
 62
     8
 10
357.4000087499621
 20
159.899996376039
 30
0.0
 40
0.9999999999999949
 50
89.99999999999675
 51
0.000000000000573
  0
ARC
  5
7F
  8
X
 62
     8
 10
357.4000087499622
 20
165.0999963760393
 30
0.0
 40
1.000000000000003
 50
0.0000000000048853
 51
269.9999999999935
  0
LINE
  5
80
  8
X
 62
     8
 10
382.6000087499621
 20
160.8999963760389
 30
0.0
 11
382.6000087499621
 21
164.0999963760393
 31
0.0
  0
LINE
  5
81
  8
X
 62
     8
 10
381.6000087499621
 20
165.0999963760393
 30
0.0
 11
358.4000087499622
 21
165.0999963760393
 31
0.0
  0
LINE
  5
82
  8
X
 62
     8
 10
381.6000087499623
 20
159.899996376039
 30
0.0
 11
358.4000087499621
 21
159.899996376039
 31
0.0
  0
LINE
  5
83
  8
X
 62
     8
 10
357.4000087499621
 20
164.0999963760393
 30
0.0
 11
357.4000087499621
 21
160.899996376039
 31
0.0
  0
ARC
  5
84
  8
X
 62
     8
 10
551.6000131249425
 20
159.8999963760389
 30
0.0
 40
1.000000000000003
 50
179.999999999987
 51
90.00000000001303
  0
ARC
  5
85
  8
X
 62
     8
 10
551.6000131249424
 20
165.0999963760393
 30
0.0
 40
1.00000000000002
 50
270.0000000000065
 51
180.0000000000016
  0
ARC
  5
86
  8
X
 62
     8
 10
526.4000131249423
 20
159.899996376039
 30
0.0
 40
1.000000000000012
 50
89.99999999999349
 51
0.000000000000573
  0
ARC
  5
87
  8
X
 62
     8
 10
526.4000131249425
 20
165.0999963760393
 30
0.0
 40
1.000000000000003
 50
0.0000000000048853
 51
270.0
  0
LINE
  5
88
  8
X
 62
     8
 10
551.6000131249425
 20
160.8999963760389
 30
0.0
 11
551.6000131249425
 21
164.0999963760393
 31
0.0
  0
LINE
  5
89
  8
X
 62
     8
 10
550.6000131249424
 20
165.0999963760393
 30
0.0
 11
527.4000131249425
 21
165.0999963760393
 31
0.0
  0
LINE
  5
8A
  8
X
 62
     8
 10
550.6000131249425
 20
159.899996376039
 30
0.0
 11
527.4000131249423
 21
159.899996376039
 31
0.0
  0
LINE
  5
8B
  8
X
 62
     8
 10
526.4000131249425
 20
164.0999963760393
 30
0.0
 11
526.4000131249425
 21
160.899996376039
 31
0.0
  0
ARC
  5
8C
  8
X
 62
     8
 10
720.1000174999227
 20
159.8999963760389
 30
0.0
 40
1.000000000000003
 50
179.999999999987
 51
90.00000000001303
  0
ARC
  5
8D
  8
X
 62
     8
 10
720.1000174999226
 20
165.0999963760393
 30
0.0
 40
1.00000000000002
 50
270.0000000000065
 51
180.0000000000016
  0
ARC
  5
8E
  8
X
 62
     8
 10
694.9000174999226
 20
159.899996376039
 30
0.0
 40
1.000000000000012
 50
89.99999999999349
 51
0.000000000000573
  0
ARC
  5
8F
  8
X
 62
     8
 10
694.9000174999227
 20
165.0999963760393
 30
0.0
 40
1.000000000000003
 50
0.0000000000048853
 51
270.0
  0
LINE
  5
90
  8
X
 62
     8
 10
720.1000174999227
 20
160.8999963760389
 30
0.0
 11
720.1000174999227
 21
164.0999963760393
 31
0.0
  0
LINE
  5
91
  8
X
 62
     8
 10
719.1000174999226
 20
165.0999963760393
 30
0.0
 11
695.9000174999227
 21
165.0999963760393
 31
0.0
  0
LINE
  5
92
  8
X
 62
     8
 10
719.1000174999227
 20
159.899996376039
 30
0.0
 11
695.9000174999226
 21
159.899996376039
 31
0.0
  0
LINE
  5
93
  8
X
 62
     8
 10
694.9000174999227
 20
164.0999963760393
 30
0.0
 11
694.9000174999227
 21
160.899996376039
 31
0.0
  0
DIMENSION
  5
95
  8
DIMENSION
 62
   150
  2
*D1
 10
390.9470991873852
 20
145.6052751434091
 30
0.0
 11
413.4294533638779
 21
127.8740526142832
 31
0.0
 70
    36
  3
RADIALDIM60
 15
395.6582300992159
 25
141.8897340614677
 35
0.0
 40
0.0
  0
DIMENSION
  5
A1
  8
DIMENSION
 62
   150
  2
*D2
 10
390.9470991873852
 20
110.605276359344
 30
0.0
 11
419.1640657272911
 21
105.7416048058292
 31
0.0
 70
    36
  3
RADIALDIM61
 15
396.8599062831491
 25
109.5861040244151
 35
0.0
 40
0.0
  0
DIMENSION
  5
AC
  8
DIMENSION
 62
   150
  2
*D3
 10
393.0637477298111
 20
91.60000247955429
 30
0.0
 11
423.6519884686036
 21
74.08614041314294
 31
0.0
 70
    36
  3
RADIALDIM62
 15
399.5723729548787
 25
87.87336892101708
 35
0.0
 40
0.0
  0
DIMENSION
  5
B7
  8
DIMENSION
 62
   150
  2
*D4
 10
290.0000518798827
 20
55.60000247955381
 30
0.0
 11
310.3618062317442
 21
31.80493295720283
 31
0.0
 70
    36
  3
RADIALDIM63
 15
292.2106127136923
 25
53.01670598088659
 35
0.0
 40
0.0
  0
LINE
  5
C1
  8
X
 62
   150
 10
-9.899999999999622
 20
119.9999890532443
 30
0.0
 11
-0.9999999999999777
 21
119.9999890532442
 31
0.0
  0
LINE
  5
C2
  8
X
 62
   150
 10
-0.9999999999999788
 20
144.9999890532443
 30
0.0
 11
-9.89999999999962
 21
144.9999890532444
 31
0.0
  0
LINE
  5
C3
  8
X
 62
     8
 10
-9.899999999999622
 20
144.9999890532444
 30
0.0
 11
-9.899999999999622
 21
119.9999890532443
 31
0.0
  0
LINE
  5
C4
  8
X
 62
   150
 10
-0.9999999999999396
 20
45.00000000000123
 30
0.0
 11
-9.899999999999581
 21
45.00000000000129
 31
0.0
  0
LINE
  5
C5
  8
X
 62
   150
 10
-9.899999999999583
 20
20.0000000000012
 30
0.0
 11
-0.9999999999999386
 21
20.00000000000114
 31
0.0
  0
LINE
  5
C6
  8
X
 62
     8
 10
-9.899999999999583
 20
45.00000000000129
 30
0.0
 11
-9.899999999999583
 21
20.0000000000012
 31
0.0
  0
LINE
  5
C7
  8
X
 62
   150
 10
741.0000174999238
 20
144.9999890532443
 30
0.0
 11
749.9000174999235
 21
144.9999890532444
 31
0.0
  0
LINE
  5
C8
  8
X
 62
   150
 10
749.9000174999235
 20
119.9999890532443
 30
0.0
 11
741.0000174999238
 21
119.9999890532442
 31
0.0
  0
LINE
  5
C9
  8
X
 62
     8
 10
749.9000174999235
 20
144.9999890532444
 30
0.0
 11
749.9000174999235
 21
119.9999890532443
 31
0.0
  0
LINE
  5
CA
  8
X
 62
   150
 10
741.0000174999238
 20
45.00000000000123
 30
0.0
 11
749.9000174999235
 21
45.00000000000129
 31
0.0
  0
LINE
  5
CB
  8
X
 62
   150
 10
749.9000174999235
 20
20.0000000000012
 30
0.0
 11
741.0000174999238
 21
20.00000000000114
 31
0.0
  0
LINE
  5
CC
  8
X
 62
     8
 10
749.9000174999235
 20
45.00000000000129
 30
0.0
 11
749.9000174999235
 21
20.0000000000012
 31
0.0
  0
DIMENSION
  5
CE
  8
DIMENSION
 62
   150
  2
*D5
 10
749.9000174999235
 20
-24.68945239139598
 30
0.0
 11
370.0000087499619
 21
-24.68945239139598
 31
0.0
 70
    32
  3
ROTATEDDIM64
 13
-9.899999999999583
 23
20.0000000000012
 33
0.0
 14
749.9000174999235
 24
20.0000000000012
 34
0.0
  0
DIMENSION
  5
DD
  8
DIMENSION
 62
   150
  2
*D6
 10
740.000017499924
 20
184.9999963760385
 30
0.0
 11
370.000008749962
 21
184.9999963760385
 31
0.0
 70
    32
  3
ROTATEDDIM65
 13
0.0
 23
174.9999963760385
 33
0.0
 14
740.000017499924
 24
174.9999963760385
 34
0.0
  0
ENDSEC
  0
EOF
