  0
SECTION
  2
HEADER
  9
$ACADVER
  1
AC1009
  9
$DWGCODEPAGE
  3
ansi_1252
  9
$INSBASE
 10
0.0
 20
0.0
 30
0.0
  9
$EXTMIN
 10
-19.72222200201618
 20
-20.85572854126087
 30
0.0
  9
$EXTMAX
 10
327.2857142857142
 20
514.0726830682682
 30
74.53335868426107
  9
$LIMMIN
 10
0.0
 20
0.0
  9
$LIMMAX
 10
420.0
 20
297.0
  9
$ORTHOMODE
 70
     0
  9
$REGENMODE
 70
     1
  9
$FILLMODE
 70
     1
  9
$QTEXTMODE
 70
     0
  9
$MIRRTEXT
 70
     1
  9
$DRAGMODE
 70
     2
  9
$LTSCALE
 40
1.0
  9
$OSMODE
 70
    37
  9
$ATTMODE
 70
     1
  9
$TEXTSIZE
 40
2.5
  9
$TRACEWID
 40
1.0
  9
$TEXTSTYLE
  7
STANDARD
  9
$CLAYER
  8
0
  9
$CELTYPE
  6
BYLAYER
  9
$CECOLOR
 62
   256
  9
$DIMSCALE
 40
1.0
  9
$DIMASZ
 40
2.5
  9
$DIMEXO
 40
0.625
  9
$DIMDLI
 40
3.75
  9
$DIMRND
 40
0.0
  9
$DIMDLE
 40
0.0
  9
$DIMEXE
 40
1.25
  9
$DIMTP
 40
0.0
  9
$DIMTM
 40
0.0
  9
$DIMTXT
 40
2.5
  9
$DIMCEN
 40
2.5
  9
$DIMTSZ
 40
0.0
  9
$DIMTOL
 70
     0
  9
$DIMLIM
 70
     0
  9
$DIMTIH
 70
     0
  9
$DIMTOH
 70
     0
  9
$DIMSE1
 70
     0
  9
$DIMSE2
 70
     0
  9
$DIMTAD
 70
     1
  9
$DIMZIN
 70
     8
  9
$DIMBLK
  1

  9
$DIMASO
 70
     1
  9
$DIMSHO
 70
     1
  9
$DIMPOST
  1

  9
$DIMAPOST
  1

  9
$DIMALT
 70
     0
  9
$DIMALTD
 70
     3
  9
$DIMALTF
 40
0.03937007874016
  9
$DIMLFAC
 40
1.0
  9
$DIMTOFL
 70
     1
  9
$DIMTVP
 40
0.0
  9
$DIMTIX
 70
     0
  9
$DIMSOXD
 70
     0
  9
$DIMSAH
 70
     0
  9
$DIMBLK1
  1

  9
$DIMBLK2
  1

  9
$DIMSTYLE
  2
ISO-25
  9
$DIMCLRD
 70
     0
  9
$DIMCLRE
 70
     0
  9
$DIMCLRT
 70
     0
  9
$DIMTFAC
 40
1.0
  9
$DIMGAP
 40
0.625
  9
$LUNITS
 70
     2
  9
$LUPREC
 70
     4
  9
$SKETCHINC
 40
1.0
  9
$FILLETRAD
 40
10.0
  9
$AUNITS
 70
     0
  9
$AUPREC
 70
     0
  9
$MENU
  1
.
  9
$ELEVATION
 40
0.0
  9
$PELEVATION
 40
0.0
  9
$THICKNESS
 40
0.0
  9
$LIMCHECK
 70
     0
  9
$CHAMFERA
 40
10.0
  9
$CHAMFERB
 40
10.0
  9
$SKPOLY
 70
     0
  9
$TDCREATE
 40
2305814.5065625
  9
$TDUPDATE
 40
2456148.423234838
  9
$TDINDWG
 40
0.0000000116
  9
$TDUSRTIMER
 40
0.0000000116
  9
$USRTIMER
 70
     1
  9
$ANGBASE
 50
0.0
  9
$ANGDIR
 70
     0
  9
$PDMODE
 70
     0
  9
$PDSIZE
 40
0.0
  9
$PLINEWID
 40
0.0
  9
$COORDS
 70
     1
  9
$SPLFRAME
 70
     0
  9
$SPLINETYPE
 70
     6
  9
$SPLINESEGS
 70
     8
  9
$ATTDIA
 70
     0
  9
$ATTREQ
 70
     1
  9
$HANDLING
 70
     1
  9
$HANDSEED
  5
10A
  9
$SURFTAB1
 70
     6
  9
$SURFTAB2
 70
     6
  9
$SURFTYPE
 70
     6
  9
$SURFU
 70
     6
  9
$SURFV
 70
     6
  9
$UCSNAME
  2

  9
$UCSORG
 10
0.0
 20
0.0
 30
0.0
  9
$UCSXDIR
 10
1.0
 20
0.0
 30
0.0
  9
$UCSYDIR
 10
0.0
 20
1.0
 30
0.0
  9
$PUCSNAME
  2

  9
$PUCSORG
 10
0.0
 20
0.0
 30
0.0
  9
$PUCSXDIR
 10
1.0
 20
0.0
 30
0.0
  9
$PUCSYDIR
 10
0.0
 20
1.0
 30
0.0
  9
$USERI1
 70
     0
  9
$USERI2
 70
     0
  9
$USERI3
 70
     0
  9
$USERI4
 70
     0
  9
$USERI5
 70
     0
  9
$USERR1
 40
0.0
  9
$USERR2
 40
0.0
  9
$USERR3
 40
0.0
  9
$USERR4
 40
0.0
  9
$USERR5
 40
0.0
  9
$WORLDVIEW
 70
     1
  9
$SHADEDGE
 70
     3
  9
$SHADEDIF
 70
    70
  9
$TILEMODE
 70
     1
  9
$MAXACTVP
 70
    64
  9
$PLIMCHECK
 70
     0
  9
$PEXTMIN
 10
1.000000000000000E+20
 20
1.000000000000000E+20
 30
1.000000000000000E+20
  9
$PEXTMAX
 10
-1.000000000000000E+20
 20
-1.000000000000000E+20
 30
-1.000000000000000E+20
  9
$PLIMMIN
 10
0.0
 20
0.0
  9
$PLIMMAX
 10
420.0
 20
297.0
  9
$UNITMODE
 70
     0
  9
$VISRETAIN
 70
     1
  9
$PLINEGEN
 70
     0
  9
$PSLTSCALE
 70
     1
  0
ENDSEC
  0
SECTION
  2
TABLES
  0
TABLE
  2
VPORT
 70
     1
  0
VPORT
  2
*ACTIVE
 70
     0
 10
0.0
 20
0.0
 11
1.0
 21
1.0
 12
137.252428640638
 22
246.6084772635037
 13
0.0
 23
0.0
 14
10.0
 24
10.0
 15
10.0
 25
10.0
 16
0.0
 26
0.0
 36
1.0
 17
0.0
 27
0.0
 37
0.0
 40
540.3713567022021
 41
0.5804250015900595
 42
50.0
 43
0.0
 44
0.0
 50
0.0
 51
0.0
 71
     0
 72
   100
 73
     1
 74
     3
 75
     0
 76
     0
 77
     0
 78
     0
  0
ENDTAB
  0
TABLE
  2
LTYPE
 70
    11
  0
LTYPE
  2
CONTINUOUS
 70
     0
  3
Solid line
 72
    65
 73
     0
 40
0.0
  0
LTYPE
  2
BORDER
 70
     0
  3
__ __ . __ __ . __ 
 72
    65
 73
     6
 40
0.875
 49
0.25
 49
-0.125
 49
0.25
 49
-0.125
 49
0.0
 49
-0.125
  0
LTYPE
  2
CENTER
 70
     0
  3
___ _ ___ _ ___ _ _
 72
    65
 73
     4
 40
1.125
 49
0.75
 49
-0.125
 49
0.125
 49
-0.125
  0
LTYPE
  2
DASHDOT
 70
     0
  3
_._._._._._._._._._
 72
    65
 73
     4
 40
0.5
 49
0.25
 49
-0.125
 49
0.0
 49
-0.125
  0
LTYPE
  2
DASHED
 70
     0
  3
_ _ _ _ _ _ _ _ _ _
 72
    65
 73
     2
 40
0.375
 49
0.25
 49
-0.125
  0
LTYPE
  2
DIVIDE
 70
     0
  3
__..__..__..__..__.
 72
    65
 73
     6
 40
0.625
 49
0.25
 49
-0.125
 49
0.0
 49
-0.125
 49
0.0
 49
-0.125
  0
LTYPE
  2
DOT
 70
     0
  3
...................
 72
    65
 73
     2
 40
0.125
 49
0.0
 49
-0.125
  0
LTYPE
  2
HIDDEN
 70
     0
  3
__ __ __ __ __ __ _
 72
    65
 73
     2
 40
0.1875
 49
0.125
 49
-0.0625
  0
LTYPE
  2
PHANTOM
 70
     0
  3
___ _ _ ___ _ _ ___
 72
    65
 73
     6
 40
1.25
 49
0.625
 49
-0.125
 49
0.125
 49
-0.125
 49
0.125
 49
-0.125
  0
LTYPE
  2
CUTTING
 70
     0
  3
________ _ _ ______
 72
    65
 73
     6
 40
1.4675
 49
1.0
 49
-0.0725
 49
0.125
 49
-0.0725
 49
0.125
 49
-0.0725
  0
LTYPE
  2
STITCH
 70
     0
  3
_ _ _ _ _ _ _ _ _ _
 72
    65
 73
     2
 40
0.145
 49
0.0725
 49
-0.0725
  0
ENDTAB
  0
TABLE
  2
LAYER
 70
     4
  0
LAYER
  2
0
 70
     0
 62
     7
  6
CONTINUOUS
  0
LAYER
  2
DIMENSION
 70
     0
 62
     7
  6
CONTINUOUS
  0
LAYER
  2
Y
 70
     0
 62
    18
  6
CONTINUOUS
  0
LAYER
  2
DEFPOINTS
 70
     0
 62
     7
  6
CONTINUOUS
  0
ENDTAB
  0
TABLE
  2
STYLE
 70
     1
  0
STYLE
  2
STANDARD
 70
     0
 40
0.0
 41
1.0
 50
0.0
 71
     0
 42
2.5
  3
txt
  4

  0
ENDTAB
  0
TABLE
  2
VIEW
 70
     0
  0
ENDTAB
  0
TABLE
  2
UCS
 70
     0
  0
ENDTAB
  0
TABLE
  2
APPID
 70
     2
  0
APPID
  2
ACAD
 70
     0
  0
APPID
  2
ENCORE_SOFTWARE_VIACAD
 70
     0
  0
ENDTAB
  0
TABLE
  2
DIMSTYLE
 70
    10
  0
DIMSTYLE
  2
ISO-25
 70
     0
  3

  4

  5

  6

  7

 40
1.0
 41
2.5
 42
0.625
 43
3.75
 44
1.25
 45
0.0
 46
0.0
 47
0.0
 48
0.0
140
2.5
141
2.5
142
0.0
143
0.03937007874016
144
1.0
145
0.0
146
1.0
147
0.625
 71
     0
 72
     0
 73
     0
 74
     0
 75
     0
 76
     0
 77
     1
 78
     8
170
     0
171
     3
172
     1
173
     0
174
     0
175
     0
176
     0
177
     0
178
     0
  0
DIMSTYLE
  2
ROTATEDDIM0
 70
     0
  3

  4

  5

  6

  7

 40
1.0
 41
8.105938112967356
 42
2.598057087489537
 43
3.75
 44
6.495142718723842
 45
0.0
 46
0.0
 47
0.0
 48
0.0
140
7.159999847412109
141
2.5
142
0.0
143
0.03937007874016
144
1.0
145
0.0
146
1.0
147
0.625
 71
     0
 72
     0
 73
     0
 74
     0
 75
     0
 76
     0
 77
     0
 78
     8
170
     0
171
     3
172
     1
173
     0
174
     0
175
     0
176
     0
177
     0
178
     0
  0
DIMSTYLE
  2
ROTATEDDIM1
 70
     0
  3

  4

  5

  6

  7

 40
1.0
 41
8.105938112967356
 42
2.598057087489537
 43
3.75
 44
6.495142718723842
 45
0.0
 46
0.0
 47
0.0
 48
0.0
140
7.159999847412109
141
2.5
142
0.0
143
0.03937007874016
144
1.0
145
0.0
146
1.0
147
0.625
 71
     0
 72
     0
 73
     0
 74
     0
 75
     0
 76
     0
 77
     0
 78
     8
170
     0
171
     3
172
     1
173
     0
174
     0
175
     0
176
     0
177
     0
178
     0
  0
DIMSTYLE
  2
RADIALDIM2
 70
     0
  3

  4

  5

  6

  7

 40
1.0
 41
8.105938112967356
 42
2.598057087489537
 43
3.75
 44
6.495142718723842
 45
0.0
 46
0.0
 47
0.0
 48
0.0
140
7.159999847412109
141
2.5
142
0.0
143
0.03937007874016
144
1.0
145
0.0
146
1.0
147
0.625
 71
     0
 72
     0
 73
     0
 74
     0
 75
     0
 76
     0
 77
     0
 78
     8
170
     0
171
     3
172
     1
173
     0
174
     0
175
     0
176
     0
177
     0
178
     0
  0
DIMSTYLE
  2
RADIALDIM3
 70
     0
  3

  4

  5

  6

  7

 40
1.0
 41
8.105938112967356
 42
2.598057087489537
 43
3.75
 44
6.495142718723842
 45
0.0
 46
0.0
 47
0.0
 48
0.0
140
7.159999847412109
141
2.5
142
0.0
143
0.03937007874016
144
1.0
145
0.0
146
1.0
147
0.625
 71
     0
 72
     0
 73
     0
 74
     0
 75
     0
 76
     0
 77
     0
 78
     8
170
     0
171
     3
172
     1
173
     0
174
     0
175
     0
176
     0
177
     0
178
     0
  0
DIMSTYLE
  2
RADIALDIM4
 70
     0
  3

  4

  5

  6

  7

 40
1.0
 41
8.105938112967356
 42
2.598057087489537
 43
3.75
 44
6.495142718723842
 45
0.0
 46
0.0
 47
0.0
 48
0.0
140
7.159999847412109
141
2.5
142
0.0
143
0.03937007874016
144
1.0
145
0.0
146
1.0
147
0.625
 71
     0
 72
     0
 73
     0
 74
     0
 75
     0
 76
     0
 77
     0
 78
     8
170
     0
171
     3
172
     1
173
     0
174
     0
175
     0
176
     0
177
     0
178
     0
  0
DIMSTYLE
  2
RADIALDIM5
 70
     0
  3

  4

  5

  6

  7

 40
1.0
 41
8.105938112967356
 42
2.598057087489537
 43
3.75
 44
6.495142718723842
 45
0.0
 46
0.0
 47
0.0
 48
0.0
140
7.159999847412109
141
2.5
142
0.0
143
0.03937007874016
144
1.0
145
0.0
146
1.0
147
0.625
 71
     0
 72
     0
 73
     0
 74
     0
 75
     0
 76
     0
 77
     0
 78
     8
170
     0
171
     3
172
     1
173
     0
174
     0
175
     0
176
     0
177
     0
178
     0
  0
DIMSTYLE
  2
RADIALDIM6
 70
     0
  3

  4

  5

  6

  7

 40
1.0
 41
8.105938112967356
 42
2.598057087489537
 43
3.75
 44
6.495142718723842
 45
0.0
 46
0.0
 47
0.0
 48
0.0
140
7.159999847412109
141
2.5
142
0.0
143
0.03937007874016
144
1.0
145
0.0
146
1.0
147
0.625
 71
     0
 72
     0
 73
     0
 74
     0
 75
     0
 76
     0
 77
     0
 78
     8
170
     0
171
     3
172
     1
173
     0
174
     0
175
     0
176
     0
177
     0
178
     0
  0
DIMSTYLE
  2
ROTATEDDIM7
 70
     0
  3

  4

  5

  6

  7

 40
1.0
 41
8.105938112967356
 42
2.598057087489537
 43
3.75
 44
6.495142718723842
 45
0.0
 46
0.0
 47
0.0
 48
0.0
140
7.159999847412109
141
2.5
142
0.0
143
0.03937007874016
144
1.0
145
0.0
146
1.0
147
0.625
 71
     0
 72
     0
 73
     0
 74
     0
 75
     0
 76
     0
 77
     0
 78
     8
170
     0
171
     3
172
     1
173
     0
174
     0
175
     0
176
     0
177
     0
178
     0
  0
DIMSTYLE
  2
ROTATEDDIM8
 70
     0
  3

  4

  5

  6

  7

 40
1.0
 41
8.105938112967356
 42
2.598057087489537
 43
3.75
 44
6.495142718723842
 45
0.0
 46
0.0
 47
0.0
 48
0.0
140
7.159999847412109
141
2.5
142
0.0
143
0.03937007874016
144
1.0
145
0.0
146
1.0
147
0.625
 71
     0
 72
     0
 73
     0
 74
     0
 75
     0
 76
     0
 77
     0
 78
     8
170
     0
171
     3
172
     1
173
     0
174
     0
175
     0
176
     0
177
     0
178
     0
  0
ENDTAB
  0
ENDSEC
  0
SECTION
  2
BLOCKS
  0
BLOCK
  8
0
  2
$MODEL_SPACE
 70
     0
 10
0.0
 20
0.0
 30
0.0
  3
$MODEL_SPACE
  1

  0
ENDBLK
  5
21
  8
0
  0
BLOCK
 67
     1
  8
0
  2
$PAPER_SPACE
 70
     0
 10
0.0
 20
0.0
 30
0.0
  3
$PAPER_SPACE
  1

  0
ENDBLK
  5
1D
 67
     1
  8
0
  0
BLOCK
  8
0
  2
*D1
 70
     1
 10
0.0
 20
0.0
 30
0.0
  3
*D1
  1

  0
LINE
  5
8C
  8
DIMENSION
 62
     0
 10
-2.598057087489537
 20
0.0
 30
0.0
 11
-16.49514271872387
 21
0.0
 31
0.0
  0
LINE
  5
8D
  8
DIMENSION
 62
     0
 10
-2.598057087489548
 20
495.0000000000001
 30
0.0
 11
-16.49514271872384
 21
495.0000000000001
 31
0.0
  0
LINE
  5
8E
  8
DIMENSION
 62
     0
 10
-10.00000000000002
 20
8.105938112967356
 30
0.0
 11
-10.00000000000001
 21
237.6692859104701
 31
0.0
  0
LINE
  5
8F
  8
DIMENSION
 62
     0
 10
-9.999999999999995
 20
486.8940618870327
 30
0.0
 11
-10.00000000000001
 21
257.3307140895299
 31
0.0
  0
SOLID
  5
90
  8
DIMENSION
 62
     0
 10
-11.35098968549458
 20
8.105938112967356
 30
0.0
 11
-8.649010314505466
 21
8.105938112967356
 31
0.0
 12
-10.00000000000002
 22
0.0
 32
0.0
 13
-10.00000000000002
 23
0.0
 33
0.0
  0
SOLID
  5
91
  8
DIMENSION
 62
     0
 10
-8.649010314505436
 20
486.8940618870327
 30
0.0
 11
-11.35098968549455
 21
486.8940618870327
 31
0.0
 12
-9.999999999999995
 22
495.0000000000001
 32
0.0
 13
-9.999999999999995
 23
495.0000000000001
 33
0.0
  0
TEXT
  5
92
  8
DIMENSION
  6
CONTINUOUS
 62
     0
 10
-6.420000076293945
 20
237.2714287894113
 30
0.0
 40
7.159999847412109
  1
495
 50
90.0
  0
POINT
  5
93
  8
DEFPOINTS
 62
     0
 10
0.0
 20
0.0
 30
0.0
  0
POINT
  5
94
  8
DEFPOINTS
 62
     0
 10
-0.0000000000000113
 20
495.0000000000001
 30
0.0
  0
POINT
  5
95
  8
DEFPOINTS
 62
     0
 10
-9.999999999999995
 20
495.0000000000001
 30
0.0
  0
ENDBLK
  5
97
  8
0
  0
BLOCK
  8
0
  2
*D2
 70
     1
 10
0.0
 20
0.0
 30
0.0
  3
*D2
  1

  0
LINE
  5
9B
  8
DIMENSION
 62
     0
 10
0.0
 20
-2.598057087489537
 30
0.0
 11
0.0
 21
-18.27944268855614
 31
0.0
  0
LINE
  5
9C
  8
DIMENSION
 62
     0
 10
196.0
 20
-2.598057087489537
 30
0.0
 11
196.0
 21
-18.27944268855614
 31
0.0
  0
LINE
  5
9D
  8
DIMENSION
 62
     0
 10
8.105938112967356
 20
-11.7842999698323
 30
0.0
 11
88.68071447099959
 21
-11.7842999698323
 31
0.0
  0
LINE
  5
9E
  8
DIMENSION
 62
     0
 10
187.8940618870326
 20
-11.7842999698323
 30
0.0
 11
107.3192855290004
 21
-11.7842999698323
 31
0.0
  0
SOLID
  5
9F
  8
DIMENSION
 62
     0
 10
8.105938112967356
 20
-10.43331028433774
 30
0.0
 11
8.105938112967356
 21
-13.13528965532685
 31
0.0
 12
0.0
 22
-11.7842999698323
 32
0.0
 13
0.0
 23
-11.7842999698323
 33
0.0
  0
SOLID
  5
A0
  8
DIMENSION
 62
     0
 10
187.8940618870326
 20
-13.13528965532685
 30
0.0
 11
187.8940618870326
 21
-10.43331028433774
 31
0.0
 12
196.0
 22
-11.7842999698323
 32
0.0
 13
196.0
 23
-11.7842999698323
 33
0.0
  0
TEXT
  5
A1
  8
DIMENSION
  6
CONTINUOUS
 62
     0
 10
87.26000022888185
 20
-15.36429989353835
 30
0.0
 40
7.159999847412109
  1
196
  0
POINT
  5
A2
  8
DEFPOINTS
 62
     0
 10
0.0
 20
0.0
 30
0.0
  0
POINT
  5
A3
  8
DEFPOINTS
 62
     0
 10
196.0
 20
0.0
 30
0.0
  0
POINT
  5
A4
  8
DEFPOINTS
 62
     0
 10
196.0
 20
-11.7842999698323
 30
0.0
  0
ENDBLK
  5
A6
  8
0
  0
BLOCK
  8
0
  2
*D3
 70
     1
 10
0.0
 20
0.0
 30
0.0
  3
*D3
  1

  0
LINE
  5
B0
  8
DIMENSION
 62
     0
 10
204.1738338701394
 20
427.4198620530586
 30
0.0
 11
210.1397046343268
 21
432.9075408625618
 31
0.0
  0
TEXT
  5
B1
  8
DIMENSION
  6
CONTINUOUS
 62
     0
 10
212.0195916433287
 20
429.7725346812844
 30
0.0
 40
7.159999847412109
  1
R3
 50
42.60925835205997
  0
LINE
  5
B2
  8
DIMENSION
 62
     0
 10
195.9999999999998
 20
419.9011985260466
 30
0.0
 11
198.2079631059519
 21
421.9321832435555
 31
0.0
  0
SOLID
  5
B3
  8
DIMENSION
 62
     0
 10
203.2592207352222
 20
428.4141738470899
 30
0.0
 11
205.0884470050566
 21
426.4255502590274
 31
0.0
 12
198.2079631059519
 22
421.9321832435555
 32
0.0
 13
198.2079631059519
 23
421.9321832435555
 33
0.0
  0
POINT
  5
B4
  8
DEFPOINTS
 62
     0
 10
198.2079631059519
 20
421.9321832435555
 30
0.0
  0
POINT
  5
B5
  8
DEFPOINTS
 62
     0
 10
195.9999999999998
 20
419.9011985260466
 30
0.0
  0
ENDBLK
  5
B7
  8
0
  0
BLOCK
  8
0
  2
*D4
 70
     1
 10
0.0
 20
0.0
 30
0.0
  3
*D4
  1

  0
LINE
  5
BB
  8
DIMENSION
 62
     0
 10
186.8000114356226
 20
14.43278032649724
 30
0.0
 11
194.6826615482034
 21
12.5433201141912
 31
0.0
  0
TEXT
  5
BC
  8
DIMENSION
  6
CONTINUOUS
 62
     0
 10
193.1297204835915
 20
9.234149074020713
 30
0.0
 40
7.159999847412109
  1
R3
 50
346.5205961558116
  0
LINE
  5
BD
  8
DIMENSION
 62
     0
 10
176.0
 20
17.02152796956348
 30
0.0
 11
178.9173613230419
 21
16.32224053880329
 31
0.0
  0
SOLID
  5
BE
  8
DIMENSION
 62
     0
 10
187.114921471007
 20
15.7465553452607
 30
0.0
 11
186.4851014002383
 21
13.11900530773378
 31
0.0
 12
178.9173613230419
 22
16.32224053880329
 32
0.0
 13
178.9173613230419
 23
16.32224053880329
 33
0.0
  0
POINT
  5
BF
  8
DEFPOINTS
 62
     0
 10
178.9173613230419
 20
16.32224053880329
 30
0.0
  0
POINT
  5
C0
  8
DEFPOINTS
 62
     0
 10
176.0
 20
17.02152796956348
 30
0.0
  0
ENDBLK
  5
C2
  8
0
  0
BLOCK
  8
0
  2
*D5
 70
     1
 10
0.0
 20
0.0
 30
0.0
  3
*D5
  1

  0
LINE
  5
C6
  8
DIMENSION
 62
     0
 10
182.2563586012418
 20
36.92194209287155
 30
0.0
 11
187.6083208518018
 21
30.83402514535678
 31
0.0
  0
TEXT
  5
C7
  8
DIMENSION
  6
CONTINUOUS
 62
     0
 10
184.9439231023059
 20
29.47543037387616
 30
0.0
 40
7.159999847412109
  1
R3,5
 50
311.3190983360385
  0
LINE
  5
C8
  8
DIMENSION
 62
     0
 10
174.5935141781429
 20
45.63851337000854
 30
0.0
 11
176.9043963506818
 21
43.00985904038633
 31
0.0
  0
SOLID
  5
C9
  8
DIMENSION
 62
     0
 10
183.2710114258276
 20
37.81393580129823
 30
0.0
 11
181.241705776656
 21
36.02994838444489
 31
0.0
 12
176.9043963506818
 22
43.00985904038633
 32
0.0
 13
176.9043963506818
 23
43.00985904038633
 33
0.0
  0
POINT
  5
CA
  8
DEFPOINTS
 62
     0
 10
176.9043963506818
 20
43.00985904038633
 30
0.0
  0
POINT
  5
CB
  8
DEFPOINTS
 62
     0
 10
174.5935141781429
 20
45.63851337000854
 30
0.0
  0
ENDBLK
  5
CD
  8
0
  0
BLOCK
  8
0
  2
*D6
 70
     1
 10
0.0
 20
0.0
 30
0.0
  3
*D6
  1

  0
LINE
  5
D1
  8
DIMENSION
 62
     0
 10
133.4585709630931
 20
429.5741250639633
 30
0.0
 11
126.0789655536856
 21
432.9278776923932
 31
0.0
  0
TEXT
  5
D2
  8
DIMENSION
  6
CONTINUOUS
 62
     0
 10
105.0660276115345
 20
439.2941280680276
 30
0.0
 40
7.159999847412109
  1
R2,1
 50
335.559992760489
  0
LINE
  5
D3
  8
DIMENSION
 62
     0
 10
142.7500058416848
 20
425.3515179708742
 30
0.0
 11
140.8381763725006
 21
426.2203724355334
 31
0.0
  0
SOLID
  5
D4
  8
DIMENSION
 62
     0
 10
132.8996121916881
 20
428.344190829062
 30
0.0
 11
134.0175297344981
 21
430.8040592988645
 31
0.0
 12
140.8381763725006
 22
426.2203724355334
 32
0.0
 13
140.8381763725006
 23
426.2203724355334
 33
0.0
  0
POINT
  5
D5
  8
DEFPOINTS
 62
     0
 10
140.8381763725006
 20
426.2203724355334
 30
0.0
  0
POINT
  5
D6
  8
DEFPOINTS
 62
     0
 10
142.7500058416848
 20
425.3515179708742
 30
0.0
  0
ENDBLK
  5
D8
  8
0
  0
BLOCK
  8
0
  2
*D7
 70
     1
 10
0.0
 20
0.0
 30
0.0
  3
*D7
  1

  0
LINE
  5
DC
  8
DIMENSION
 62
     0
 10
144.3560514173436
 20
457.4191124770585
 30
0.0
 11
136.9384090264933
 21
460.6878758598559
 31
0.0
  0
TEXT
  5
DD
  8
DIMENSION
  6
CONTINUOUS
 62
     0
 10
116.8267528379431
 20
465.6383689620644
 30
0.0
 40
7.159999847412109
  1
R15
 50
336.2181518450698
  0
LINE
  5
DE
  8
DIMENSION
 62
     0
 10
165.5000058416849
 20
448.1015179708749
 30
0.0
 11
151.773693808194
 21
454.1503490942612
 31
0.0
  0
SOLID
  5
DF
  8
DIMENSION
 62
     0
 10
143.8112575202107
 20
456.1828387452501
 30
0.0
 11
144.9008453144765
 21
458.655386208867
 31
0.0
 12
151.773693808194
 22
454.1503490942612
 32
0.0
 13
151.773693808194
 23
454.1503490942612
 33
0.0
  0
POINT
  5
E0
  8
DEFPOINTS
 62
     0
 10
151.773693808194
 20
454.1503490942612
 30
0.0
  0
POINT
  5
E1
  8
DEFPOINTS
 62
     0
 10
165.5000058416849
 20
448.1015179708749
 30
0.0
  0
ENDBLK
  5
E3
  8
0
  0
BLOCK
  8
0
  2
*D8
 70
     1
 10
0.0
 20
0.0
 30
0.0
  3
*D8
  1

  0
LINE
  5
E7
  8
DIMENSION
 62
     0
 10
200.9999999999999
 20
482.5992519895742
 30
0.0
 11
200.9999999999999
 21
496.4963376208084
 31
0.0
  0
LINE
  5
E8
  8
DIMENSION
 62
     0
 10
290.9999999999999
 20
482.5992519895742
 30
0.0
 11
290.9999999999999
 21
496.4963376208084
 31
0.0
  0
LINE
  5
E9
  8
DIMENSION
 62
     0
 10
209.1059381129672
 20
490.0011949020845
 30
0.0
 11
239.5788096473329
 21
490.0011949020845
 31
0.0
  0
LINE
  5
EA
  8
DIMENSION
 62
     0
 10
282.8940618870325
 20
490.0011949020845
 30
0.0
 11
252.4211903526668
 21
490.0011949020845
 31
0.0
  0
SOLID
  5
EB
  8
DIMENSION
 62
     0
 10
209.1059381129672
 20
491.3521845875791
 30
0.0
 11
209.1059381129672
 21
488.65020521659
 31
0.0
 12
200.9999999999999
 22
490.0011949020845
 32
0.0
 13
200.9999999999999
 23
490.0011949020845
 33
0.0
  0
SOLID
  5
EC
  8
DIMENSION
 62
     0
 10
282.8940618870325
 20
488.65020521659
 30
0.0
 11
282.8940618870325
 21
491.3521845875791
 31
0.0
 12
290.9999999999999
 22
490.0011949020845
 32
0.0
 13
290.9999999999999
 23
490.0011949020845
 33
0.0
  0
TEXT
  5
ED
  8
DIMENSION
  6
CONTINUOUS
 62
     0
 10
239.1809525262741
 20
486.4211949783785
 30
0.0
 40
7.159999847412109
  1
90
  0
POINT
  5
EE
  8
DEFPOINTS
 62
     0
 10
200.9999999999999
 20
480.0011949020846
 30
0.0
  0
POINT
  5
EF
  8
DEFPOINTS
 62
     0
 10
290.9999999999999
 20
480.0011949020846
 30
0.0
  0
POINT
  5
F0
  8
DEFPOINTS
 62
     0
 10
290.9999999999999
 20
490.0011949020845
 30
0.0
  0
ENDBLK
  5
F2
  8
0
  0
BLOCK
  8
0
  2
*D9
 70
     1
 10
0.0
 20
0.0
 30
0.0
  3
*D9
  1

  0
LINE
  5
F7
  8
DIMENSION
 62
     0
 10
95.00000000752918
 20
497.5980481755179
 30
0.0
 11
95.00000000752918
 21
511.4963972155635
 31
0.0
  0
LINE
  5
F8
  8
DIMENSION
 62
     0
 10
200.9999999999999
 20
497.5993115843293
 30
0.0
 11
200.9999999999999
 21
511.4963972155635
 31
0.0
  0
LINE
  5
F9
  8
DIMENSION
 62
     0
 10
103.1059381204965
 20
505.0012544968397
 30
0.0
 11
138.6807144747642
 21
505.0012544968397
 31
0.0
  0
LINE
  5
FA
  8
DIMENSION
 62
     0
 10
192.8940618870326
 20
505.0012544968397
 30
0.0
 11
157.319285532765
 21
505.0012544968397
 31
0.0
  0
SOLID
  5
FB
  8
DIMENSION
 62
     0
 10
103.1059381204965
 20
506.3522441823342
 30
0.0
 11
103.1059381204965
 21
503.6502648113452
 31
0.0
 12
95.00000000752918
 22
505.0012544968397
 32
0.0
 13
95.00000000752918
 23
505.0012544968397
 33
0.0
  0
SOLID
  5
FC
  8
DIMENSION
 62
     0
 10
192.8940618870326
 20
503.6502648113452
 30
0.0
 11
192.8940618870326
 21
506.3522441823342
 31
0.0
 12
200.9999999999999
 22
505.0012544968397
 32
0.0
 13
200.9999999999999
 23
505.0012544968397
 33
0.0
  0
TEXT
  5
FD
  8
DIMENSION
  6
CONTINUOUS
 62
     0
 10
137.2600002326464
 20
501.4212545731336
 30
0.0
 40
7.159999847412109
  1
106
  0
POINT
  5
FE
  8
DEFPOINTS
 62
     0
 10
95.00000000752918
 20
494.9999910880283
 30
0.0
  0
POINT
  5
FF
  8
DEFPOINTS
 62
     0
 10
200.9999999999999
 20
495.0012544968397
 30
0.0
  0
POINT
  5
100
  8
DEFPOINTS
 62
     0
 10
200.9999999999999
 20
505.0012544968397
 30
0.0
  0
ENDBLK
  5
102
  8
0
  0
ENDSEC
  0
SECTION
  2
ENTITIES
  0
CIRCLE
  5
4C
  8
Y
 62
     8
 10
134.593514178143
 20
98.63851337000858
 30
0.0
 40
3.499999999999929
  0
CIRCLE
  5
4D
  8
Y
 62
     8
 10
174.5935141781429
 20
98.63851337000858
 30
0.0
 40
3.499999999999929
  0
CIRCLE
  5
4E
  8
Y
 62
     8
 10
174.5935141781429
 20
45.63851337000854
 30
0.0
 40
3.499999999999929
  0
CIRCLE
  5
4F
  8
Y
 62
     8
 10
134.593514178143
 20
45.63851337000854
 30
0.0
 40
3.499999999999929
  0
CIRCLE
  5
50
  8
Y
 62
     8
 10
60.59351417814251
 20
45.63851337000854
 30
0.0
 40
3.499999999999929
  0
ARC
  5
51
  8
Y
 62
     8
 10
256.0000000000007
 20
480.0011949020844
 30
0.0
 40
0.999999999999945
 50
90.0
 51
0.0000000000097707
  0
LINE
  5
52
  8
Y
 62
     8
 10
236.0000000000008
 20
485.0011949020849
 30
0.0
 11
256.0000000000007
 21
485.0011949020849
 31
0.0
  0
CIRCLE
  5
53
  8
Y
 62
     8
 10
-165.5000058416849
 20
448.1015179708749
 30
0.0
 40
15.00000000000023
210
0.0
220
0.0
230
-1.0
  0
CIRCLE
  5
54
  8
Y
 62
     8
 10
20.59351417814295
 20
45.63851337000854
 30
0.0
 40
3.499999999999929
  0
CIRCLE
  5
55
  8
Y
 62
     8
 10
60.59351417814251
 20
98.63851337000858
 30
0.0
 40
3.499999999999929
  0
CIRCLE
  5
56
  8
Y
 62
     8
 10
20.59351417814295
 20
98.63851337000858
 30
0.0
 40
3.499999999999929
  0
ARC
  5
57
  8
Y
 62
     8
 10
200.9999999999999
 20
480.0011949020846
 30
0.0
 40
1.00000000000007
 50
89.99999999999511
 51
359.9999999999316
  0
LINE
  5
58
  8
Y
 62
     8
 10
0.0
 20
0.0
 30
0.0
 11
196.0
 21
0.0
 31
0.0
  0
ARC
  5
59
  8
Y
 62
    18
 10
39.89999999999967
 20
22.1215279695636
 30
0.0
 40
1.000000000000053
 50
359.9999999999943
 51
270.0000000000057
  0
ARC
  5
5A
  8
Y
 62
    18
 10
39.89999999999947
 20
11.92152796956354
 30
0.0
 40
0.9999999999998935
 50
90.00000000002402
 51
0.0000000000069209
  0
ARC
  5
5B
  8
Y
 62
    18
 10
65.09999999999943
 20
22.12152796956366
 30
0.0
 40
1.000000000000109
 50
270.0000000000122
 51
180.000000000009
  0
ARC
  5
5C
  8
Y
 62
    18
 10
65.09999999999886
 20
11.92152796956354
 30
0.0
 40
0.9999999999998933
 50
179.9999999999931
 51
89.99999999998697
  0
LINE
  5
5D
  8
Y
 62
    18
 10
39.89999999999959
 20
21.12152796956355
 30
0.0
 11
39.89999999999905
 21
12.92152796956343
 31
0.0
  0
LINE
  5
5E
  8
Y
 62
    18
 10
64.09999999999896
 20
11.92152796956348
 30
0.0
 11
40.89999999999918
 21
11.92152796956348
 31
0.0
  0
LINE
  5
5F
  8
Y
 62
    18
 10
65.09999999999908
 20
12.92152796956343
 30
0.0
 11
65.09999999999945
 21
21.12152796956355
 31
0.0
  0
LINE
  5
60
  8
Y
 62
    18
 10
64.09999999999931
 20
22.12152796956351
 30
0.0
 11
40.89999999999972
 21
22.12152796956351
 31
0.0
  0
ARC
  5
61
  8
Y
 62
    18
 10
130.899999999999
 20
22.12152796956344
 30
0.0
 40
0.9999999999998911
 50
0.000000000003664
 51
269.9999999999968
  0
ARC
  5
62
  8
Y
 62
    18
 10
130.8999999999989
 20
11.92152796956349
 30
0.0
 40
0.9999999999999434
 50
90.0
 51
0.0000000000097707
  0
ARC
  5
63
  8
Y
 62
    18
 10
156.0999999999989
 20
22.12152796956366
 30
0.0
 40
1.000000000000105
 50
270.0000000000114
 51
180.0000000000088
  0
ARC
  5
64
  8
Y
 62
    18
 10
156.0999999999988
 20
11.92152796956348
 30
0.0
 40
0.9999999999999518
 50
179.9999999999897
 51
89.99999999997884
  0
LINE
  5
65
  8
Y
 62
    18
 10
130.8999999999989
 20
21.12152796956355
 30
0.0
 11
130.8999999999989
 21
12.92152796956343
 31
0.0
  0
LINE
  5
66
  8
Y
 62
    18
 10
155.0999999999988
 20
11.92152796956348
 30
0.0
 11
131.8999999999989
 21
11.92152796956348
 31
0.0
  0
LINE
  5
67
  8
Y
 62
    18
 10
156.099999999999
 20
12.92152796956343
 30
0.0
 11
156.099999999999
 21
21.12152796956355
 31
0.0
  0
LINE
  5
68
  8
Y
 62
    18
 10
155.0999999999988
 20
22.12152796956351
 30
0.0
 11
131.8999999999989
 21
22.12152796956351
 31
0.0
  0
ARC
  5
69
  8
Y
 62
    18
 10
190.9
 20
339.9011985260457
 30
0.0
 40
0.9999999999999868
 50
89.99999999999675
 51
359.9999999999838
  0
ARC
  5
6A
  8
Y
 62
    18
 10
201.0999999999999
 20
339.9011985260452
 30
0.0
 40
1.000000000000053
 50
180.0000000000032
 51
90.00000000000654
  0
ARC
  5
6B
  8
Y
 62
    18
 10
190.9
 20
365.1011985260454
 30
0.0
 40
0.9999999999999868
 50
0.0000000000065138
 51
270.0000000000032
  0
ARC
  5
6C
  8
Y
 62
    18
 10
201.0999999999999
 20
365.1011985260452
 30
0.0
 40
1.000000000000153
 50
270.0000000000098
 51
179.9999999999994
  0
LINE
  5
6D
  8
Y
 62
    18
 10
191.9
 20
339.9011985260454
 30
0.0
 11
200.0999999999998
 21
339.9011985260454
 31
0.0
  0
LINE
  5
6E
  8
Y
 62
    18
 10
201.0999999999997
 20
364.101198526045
 30
0.0
 11
201.0999999999997
 21
340.9011985260452
 31
0.0
  0
LINE
  5
6F
  8
Y
 62
    18
 10
200.0999999999998
 20
365.1011985260452
 30
0.0
 11
191.9
 21
365.1011985260455
 31
0.0
  0
LINE
  5
70
  8
Y
 62
    18
 10
190.9000000000001
 20
364.1011985260454
 30
0.0
 11
190.9000000000001
 21
340.9011985260457
 31
0.0
  0
ARC
  5
71
  8
Y
 62
    18
 10
190.9
 20
439.9011985260472
 30
0.0
 40
1.000000000000053
 50
89.99999999999349
 51
359.9999999999935
  0
ARC
  5
72
  8
Y
 62
    18
 10
201.0999999999998
 20
439.9011985260465
 30
0.0
 40
1.000000000000003
 50
180.0000000000065
 51
90.00000000000325
  0
ARC
  5
73
  8
Y
 62
    18
 10
190.9
 20
465.1011985260466
 30
0.0
 40
0.9999999999999949
 50
0.0000000000260551
 51
270.0000000000032
  0
ARC
  5
74
  8
Y
 62
    18
 10
201.0999999999997
 20
465.1011985260462
 30
0.0
 40
0.9999999999999535
 50
270.0
 51
179.999999999987
  0
LINE
  5
75
  8
Y
 62
    18
 10
191.9
 20
439.901198526047
 30
0.0
 11
200.0999999999998
 21
439.9011985260464
 31
0.0
  0
LINE
  5
76
  8
Y
 62
    18
 10
201.0999999999997
 20
464.1011985260462
 30
0.0
 11
201.0999999999997
 21
440.9011985260465
 31
0.0
  0
LINE
  5
77
  8
Y
 62
    18
 10
200.0999999999998
 20
465.1011985260464
 30
0.0
 11
191.9
 21
465.1011985260467
 31
0.0
  0
LINE
  5
78
  8
Y
 62
    18
 10
190.9000000000001
 20
464.1011985260466
 30
0.0
 11
190.9000000000001
 21
440.9011985260472
 31
0.0
  0
CIRCLE
  5
79
  8
Y
 62
   150
 10
142.7500058416848
 20
470.8515179708747
 30
0.0
 40
2.10000000000025
  0
CIRCLE
  5
7A
  8
Y
 62
   150
 10
188.2500058416861
 20
470.8515179708747
 30
0.0
 40
2.10000000000025
  0
CIRCLE
  5
7B
  8
Y
 62
   150
 10
142.7500058416848
 20
425.3515179708742
 30
0.0
 40
2.099999999999852
  0
CIRCLE
  5
7C
  8
Y
 62
   150
 10
188.2500058416861
 20
425.3515179708742
 30
0.0
 40
2.099999999999511
  0
LINE
  5
7D
  8
Y
 62
     8
 10
236.0000000000008
 20
481.0011949020844
 30
0.0
 11
236.0000000000008
 21
485.0011949020849
 31
0.0
  0
LINE
  5
7E
  8
Y
 62
     8
 10
256.0000000000007
 20
485.0011949020849
 30
0.0
 11
256.0000000000007
 21
481.0011949020844
 31
0.0
  0
LINE
  5
7F
  8
Y
 62
     8
 10
95.00000000752918
 20
494.9999910880283
 30
0.0
 11
200.9999999999999
 21
495.0012544968397
 31
0.0
  0
LINE
  5
80
  8
Y
 62
     8
 10
200.9999999999999
 20
481.0011949020846
 30
0.0
 11
200.9999999999999
 21
495.0012544968397
 31
0.0
  0
ARC
  5
81
  8
Y
 62
     8
 10
236.0000000000008
 20
480.0011949020844
 30
0.0
 40
0.9999999999999535
 50
179.9999999999902
 51
89.99999999999838
  0
CIRCLE
  5
82
  8
Y
 62
   150
 10
-195.9999999999998
 20
487.0011949020844
 30
0.0
 40
3.000000000000057
210
0.0
220
0.0
230
-1.0
  0
CIRCLE
  5
83
  8
Y
 62
   150
 10
-195.9999999999998
 20
419.9011985260466
 30
0.0
 40
3.000000000000057
210
0.0
220
0.0
230
-1.0
  0
CIRCLE
  5
84
  8
Y
 62
   150
 10
-195.9999999999998
 20
385.1011985260454
 30
0.0
 40
3.0
210
0.0
220
0.0
230
-1.0
  0
CIRCLE
  5
85
  8
Y
 62
   150
 10
-195.9999999999998
 20
327.9011985260456
 30
0.0
 40
2.999999999999943
210
0.0
220
0.0
230
-1.0
  0
LINE
  5
86
  8
Y
 62
     8
 10
196.0
 20
0.0
 30
0.0
 11
196.0
 21
131.9565827503815
 31
0.0
  0
LINE
  5
87
  8
Y
 62
     8
 10
0.0
 20
131.9565827503815
 30
0.0
 11
0.0
 21
0.0
 31
0.0
  0
DIMENSION
  5
89
  8
DIMENSION
 62
   150
  2
*D1
 10
-9.999999999999995
 20
495.0000000000001
 30
0.0
 11
-10.00000000000001
 21
247.5
 31
0.0
 70
    32
  3
ROTATEDDIM0
 13
0.0
 23
0.0
 33
0.0
 14
-0.0000000000000113
 24
495.0000000000001
 34
0.0
 50
90.0
  0
DIMENSION
  5
99
  8
DIMENSION
 62
   150
  2
*D2
 10
196.0
 20
-11.7842999698323
 30
0.0
 11
98.0
 21
-11.7842999698323
 31
0.0
 70
    32
  3
ROTATEDDIM1
 13
0.0
 23
0.0
 33
0.0
 14
196.0
 24
0.0
 34
0.0
  0
CIRCLE
  5
A7
  8
Y
 62
   150
 10
20.0
 20
17.02152796956349
 30
0.0
 40
2.999999999999999
  0
CIRCLE
  5
A8
  8
Y
 62
   150
 10
176.0
 20
17.02152796956348
 30
0.0
 40
3.0
  0
CIRCLE
  5
A9
  8
Y
 62
   150
 10
98.0
 20
17.02152796956349
 30
0.0
 40
2.999999999999999
  0
LINE
  5
AA
  8
Y
 62
   150
 10
257.0000000000007
 20
480.0011949020846
 30
0.0
 11
290.9999999999999
 21
480.0011949020846
 31
0.0
  0
LINE
  5
AB
  8
Y
 62
   150
 10
201.9999999999999
 20
480.0011949020846
 30
0.0
 11
235.0000000000008
 21
480.0011949020846
 31
0.0
  0
LINE
  5
AC
  8
Y
 62
   150
 10
290.9999999999999
 20
480.0011949020846
 30
0.0
 11
196.0
 21
131.9565827503815
 31
0.0
  0
DIMENSION
  5
AE
  8
DIMENSION
 62
   150
  2
*D3
 10
195.9999999999998
 20
419.9011985260466
 30
0.0
 11
214.8656217659881
 21
437.2546540207225
 31
0.0
 70
    36
  3
RADIALDIM2
 15
198.2079631059519
 25
421.9321832435555
 35
0.0
 40
0.0
  0
DIMENSION
  5
B9
  8
DIMENSION
 62
   150
  2
*D4
 10
176.0
 20
17.02152796956348
 30
0.0
 11
200.9269723424568
 21
11.04656754614498
 31
0.0
 70
    36
  3
RADIALDIM3
 15
178.9173613230419
 25
16.32224053880329
 35
0.0
 40
0.0
  0
DIMENSION
  5
C4
  8
DIMENSION
 62
   150
  2
*D5
 10
174.5935141781429
 20
45.63851337000854
 30
0.0
 11
195.2246424926601
 21
22.17037405360009
 31
0.0
 70
    36
  3
RADIALDIM4
 15
176.9043963506818
 25
43.00985904038633
 35
0.0
 40
0.0
  0
DIMENSION
  5
CF
  8
DIMENSION
 62
   150
  2
*D6
 10
142.7500058416848
 20
425.3515179708742
 30
0.0
 11
116.5083300819271
 21
437.2773709360612
 31
0.0
 70
    36
  3
RADIALDIM5
 15
140.8381763725006
 25
426.2203724355334
 35
0.0
 40
0.0
  0
DIMENSION
  5
DA
  8
DIMENSION
 62
   150
  2
*D7
 10
165.5000058416849
 20
448.1015179708749
 30
0.0
 11
127.9424457528319
 21
464.6521644831799
 31
0.0
 70
    36
  3
RADIALDIM6
 15
151.773693808194
 25
454.1503490942612
 35
0.0
 40
0.0
  0
DIMENSION
  5
E5
  8
DIMENSION
 62
   150
  2
*D8
 10
290.9999999999999
 20
490.0011949020845
 30
0.0
 11
245.9999999999999
 21
490.0011949020845
 31
0.0
 70
    32
  3
ROTATEDDIM7
 13
200.9999999999999
 23
480.0011949020846
 33
0.0
 14
290.9999999999999
 24
480.0011949020846
 34
0.0
  0
LINE
  5
F3
  8
Y
 62
   150
 10
0.0
 20
131.9565827503815
 30
0.0
 11
95.00000000752918
 21
494.9999910880283
 31
0.0
  0
DIMENSION
  5
F5
  8
DIMENSION
 62
   150
  2
*D9
 10
200.9999999999999
 20
505.0012544968397
 30
0.0
 11
148.0000000037646
 21
505.0012544968397
 31
0.0
 70
    32
  3
ROTATEDDIM8
 13
95.00000000752918
 23
494.9999910880283
 33
0.0
 14
200.9999999999999
 24
495.0012544968397
 34
0.0
  0
ENDSEC
  0
EOF
