  0
SECTION
  2
HEADER
  9
$ACADVER
  1
AC1009
  9
$DWGCODEPAGE
  3
ansi_1252
  9
$INSBASE
 10
0.0
 20
0.0
 30
0.0
  9
$EXTMIN
 10
0.0
 20
-31.59722427586063
 30
0.0
  9
$EXTMAX
 10
794.8745804125908
 20
229.005952453317
 30
79.96626163231905
  9
$LIMMIN
 10
0.0
 20
0.0
  9
$LIMMAX
 10
420.0
 20
297.0
  9
$ORTHOMODE
 70
     0
  9
$REGENMODE
 70
     1
  9
$FILLMODE
 70
     1
  9
$QTEXTMODE
 70
     0
  9
$MIRRTEXT
 70
     1
  9
$DRAGMODE
 70
     2
  9
$LTSCALE
 40
1.0
  9
$OSMODE
 70
    37
  9
$ATTMODE
 70
     1
  9
$TEXTSIZE
 40
2.5
  9
$TRACEWID
 40
1.0
  9
$TEXTSTYLE
  7
STANDARD
  9
$CLAYER
  8
0
  9
$CELTYPE
  6
BYLAYER
  9
$CECOLOR
 62
   256
  9
$DIMSCALE
 40
1.0
  9
$DIMASZ
 40
2.5
  9
$DIMEXO
 40
0.625
  9
$DIMDLI
 40
3.75
  9
$DIMRND
 40
0.0
  9
$DIMDLE
 40
0.0
  9
$DIMEXE
 40
1.25
  9
$DIMTP
 40
0.0
  9
$DIMTM
 40
0.0
  9
$DIMTXT
 40
2.5
  9
$DIMCEN
 40
2.5
  9
$DIMTSZ
 40
0.0
  9
$DIMTOL
 70
     0
  9
$DIMLIM
 70
     0
  9
$DIMTIH
 70
     0
  9
$DIMTOH
 70
     0
  9
$DIMSE1
 70
     0
  9
$DIMSE2
 70
     0
  9
$DIMTAD
 70
     1
  9
$DIMZIN
 70
     8
  9
$DIMBLK
  1

  9
$DIMASO
 70
     1
  9
$DIMSHO
 70
     1
  9
$DIMPOST
  1

  9
$DIMAPOST
  1

  9
$DIMALT
 70
     0
  9
$DIMALTD
 70
     3
  9
$DIMALTF
 40
0.03937007874016
  9
$DIMLFAC
 40
1.0
  9
$DIMTOFL
 70
     1
  9
$DIMTVP
 40
0.0
  9
$DIMTIX
 70
     0
  9
$DIMSOXD
 70
     0
  9
$DIMSAH
 70
     0
  9
$DIMBLK1
  1

  9
$DIMBLK2
  1

  9
$DIMSTYLE
  2
ISO-25
  9
$DIMCLRD
 70
     0
  9
$DIMCLRE
 70
     0
  9
$DIMCLRT
 70
     0
  9
$DIMTFAC
 40
1.0
  9
$DIMGAP
 40
0.625
  9
$LUNITS
 70
     2
  9
$LUPREC
 70
     4
  9
$SKETCHINC
 40
1.0
  9
$FILLETRAD
 40
10.0
  9
$AUNITS
 70
     0
  9
$AUPREC
 70
     0
  9
$MENU
  1
.
  9
$ELEVATION
 40
0.0
  9
$PELEVATION
 40
0.0
  9
$THICKNESS
 40
0.0
  9
$LIMCHECK
 70
     0
  9
$CHAMFERA
 40
10.0
  9
$CHAMFERB
 40
10.0
  9
$SKPOLY
 70
     0
  9
$TDCREATE
 40
2305814.512951389
  9
$TDUPDATE
 40
2456135.429626701
  9
$TDINDWG
 40
0.0000000116
  9
$TDUSRTIMER
 40
0.0000000116
  9
$USRTIMER
 70
     1
  9
$ANGBASE
 50
0.0
  9
$ANGDIR
 70
     0
  9
$PDMODE
 70
     0
  9
$PDSIZE
 40
0.0
  9
$PLINEWID
 40
0.0
  9
$COORDS
 70
     1
  9
$SPLFRAME
 70
     0
  9
$SPLINETYPE
 70
     6
  9
$SPLINESEGS
 70
     8
  9
$ATTDIA
 70
     0
  9
$ATTREQ
 70
     1
  9
$HANDLING
 70
     1
  9
$HANDSEED
  5
AA
  9
$SURFTAB1
 70
     6
  9
$SURFTAB2
 70
     6
  9
$SURFTYPE
 70
     6
  9
$SURFU
 70
     6
  9
$SURFV
 70
     6
  9
$UCSNAME
  2

  9
$UCSORG
 10
0.0
 20
0.0
 30
0.0
  9
$UCSXDIR
 10
1.0
 20
0.0
 30
0.0
  9
$UCSYDIR
 10
0.0
 20
1.0
 30
0.0
  9
$PUCSNAME
  2

  9
$PUCSORG
 10
0.0
 20
0.0
 30
0.0
  9
$PUCSXDIR
 10
1.0
 20
0.0
 30
0.0
  9
$PUCSYDIR
 10
0.0
 20
1.0
 30
0.0
  9
$USERI1
 70
     0
  9
$USERI2
 70
     0
  9
$USERI3
 70
     0
  9
$USERI4
 70
     0
  9
$USERI5
 70
     0
  9
$USERR1
 40
0.0
  9
$USERR2
 40
0.0
  9
$USERR3
 40
0.0
  9
$USERR4
 40
0.0
  9
$USERR5
 40
0.0
  9
$WORLDVIEW
 70
     1
  9
$SHADEDGE
 70
     3
  9
$SHADEDIF
 70
    70
  9
$TILEMODE
 70
     1
  9
$MAXACTVP
 70
    64
  9
$PLIMCHECK
 70
     0
  9
$PEXTMIN
 10
1.000000000000000E+20
 20
1.000000000000000E+20
 30
1.000000000000000E+20
  9
$PEXTMAX
 10
-1.000000000000000E+20
 20
-1.000000000000000E+20
 30
-1.000000000000000E+20
  9
$PLIMMIN
 10
0.0
 20
0.0
  9
$PLIMMAX
 10
420.0
 20
297.0
  9
$UNITMODE
 70
     0
  9
$VISRETAIN
 70
     1
  9
$PLINEGEN
 70
     0
  9
$PSLTSCALE
 70
     1
  0
ENDSEC
  0
SECTION
  2
TABLES
  0
TABLE
  2
VPORT
 70
     1
  0
VPORT
  2
*ACTIVE
 70
     0
 10
0.0
 20
0.0
 11
1.0
 21
1.0
 12
395.8237505646492
 22
98.70436408872817
 13
0.0
 23
0.0
 14
10.0
 24
10.0
 15
10.0
 25
10.0
 16
0.0
 26
0.0
 36
1.0
 17
0.0
 27
0.0
 37
0.0
 40
260.5596171242435
 41
3.099023786049129
 42
50.0
 43
0.0
 44
0.0
 50
0.0
 51
0.0
 71
     0
 72
   100
 73
     1
 74
     3
 75
     0
 76
     0
 77
     0
 78
     0
  0
ENDTAB
  0
TABLE
  2
LTYPE
 70
    11
  0
LTYPE
  2
CONTINUOUS
 70
     0
  3
Solid line
 72
    65
 73
     0
 40
0.0
  0
LTYPE
  2
BORDER
 70
     0
  3
__ __ . __ __ . __ 
 72
    65
 73
     6
 40
0.875
 49
0.25
 49
-0.125
 49
0.25
 49
-0.125
 49
0.0
 49
-0.125
  0
LTYPE
  2
CENTER
 70
     0
  3
___ _ ___ _ ___ _ _
 72
    65
 73
     4
 40
1.125
 49
0.75
 49
-0.125
 49
0.125
 49
-0.125
  0
LTYPE
  2
DASHDOT
 70
     0
  3
_._._._._._._._._._
 72
    65
 73
     4
 40
0.5
 49
0.25
 49
-0.125
 49
0.0
 49
-0.125
  0
LTYPE
  2
DASHED
 70
     0
  3
_ _ _ _ _ _ _ _ _ _
 72
    65
 73
     2
 40
0.375
 49
0.25
 49
-0.125
  0
LTYPE
  2
DIVIDE
 70
     0
  3
__..__..__..__..__.
 72
    65
 73
     6
 40
0.625
 49
0.25
 49
-0.125
 49
0.0
 49
-0.125
 49
0.0
 49
-0.125
  0
LTYPE
  2
DOT
 70
     0
  3
...................
 72
    65
 73
     2
 40
0.125
 49
0.0
 49
-0.125
  0
LTYPE
  2
HIDDEN
 70
     0
  3
__ __ __ __ __ __ _
 72
    65
 73
     2
 40
0.1875
 49
0.125
 49
-0.0625
  0
LTYPE
  2
PHANTOM
 70
     0
  3
___ _ _ ___ _ _ ___
 72
    65
 73
     6
 40
1.25
 49
0.625
 49
-0.125
 49
0.125
 49
-0.125
 49
0.125
 49
-0.125
  0
LTYPE
  2
CUTTING
 70
     0
  3
________ _ _ ______
 72
    65
 73
     6
 40
1.4675
 49
1.0
 49
-0.0725
 49
0.125
 49
-0.0725
 49
0.125
 49
-0.0725
  0
LTYPE
  2
STITCH
 70
     0
  3
_ _ _ _ _ _ _ _ _ _
 72
    65
 73
     2
 40
0.145
 49
0.0725
 49
-0.0725
  0
ENDTAB
  0
TABLE
  2
LAYER
 70
     4
  0
LAYER
  2
0
 70
     0
 62
     7
  6
CONTINUOUS
  0
LAYER
  2
DIMENSION
 70
     0
 62
     7
  6
CONTINUOUS
  0
LAYER
  2
YV
 70
     0
 62
    18
  6
CONTINUOUS
  0
LAYER
  2
DEFPOINTS
 70
     0
 62
     7
  6
CONTINUOUS
  0
ENDTAB
  0
TABLE
  2
STYLE
 70
     1
  0
STYLE
  2
STANDARD
 70
     0
 40
0.0
 41
1.0
 50
0.0
 71
     0
 42
2.5
  3
txt
  4

  0
ENDTAB
  0
TABLE
  2
VIEW
 70
     0
  0
ENDTAB
  0
TABLE
  2
UCS
 70
     0
  0
ENDTAB
  0
TABLE
  2
APPID
 70
     2
  0
APPID
  2
ACAD
 70
     0
  0
APPID
  2
ENCORE_SOFTWARE_VIACAD
 70
     0
  0
ENDTAB
  0
TABLE
  2
DIMSTYLE
 70
     5
  0
DIMSTYLE
  2
ISO-25
 70
     0
  3

  4

  5

  6

  7

 40
1.0
 41
2.5
 42
0.625
 43
3.75
 44
1.25
 45
0.0
 46
0.0
 47
0.0
 48
0.0
140
2.5
141
2.5
142
0.0
143
0.03937007874016
144
1.0
145
0.0
146
1.0
147
0.625
 71
     0
 72
     0
 73
     0
 74
     0
 75
     0
 76
     0
 77
     1
 78
     8
170
     0
171
     3
172
     1
173
     0
174
     0
175
     0
176
     0
177
     0
178
     0
  0
DIMSTYLE
  2
ROTATEDDIM56
 70
     0
  3

  4

  5

  6

  7

 40
1.0
 41
8.105938112967356
 42
2.598057087489537
 43
3.75
 44
6.495142718723842
 45
0.0
 46
0.0
 47
0.0
 48
0.0
140
7.159999847412109
141
2.5
142
0.0
143
0.03937007874016
144
1.0
145
0.0
146
1.0
147
0.625
 71
     0
 72
     0
 73
     0
 74
     0
 75
     0
 76
     0
 77
     0
 78
     8
170
     0
171
     3
172
     1
173
     0
174
     0
175
     0
176
     0
177
     0
178
     0
  0
DIMSTYLE
  2
ROTATEDDIM57
 70
     0
  3

  4

  5

  6

  7

 40
1.0
 41
8.105938112967356
 42
2.598057087489537
 43
3.75
 44
6.495142718723842
 45
0.0
 46
0.0
 47
0.0
 48
0.0
140
7.159999847412109
141
2.5
142
0.0
143
0.03937007874016
144
1.0
145
0.0
146
1.0
147
0.625
 71
     0
 72
     0
 73
     0
 74
     0
 75
     0
 76
     0
 77
     0
 78
     8
170
     0
171
     3
172
     1
173
     0
174
     0
175
     0
176
     0
177
     0
178
     0
  0
DIMSTYLE
  2
ROTATEDDIM58
 70
     0
  3

  4

  5

  6

  7

 40
1.0
 41
8.105938112967356
 42
2.598057087489537
 43
3.75
 44
6.495142718723842
 45
0.0
 46
0.0
 47
0.0
 48
0.0
140
7.159999847412109
141
2.5
142
0.0
143
0.03937007874016
144
1.0
145
0.0
146
1.0
147
0.625
 71
     0
 72
     0
 73
     0
 74
     0
 75
     0
 76
     0
 77
     0
 78
     8
170
     0
171
     3
172
     1
173
     0
174
     0
175
     0
176
     0
177
     0
178
     0
  0
DIMSTYLE
  2
RADIALDIM59
 70
     0
  3

  4

  5

  6

  7

 40
1.0
 41
8.105938112967356
 42
2.598057087489537
 43
3.75
 44
6.495142718723842
 45
0.0
 46
0.0
 47
0.0
 48
0.0
140
7.159999847412109
141
2.5
142
0.0
143
0.03937007874016
144
1.0
145
0.0
146
1.0
147
0.625
 71
     0
 72
     0
 73
     0
 74
     0
 75
     0
 76
     0
 77
     0
 78
     8
170
     0
171
     3
172
     1
173
     0
174
     0
175
     0
176
     0
177
     0
178
     0
  0
ENDTAB
  0
ENDSEC
  0
SECTION
  2
BLOCKS
  0
BLOCK
  8
0
  2
$MODEL_SPACE
 70
     0
 10
0.0
 20
0.0
 30
0.0
  3
$MODEL_SPACE
  1

  0
ENDBLK
  5
21
  8
0
  0
BLOCK
 67
     1
  8
0
  2
$PAPER_SPACE
 70
     0
 10
0.0
 20
0.0
 30
0.0
  3
$PAPER_SPACE
  1

  0
ENDBLK
  5
1D
 67
     1
  8
0
  0
BLOCK
  8
0
  2
*D1
 70
     1
 10
0.0
 20
0.0
 30
0.0
  3
*D1
  1

  0
LINE
  5
6E
  8
DIMENSION
 62
     0
 10
752.4980570874886
 20
195.1529333987538
 30
0.0
 11
791.6475011292985
 21
195.1529333987538
 31
0.0
  0
LINE
  5
6F
  8
DIMENSION
 62
     0
 10
752.4980570874886
 20
-0.8470666012469522
 30
0.0
 11
791.6475011292985
 21
-0.8470666012469547
 31
0.0
  0
LINE
  5
70
  8
DIMENSION
 62
     0
 10
785.1523584105746
 20
187.0469952857864
 30
0.0
 11
785.1523584105746
 21
106.4722189277538
 31
0.0
  0
LINE
  5
71
  8
DIMENSION
 62
     0
 10
785.1523584105746
 20
7.258871511720402
 30
0.0
 11
785.1523584105746
 21
87.8336478697529
 31
0.0
  0
SOLID
  5
72
  8
DIMENSION
 62
     0
 10
786.5033480960692
 20
187.0469952857864
 30
0.0
 11
783.80136872508
 21
187.0469952857864
 31
0.0
 12
785.1523584105746
 22
195.1529333987538
 32
0.0
 13
785.1523584105746
 23
195.1529333987538
 33
0.0
  0
SOLID
  5
73
  8
DIMENSION
 62
     0
 10
783.80136872508
 20
7.258871511720402
 30
0.0
 11
786.5033480960692
 21
7.258871511720402
 31
0.0
 12
785.1523584105746
 22
-0.8470666012469542
 32
0.0
 13
785.1523584105746
 23
-0.8470666012469542
 33
0.0
  0
TEXT
  5
74
  8
DIMENSION
  6
CONTINUOUS
 62
     0
 10
788.7323583342807
 20
86.4129336276352
 30
0.0
 40
7.159999847412109
  1
196
 50
90.0
  0
POINT
  5
75
  8
DEFPOINTS
 62
     0
 10
749.8999999999991
 20
195.1529333987538
 30
0.0
  0
POINT
  5
76
  8
DEFPOINTS
 62
     0
 10
749.8999999999991
 20
-0.8470666012469521
 30
0.0
  0
POINT
  5
77
  8
DEFPOINTS
 62
     0
 10
785.1523584105746
 20
-0.8470666012469542
 30
0.0
  0
ENDBLK
  5
79
  8
0
  0
BLOCK
  8
0
  2
*D2
 70
     1
 10
0.0
 20
0.0
 30
0.0
  3
*D2
  1

  0
LINE
  5
7D
  8
DIMENSION
 62
     0
 10
0.0
 20
36.55487631126308
 30
0.0
 11
0.0
 21
-29.02093842315589
 31
0.0
  0
LINE
  5
7E
  8
DIMENSION
 62
     0
 10
759.7999999999988
 20
36.55487631126308
 30
0.0
 11
759.7999999999988
 21
-29.02093842315589
 31
0.0
  0
LINE
  5
7F
  8
DIMENSION
 62
     0
 10
8.105938112967356
 20
-22.52579570443205
 30
0.0
 11
364.9550003051752
 21
-22.52579570443205
 31
0.0
  0
LINE
  5
80
  8
DIMENSION
 62
     0
 10
751.6940618870315
 20
-22.52579570443205
 30
0.0
 11
394.8449996948236
 21
-22.52579570443205
 31
0.0
  0
SOLID
  5
81
  8
DIMENSION
 62
     0
 10
8.105938112967356
 20
-21.17480601893749
 30
0.0
 11
8.105938112967356
 21
-23.87678538992661
 31
0.0
 12
0.0
 22
-22.52579570443205
 32
0.0
 13
0.0
 23
-22.52579570443205
 33
0.0
  0
SOLID
  5
82
  8
DIMENSION
 62
     0
 10
751.6940618870315
 20
-23.87678538992661
 30
0.0
 11
751.6940618870315
 21
-21.17480601893749
 31
0.0
 12
759.7999999999988
 22
-22.52579570443205
 32
0.0
 13
759.7999999999988
 23
-22.52579570443205
 33
0.0
  0
TEXT
  5
83
  8
DIMENSION
  6
CONTINUOUS
 62
     0
 10
364.5571431841163
 20
-25.42389088076552
 30
0.0
 40
7.159999847412109
  1
759,8
  0
POINT
  5
84
  8
DEFPOINTS
 62
     0
 10
0.0
 20
39.15293339875262
 30
0.0
  0
POINT
  5
85
  8
DEFPOINTS
 62
     0
 10
759.7999999999988
 20
39.15293339875262
 30
0.0
  0
POINT
  5
86
  8
DEFPOINTS
 62
     0
 10
759.7999999999988
 20
-22.52579570443205
 30
0.0
  0
ENDBLK
  5
88
  8
0
  0
BLOCK
  8
0
  2
*D3
 70
     1
 10
0.0
 20
0.0
 30
0.0
  3
*D3
  1

  0
LINE
  5
8C
  8
DIMENSION
 62
     0
 10
9.899999999999952
 20
197.7509904862433
 30
0.0
 11
9.899999999999984
 21
226.4296666006122
 31
0.0
  0
LINE
  5
8D
  8
DIMENSION
 62
     0
 10
749.8999999999991
 20
197.7509904862433
 30
0.0
 11
749.8999999999991
 21
226.4296666006122
 31
0.0
  0
LINE
  5
8E
  8
DIMENSION
 62
     0
 10
18.00593811296734
 20
219.9345238818884
 30
0.0
 11
370.0692859104697
 21
219.9345238818884
 31
0.0
  0
LINE
  5
8F
  8
DIMENSION
 62
     0
 10
741.7940618870317
 20
219.9345238818884
 30
0.0
 11
389.7307140895293
 21
219.9345238818884
 31
0.0
  0
SOLID
  5
90
  8
DIMENSION
 62
     0
 10
18.00593811296734
 20
221.2855135673829
 30
0.0
 11
18.00593811296734
 21
218.5835341963938
 31
0.0
 12
9.899999999999977
 22
219.9345238818884
 32
0.0
 13
9.899999999999977
 23
219.9345238818884
 33
0.0
  0
SOLID
  5
91
  8
DIMENSION
 62
     0
 10
741.7940618870317
 20
218.5835341963938
 30
0.0
 11
741.7940618870317
 21
221.2855135673829
 31
0.0
 12
749.8999999999991
 22
219.9345238818884
 32
0.0
 13
749.8999999999991
 23
219.9345238818884
 33
0.0
  0
TEXT
  5
92
  8
DIMENSION
  6
CONTINUOUS
 62
     0
 10
369.6714287894108
 20
216.3545239581823
 30
0.0
 40
7.159999847412109
  1
740
  0
POINT
  5
93
  8
DEFPOINTS
 62
     0
 10
9.899999999999949
 20
195.1529333987538
 30
0.0
  0
POINT
  5
94
  8
DEFPOINTS
 62
     0
 10
749.8999999999991
 20
195.1529333987538
 30
0.0
  0
POINT
  5
95
  8
DEFPOINTS
 62
     0
 10
749.8999999999991
 20
219.9345238818884
 30
0.0
  0
ENDBLK
  5
97
  8
0
  0
BLOCK
  8
0
  2
*D4
 70
     1
 10
0.0
 20
0.0
 30
0.0
  3
*D4
  1

  0
LINE
  5
9B
  8
DIMENSION
 62
     0
 10
388.2460907377014
 20
116.9685523138458
 30
0.0
 11
381.7875937918821
 21
121.8669244814235
 31
0.0
  0
TEXT
  5
9C
  8
DIMENSION
  6
CONTINUOUS
 62
     0
 10
361.0655974280664
 20
133.9459377185226
 30
0.0
 40
7.159999847412109
  1
R3,5
 50
322.8219229474585
  0
LINE
  5
9D
  8
DIMENSION
 62
     0
 10
397.4932518696197
 20
109.9551501093256
 30
0.0
 11
394.7045876835206
 21
112.070180146268
 31
0.0
  0
SOLID
  5
9E
  8
DIMENSION
 62
     0
 10
387.4296953764384
 20
115.8921361562092
 30
0.0
 11
389.0624860989643
 21
118.0449684714823
 31
0.0
 12
394.7045876835206
 22
112.070180146268
 32
0.0
 13
394.7045876835206
 23
112.070180146268
 33
0.0
  0
POINT
  5
9F
  8
DEFPOINTS
 62
     0
 10
394.7045876835206
 20
112.070180146268
 30
0.0
  0
POINT
  5
A0
  8
DEFPOINTS
 62
     0
 10
397.4932518696197
 20
109.9551501093256
 30
0.0
  0
ENDBLK
  5
A2
  8
0
  0
ENDSEC
  0
SECTION
  2
ENTITIES
  0
ARC
  5
4C
  8
YV
 62
    18
 10
749.899999999999
 20
155.1529333987536
 30
0.0
 40
0.9999999999999782
 50
89.99999999998697
 51
0.0000000000016284
  0
ARC
  5
4D
  8
YV
 62
    18
 10
749.899999999999
 20
130.1529333987536
 30
0.0
 40
1.000000000000037
 50
0.0000000000162844
 51
270.000000000013
  0
ARC
  5
4E
  8
YV
 62
    18
 10
749.899999999999
 20
64.15293339875194
 30
0.0
 40
1.000000000000003
 50
89.99999999998697
 51
0.0000000000130276
  0
ARC
  5
4F
  8
YV
 62
    18
 10
749.899999999999
 20
39.15293339875252
 30
0.0
 40
1.000000000000035
 50
0.0000000000056996
 51
270.000000000013
  0
LINE
  5
50
  8
YV
 62
    18
 10
749.8999999999991
 20
-0.8470666012469521
 30
0.0
 11
9.899999999999949
 21
-0.8470666012469521
 31
0.0
  0
CIRCLE
  5
51
  8
YV
 62
    18
 10
-362.4932530855546
 20
109.9551501093256
 30
0.0
 40
3.5
210
0.0
220
0.0
230
-1.0
  0
CIRCLE
  5
52
  8
YV
 62
    18
 10
-397.4932518696197
 20
109.9551501093256
 30
0.0
 40
3.5
210
0.0
220
0.0
230
-1.0
  0
LINE
  5
53
  8
YV
 62
    18
 10
759.7999999999988
 20
155.1529333987537
 30
0.0
 11
759.7999999999988
 21
130.1529333987547
 31
0.0
  0
LINE
  5
54
  8
YV
 62
    18
 10
9.899999999999949
 20
195.1529333987538
 30
0.0
 11
749.8999999999991
 21
195.1529333987538
 31
0.0
  0
LINE
  5
55
  8
YV
 62
    18
 10
749.8999999999991
 20
156.1529333987536
 30
0.0
 11
749.8999999999991
 21
195.1529333987538
 31
0.0
  0
LINE
  5
56
  8
YV
 62
    18
 10
750.899999999999
 20
155.1529333987537
 30
0.0
 11
759.7999999999988
 21
155.1529333987537
 31
0.0
  0
LINE
  5
57
  8
YV
 62
    18
 10
759.7999999999988
 20
130.1529333987547
 30
0.0
 11
750.899999999999
 21
130.1529333987547
 31
0.0
  0
LINE
  5
58
  8
YV
 62
    18
 10
759.7999999999988
 20
64.15293339875217
 30
0.0
 11
759.7999999999988
 21
39.15293339875262
 31
0.0
  0
LINE
  5
59
  8
YV
 62
    18
 10
750.899999999999
 20
64.15293339875217
 30
0.0
 11
759.7999999999988
 21
64.15293339875217
 31
0.0
  0
LINE
  5
5A
  8
YV
 62
    18
 10
759.7999999999988
 20
39.15293339875262
 30
0.0
 11
750.899999999999
 21
39.15293339875262
 31
0.0
  0
LINE
  5
5B
  8
YV
 62
    18
 10
749.8999999999991
 20
129.1529333987536
 30
0.0
 11
749.8999999999991
 21
65.15293339875194
 31
0.0
  0
LINE
  5
5C
  8
YV
 62
    18
 10
749.8999999999991
 20
38.15293339875248
 30
0.0
 11
749.8999999999991
 21
-0.8470666012469521
 31
0.0
  0
ARC
  5
5D
  8
YV
 62
    18
 10
9.89999999999996
 20
155.1529333987536
 30
0.0
 40
0.9999999999999583
 50
179.9999999999984
 51
90.0000000000052
  0
ARC
  5
5E
  8
YV
 62
    18
 10
9.89999999999999
 20
130.1529333987545
 30
0.0
 40
0.999999999999995
 50
269.9999999999926
 51
179.9999999999919
  0
ARC
  5
5F
  8
YV
 62
    18
 10
9.900000000000004
 20
64.15293339875194
 30
0.0
 40
1.000000000000003
 50
179.999999999987
 51
90.00000000000776
  0
ARC
  5
60
  8
YV
 62
    18
 10
9.900000000000043
 20
39.15293339875253
 30
0.0
 40
1.000000000000048
 50
269.9999999999894
 51
179.9999999999951
  0
LINE
  5
61
  8
YV
 62
    18
 10
0.0
 20
155.1529333987537
 30
0.0
 11
0.0
 21
130.1529333987547
 31
0.0
  0
LINE
  5
62
  8
YV
 62
    18
 10
9.899999999999949
 20
156.1529333987536
 30
0.0
 11
9.899999999999949
 21
195.1529333987538
 31
0.0
  0
LINE
  5
63
  8
YV
 62
    18
 10
8.9
 20
155.1529333987537
 30
0.0
 11
0.0
 21
155.1529333987537
 31
0.0
  0
LINE
  5
64
  8
YV
 62
    18
 10
0.0
 20
130.1529333987547
 30
0.0
 11
8.9
 21
130.1529333987547
 31
0.0
  0
LINE
  5
65
  8
YV
 62
    18
 10
0.0
 20
64.15293339875217
 30
0.0
 11
0.0
 21
39.15293339875262
 31
0.0
  0
LINE
  5
66
  8
YV
 62
    18
 10
8.9
 20
64.15293339875217
 30
0.0
 11
0.0
 21
64.15293339875217
 31
0.0
  0
LINE
  5
67
  8
YV
 62
    18
 10
0.0
 20
39.15293339875262
 30
0.0
 11
8.9
 21
39.15293339875262
 31
0.0
  0
LINE
  5
68
  8
YV
 62
    18
 10
9.899999999999949
 20
129.1529333987545
 30
0.0
 11
9.899999999999949
 21
65.15293339875194
 31
0.0
  0
LINE
  5
69
  8
YV
 62
    18
 10
9.899999999999949
 20
38.15293339875248
 30
0.0
 11
9.899999999999949
 21
-0.8470666012469521
 31
0.0
  0
DIMENSION
  5
6B
  8
DIMENSION
 62
   150
  2
*D1
 10
785.1523584105746
 20
-0.8470666012469542
 30
0.0
 11
785.1523584105746
 21
97.1529333987534
 31
0.0
 70
    32
  3
ROTATEDDIM56
 13
749.8999999999991
 23
195.1529333987538
 33
0.0
 14
749.8999999999991
 24
-0.8470666012469521
 34
0.0
 50
90.0
  0
DIMENSION
  5
7B
  8
DIMENSION
 62
   150
  2
*D2
 10
759.7999999999988
 20
-22.52579570443205
 30
0.0
 11
379.8999999999994
 21
-22.52579570443205
 31
0.0
 70
    32
  3
ROTATEDDIM57
 13
0.0
 23
39.15293339875262
 33
0.0
 14
759.7999999999988
 24
39.15293339875262
 34
0.0
  0
DIMENSION
  5
8A
  8
DIMENSION
 62
   150
  2
*D3
 10
749.8999999999991
 20
219.9345238818884
 30
0.0
 11
379.8999999999995
 21
219.9345238818884
 31
0.0
 70
    32
  3
ROTATEDDIM58
 13
9.899999999999949
 23
195.1529333987538
 33
0.0
 14
749.8999999999991
 24
195.1529333987538
 34
0.0
  0
DIMENSION
  5
99
  8
DIMENSION
 62
   150
  2
*D4
 10
397.4932518696197
 20
109.9551501093256
 30
0.0
 11
372.5965741708612
 21
128.8377468075707
 31
0.0
 70
    36
  3
RADIALDIM59
 15
394.7045876835206
 25
112.070180146268
 35
0.0
 40
0.0
  0
ENDSEC
  0
EOF
