  0
SECTION
  2
HEADER
  9
$ACADVER
  1
AC1009
  9
$DWGCODEPAGE
  3
ansi_1252
  9
$INSBASE
 10
0.0
 20
0.0
 30
0.0
  9
$EXTMIN
 10
0.0
 20
-17.75095944537646
 30
0.0
  9
$EXTMAX
 10
148.037010447382
 20
260.0000000000001
 30
76.3712602910166
  9
$LIMMIN
 10
0.0
 20
0.0
  9
$LIMMAX
 10
420.0
 20
297.0
  9
$ORTHOMODE
 70
     0
  9
$REGENMODE
 70
     1
  9
$FILLMODE
 70
     1
  9
$QTEXTMODE
 70
     0
  9
$MIRRTEXT
 70
     1
  9
$DRAGMODE
 70
     2
  9
$LTSCALE
 40
1.0
  9
$OSMODE
 70
    37
  9
$ATTMODE
 70
     1
  9
$TEXTSIZE
 40
2.5
  9
$TRACEWID
 40
1.0
  9
$TEXTSTYLE
  7
STANDARD
  9
$CLAYER
  8
0
  9
$CELTYPE
  6
BYLAYER
  9
$CECOLOR
 62
   256
  9
$DIMSCALE
 40
1.0
  9
$DIMASZ
 40
2.5
  9
$DIMEXO
 40
0.625
  9
$DIMDLI
 40
3.75
  9
$DIMRND
 40
0.0
  9
$DIMDLE
 40
0.0
  9
$DIMEXE
 40
1.25
  9
$DIMTP
 40
0.0
  9
$DIMTM
 40
0.0
  9
$DIMTXT
 40
2.5
  9
$DIMCEN
 40
2.5
  9
$DIMTSZ
 40
0.0
  9
$DIMTOL
 70
     0
  9
$DIMLIM
 70
     0
  9
$DIMTIH
 70
     0
  9
$DIMTOH
 70
     0
  9
$DIMSE1
 70
     0
  9
$DIMSE2
 70
     0
  9
$DIMTAD
 70
     1
  9
$DIMZIN
 70
     8
  9
$DIMBLK
  1

  9
$DIMASO
 70
     1
  9
$DIMSHO
 70
     1
  9
$DIMPOST
  1

  9
$DIMAPOST
  1

  9
$DIMALT
 70
     0
  9
$DIMALTD
 70
     3
  9
$DIMALTF
 40
0.03937007874016
  9
$DIMLFAC
 40
1.0
  9
$DIMTOFL
 70
     1
  9
$DIMTVP
 40
0.0
  9
$DIMTIX
 70
     0
  9
$DIMSOXD
 70
     0
  9
$DIMSAH
 70
     0
  9
$DIMBLK1
  1

  9
$DIMBLK2
  1

  9
$DIMSTYLE
  2
ISO-25
  9
$DIMCLRD
 70
     0
  9
$DIMCLRE
 70
     0
  9
$DIMCLRT
 70
     0
  9
$DIMTFAC
 40
1.0
  9
$DIMGAP
 40
0.625
  9
$LUNITS
 70
     2
  9
$LUPREC
 70
     4
  9
$SKETCHINC
 40
1.0
  9
$FILLETRAD
 40
10.0
  9
$AUNITS
 70
     0
  9
$AUPREC
 70
     0
  9
$MENU
  1
.
  9
$ELEVATION
 40
0.0
  9
$PELEVATION
 40
0.0
  9
$THICKNESS
 40
0.0
  9
$LIMCHECK
 70
     0
  9
$CHAMFERA
 40
10.0
  9
$CHAMFERB
 40
10.0
  9
$SKPOLY
 70
     0
  9
$TDCREATE
 40
2305814.674953704
  9
$TDUPDATE
 40
2456148.591628009
  9
$TDINDWG
 40
0.0000000116
  9
$TDUSRTIMER
 40
0.0000000116
  9
$USRTIMER
 70
     1
  9
$ANGBASE
 50
0.0
  9
$ANGDIR
 70
     0
  9
$PDMODE
 70
     0
  9
$PDSIZE
 40
0.0
  9
$PLINEWID
 40
0.0
  9
$COORDS
 70
     1
  9
$SPLFRAME
 70
     0
  9
$SPLINETYPE
 70
     6
  9
$SPLINESEGS
 70
     8
  9
$ATTDIA
 70
     0
  9
$ATTREQ
 70
     1
  9
$HANDLING
 70
     1
  9
$HANDSEED
  5
AD
  9
$SURFTAB1
 70
     6
  9
$SURFTAB2
 70
     6
  9
$SURFTYPE
 70
     6
  9
$SURFU
 70
     6
  9
$SURFV
 70
     6
  9
$UCSNAME
  2

  9
$UCSORG
 10
0.0
 20
0.0
 30
0.0
  9
$UCSXDIR
 10
1.0
 20
0.0
 30
0.0
  9
$UCSYDIR
 10
0.0
 20
1.0
 30
0.0
  9
$PUCSNAME
  2

  9
$PUCSORG
 10
0.0
 20
0.0
 30
0.0
  9
$PUCSXDIR
 10
1.0
 20
0.0
 30
0.0
  9
$PUCSYDIR
 10
0.0
 20
1.0
 30
0.0
  9
$USERI1
 70
     0
  9
$USERI2
 70
     0
  9
$USERI3
 70
     0
  9
$USERI4
 70
     0
  9
$USERI5
 70
     0
  9
$USERR1
 40
0.0
  9
$USERR2
 40
0.0
  9
$USERR3
 40
0.0
  9
$USERR4
 40
0.0
  9
$USERR5
 40
0.0
  9
$WORLDVIEW
 70
     1
  9
$SHADEDGE
 70
     3
  9
$SHADEDIF
 70
    70
  9
$TILEMODE
 70
     1
  9
$MAXACTVP
 70
    64
  9
$PLIMCHECK
 70
     0
  9
$PEXTMIN
 10
1.000000000000000E+20
 20
1.000000000000000E+20
 30
1.000000000000000E+20
  9
$PEXTMAX
 10
-1.000000000000000E+20
 20
-1.000000000000000E+20
 30
-1.000000000000000E+20
  9
$PLIMMIN
 10
0.0
 20
0.0
  9
$PLIMMAX
 10
420.0
 20
297.0
  9
$UNITMODE
 70
     0
  9
$VISRETAIN
 70
     1
  9
$PLINEGEN
 70
     0
  9
$PSLTSCALE
 70
     1
  0
ENDSEC
  0
SECTION
  2
TABLES
  0
TABLE
  2
VPORT
 70
     1
  0
VPORT
  2
*ACTIVE
 70
     0
 10
0.0
 20
0.0
 11
1.0
 21
1.0
 12
72.40496558204484
 22
122.4126632036642
 13
0.0
 23
0.0
 14
10.0
 24
10.0
 15
10.0
 25
10.0
 16
0.0
 26
0.0
 36
1.0
 17
0.0
 27
0.0
 37
0.0
 40
280.6781670645253
 41
0.5262473078407099
 42
50.0
 43
0.0
 44
0.0
 50
0.0
 51
0.0
 71
     0
 72
   100
 73
     1
 74
     3
 75
     0
 76
     0
 77
     0
 78
     0
  0
ENDTAB
  0
TABLE
  2
LTYPE
 70
    11
  0
LTYPE
  2
CONTINUOUS
 70
     0
  3
Solid line
 72
    65
 73
     0
 40
0.0
  0
LTYPE
  2
BORDER
 70
     0
  3
__ __ . __ __ . __ 
 72
    65
 73
     6
 40
0.875
 49
0.25
 49
-0.125
 49
0.25
 49
-0.125
 49
0.0
 49
-0.125
  0
LTYPE
  2
CENTER
 70
     0
  3
___ _ ___ _ ___ _ _
 72
    65
 73
     4
 40
1.125
 49
0.75
 49
-0.125
 49
0.125
 49
-0.125
  0
LTYPE
  2
DASHDOT
 70
     0
  3
_._._._._._._._._._
 72
    65
 73
     4
 40
0.5
 49
0.25
 49
-0.125
 49
0.0
 49
-0.125
  0
LTYPE
  2
DASHED
 70
     0
  3
_ _ _ _ _ _ _ _ _ _
 72
    65
 73
     2
 40
0.375
 49
0.25
 49
-0.125
  0
LTYPE
  2
DIVIDE
 70
     0
  3
__..__..__..__..__.
 72
    65
 73
     6
 40
0.625
 49
0.25
 49
-0.125
 49
0.0
 49
-0.125
 49
0.0
 49
-0.125
  0
LTYPE
  2
DOT
 70
     0
  3
...................
 72
    65
 73
     2
 40
0.125
 49
0.0
 49
-0.125
  0
LTYPE
  2
HIDDEN
 70
     0
  3
__ __ __ __ __ __ _
 72
    65
 73
     2
 40
0.1875
 49
0.125
 49
-0.0625
  0
LTYPE
  2
PHANTOM
 70
     0
  3
___ _ _ ___ _ _ ___
 72
    65
 73
     6
 40
1.25
 49
0.625
 49
-0.125
 49
0.125
 49
-0.125
 49
0.125
 49
-0.125
  0
LTYPE
  2
CUTTING
 70
     0
  3
________ _ _ ______
 72
    65
 73
     6
 40
1.4675
 49
1.0
 49
-0.0725
 49
0.125
 49
-0.0725
 49
0.125
 49
-0.0725
  0
LTYPE
  2
STITCH
 70
     0
  3
_ _ _ _ _ _ _ _ _ _
 72
    65
 73
     2
 40
0.145
 49
0.0725
 49
-0.0725
  0
ENDTAB
  0
TABLE
  2
LAYER
 70
     4
  0
LAYER
  2
0
 70
     0
 62
     7
  6
CONTINUOUS
  0
LAYER
  2
DIMENSION
 70
     0
 62
     7
  6
CONTINUOUS
  0
LAYER
  2
Z
 70
     0
 62
     8
  6
CONTINUOUS
  0
LAYER
  2
DEFPOINTS
 70
     0
 62
     7
  6
CONTINUOUS
  0
ENDTAB
  0
TABLE
  2
STYLE
 70
     1
  0
STYLE
  2
STANDARD
 70
     0
 40
0.0
 41
1.0
 50
0.0
 71
     0
 42
2.5
  3
txt
  4

  0
ENDTAB
  0
TABLE
  2
VIEW
 70
     0
  0
ENDTAB
  0
TABLE
  2
UCS
 70
     0
  0
ENDTAB
  0
TABLE
  2
APPID
 70
     2
  0
APPID
  2
ACAD
 70
     0
  0
APPID
  2
ENCORE_SOFTWARE_VIACAD
 70
     0
  0
ENDTAB
  0
TABLE
  2
DIMSTYLE
 70
     7
  0
DIMSTYLE
  2
ISO-25
 70
     0
  3

  4

  5

  6

  7

 40
1.0
 41
2.5
 42
0.625
 43
3.75
 44
1.25
 45
0.0
 46
0.0
 47
0.0
 48
0.0
140
2.5
141
2.5
142
0.0
143
0.03937007874016
144
1.0
145
0.0
146
1.0
147
0.625
 71
     0
 72
     0
 73
     0
 74
     0
 75
     0
 76
     0
 77
     1
 78
     8
170
     0
171
     3
172
     1
173
     0
174
     0
175
     0
176
     0
177
     0
178
     0
  0
DIMSTYLE
  2
ROTATEDDIM18
 70
     0
  3

  4

  5

  6

  7

 40
1.0
 41
8.105938112967356
 42
2.598057087489537
 43
3.75
 44
6.495142718723842
 45
0.0
 46
0.0
 47
0.0
 48
0.0
140
7.159999847412109
141
2.5
142
0.0
143
0.03937007874016
144
1.0
145
0.0
146
1.0
147
0.625
 71
     0
 72
     0
 73
     0
 74
     0
 75
     0
 76
     0
 77
     0
 78
     8
170
     0
171
     3
172
     1
173
     0
174
     0
175
     0
176
     0
177
     0
178
     0
  0
DIMSTYLE
  2
ROTATEDDIM19
 70
     0
  3

  4

  5

  6

  7

 40
1.0
 41
8.105938112967356
 42
2.598057087489537
 43
3.75
 44
6.495142718723842
 45
0.0
 46
0.0
 47
0.0
 48
0.0
140
7.159999847412109
141
2.5
142
0.0
143
0.03937007874016
144
1.0
145
0.0
146
1.0
147
0.625
 71
     0
 72
     0
 73
     0
 74
     0
 75
     0
 76
     0
 77
     0
 78
     8
170
     0
171
     3
172
     1
173
     0
174
     0
175
     0
176
     0
177
     0
178
     0
  0
DIMSTYLE
  2
RADIALDIM20
 70
     0
  3

  4

  5

  6

  7

 40
1.0
 41
8.105938112967356
 42
2.598057087489537
 43
3.75
 44
6.495142718723842
 45
0.0
 46
0.0
 47
0.0
 48
0.0
140
7.159999847412109
141
2.5
142
0.0
143
0.03937007874016
144
1.0
145
0.0
146
1.0
147
0.625
 71
     0
 72
     0
 73
     0
 74
     0
 75
     0
 76
     0
 77
     0
 78
     8
170
     0
171
     3
172
     1
173
     0
174
     0
175
     0
176
     0
177
     0
178
     0
  0
DIMSTYLE
  2
RADIALDIM21
 70
     0
  3

  4

  5

  6

  7

 40
1.0
 41
8.105938112967356
 42
2.598057087489537
 43
3.75
 44
6.495142718723842
 45
0.0
 46
0.0
 47
0.0
 48
0.0
140
7.159999847412109
141
2.5
142
0.0
143
0.03937007874016
144
1.0
145
0.0
146
1.0
147
0.625
 71
     0
 72
     0
 73
     0
 74
     0
 75
     0
 76
     0
 77
     0
 78
     8
170
     0
171
     3
172
     1
173
     0
174
     0
175
     0
176
     0
177
     0
178
     0
  0
DIMSTYLE
  2
RADIALDIM22
 70
     0
  3

  4

  5

  6

  7

 40
1.0
 41
8.105938112967356
 42
2.598057087489537
 43
3.75
 44
6.495142718723842
 45
0.0
 46
0.0
 47
0.0
 48
0.0
140
7.159999847412109
141
2.5
142
0.0
143
0.03937007874016
144
1.0
145
0.0
146
1.0
147
0.625
 71
     0
 72
     0
 73
     0
 74
     0
 75
     0
 76
     0
 77
     0
 78
     8
170
     0
171
     3
172
     1
173
     0
174
     0
175
     0
176
     0
177
     0
178
     0
  0
DIMSTYLE
  2
RADIALDIM23
 70
     0
  3

  4

  5

  6

  7

 40
1.0
 41
8.105938112967356
 42
2.598057087489537
 43
3.75
 44
6.495142718723842
 45
0.0
 46
0.0
 47
0.0
 48
0.0
140
7.159999847412109
141
2.5
142
0.0
143
0.03937007874016
144
1.0
145
0.0
146
1.0
147
0.625
 71
     0
 72
     0
 73
     0
 74
     0
 75
     0
 76
     0
 77
     0
 78
     8
170
     0
171
     3
172
     1
173
     0
174
     0
175
     0
176
     0
177
     0
178
     0
  0
ENDTAB
  0
ENDSEC
  0
SECTION
  2
BLOCKS
  0
BLOCK
  8
0
  2
$MODEL_SPACE
 70
     0
 10
0.0
 20
0.0
 30
0.0
  3
$MODEL_SPACE
  1

  0
ENDBLK
  5
21
  8
0
  0
BLOCK
 67
     1
  8
0
  2
$PAPER_SPACE
 70
     0
 10
0.0
 20
0.0
 30
0.0
  3
$PAPER_SPACE
  1

  0
ENDBLK
  5
1D
 67
     1
  8
0
  0
BLOCK
  8
0
  2
*D1
 70
     1
 10
0.0
 20
0.0
 30
0.0
  3
*D1
  1

  0
LINE
  5
5B
  8
DIMENSION
 62
     0
 10
0.0
 20
-2.598057087489537
 30
0.0
 11
0.0
 21
-15.17467359267173
 31
0.0
  0
LINE
  5
5C
  8
DIMENSION
 62
     0
 10
120.0000000000007
 20
-2.598057087489537
 30
0.0
 11
120.0000000000007
 21
-15.17467359267173
 31
0.0
  0
LINE
  5
5D
  8
DIMENSION
 62
     0
 10
8.105938112967356
 20
-8.679530873947888
 30
0.0
 11
50.68071447099993
 21
-8.679530873947888
 31
0.0
  0
LINE
  5
5E
  8
DIMENSION
 62
     0
 10
111.8940618870333
 20
-8.679530873947888
 30
0.0
 11
69.31928552900077
 21
-8.679530873947888
 31
0.0
  0
SOLID
  5
5F
  8
DIMENSION
 62
     0
 10
8.105938112967356
 20
-7.328541188453329
 30
0.0
 11
8.105938112967356
 21
-10.03052055944245
 31
0.0
 12
0.0
 22
-8.679530873947888
 32
0.0
 13
0.0
 23
-8.679530873947888
 33
0.0
  0
SOLID
  5
60
  8
DIMENSION
 62
     0
 10
111.8940618870333
 20
-10.03052055944245
 30
0.0
 11
111.8940618870333
 21
-7.328541188453329
 31
0.0
 12
120.0000000000007
 22
-8.679530873947888
 32
0.0
 13
120.0000000000007
 23
-8.679530873947888
 33
0.0
  0
TEXT
  5
61
  8
DIMENSION
  6
CONTINUOUS
 62
     0
 10
49.26000022888218
 20
-12.25953079765394
 30
0.0
 40
7.159999847412109
  1
120
  0
POINT
  5
62
  8
DEFPOINTS
 62
     0
 10
0.0
 20
0.0
 30
0.0
  0
POINT
  5
63
  8
DEFPOINTS
 62
     0
 10
120.0000000000007
 20
0.0
 30
0.0
  0
POINT
  5
64
  8
DEFPOINTS
 62
     0
 10
120.0000000000007
 20
-8.679530873947888
 30
0.0
  0
ENDBLK
  5
66
  8
0
  0
BLOCK
  8
0
  2
*D2
 70
     1
 10
0.0
 20
0.0
 30
0.0
  3
*D2
  1

  0
LINE
  5
6A
  8
DIMENSION
 62
     0
 10
122.5980570874902
 20
260.0000000000001
 30
0.0
 11
144.8099311640897
 21
260.0000000000001
 31
0.0
  0
LINE
  5
6B
  8
DIMENSION
 62
     0
 10
122.5980570874902
 20
-0.0000000000000002
 30
0.0
 11
144.8099311640896
 21
-0.0000000000000015
 31
0.0
  0
LINE
  5
6C
  8
DIMENSION
 62
     0
 10
138.3147884453658
 20
251.8940618870328
 30
0.0
 11
138.3147884453658
 21
139.8307140895299
 31
0.0
  0
LINE
  5
6D
  8
DIMENSION
 62
     0
 10
138.3147884453658
 20
8.105938112967355
 30
0.0
 11
138.3147884453658
 21
120.1692859104702
 31
0.0
  0
SOLID
  5
6E
  8
DIMENSION
 62
     0
 10
139.6657781308604
 20
251.8940618870328
 30
0.0
 11
136.9637987598713
 21
251.8940618870328
 31
0.0
 12
138.3147884453658
 22
260.0000000000001
 32
0.0
 13
138.3147884453658
 23
260.0000000000001
 33
0.0
  0
SOLID
  5
6F
  8
DIMENSION
 62
     0
 10
136.9637987598712
 20
8.105938112967355
 30
0.0
 11
139.6657781308604
 21
8.105938112967355
 31
0.0
 12
138.3147884453658
 22
-0.0000000000000011
 32
0.0
 13
138.3147884453658
 23
-0.0000000000000011
 33
0.0
  0
TEXT
  5
70
  8
DIMENSION
  6
CONTINUOUS
 62
     0
 10
141.8947883690718
 20
119.7714287894113
 30
0.0
 40
7.159999847412109
  1
260
 50
90.0
  0
POINT
  5
71
  8
DEFPOINTS
 62
     0
 10
120.0000000000007
 20
260.0000000000001
 30
0.0
  0
POINT
  5
72
  8
DEFPOINTS
 62
     0
 10
120.0000000000007
 20
0.0
 30
0.0
  0
POINT
  5
73
  8
DEFPOINTS
 62
     0
 10
138.3147884453658
 20
-0.0000000000000011
 30
0.0
  0
ENDBLK
  5
75
  8
0
  0
BLOCK
  8
0
  2
*D3
 70
     1
 10
0.0
 20
0.0
 30
0.0
  3
*D3
  1

  0
LINE
  5
79
  8
DIMENSION
 62
     0
 10
34.05438436178403
 20
186.6243106834888
 30
0.0
 11
41.73877932359903
 21
184.0443287529146
 31
0.0
  0
TEXT
  5
7A
  8
DIMENSION
  6
CONTINUOUS
 62
     0
 10
40.1159767603594
 20
181.5320972824175
 30
0.0
 40
7.159999847412109
  1
R2,5
 50
341.4408830186034
  0
LINE
  5
7B
  8
DIMENSION
 62
     0
 10
24.00000000000002
 20
189.9999999999998
 30
0.0
 11
26.36998939996904
 21
189.2042926140629
 31
0.0
  0
SOLID
  5
7C
  8
DIMENSION
 62
     0
 10
34.48438135021306
 20
187.9050431771246
 30
0.0
 11
33.62438737335501
 21
185.3435781898529
 31
0.0
 12
26.36998939996904
 22
189.2042926140629
 32
0.0
 13
26.36998939996904
 23
189.2042926140629
 33
0.0
  0
POINT
  5
7D
  8
DEFPOINTS
 62
     0
 10
26.36998939996904
 20
189.2042926140629
 30
0.0
  0
POINT
  5
7E
  8
DEFPOINTS
 62
     0
 10
24.00000000000002
 20
189.9999999999998
 30
0.0
  0
ENDBLK
  5
80
  8
0
  0
BLOCK
  8
0
  2
*D4
 70
     1
 10
0.0
 20
0.0
 30
0.0
  3
*D4
  1

  0
LINE
  5
84
  8
DIMENSION
 62
     0
 10
61.78619712325614
 20
169.7245216214346
 30
0.0
 11
56.06066179382907
 21
175.4625071462281
 31
0.0
  0
TEXT
  5
85
  8
DIMENSION
  6
CONTINUOUS
 62
     0
 10
38.63639242762468
 20
188.8216815915263
 30
0.0
 40
7.159999847412109
  1
R2,1
 50
314.9377727508674
  0
LINE
  5
86
  8
DIMENSION
 62
     0
 10
68.99504308548488
 20
162.4999999999999
 30
0.0
 11
67.51173245268322
 21
163.9865360966411
 31
0.0
  0
SOLID
  5
87
  8
DIMENSION
 62
     0
 10
60.82986620245723
 20
168.7702657331968
 30
0.0
 11
62.74252804405506
 21
170.6787775096724
 31
0.0
 12
67.51173245268322
 22
163.9865360966411
 32
0.0
 13
67.51173245268322
 23
163.9865360966411
 33
0.0
  0
POINT
  5
88
  8
DEFPOINTS
 62
     0
 10
67.51173245268322
 20
163.9865360966411
 30
0.0
  0
POINT
  5
89
  8
DEFPOINTS
 62
     0
 10
68.99504308548488
 20
162.4999999999999
 30
0.0
  0
ENDBLK
  5
8B
  8
0
  0
BLOCK
  8
0
  2
*D5
 70
     1
 10
0.0
 20
0.0
 30
0.0
  3
*D5
  1

  0
LINE
  5
8F
  8
DIMENSION
 62
     0
 10
58.87611719109331
 20
21.55139328885859
 30
0.0
 11
58.09116345391543
 21
29.6192356473673
 31
0.0
  0
TEXT
  5
90
  8
DIMENSION
  6
CONTINUOUS
 62
     0
 10
52.90102560226715
 20
53.03645502040345
 30
0.0
 40
7.159999847412109
  1
R3,5
 50
275.5570526772773
  0
LINE
  5
91
  8
DIMENSION
 62
     0
 10
60.00000000000041
 20
10.0000000000007
 30
0.0
 11
59.66107092827119
 21
13.48355093034989
 31
0.0
  0
SOLID
  5
92
  8
DIMENSION
 62
     0
 10
57.53147679800853
 20
21.42056766599562
 30
0.0
 11
60.22075758417809
 21
21.68221891172157
 31
0.0
 12
59.66107092827119
 22
13.48355093034989
 32
0.0
 13
59.66107092827119
 23
13.48355093034989
 33
0.0
  0
POINT
  5
93
  8
DEFPOINTS
 62
     0
 10
59.66107092827119
 20
13.48355093034989
 30
0.0
  0
POINT
  5
94
  8
DEFPOINTS
 62
     0
 10
60.00000000000041
 20
10.0000000000007
 30
0.0
  0
ENDBLK
  5
96
  8
0
  0
BLOCK
  8
0
  2
*D6
 70
     1
 10
0.0
 20
0.0
 30
0.0
  3
*D6
  1

  0
LINE
  5
9D
  8
DIMENSION
 62
     0
 10
58.8761171910933
 20
141.5513932888579
 30
0.0
 11
58.09116345391541
 21
149.6192356473666
 31
0.0
  0
TEXT
  5
9E
  8
DIMENSION
  6
CONTINUOUS
 62
     0
 10
52.90102560226714
 20
173.0364550204027
 30
0.0
 40
7.159999847412109
  1
R3,5
 50
275.5570526772773
  0
LINE
  5
9F
  8
DIMENSION
 62
     0
 10
60.00000000000041
 20
130.0
 30
0.0
 11
59.66107092827119
 21
133.4835509303492
 31
0.0
  0
SOLID
  5
A0
  8
DIMENSION
 62
     0
 10
57.53147679800852
 20
141.4205676659949
 30
0.0
 11
60.22075758417808
 21
141.6822189117208
 31
0.0
 12
59.66107092827119
 22
133.4835509303492
 32
0.0
 13
59.66107092827119
 23
133.4835509303492
 33
0.0
  0
POINT
  5
A1
  8
DEFPOINTS
 62
     0
 10
59.66107092827119
 20
133.4835509303492
 30
0.0
  0
POINT
  5
A2
  8
DEFPOINTS
 62
     0
 10
60.00000000000041
 20
130.0
 30
0.0
  0
ENDBLK
  5
A4
  8
0
  0
ENDSEC
  0
SECTION
  2
ENTITIES
  0
CIRCLE
  5
4C
  8
Z
 62
     8
 10
24.00000000000002
 20
189.9999999999998
 30
0.0
 40
2.499999999999993
  0
CIRCLE
  5
4D
  8
Z
 62
     8
 10
24.00000000000002
 20
70.00000000000044
 30
0.0
 40
2.500000000000018
  0
CIRCLE
  5
4E
  8
Z
 62
     8
 10
24.00000000000002
 20
10.00000000000034
 30
0.0
 40
3.499999999999993
  0
CIRCLE
  5
4F
  8
Z
 62
     8
 10
103.9999987840653
 20
162.4999999999999
 30
0.0
 40
2.099999999999966
  0
CIRCLE
  5
50
  8
Z
 62
     8
 10
68.99504308548488
 20
162.4999999999999
 30
0.0
 40
2.09999999999998
  0
CIRCLE
  5
51
  8
Z
 62
     8
 10
24.00000000000075
 20
249.9999999999999
 30
0.0
 40
2.500000000000064
  0
CIRCLE
  5
52
  8
Z
 62
     8
 10
96.00000000000077
 20
10.00000000000109
 30
0.0
 40
3.500000000000014
  0
CIRCLE
  5
53
  8
Z
 62
     8
 10
60.00000000000041
 20
10.0000000000007
 30
0.0
 40
3.499999999999993
  0
LINE
  5
54
  8
Z
 62
     8
 10
0.0
 20
260.0000000000001
 30
0.0
 11
120.0000000000007
 21
260.0000000000001
 31
0.0
  0
LINE
  5
55
  8
Z
 62
     8
 10
0.0
 20
0.0
 30
0.0
 11
120.0000000000007
 21
0.0
 31
0.0
  0
LINE
  5
56
  8
Z
 62
   150
 10
0.0
 20
260.0000000000001
 30
0.0
 11
0.0
 21
0.0
 31
0.0
  0
DIMENSION
  5
58
  8
DIMENSION
 62
   150
  2
*D1
 10
120.0000000000007
 20
-8.679530873947888
 30
0.0
 11
60.00000000000034
 21
-8.679530873947888
 31
0.0
 70
    32
  3
ROTATEDDIM18
 13
0.0
 23
0.0
 33
0.0
 14
120.0000000000007
 24
0.0
 34
0.0
  0
DIMENSION
  5
68
  8
DIMENSION
 62
   150
  2
*D2
 10
138.3147884453658
 20
-0.0000000000000011
 30
0.0
 11
138.3147884453658
 21
130.0000000000001
 31
0.0
 70
    32
  3
ROTATEDDIM19
 13
120.0000000000007
 23
260.0000000000001
 33
0.0
 14
120.0000000000007
 24
0.0
 34
0.0
 50
90.0
  0
DIMENSION
  5
77
  8
DIMENSION
 62
   150
  2
*D3
 10
24.00000000000002
 20
189.9999999999998
 30
0.0
 11
52.67436162118533
 21
180.3727833848958
 31
0.0
 70
    36
  3
RADIALDIM20
 15
26.36998939996904
 25
189.2042926140629
 35
0.0
 40
0.0
  0
DIMENSION
  5
82
  8
DIMENSION
 62
   150
  2
*D4
 10
68.99504308548488
 20
162.4999999999999
 30
0.0
 11
48.63519546079641
 21
182.904120180174
 31
0.0
 70
    36
  3
RADIALDIM21
 15
67.51173245268322
 25
163.9865360966411
 35
0.0
 40
0.0
  0
DIMENSION
  5
8D
  8
DIMENSION
 62
   150
  2
*D5
 10
60.00000000000041
 20
10.0000000000007
 30
0.0
 11
56.97410398009067
 21
41.10049793461785
 31
0.0
 70
    36
  3
RADIALDIM22
 15
59.66107092827119
 25
13.48355093034989
 35
0.0
 40
0.0
  0
CIRCLE
  5
97
  8
Z
 62
     8
 10
24.00000000000002
 20
129.9999999999996
 30
0.0
 40
3.499999999999993
  0
CIRCLE
  5
98
  8
Z
 62
     8
 10
96.00000000000077
 20
130.0000000000004
 30
0.0
 40
3.500000000000014
  0
CIRCLE
  5
99
  8
Z
 62
     8
 10
60.00000000000041
 20
130.0
 30
0.0
 40
3.499999999999993
  0
DIMENSION
  5
9B
  8
DIMENSION
 62
   150
  2
*D6
 10
60.00000000000041
 20
130.0
 30
0.0
 11
56.97410398009065
 21
161.1004979346171
 31
0.0
 70
    36
  3
RADIALDIM23
 15
59.66107092827119
 25
133.4835509303492
 35
0.0
 40
0.0
  0
LINE
  5
A5
  8
Z
 62
   150
 10
120.0000000000007
 20
0.0
 30
0.0
 11
120.0000000000007
 21
260.0000000000001
 31
0.0
  0
ENDSEC
  0
EOF
