  0
SECTION
  2
HEADER
  9
$ACADVER
  1
AC1009
  9
$DWGCODEPAGE
  3
ansi_1252
  9
$INSBASE
 10
0.0
 20
0.0
 30
0.0
  9
$EXTMIN
 10
-17.54766881020071
 20
-16.8191852616549
 30
0.0
  9
$EXTMAX
 10
146.7854746745409
 20
129.0714285714284
 30
22.07949816929749
  9
$LIMMIN
 10
0.0
 20
0.0
  9
$LIMMAX
 10
420.0
 20
297.0
  9
$ORTHOMODE
 70
     0
  9
$REGENMODE
 70
     1
  9
$FILLMODE
 70
     1
  9
$QTEXTMODE
 70
     0
  9
$MIRRTEXT
 70
     1
  9
$DRAGMODE
 70
     2
  9
$LTSCALE
 40
1.0
  9
$OSMODE
 70
    37
  9
$ATTMODE
 70
     1
  9
$TEXTSIZE
 40
2.5
  9
$TRACEWID
 40
1.0
  9
$TEXTSTYLE
  7
STANDARD
  9
$CLAYER
  8
0
  9
$CELTYPE
  6
BYLAYER
  9
$CECOLOR
 62
   256
  9
$DIMSCALE
 40
1.0
  9
$DIMASZ
 40
2.5
  9
$DIMEXO
 40
0.625
  9
$DIMDLI
 40
3.75
  9
$DIMRND
 40
0.0
  9
$DIMDLE
 40
0.0
  9
$DIMEXE
 40
1.25
  9
$DIMTP
 40
0.0
  9
$DIMTM
 40
0.0
  9
$DIMTXT
 40
2.5
  9
$DIMCEN
 40
2.5
  9
$DIMTSZ
 40
0.0
  9
$DIMTOL
 70
     0
  9
$DIMLIM
 70
     0
  9
$DIMTIH
 70
     0
  9
$DIMTOH
 70
     0
  9
$DIMSE1
 70
     0
  9
$DIMSE2
 70
     0
  9
$DIMTAD
 70
     1
  9
$DIMZIN
 70
     8
  9
$DIMBLK
  1

  9
$DIMASO
 70
     1
  9
$DIMSHO
 70
     1
  9
$DIMPOST
  1

  9
$DIMAPOST
  1

  9
$DIMALT
 70
     0
  9
$DIMALTD
 70
     3
  9
$DIMALTF
 40
0.03937007874016
  9
$DIMLFAC
 40
1.0
  9
$DIMTOFL
 70
     1
  9
$DIMTVP
 40
0.0
  9
$DIMTIX
 70
     0
  9
$DIMSOXD
 70
     0
  9
$DIMSAH
 70
     0
  9
$DIMBLK1
  1

  9
$DIMBLK2
  1

  9
$DIMSTYLE
  2
ISO-25
  9
$DIMCLRD
 70
     0
  9
$DIMCLRE
 70
     0
  9
$DIMCLRT
 70
     0
  9
$DIMTFAC
 40
1.0
  9
$DIMGAP
 40
0.625
  9
$LUNITS
 70
     2
  9
$LUPREC
 70
     4
  9
$SKETCHINC
 40
1.0
  9
$FILLETRAD
 40
10.0
  9
$AUNITS
 70
     0
  9
$AUPREC
 70
     0
  9
$MENU
  1
.
  9
$ELEVATION
 40
0.0
  9
$PELEVATION
 40
0.0
  9
$THICKNESS
 40
0.0
  9
$LIMCHECK
 70
     0
  9
$CHAMFERA
 40
10.0
  9
$CHAMFERB
 40
10.0
  9
$SKPOLY
 70
     0
  9
$TDCREATE
 40
2305814.521770834
  9
$TDUPDATE
 40
2456135.438446609
  9
$TDINDWG
 40
0.0000000116
  9
$TDUSRTIMER
 40
0.0000000116
  9
$USRTIMER
 70
     1
  9
$ANGBASE
 50
0.0
  9
$ANGDIR
 70
     0
  9
$PDMODE
 70
     0
  9
$PDSIZE
 40
0.0
  9
$PLINEWID
 40
0.0
  9
$COORDS
 70
     1
  9
$SPLFRAME
 70
     0
  9
$SPLINETYPE
 70
     6
  9
$SPLINESEGS
 70
     8
  9
$ATTDIA
 70
     0
  9
$ATTREQ
 70
     1
  9
$HANDLING
 70
     1
  9
$HANDSEED
  5
B9
  9
$SURFTAB1
 70
     6
  9
$SURFTAB2
 70
     6
  9
$SURFTYPE
 70
     6
  9
$SURFU
 70
     6
  9
$SURFV
 70
     6
  9
$UCSNAME
  2

  9
$UCSORG
 10
0.0
 20
0.0
 30
0.0
  9
$UCSXDIR
 10
1.0
 20
0.0
 30
0.0
  9
$UCSYDIR
 10
0.0
 20
1.0
 30
0.0
  9
$PUCSNAME
  2

  9
$PUCSORG
 10
0.0
 20
0.0
 30
0.0
  9
$PUCSXDIR
 10
1.0
 20
0.0
 30
0.0
  9
$PUCSYDIR
 10
0.0
 20
1.0
 30
0.0
  9
$USERI1
 70
     0
  9
$USERI2
 70
     0
  9
$USERI3
 70
     0
  9
$USERI4
 70
     0
  9
$USERI5
 70
     0
  9
$USERR1
 40
0.0
  9
$USERR2
 40
0.0
  9
$USERR3
 40
0.0
  9
$USERR4
 40
0.0
  9
$USERR5
 40
0.0
  9
$WORLDVIEW
 70
     1
  9
$SHADEDGE
 70
     3
  9
$SHADEDIF
 70
    70
  9
$TILEMODE
 70
     1
  9
$MAXACTVP
 70
    64
  9
$PLIMCHECK
 70
     0
  9
$PEXTMIN
 10
1.000000000000000E+20
 20
1.000000000000000E+20
 30
1.000000000000000E+20
  9
$PEXTMAX
 10
-1.000000000000000E+20
 20
-1.000000000000000E+20
 30
-1.000000000000000E+20
  9
$PLIMMIN
 10
0.0
 20
0.0
  9
$PLIMMAX
 10
420.0
 20
297.0
  9
$UNITMODE
 70
     0
  9
$VISRETAIN
 70
     1
  9
$PLINEGEN
 70
     0
  9
$PSLTSCALE
 70
     1
  0
ENDSEC
  0
SECTION
  2
TABLES
  0
TABLE
  2
VPORT
 70
     1
  0
VPORT
  2
*ACTIVE
 70
     0
 10
0.0
 20
0.0
 11
1.0
 21
1.0
 12
61.27254519334554
 22
56.12612165488679
 13
0.0
 23
0.0
 14
10.0
 24
10.0
 15
10.0
 25
10.0
 16
0.0
 26
0.0
 36
1.0
 17
0.0
 27
0.0
 37
0.0
 40
143.5528029702274
 41
1.074238828072907
 42
50.0
 43
0.0
 44
0.0
 50
0.0
 51
0.0
 71
     0
 72
   100
 73
     1
 74
     3
 75
     0
 76
     0
 77
     0
 78
     0
  0
ENDTAB
  0
TABLE
  2
LTYPE
 70
    14
  0
LTYPE
  2
CONTINUOUS
 70
     0
  3
Solid line
 72
    65
 73
     0
 40
0.0
  0
LTYPE
  2
BORDER
 70
     0
  3
__ __ . __ __ . __ 
 72
    65
 73
     6
 40
0.875
 49
0.25
 49
-0.125
 49
0.25
 49
-0.125
 49
0.0
 49
-0.125
  0
LTYPE
  2
CENTER
 70
     0
  3
___ _ ___ _ ___ _ _
 72
    65
 73
     4
 40
1.125
 49
0.75
 49
-0.125
 49
0.125
 49
-0.125
  0
LTYPE
  2
DASHDOT
 70
     0
  3
_._._._._._._._._._
 72
    65
 73
     4
 40
0.5
 49
0.25
 49
-0.125
 49
0.0
 49
-0.125
  0
LTYPE
  2
DASHED
 70
     0
  3
_ _ _ _ _ _ _ _ _ _
 72
    65
 73
     2
 40
0.375
 49
0.25
 49
-0.125
  0
LTYPE
  2
DIVIDE
 70
     0
  3
__..__..__..__..__.
 72
    65
 73
     6
 40
0.625
 49
0.25
 49
-0.125
 49
0.0
 49
-0.125
 49
0.0
 49
-0.125
  0
LTYPE
  2
DOT
 70
     0
  3
...................
 72
    65
 73
     2
 40
0.125
 49
0.0
 49
-0.125
  0
LTYPE
  2
HIDDEN
 70
     0
  3
__ __ __ __ __ __ _
 72
    65
 73
     2
 40
0.1875
 49
0.125
 49
-0.0625
  0
LTYPE
  2
PHANTOM
 70
     0
  3
___ _ _ ___ _ _ ___
 72
    65
 73
     6
 40
1.25
 49
0.625
 49
-0.125
 49
0.125
 49
-0.125
 49
0.125
 49
-0.125
  0
LTYPE
  2
CUTTING
 70
     0
  3
________ _ _ ______
 72
    65
 73
     6
 40
1.4675
 49
1.0
 49
-0.0725
 49
0.125
 49
-0.0725
 49
0.125
 49
-0.0725
  0
LTYPE
  2
STITCH
 70
     0
  3
_ _ _ _ _ _ _ _ _ _
 72
    65
 73
     2
 40
0.145
 49
0.0725
 49
-0.0725
  0
LTYPE
  2
AM_ISO02W050
 70
     0
  3
__ __ __ __ __ __ _
 72
    65
 73
     2
 40
7.5
 49
6.0
 49
-1.5
  0
LTYPE
  2
AM_ISO08W050
 70
     0
  3
____ . ____ . ____ 
 72
    65
 73
     4
 40
18.0
 49
12.0
 49
-1.5
 49
3.0
 49
-1.5
  0
LTYPE
  2
AM_ISO08W050X2
 70
     0
  3
__ . __ . __ . __ .
 72
    65
 73
     4
 40
9.0
 49
6.0
 49
-0.75
 49
1.5
 49
-0.75
  0
ENDTAB
  0
TABLE
  2
LAYER
 70
     4
  0
LAYER
  2
0
 70
     0
 62
     7
  6
CONTINUOUS
  0
LAYER
  2
DIMENSION
 70
     0
 62
     7
  6
CONTINUOUS
  0
LAYER
  2
ZM
 70
     0
 62
    18
  6
CONTINUOUS
  0
LAYER
  2
DEFPOINTS
 70
     0
 62
     7
  6
CONTINUOUS
  0
ENDTAB
  0
TABLE
  2
STYLE
 70
     1
  0
STYLE
  2
STANDARD
 70
     0
 40
0.0
 41
1.0
 50
0.0
 71
     0
 42
2.5
  3
txt
  4

  0
ENDTAB
  0
TABLE
  2
VIEW
 70
     0
  0
ENDTAB
  0
TABLE
  2
UCS
 70
     0
  0
ENDTAB
  0
TABLE
  2
APPID
 70
     2
  0
APPID
  2
ACAD
 70
     0
  0
APPID
  2
ENCORE_SOFTWARE_VIACAD
 70
     0
  0
ENDTAB
  0
TABLE
  2
DIMSTYLE
 70
     6
  0
DIMSTYLE
  2
ISO-25
 70
     0
  3

  4

  5

  6

  7

 40
1.0
 41
2.5
 42
0.625
 43
3.75
 44
1.25
 45
0.0
 46
0.0
 47
0.0
 48
0.0
140
2.5
141
2.5
142
0.0
143
0.03937007874016
144
1.0
145
0.0
146
1.0
147
0.625
 71
     0
 72
     0
 73
     0
 74
     0
 75
     0
 76
     0
 77
     1
 78
     8
170
     0
171
     3
172
     1
173
     0
174
     0
175
     0
176
     0
177
     0
178
     0
  0
DIMSTYLE
  2
RADIALDIM71
 70
     0
  3

  4

  5

  6

  7

 40
1.0
 41
8.105938112967356
 42
2.598057087489537
 43
3.75
 44
6.495142718723842
 45
0.0
 46
0.0
 47
0.0
 48
0.0
140
7.159999847412109
141
2.5
142
0.0
143
0.03937007874016
144
1.0
145
0.0
146
1.0
147
0.625
 71
     0
 72
     0
 73
     0
 74
     0
 75
     0
 76
     0
 77
     0
 78
     8
170
     0
171
     3
172
     1
173
     0
174
     0
175
     0
176
     0
177
     0
178
     0
  0
DIMSTYLE
  2
RADIALDIM72
 70
     0
  3

  4

  5

  6

  7

 40
1.0
 41
8.105938112967356
 42
2.598057087489537
 43
3.75
 44
6.495142718723842
 45
0.0
 46
0.0
 47
0.0
 48
0.0
140
7.159999847412109
141
2.5
142
0.0
143
0.03937007874016
144
1.0
145
0.0
146
1.0
147
0.625
 71
     0
 72
     0
 73
     0
 74
     0
 75
     0
 76
     0
 77
     0
 78
     8
170
     0
171
     3
172
     1
173
     0
174
     0
175
     0
176
     0
177
     0
178
     0
  0
DIMSTYLE
  2
ROTATEDDIM73
 70
     0
  3

  4

  5

  6

  7

 40
1.0
 41
8.105938112967356
 42
2.598057087489537
 43
3.75
 44
6.495142718723842
 45
0.0
 46
0.0
 47
0.0
 48
0.0
140
7.159999847412109
141
2.5
142
0.0
143
0.03937007874016
144
1.0
145
0.0
146
1.0
147
0.625
 71
     0
 72
     0
 73
     0
 74
     0
 75
     0
 76
     0
 77
     0
 78
     8
170
     0
171
     3
172
     1
173
     0
174
     0
175
     0
176
     0
177
     0
178
     0
  0
DIMSTYLE
  2
ROTATEDDIM74
 70
     0
  3

  4

  5

  6

  7

 40
1.0
 41
8.105938112967356
 42
2.598057087489537
 43
3.75
 44
6.495142718723842
 45
0.0
 46
0.0
 47
0.0
 48
0.0
140
7.159999847412109
141
2.5
142
0.0
143
0.03937007874016
144
1.0
145
0.0
146
1.0
147
0.625
 71
     0
 72
     0
 73
     0
 74
     0
 75
     0
 76
     0
 77
     0
 78
     8
170
     0
171
     3
172
     1
173
     0
174
     0
175
     0
176
     0
177
     0
178
     0
  0
DIMSTYLE
  2
ROTATEDDIM75
 70
     0
  3

  4

  5

  6

  7

 40
1.0
 41
8.105938112967356
 42
2.598057087489537
 43
3.75
 44
6.495142718723842
 45
0.0
 46
0.0
 47
0.0
 48
0.0
140
7.159999847412109
141
2.5
142
0.0
143
0.03937007874016
144
1.0
145
0.0
146
1.0
147
0.625
 71
     0
 72
     0
 73
     0
 74
     0
 75
     0
 76
     0
 77
     0
 78
     8
170
     0
171
     3
172
     1
173
     0
174
     0
175
     0
176
     0
177
     0
178
     0
  0
ENDTAB
  0
ENDSEC
  0
SECTION
  2
BLOCKS
  0
BLOCK
  8
0
  2
$MODEL_SPACE
 70
     0
 10
0.0
 20
0.0
 30
0.0
  3
$MODEL_SPACE
  1

  0
ENDBLK
  5
21
  8
0
  0
BLOCK
 67
     1
  8
0
  2
$PAPER_SPACE
 70
     0
 10
0.0
 20
0.0
 30
0.0
  3
$PAPER_SPACE
  1

  0
ENDBLK
  5
1D
 67
     1
  8
0
  0
BLOCK
  8
0
  2
*D1
 70
     1
 10
0.0
 20
0.0
 30
0.0
  3
*D1
  1

  0
LINE
  5
72
  8
DIMENSION
 62
     0
 10
109.5103516370595
 20
33.44895003146699
 30
0.0
 11
117.5827925511945
 21
32.71279082378329
 31
0.0
  0
TEXT
  5
73
  8
DIMENSION
  6
CONTINUOUS
 62
     0
 10
116.5219102966509
 20
29.2146816537808
 30
0.0
 40
7.159999847412109
  1
R15
 50
354.789373967045
  0
LINE
  5
74
  8
DIMENSION
 62
     0
 10
86.49989713035633
 20
35.54736835849807
 30
0.0
 11
101.4379107229246
 21
34.18510923915068
 31
0.0
  0
SOLID
  5
75
  8
DIMENSION
 62
     0
 10
109.6330448383402
 20
34.79435685048947
 30
0.0
 11
109.3876584357789
 21
32.1035432124445
 31
0.0
 12
101.4379107229246
 22
34.18510923915068
 32
0.0
 13
101.4379107229246
 23
34.18510923915068
 33
0.0
  0
POINT
  5
76
  8
DEFPOINTS
 62
     0
 10
101.4379107229246
 20
34.18510923915068
 30
0.0
  0
POINT
  5
77
  8
DEFPOINTS
 62
     0
 10
86.49989713035633
 20
35.54736835849807
 30
0.0
  0
ENDBLK
  5
79
  8
0
  0
BLOCK
  8
0
  2
*D2
 70
     1
 10
0.0
 20
0.0
 30
0.0
  3
*D2
  1

  0
LINE
  5
7D
  8
DIMENSION
 62
     0
 10
58.93791099776361
 20
21.79769958715029
 30
0.0
 11
55.11605147250413
 21
28.94609958018651
 31
0.0
  0
TEXT
  5
7E
  8
DIMENSION
  6
CONTINUOUS
 62
     0
 10
42.29879663170614
 20
46.77278416122955
 30
0.0
 40
7.159999847412109
  1
R2,1
 50
298.130985174669
  0
LINE
  5
7F
  8
DIMENSION
 62
     0
 10
63.74989713035627
 20
12.79736835849783
 30
0.0
 11
62.75977052302309
 21
14.64929959411407
 31
0.0
  0
SOLID
  5
80
  8
DIMENSION
 62
     0
 10
57.74651099892424
 20
21.16072299960705
 30
0.0
 11
60.12931099660298
 21
22.43467617469354
 31
0.0
 12
62.75977052302309
 22
14.64929959411407
 32
0.0
 13
62.75977052302309
 23
14.64929959411407
 33
0.0
  0
POINT
  5
81
  8
DEFPOINTS
 62
     0
 10
62.75977052302309
 20
14.64929959411407
 30
0.0
  0
POINT
  5
82
  8
DEFPOINTS
 62
     0
 10
63.74989713035627
 20
12.79736835849783
 30
0.0
  0
ENDBLK
  5
84
  8
0
  0
BLOCK
  8
0
  2
*D3
 70
     1
 10
0.0
 20
0.0
 30
0.0
  3
*D3
  1

  0
LINE
  5
88
  8
DIMENSION
 62
     0
 10
0.0000000000018048
 20
-2.598054649385861
 30
0.0
 11
0.0000000000018048
 21
-14.24289940895017
 31
0.0
  0
LINE
  5
89
  8
DIMENSION
 62
     0
 10
119.9998947452926
 20
-2.59811072571646
 30
0.0
 11
119.9998947452926
 21
-14.24289940895017
 31
0.0
  0
LINE
  5
8A
  8
DIMENSION
 62
     0
 10
8.105938112969161
 20
-7.747756690226327
 30
0.0
 11
50.68066184364679
 21
-7.747756690226327
 31
0.0
  0
LINE
  5
8B
  8
DIMENSION
 62
     0
 10
111.8939566323252
 20
-7.747756690226327
 30
0.0
 11
69.31923290164761
 21
-7.747756690226327
 31
0.0
  0
SOLID
  5
8C
  8
DIMENSION
 62
     0
 10
8.105938112969161
 20
-6.396767004731768
 30
0.0
 11
8.105938112969161
 21
-9.098746375720886
 31
0.0
 12
0.0000000000018048
 22
-7.747756690226327
 32
0.0
 13
0.0000000000018048
 23
-7.747756690226327
 33
0.0
  0
SOLID
  5
8D
  8
DIMENSION
 62
     0
 10
111.8939566323252
 20
-9.098746375720886
 30
0.0
 11
111.8939566323252
 21
-6.396767004731768
 31
0.0
 12
119.9998947452926
 22
-7.747756690226327
 32
0.0
 13
119.9998947452926
 23
-7.747756690226327
 33
0.0
  0
TEXT
  5
8E
  8
DIMENSION
  6
CONTINUOUS
 62
     0
 10
49.25994760152903
 20
-11.32775661393238
 30
0.0
 40
7.159999847412109
  1
120
  0
POINT
  5
8F
  8
DEFPOINTS
 62
     0
 10
0.0000000000018048
 20
0.0000024381036766
 30
0.0
  0
POINT
  5
90
  8
DEFPOINTS
 62
     0
 10
119.9998947452926
 20
-0.0000536382269232
 30
0.0
  0
POINT
  5
91
  8
DEFPOINTS
 62
     0
 10
119.9998947452926
 20
-7.747756690226327
 30
0.0
  0
ENDBLK
  5
93
  8
0
  0
BLOCK
  8
0
  2
*D4
 70
     1
 10
0.0
 20
0.0
 30
0.0
  3
*D4
  1

  0
LINE
  5
97
  8
DIMENSION
 62
     0
 10
2.401942912512573
 20
109.9999999999999
 30
0.0
 11
-14.32058952690837
 21
109.9999999999999
 31
0.0
  0
LINE
  5
98
  8
DIMENSION
 62
     0
 10
2.401942912512573
 20
0.0000000000000904
 30
0.0
 11
-14.32058952690838
 21
0.0000000000000914
 31
0.0
  0
LINE
  5
99
  8
DIMENSION
 62
     0
 10
-7.825446808184533
 20
101.8940618870325
 30
0.0
 11
-7.825446808184535
 21
64.31928552900041
 31
0.0
  0
LINE
  5
9A
  8
DIMENSION
 62
     0
 10
-7.825446808184538
 20
8.105938112967447
 30
0.0
 11
-7.825446808184537
 21
45.68071447099958
 31
0.0
  0
SOLID
  5
9B
  8
DIMENSION
 62
     0
 10
-6.474457122689974
 20
101.8940618870325
 30
0.0
 11
-9.176436493679093
 21
101.8940618870325
 31
0.0
 12
-7.825446808184532
 22
109.9999999999999
 32
0.0
 13
-7.825446808184532
 23
109.9999999999999
 33
0.0
  0
SOLID
  5
9C
  8
DIMENSION
 62
     0
 10
-9.176436493679098
 20
8.105938112967447
 30
0.0
 11
-6.474457122689979
 21
8.105938112967447
 31
0.0
 12
-7.825446808184539
 22
0.000000000000091
 32
0.0
 13
-7.825446808184539
 23
0.000000000000091
 33
0.0
  0
TEXT
  5
9D
  8
DIMENSION
  6
CONTINUOUS
 62
     0
 10
-4.245446884478483
 20
44.26000022888182
 30
0.0
 40
7.159999847412109
  1
110
 50
90.0
  0
POINT
  5
9E
  8
DEFPOINTS
 62
     0
 10
5.00000000000211
 20
109.9999999999999
 30
0.0
  0
POINT
  5
9F
  8
DEFPOINTS
 62
     0
 10
5.00000000000211
 20
0.0000000000000902
 30
0.0
  0
POINT
  5
A0
  8
DEFPOINTS
 62
     0
 10
-7.825446808184539
 20
0.000000000000091
 30
0.0
  0
ENDBLK
  5
A2
  8
0
  0
BLOCK
  8
0
  2
*D5
 70
     1
 10
0.0
 20
0.0
 30
0.0
  3
*D5
  1

  0
LINE
  5
A6
  8
DIMENSION
 62
     0
 10
5.000000000002109
 20
112.5980570874894
 30
0.0
 11
5.000000000002099
 21
126.4951427187237
 31
0.0
  0
LINE
  5
A7
  8
DIMENSION
 62
     0
 10
114.999894745293
 20
112.5980034492626
 30
0.0
 11
114.999894745293
 21
126.4951427187237
 31
0.0
  0
LINE
  5
A8
  8
DIMENSION
 62
     0
 10
13.10593811296946
 20
119.9999999999999
 30
0.0
 11
50.68066184364713
 21
119.9999999999999
 31
0.0
  0
LINE
  5
A9
  8
DIMENSION
 62
     0
 10
106.8939566323257
 20
119.9999999999999
 30
0.0
 11
69.319232901648
 21
119.9999999999999
 31
0.0
  0
SOLID
  5
AA
  8
DIMENSION
 62
     0
 10
13.10593811296946
 20
121.3509896854944
 30
0.0
 11
13.10593811296946
 21
118.6490103145053
 31
0.0
 12
5.000000000002103
 22
119.9999999999999
 32
0.0
 13
5.000000000002103
 23
119.9999999999999
 33
0.0
  0
SOLID
  5
AB
  8
DIMENSION
 62
     0
 10
106.8939566323257
 20
118.6490103145053
 30
0.0
 11
106.8939566323257
 21
121.3509896854944
 31
0.0
 12
114.999894745293
 22
119.9999999999999
 32
0.0
 13
114.999894745293
 23
119.9999999999999
 33
0.0
  0
TEXT
  5
AC
  8
DIMENSION
  6
CONTINUOUS
 62
     0
 10
49.25994760152939
 20
116.4200000762938
 30
0.0
 40
7.159999847412109
  1
110
  0
POINT
  5
AD
  8
DEFPOINTS
 62
     0
 10
5.00000000000211
 20
109.9999999999999
 30
0.0
  0
POINT
  5
AE
  8
DEFPOINTS
 62
     0
 10
114.999894745293
 20
109.9999463617731
 30
0.0
  0
POINT
  5
AF
  8
DEFPOINTS
 62
     0
 10
114.999894745293
 20
119.9999999999999
 30
0.0
  0
ENDBLK
  5
B1
  8
0
  0
ENDSEC
  0
SECTION
  2
ENTITIES
  0
ARC
  5
4F
  8
ZM
 62
     8
 10
5.000000000002172
 20
85.00000000000009
 30
0.0
 40
0.4999999999999474
 50
179.9999999999707
 51
90.00000000000702
  0
LINE
  5
50
  8
ZM
 62
     8
 10
5.00000000000211
 20
85.50000000000003
 30
0.0
 11
5.00000000000211
 21
109.9999999999999
 31
0.0
  0
LINE
  5
51
  8
ZM
 62
     8
 10
4.500000000002225
 20
85.00000000000014
 30
0.0
 11
0.0000000000018048
 21
85.00000000000014
 31
0.0
  0
ARC
  5
52
  8
ZM
 62
     8
 10
114.9998947452931
 20
84.99994636177307
 30
0.0
 40
0.4999999999998602
 50
90.00000000000325
 51
359.9999999999968
  0
LINE
  5
53
  8
ZM
 62
     8
 10
114.999894745293
 20
85.49994636177313
 30
0.0
 11
114.999894745293
 21
109.9999463617731
 31
0.0
  0
LINE
  5
54
  8
ZM
 62
     8
 10
115.4998947452929
 20
84.99994636177304
 30
0.0
 11
119.9998947452926
 21
84.99994636177304
 31
0.0
  0
LINE
  5
55
  8
ZM
 62
     8
 10
5.00000000000211
 20
109.9999999999999
 30
0.0
 11
114.999894745293
 21
109.9999463617731
 31
0.0
  0
ARC
  5
56
  8
ZM
 62
    18
 10
94.09942873844221
 20
54.90424734008297
 30
0.0000696918085474
 40
0.9999999999999409
 50
180.0000000000013
 51
89.9999999999886
  0
ARC
  5
57
  8
ZM
 62
    18
 10
94.09942873844265
 20
65.10424734008267
 30
0.0000696918085474
 40
1.000000000000016
 50
270.0000000000057
 51
180.0000000000024
  0
ARC
  5
58
  8
ZM
 62
    18
 10
68.89942873844257
 20
54.90424734008294
 30
0.0000696918085474
 40
0.9999999999999742
 50
90.0000000000114
 51
0.000000000000573
  0
ARC
  5
59
  8
ZM
 62
    18
 10
68.89942873844282
 20
65.10424734008274
 30
0.0000696918085474
 40
1.000000000000087
 50
0.0000000000138418
 51
269.9999999999968
  0
LINE
  5
5A
  8
ZM
 62
    18
 10
94.09942873844241
 20
55.90424734008291
 30
0.0000696918085474
 11
94.09942873844241
 21
64.10424734008265
 31
0.0000696918085474
  0
LINE
  5
5B
  8
ZM
 62
    18
 10
69.89942873844291
 20
65.10424734008262
 30
0.0000696918085474
 11
93.09942873844264
 21
65.10424734008262
 31
0.0000696918085474
  0
LINE
  5
5C
  8
ZM
 62
    18
 10
68.89942873844277
 20
64.10424734008265
 30
0.0000696918085474
 11
68.89942873844237
 21
55.90424734008291
 31
0.0000696918085474
  0
LINE
  5
5D
  8
ZM
 62
    18
 10
69.89942873844254
 20
54.90424734008295
 30
0.0000696918085474
 11
93.09942873844227
 21
54.90424734008295
 31
0.0000696918085474
  0
ARC
  5
5E
  8
ZM
 62
    18
 10
45.09999984135042
 20
54.90430494450998
 30
0.0000696918085474
 40
0.9999999999999472
 50
179.9999999999988
 51
89.99999999998941
  0
ARC
  5
5F
  8
ZM
 62
    18
 10
45.09999984135086
 20
65.10430494450975
 30
0.0000696918085474
 40
1.000000000000064
 50
270.0000000000041
 51
180.0000000000065
  0
ARC
  5
60
  8
ZM
 62
    18
 10
19.89999984135074
 20
54.90430494450997
 30
0.0000696918085474
 40
0.9999999999999586
 50
90.00000000000979
 51
0.0000000000008142
  0
ARC
  5
61
  8
ZM
 62
    18
 10
19.89999984135095
 20
65.10430494450976
 30
0.0000696918085474
 40
1.000000000000066
 50
0.000000000014656
 51
269.9999999999964
  0
LINE
  5
62
  8
ZM
 62
    18
 10
45.0999998413506
 20
55.90430494450993
 30
0.0000696918085474
 11
45.0999998413506
 21
64.1043049445097
 31
0.0000696918085474
  0
LINE
  5
63
  8
ZM
 62
    18
 10
20.89999984135106
 20
65.10430494450964
 30
0.0000696918085474
 11
44.09999984135083
 21
65.10430494450964
 31
0.0000696918085474
  0
LINE
  5
64
  8
ZM
 62
    18
 10
19.89999984135088
 20
64.1043049445097
 30
0.0000696918085474
 11
19.89999984135052
 21
55.90430494450993
 31
0.0000696918085474
  0
LINE
  5
65
  8
ZM
 62
    18
 10
20.89999984135066
 20
54.90430494450999
 30
0.0000696918085474
 11
44.09999984135047
 21
54.90430494450999
 31
0.0000696918085474
  0
LINE
  5
66
  8
ZM
 62
   150
 10
119.9998947452926
 20
84.99994636177304
 30
0.0
 11
119.9998947452926
 21
-0.0000536382269232
 31
0.0
  0
LINE
  5
67
  8
ZM
 62
   150
 10
0.0000000000018048
 20
85.00000000000014
 30
0.0
 11
0.0000000000018048
 21
0.0000000000001805
 31
0.0
  0
LINE
  5
68
  8
ZM
 62
     8
 10
0.0000000000018048
 20
0.0000024381036766
 30
0.0
 11
119.9998947452926
 21
-0.0000560763305998
 31
0.0
  0
CIRCLE
  5
69
  8
ZM
 62
     8
 10
-86.49989713035633
 20
35.54736835849807
 30
0.0
 40
15.00000000000001
210
0.0
220
0.0
230
-1.0
  0
CIRCLE
  5
6A
  8
ZM
 62
   150
 10
63.74989713035627
 20
58.29736835849795
 30
0.0
 40
2.100000000000044
  0
CIRCLE
  5
6B
  8
ZM
 62
   150
 10
109.2498971303575
 20
58.29736835849795
 30
0.0
 40
2.099999999999838
  0
CIRCLE
  5
6C
  8
ZM
 62
   150
 10
63.74989713035627
 20
12.79736835849783
 30
0.0
 40
2.100000000000044
  0
CIRCLE
  5
6D
  8
ZM
 62
   150
 10
109.2498971303575
 20
12.79736835849783
 30
0.0
 40
2.099999999999838
  0
DIMENSION
  5
6F
  8
DIMENSION
 62
   150
  2
*D1
 10
86.49989713035633
 20
35.54736835849807
 30
0.0
 11
127.3728819307978
 21
31.8199921625727
 31
0.0
 70
    36
  3
RADIALDIM71
 15
101.4379107229246
 25
34.18510923915068
 35
0.0
 40
0.0
  0
DIMENSION
  5
7B
  8
DIMENSION
 62
   150
  2
*D2
 10
63.74989713035627
 20
12.79736835849783
 30
0.0
 11
50.1594687948047
 21
38.21688395741833
 31
0.0
 70
    36
  3
RADIALDIM72
 15
62.75977052302309
 25
14.64929959411407
 35
0.0
 40
0.0
  0
DIMENSION
  5
86
  8
DIMENSION
 62
   150
  2
*D3
 10
119.9998947452926
 20
-7.747756690226327
 30
0.0
 11
59.9999473726472
 21
-7.747756690226327
 31
0.0
 70
    32
  3
ROTATEDDIM73
 13
0.0000000000018048
 23
0.0000024381036766
 33
0.0
 14
119.9998947452926
 24
-0.0000536382269232
 34
0.0
  0
DIMENSION
  5
95
  8
DIMENSION
 62
   150
  2
*D4
 10
-7.825446808184539
 20
0.000000000000091
 30
0.0
 11
-7.825446808184536
 21
54.99999999999999
 31
0.0
 70
    32
  3
ROTATEDDIM74
 13
5.00000000000211
 23
109.9999999999999
 33
0.0
 14
5.00000000000211
 24
0.0000000000000902
 34
0.0
 50
90.0
  0
DIMENSION
  5
A4
  8
DIMENSION
 62
   150
  2
*D5
 10
114.999894745293
 20
119.9999999999999
 30
0.0
 11
59.99994737264755
 21
119.9999999999999
 31
0.0
 70
    32
  3
ROTATEDDIM75
 13
5.00000000000211
 23
109.9999999999999
 33
0.0
 14
114.999894745293
 24
109.9999463617731
 34
0.0
  0
ENDSEC
  0
EOF
