  0
SECTION
  2
HEADER
  9
$ACADVER
  1
AC1009
  9
$DWGCODEPAGE
  3
ansi_1252
  9
$INSBASE
 10
0.0
 20
0.0
 30
0.0
  9
$EXTMIN
 10
-0.0003771757582982
 20
-24.28922806565182
 30
0.0
  9
$EXTMAX
 10
152.3273278225443
 20
320.0000624939394
 30
73.72371730787803
  9
$LIMMIN
 10
0.0
 20
0.0
  9
$LIMMAX
 10
420.0
 20
297.0
  9
$ORTHOMODE
 70
     0
  9
$REGENMODE
 70
     1
  9
$FILLMODE
 70
     1
  9
$QTEXTMODE
 70
     0
  9
$MIRRTEXT
 70
     1
  9
$DRAGMODE
 70
     2
  9
$LTSCALE
 40
1.0
  9
$OSMODE
 70
    37
  9
$ATTMODE
 70
     1
  9
$TEXTSIZE
 40
2.5
  9
$TRACEWID
 40
1.0
  9
$TEXTSTYLE
  7
STANDARD
  9
$CLAYER
  8
0
  9
$CELTYPE
  6
BYLAYER
  9
$CECOLOR
 62
   256
  9
$DIMSCALE
 40
1.0
  9
$DIMASZ
 40
2.5
  9
$DIMEXO
 40
0.625
  9
$DIMDLI
 40
3.75
  9
$DIMRND
 40
0.0
  9
$DIMDLE
 40
0.0
  9
$DIMEXE
 40
1.25
  9
$DIMTP
 40
0.0
  9
$DIMTM
 40
0.0
  9
$DIMTXT
 40
2.5
  9
$DIMCEN
 40
2.5
  9
$DIMTSZ
 40
0.0
  9
$DIMTOL
 70
     0
  9
$DIMLIM
 70
     0
  9
$DIMTIH
 70
     0
  9
$DIMTOH
 70
     0
  9
$DIMSE1
 70
     0
  9
$DIMSE2
 70
     0
  9
$DIMTAD
 70
     1
  9
$DIMZIN
 70
     8
  9
$DIMBLK
  1

  9
$DIMASO
 70
     1
  9
$DIMSHO
 70
     1
  9
$DIMPOST
  1

  9
$DIMAPOST
  1

  9
$DIMALT
 70
     0
  9
$DIMALTD
 70
     3
  9
$DIMALTF
 40
0.03937007874016
  9
$DIMLFAC
 40
1.0
  9
$DIMTOFL
 70
     1
  9
$DIMTVP
 40
0.0
  9
$DIMTIX
 70
     0
  9
$DIMSOXD
 70
     0
  9
$DIMSAH
 70
     0
  9
$DIMBLK1
  1

  9
$DIMBLK2
  1

  9
$DIMSTYLE
  2
ISO-25
  9
$DIMCLRD
 70
     0
  9
$DIMCLRE
 70
     0
  9
$DIMCLRT
 70
     0
  9
$DIMTFAC
 40
1.0
  9
$DIMGAP
 40
0.625
  9
$LUNITS
 70
     2
  9
$LUPREC
 70
     4
  9
$SKETCHINC
 40
1.0
  9
$FILLETRAD
 40
10.0
  9
$AUNITS
 70
     0
  9
$AUPREC
 70
     0
  9
$MENU
  1
.
  9
$ELEVATION
 40
0.0
  9
$PELEVATION
 40
0.0
  9
$THICKNESS
 40
0.0
  9
$LIMCHECK
 70
     0
  9
$CHAMFERA
 40
10.0
  9
$CHAMFERB
 40
10.0
  9
$SKPOLY
 70
     0
  9
$TDCREATE
 40
2305814.534293981
  9
$TDUPDATE
 40
2456135.450964271
  9
$TDINDWG
 40
0.0000000116
  9
$TDUSRTIMER
 40
0.0000000116
  9
$USRTIMER
 70
     1
  9
$ANGBASE
 50
0.0
  9
$ANGDIR
 70
     0
  9
$PDMODE
 70
     0
  9
$PDSIZE
 40
0.0
  9
$PLINEWID
 40
0.0
  9
$COORDS
 70
     1
  9
$SPLFRAME
 70
     0
  9
$SPLINETYPE
 70
     6
  9
$SPLINESEGS
 70
     8
  9
$ATTDIA
 70
     0
  9
$ATTREQ
 70
     1
  9
$HANDLING
 70
     1
  9
$HANDSEED
  5
D1
  9
$SURFTAB1
 70
     6
  9
$SURFTAB2
 70
     6
  9
$SURFTYPE
 70
     6
  9
$SURFU
 70
     6
  9
$SURFV
 70
     6
  9
$UCSNAME
  2

  9
$UCSORG
 10
0.0
 20
0.0
 30
0.0
  9
$UCSXDIR
 10
1.0
 20
0.0
 30
0.0
  9
$UCSYDIR
 10
0.0
 20
1.0
 30
0.0
  9
$PUCSNAME
  2

  9
$PUCSORG
 10
0.0
 20
0.0
 30
0.0
  9
$PUCSXDIR
 10
1.0
 20
0.0
 30
0.0
  9
$PUCSYDIR
 10
0.0
 20
1.0
 30
0.0
  9
$USERI1
 70
     0
  9
$USERI2
 70
     0
  9
$USERI3
 70
     0
  9
$USERI4
 70
     0
  9
$USERI5
 70
     0
  9
$USERR1
 40
0.0
  9
$USERR2
 40
0.0
  9
$USERR3
 40
0.0
  9
$USERR4
 40
0.0
  9
$USERR5
 40
0.0
  9
$WORLDVIEW
 70
     1
  9
$SHADEDGE
 70
     3
  9
$SHADEDIF
 70
    70
  9
$TILEMODE
 70
     1
  9
$MAXACTVP
 70
    64
  9
$PLIMCHECK
 70
     0
  9
$PEXTMIN
 10
1.000000000000000E+20
 20
1.000000000000000E+20
 30
1.000000000000000E+20
  9
$PEXTMAX
 10
-1.000000000000000E+20
 20
-1.000000000000000E+20
 30
-1.000000000000000E+20
  9
$PLIMMIN
 10
0.0
 20
0.0
  9
$PLIMMAX
 10
420.0
 20
297.0
  9
$UNITMODE
 70
     0
  9
$VISRETAIN
 70
     1
  9
$PLINEGEN
 70
     0
  9
$PSLTSCALE
 70
     1
  0
ENDSEC
  0
SECTION
  2
TABLES
  0
TABLE
  2
VPORT
 70
     1
  0
VPORT
  2
*ACTIVE
 70
     0
 10
0.0
 20
0.0
 11
1.0
 21
1.0
 12
74.54993568174689
 22
149.1435601404961
 13
0.0
 23
0.0
 14
10.0
 24
10.0
 15
10.0
 25
10.0
 16
0.0
 26
0.0
 36
1.0
 17
0.0
 27
0.0
 37
0.0
 40
348.5472648010242
 41
0.4363328982545028
 42
50.0
 43
0.0
 44
0.0
 50
0.0
 51
0.0
 71
     0
 72
   100
 73
     1
 74
     3
 75
     0
 76
     0
 77
     0
 78
     0
  0
ENDTAB
  0
TABLE
  2
LTYPE
 70
    16
  0
LTYPE
  2
CONTINUOUS
 70
     0
  3
Solid line
 72
    65
 73
     0
 40
0.0
  0
LTYPE
  2
BORDER
 70
     0
  3
__ __ . __ __ . __ 
 72
    65
 73
     6
 40
0.875
 49
0.25
 49
-0.125
 49
0.25
 49
-0.125
 49
0.0
 49
-0.125
  0
LTYPE
  2
CENTER
 70
     0
  3
___ _ ___ _ ___ _ _
 72
    65
 73
     4
 40
1.125
 49
0.75
 49
-0.125
 49
0.125
 49
-0.125
  0
LTYPE
  2
DASHDOT
 70
     0
  3
_._._._._._._._._._
 72
    65
 73
     4
 40
0.5
 49
0.25
 49
-0.125
 49
0.0
 49
-0.125
  0
LTYPE
  2
DASHED
 70
     0
  3
_ _ _ _ _ _ _ _ _ _
 72
    65
 73
     2
 40
0.375
 49
0.25
 49
-0.125
  0
LTYPE
  2
DIVIDE
 70
     0
  3
__..__..__..__..__.
 72
    65
 73
     6
 40
0.625
 49
0.25
 49
-0.125
 49
0.0
 49
-0.125
 49
0.0
 49
-0.125
  0
LTYPE
  2
DOT
 70
     0
  3
...................
 72
    65
 73
     2
 40
0.125
 49
0.0
 49
-0.125
  0
LTYPE
  2
HIDDEN
 70
     0
  3
__ __ __ __ __ __ _
 72
    65
 73
     2
 40
0.1875
 49
0.125
 49
-0.0625
  0
LTYPE
  2
PHANTOM
 70
     0
  3
___ _ _ ___ _ _ ___
 72
    65
 73
     6
 40
1.25
 49
0.625
 49
-0.125
 49
0.125
 49
-0.125
 49
0.125
 49
-0.125
  0
LTYPE
  2
CUTTING
 70
     0
  3
________ _ _ ______
 72
    65
 73
     6
 40
1.4675
 49
1.0
 49
-0.0725
 49
0.125
 49
-0.0725
 49
0.125
 49
-0.0725
  0
LTYPE
  2
STITCH
 70
     0
  3
_ _ _ _ _ _ _ _ _ _
 72
    65
 73
     2
 40
0.145
 49
0.0725
 49
-0.0725
  0
LTYPE
  2
AM_ISO02W050
 70
     0
  3
__ __ __ __ __ __ _
 72
    65
 73
     2
 40
7.5
 49
6.0
 49
-1.5
  0
LTYPE
  2
AM_ISO08W050
 70
     0
  3
____ . ____ . ____ 
 72
    65
 73
     4
 40
18.0
 49
12.0
 49
-1.5
 49
3.0
 49
-1.5
  0
LTYPE
  2
AM_ISO08W050X2
 70
     0
  3
__ . __ . __ . __ .
 72
    65
 73
     4
 40
9.0
 49
6.0
 49
-0.75
 49
1.5
 49
-0.75
  0
LTYPE
  2
AM_ISO08W050X21
 70
     0
  3
__ . __ . __ . __ .
 72
    65
 73
     4
 40
9.0
 49
6.0
 49
-0.75
 49
1.5
 49
-0.75
  0
LTYPE
  2
AM_ISO08W050X20
 70
     0
  3
__ . __ . __ . __ .
 72
    65
 73
     4
 40
9.0
 49
6.0
 49
-0.75
 49
1.5
 49
-0.75
  0
ENDTAB
  0
TABLE
  2
LAYER
 70
     4
  0
LAYER
  2
0
 70
     0
 62
     7
  6
CONTINUOUS
  0
LAYER
  2
DIMENSION
 70
     0
 62
     7
  6
CONTINUOUS
  0
LAYER
  2
ZX
 70
     0
 62
    18
  6
CONTINUOUS
  0
LAYER
  2
DEFPOINTS
 70
     0
 62
     7
  6
CONTINUOUS
  0
ENDTAB
  0
TABLE
  2
STYLE
 70
     1
  0
STYLE
  2
STANDARD
 70
     0
 40
0.0
 41
1.0
 50
0.0
 71
     0
 42
2.5
  3
txt
  4

  0
ENDTAB
  0
TABLE
  2
VIEW
 70
     0
  0
ENDTAB
  0
TABLE
  2
UCS
 70
     0
  0
ENDTAB
  0
TABLE
  2
APPID
 70
     2
  0
APPID
  2
ACAD
 70
     0
  0
APPID
  2
ENCORE_SOFTWARE_VIACAD
 70
     0
  0
ENDTAB
  0
TABLE
  2
DIMSTYLE
 70
     7
  0
DIMSTYLE
  2
ISO-25
 70
     0
  3

  4

  5

  6

  7

 40
1.0
 41
2.5
 42
0.625
 43
3.75
 44
1.25
 45
0.0
 46
0.0
 47
0.0
 48
0.0
140
2.5
141
2.5
142
0.0
143
0.03937007874016
144
1.0
145
0.0
146
1.0
147
0.625
 71
     0
 72
     0
 73
     0
 74
     0
 75
     0
 76
     0
 77
     1
 78
     8
170
     0
171
     3
172
     1
173
     0
174
     0
175
     0
176
     0
177
     0
178
     0
  0
DIMSTYLE
  2
ROTATEDDIM88
 70
     0
  3

  4

  5

  6

  7

 40
1.0
 41
8.105938112967356
 42
2.598057087489537
 43
3.75
 44
6.495142718723842
 45
0.0
 46
0.0
 47
0.0
 48
0.0
140
7.159999847412109
141
2.5
142
0.0
143
0.03937007874016
144
1.0
145
0.0
146
1.0
147
0.625
 71
     0
 72
     0
 73
     0
 74
     0
 75
     0
 76
     0
 77
     0
 78
     8
170
     0
171
     3
172
     1
173
     0
174
     0
175
     0
176
     0
177
     0
178
     0
  0
DIMSTYLE
  2
ROTATEDDIM89
 70
     0
  3

  4

  5

  6

  7

 40
1.0
 41
8.105938112967356
 42
2.598057087489537
 43
3.75
 44
6.495142718723842
 45
0.0
 46
0.0
 47
0.0
 48
0.0
140
7.159999847412109
141
2.5
142
0.0
143
0.03937007874016
144
1.0
145
0.0
146
1.0
147
0.625
 71
     0
 72
     0
 73
     0
 74
     0
 75
     0
 76
     0
 77
     0
 78
     8
170
     0
171
     3
172
     1
173
     0
174
     0
175
     0
176
     0
177
     0
178
     0
  0
DIMSTYLE
  2
RADIALDIM90
 70
     0
  3

  4

  5

  6

  7

 40
1.0
 41
8.105938112967356
 42
2.598057087489537
 43
3.75
 44
6.495142718723842
 45
0.0
 46
0.0
 47
0.0
 48
0.0
140
7.159999847412109
141
2.5
142
0.0
143
0.03937007874016
144
1.0
145
0.0
146
1.0
147
0.625
 71
     0
 72
     0
 73
     0
 74
     0
 75
     0
 76
     0
 77
     0
 78
     8
170
     0
171
     3
172
     1
173
     0
174
     0
175
     0
176
     0
177
     0
178
     0
  0
DIMSTYLE
  2
RADIALDIM91
 70
     0
  3

  4

  5

  6

  7

 40
1.0
 41
8.105938112967356
 42
2.598057087489537
 43
3.75
 44
6.495142718723842
 45
0.0
 46
0.0
 47
0.0
 48
0.0
140
7.159999847412109
141
2.5
142
0.0
143
0.03937007874016
144
1.0
145
0.0
146
1.0
147
0.625
 71
     0
 72
     0
 73
     0
 74
     0
 75
     0
 76
     0
 77
     0
 78
     8
170
     0
171
     3
172
     1
173
     0
174
     0
175
     0
176
     0
177
     0
178
     0
  0
DIMSTYLE
  2
RADIALDIM92
 70
     0
  3

  4

  5

  6

  7

 40
1.0
 41
8.105938112967356
 42
2.598057087489537
 43
3.75
 44
6.495142718723842
 45
0.0
 46
0.0
 47
0.0
 48
0.0
140
7.159999847412109
141
2.5
142
0.0
143
0.03937007874016
144
1.0
145
0.0
146
1.0
147
0.625
 71
     0
 72
     0
 73
     0
 74
     0
 75
     0
 76
     0
 77
     0
 78
     8
170
     0
171
     3
172
     1
173
     0
174
     0
175
     0
176
     0
177
     0
178
     0
  0
DIMSTYLE
  2
RADIALDIM93
 70
     0
  3

  4

  5

  6

  7

 40
1.0
 41
8.105938112967356
 42
2.598057087489537
 43
3.75
 44
6.495142718723842
 45
0.0
 46
0.0
 47
0.0
 48
0.0
140
7.159999847412109
141
2.5
142
0.0
143
0.03937007874016
144
1.0
145
0.0
146
1.0
147
0.625
 71
     0
 72
     0
 73
     0
 74
     0
 75
     0
 76
     0
 77
     0
 78
     8
170
     0
171
     3
172
     1
173
     0
174
     0
175
     0
176
     0
177
     0
178
     0
  0
ENDTAB
  0
ENDSEC
  0
SECTION
  2
BLOCKS
  0
BLOCK
  8
0
  2
$MODEL_SPACE
 70
     0
 10
0.0
 20
0.0
 30
0.0
  3
$MODEL_SPACE
  1

  0
ENDBLK
  5
21
  8
0
  0
BLOCK
 67
     1
  8
0
  2
$PAPER_SPACE
 70
     0
 10
0.0
 20
0.0
 30
0.0
  3
$PAPER_SPACE
  1

  0
ENDBLK
  5
1D
 67
     1
  8
0
  0
BLOCK
  8
0
  2
*D1
 70
     1
 10
0.0
 20
0.0
 30
0.0
  3
*D1
  1

  0
LINE
  5
83
  8
DIMENSION
 62
     0
 10
96.59728087032346
 20
319.9999388073326
 30
0.0
 11
149.100248539252
 21
319.9999388073326
 31
0.0
  0
LINE
  5
84
  8
DIMENSION
 62
     0
 10
96.59728087032346
 20
-0.0000479339841037
 30
0.0
 11
149.100248539252
 21
-0.0000479339841069
 31
0.0
  0
LINE
  5
85
  8
DIMENSION
 62
     0
 10
142.6051058205282
 20
311.8940006943653
 30
0.0
 11
142.6051058205282
 21
169.8306595262041
 31
0.0
  0
LINE
  5
86
  8
DIMENSION
 62
     0
 10
142.6051058205282
 20
8.10589017898325
 30
0.0
 11
142.6051058205282
 21
150.1692313471444
 31
0.0
  0
SOLID
  5
87
  8
DIMENSION
 62
     0
 10
143.9560955060228
 20
311.8940006943653
 30
0.0
 11
141.2541161350336
 21
311.8940006943653
 31
0.0
 12
142.6051058205282
 22
319.9999388073326
 32
0.0
 13
142.6051058205282
 23
319.9999388073326
 33
0.0
  0
SOLID
  5
88
  8
DIMENSION
 62
     0
 10
141.2541161350336
 20
8.10589017898325
 30
0.0
 11
143.9560955060227
 21
8.10589017898325
 31
0.0
 12
142.6051058205282
 22
-0.0000479339841065
 32
0.0
 13
142.6051058205282
 23
-0.0000479339841065
 33
0.0
  0
TEXT
  5
89
  8
DIMENSION
  6
CONTINUOUS
 62
     0
 10
146.1851057442343
 20
149.7713742260855
 30
0.0
 40
7.159999847412109
  1
320
 50
90.0
  0
POINT
  5
8A
  8
DEFPOINTS
 62
     0
 10
93.99922378283392
 20
319.9999388073326
 30
0.0
  0
POINT
  5
8B
  8
DEFPOINTS
 62
     0
 10
93.99922378283392
 20
-0.0000479339841036
 30
0.0
  0
POINT
  5
8C
  8
DEFPOINTS
 62
     0
 10
142.6051058205282
 20
-0.0000479339841065
 30
0.0
  0
ENDBLK
  5
8E
  8
0
  0
BLOCK
  8
0
  2
*D2
 70
     1
 10
0.0
 20
0.0
 30
0.0
  3
*D2
  1

  0
LINE
  5
92
  8
DIMENSION
 62
     0
 10
0.0
 20
-2.598057087489537
 30
0.0
 11
0.0
 21
-21.71294221294709
 31
0.0
  0
LINE
  5
93
  8
DIMENSION
 62
     0
 10
119.9996897896811
 20
-2.598118280156886
 30
0.0
 11
119.9996897896811
 21
-21.71294221294709
 31
0.0
  0
LINE
  5
94
  8
DIMENSION
 62
     0
 10
8.105938112967356
 20
-15.21779949422325
 30
0.0
 11
50.68055936584011
 21
-15.21779949422325
 31
0.0
  0
LINE
  5
95
  8
DIMENSION
 62
     0
 10
111.8937516767137
 20
-15.21779949422325
 30
0.0
 11
69.31913042384096
 21
-15.21779949422325
 31
0.0
  0
SOLID
  5
96
  8
DIMENSION
 62
     0
 10
8.105938112967356
 20
-13.86680980872869
 30
0.0
 11
8.105938112967356
 21
-16.56878917971781
 31
0.0
 12
0.0
 22
-15.21779949422325
 32
0.0
 13
0.0
 23
-15.21779949422325
 33
0.0
  0
SOLID
  5
97
  8
DIMENSION
 62
     0
 10
111.8937516767137
 20
-16.56878917971781
 30
0.0
 11
111.8937516767137
 21
-13.86680980872869
 31
0.0
 12
119.9996897896811
 22
-15.21779949422325
 32
0.0
 13
119.9996897896811
 23
-15.21779949422325
 33
0.0
  0
TEXT
  5
98
  8
DIMENSION
  6
CONTINUOUS
 62
     0
 10
49.25984512372237
 20
-18.7977994179293
 30
0.0
 40
7.159999847412109
  1
120
  0
POINT
  5
99
  8
DEFPOINTS
 62
     0
 10
0.0
 20
0.0
 30
0.0
  0
POINT
  5
9A
  8
DEFPOINTS
 62
     0
 10
119.9996897896811
 20
-0.0000611926673486
 30
0.0
  0
POINT
  5
9B
  8
DEFPOINTS
 62
     0
 10
119.9996897896811
 20
-15.21779949422325
 30
0.0
  0
ENDBLK
  5
9D
  8
0
  0
BLOCK
  8
0
  2
*D3
 70
     1
 10
0.0
 20
0.0
 30
0.0
  3
*D3
  1

  0
LINE
  5
A1
  8
DIMENSION
 62
     0
 10
76.14381406406483
 20
202.3484605328848
 30
0.0
 11
82.06569298837424
 21
207.8835831780551
 31
0.0
  0
TEXT
  5
A2
  8
DIMENSION
  6
CONTINUOUS
 62
     0
 10
83.97054324212849
 20
204.7636818280067
 30
0.0
 40
7.159999847412109
  1
R4
 50
43.06658916512551
  0
LINE
  5
A3
  8
DIMENSION
 62
     0
 10
67.29969278271795
 20
194.0819463729851
 30
0.0
 11
70.22193513975542
 21
196.8133378877145
 31
0.0
  0
SOLID
  5
A4
  8
DIMENSION
 62
     0
 10
75.22129362320311
 20
203.335440353603
 30
0.0
 11
77.06633450492654
 21
201.3614807121666
 31
0.0
 12
70.22193513975542
 22
196.8133378877145
 32
0.0
 13
70.22193513975542
 23
196.8133378877145
 33
0.0
  0
POINT
  5
A5
  8
DEFPOINTS
 62
     0
 10
70.22193513975542
 20
196.8133378877145
 30
0.0
  0
POINT
  5
A6
  8
DEFPOINTS
 62
     0
 10
67.29969278271795
 20
194.0819463729851
 30
0.0
  0
ENDBLK
  5
A8
  8
0
  0
BLOCK
  8
0
  2
*D4
 70
     1
 10
0.0
 20
0.0
 30
0.0
  3
*D4
  1

  0
LINE
  5
AC
  8
DIMENSION
 62
     0
 10
92.85498444051133
 20
147.0705198501135
 30
0.0
 11
99.97282836441772
 21
150.9489899822875
 31
0.0
  0
TEXT
  5
AD
  8
DIMENSION
  6
CONTINUOUS
 62
     0
 10
100.7107373917445
 20
148.0506653993599
 30
0.0
 40
7.159999847412109
  1
R2,1
 50
28.58569937223549
  0
LINE
  5
AE
  8
DIMENSION
 62
     0
 10
83.89312542151147
 20
142.1872570382944
 30
0.0
 11
85.73714051660494
 21
143.1920497179396
 31
0.0
  0
SOLID
  5
AF
  8
DIMENSION
 62
     0
 10
92.20857275181567
 20
148.2568271707646
 30
0.0
 11
93.501396129207
 21
145.8842125294625
 31
0.0
 12
85.73714051660494
 22
143.1920497179396
 32
0.0
 13
85.73714051660494
 23
143.1920497179396
 33
0.0
  0
POINT
  5
B0
  8
DEFPOINTS
 62
     0
 10
85.73714051660494
 20
143.1920497179396
 30
0.0
  0
POINT
  5
B1
  8
DEFPOINTS
 62
     0
 10
83.89312542151147
 20
142.1872570382944
 30
0.0
  0
ENDBLK
  5
B3
  8
0
  0
BLOCK
  8
0
  2
*D5
 70
     1
 10
0.0
 20
0.0
 30
0.0
  3
*D5
  1

  0
LINE
  5
B7
  8
DIMENSION
 62
     0
 10
44.57988860116462
 20
92.70358177028785
 30
0.0
 11
52.03368168248335
 21
95.88904898753272
 31
0.0
  0
TEXT
  5
B8
  8
DIMENSION
  6
CONTINUOUS
 62
     0
 10
52.49320333493255
 20
92.93377658527545
 30
0.0
 40
7.159999847412109
  1
R3,4
 50
23.14001787061123
  0
LINE
  5
B9
  8
DIMENSION
 62
     0
 10
33.99963487787001
 20
88.18198437443888
 30
0.0
 11
37.12609551984588
 21
89.51811455304299
 31
0.0
  0
SOLID
  5
BA
  8
DIMENSION
 62
     0
 10
44.04897739829048
 20
93.94588061717431
 30
0.0
 11
45.11079980403876
 21
91.4612829234014
 31
0.0
 12
37.12609551984588
 22
89.51811455304299
 32
0.0
 13
37.12609551984588
 23
89.51811455304299
 33
0.0
  0
POINT
  5
BB
  8
DEFPOINTS
 62
     0
 10
37.12609551984588
 20
89.51811455304299
 30
0.0
  0
POINT
  5
BC
  8
DEFPOINTS
 62
     0
 10
33.99963487787001
 20
88.18198437443888
 30
0.0
  0
ENDBLK
  5
BE
  8
0
  0
BLOCK
  8
0
  2
*D6
 70
     1
 10
0.0
 20
0.0
 30
0.0
  3
*D6
  1

  0
LINE
  5
C2
  8
DIMENSION
 62
     0
 10
51.38514234666106
 20
32.24198563029957
 30
0.0
 11
58.60005308043747
 21
35.93675163031835
 31
0.0
  0
TEXT
  5
C3
  8
DIMENSION
  6
CONTINUOUS
 62
     0
 10
59.57425462679436
 20
32.41351870155297
 30
0.0
 40
7.159999847412109
  1
R3
 50
27.11705005908349
  0
LINE
  5
C4
  8
DIMENSION
 62
     0
 10
41.50000000000031
 20
27.17979024140789
 30
0.0
 11
44.17023161288466
 21
28.54721963028079
 31
0.0
  0
SOLID
  5
C5
  8
DIMENSION
 62
     0
 10
50.7693480133246
 20
33.44447075259564
 30
0.0
 11
52.00093667999753
 21
31.03950050800351
 31
0.0
 12
44.17023161288466
 22
28.54721963028079
 32
0.0
 13
44.17023161288466
 23
28.54721963028079
 33
0.0
  0
POINT
  5
C6
  8
DEFPOINTS
 62
     0
 10
44.17023161288466
 20
28.54721963028079
 30
0.0
  0
POINT
  5
C7
  8
DEFPOINTS
 62
     0
 10
41.50000000000031
 20
27.17979024140789
 30
0.0
  0
ENDBLK
  5
C9
  8
0
  0
ENDSEC
  0
SECTION
  2
ENTITIES
  0
LINE
  5
51
  8
ZX
 62
    18
 10
119.9996897896811
 20
275.0999380519527
 30
0.0
 11
119.9996897896811
 21
300.0999380519521
 31
0.0
  0
ARC
  5
52
  8
ZX
 62
    18
 10
114.9996897896822
 20
224.0999380519532
 30
0.0
 40
1.000000000000112
 50
89.99999999999105
 51
359.9999999999984
  0
ARC
  5
53
  8
ZX
 62
    18
 10
114.9996897896823
 20
275.0999380519526
 30
0.0
 40
1.000000000000003
 50
0.0000000000065138
 51
270.0000000000024
  0
ARC
  5
54
  8
ZX
 62
    18
 10
93.999223782834
 20
310.0999388073328
 30
0.0
 40
1.000000000000002
 50
90.00000000000408
 51
359.9995462528693
  0
ARC
  5
55
  8
ZX
 62
    18
 10
4.999794885741548
 20
300.0999947119598
 30
0.0
 40
0.9999999999999851
 50
180.0000000000065
 51
89.9999999999915
  0
ARC
  5
56
  8
ZX
 62
    18
 10
114.9997948857287
 20
300.0999380519522
 30
0.0
 40
1.000000000000053
 50
90.00000000001467
 51
359.9999999999935
  0
CIRCLE
  5
57
  8
ZX
 62
    18
 10
67.29969278271795
 20
194.0819463729851
 30
0.0
 40
4.0
  0
LINE
  5
58
  8
ZX
 62
    18
 10
0.0
 20
275.0999947119603
 30
0.0
 11
0.0
 21
300.0999947119597
 31
0.0
  0
ARC
  5
59
  8
ZX
 62
    18
 10
4.999999999998784
 20
224.0999947119604
 30
0.0
 40
1.000000000000054
 50
179.9999999999837
 51
90.00000000000585
  0
ARC
  5
5A
  8
ZX
 62
    18
 10
4.999999999998784
 20
275.0999947119606
 30
0.0
 40
1.000000000000054
 50
269.9999999999941
 51
180.0000000000163
  0
LINE
  5
5B
  8
ZX
 62
    18
 10
-0.0003771757582982
 20
-3.418024904299888
 30
0.0
 11
0.0
 21
-3.418024904470981
 31
0.0
  0
LINE
  5
5C
  8
ZX
 62
    18
 10
0.0
 20
0.0
 30
0.0
 11
119.9996897896811
 21
-0.0000611926673486
 31
0.0
  0
CIRCLE
  5
5D
  8
ZX
 62
    18
 10
83.89312542151147
 20
107.1872582542293
 30
0.0
 40
2.10000000000025
  0
CIRCLE
  5
5E
  8
ZX
 62
    18
 10
83.89312542151147
 20
142.1872570382944
 30
0.0
 40
2.10000000000025
  0
CIRCLE
  5
5F
  8
ZX
 62
    18
 10
85.99963487786972
 20
88.18198437443888
 30
0.0
 40
3.400000000000134
  0
CIRCLE
  5
60
  8
ZX
 62
    18
 10
33.99963487787001
 20
88.18198437443888
 30
0.0
 40
3.400000000000126
  0
CIRCLE
  5
61
  8
ZX
 62
    18
 10
33.99963487787001
 20
16.18198437443865
 30
0.0
 40
3.400000000000126
  0
CIRCLE
  5
62
  8
ZX
 62
    18
 10
85.99963487786972
 20
16.18198437443865
 30
0.0
 40
3.400000000000134
  0
CIRCLE
  5
63
  8
ZX
 62
    18
 10
41.50000000000031
 20
77.17979024140807
 30
0.0
 40
3.000000000000043
  0
CIRCLE
  5
64
  8
ZX
 62
    18
 10
6.499999999999785
 20
77.17979024140807
 30
0.0
 40
3.000000000000039
  0
CIRCLE
  5
65
  8
ZX
 62
    18
 10
41.50000000000031
 20
27.17979024140789
 30
0.0
 40
3.000000000000043
  0
CIRCLE
  5
66
  8
ZX
 62
    18
 10
6.499999999999785
 20
27.17979024140789
 30
0.0
 40
3.000000000000039
  0
LINE
  5
67
  8
ZX
 62
    18
 10
94.99922378280499
 20
310.0999312177664
 30
0.0
 11
114.9997948857284
 21
310.0997860185989
 31
0.0
  0
ARC
  5
68
  8
ZX
 62
    18
 10
68.99906470312975
 20
310.0998732917534
 30
0.0
 40
1.000000000000003
 50
179.999999999987
 51
90.00000000000244
  0
ARC
  5
69
  8
ZX
 62
    18
 10
44.99995396544662
 20
310.1000624939394
 30
0.0
 40
1.000000000000119
 50
89.99999999998819
 51
359.9995462528757
  0
ARC
  5
6A
  8
ZX
 62
    18
 10
19.99979488574267
 20
310.0999969783601
 30
0.0
 40
1.000000000000002
 50
180.0000000000065
 51
90.00000000000286
  0
LINE
  5
6B
  8
ZX
 62
    18
 10
4.999794885741697
 20
310.0999947119603
 30
0.0
 11
18.99979488574266
 21
310.0999969002084
 31
0.0
  0
LINE
  5
6C
  8
ZX
 62
    18
 10
45.99995396307855
 20
310.0999936748003
 30
0.0
 11
67.99906470312975
 21
310.0998732917536
 31
0.0
  0
LINE
  5
6D
  8
ZX
 62
    18
 10
0.0
 20
275.0999947119603
 30
0.0
 11
3.999999999998729
 21
275.0999947119603
 31
0.0
  0
LINE
  5
6E
  8
ZX
 62
    18
 10
4.999794885741697
 20
310.0999947119603
 30
0.0
 11
4.999794885741697
 21
301.0999947119598
 31
0.0
  0
LINE
  5
6F
  8
ZX
 62
    18
 10
0.0
 20
300.0999947119597
 30
0.0
 11
3.999794885741563
 21
300.0999947119597
 31
0.0
  0
LINE
  5
70
  8
ZX
 62
    18
 10
4.999999999998682
 20
225.0999947119605
 30
0.0
 11
4.999999999998682
 21
274.0999947119605
 31
0.0
  0
LINE
  5
71
  8
ZX
 62
    18
 10
0.0
 20
224.0999947119607
 30
0.0
 11
3.999999999998729
 21
224.0999947119607
 31
0.0
  0
LINE
  5
72
  8
ZX
 62
    18
 10
119.9996897896811
 20
275.0999380519527
 30
0.0
 11
115.9996897896823
 21
275.0999380519527
 31
0.0
  0
LINE
  5
73
  8
ZX
 62
    18
 10
114.9997948857284
 20
301.0999380519523
 30
0.0
 11
114.9997948857284
 21
310.0997860185989
 31
0.0
  0
LINE
  5
74
  8
ZX
 62
    18
 10
119.9997948857275
 20
300.0999380519521
 30
0.0
 11
115.9997948857287
 21
300.0999380519521
 31
0.0
  0
LINE
  5
75
  8
ZX
 62
    18
 10
114.9996897896824
 20
225.0999380519533
 30
0.0
 11
114.9996897896824
 21
274.0999380519526
 31
0.0
  0
LINE
  5
76
  8
ZX
 62
    18
 10
119.9996897896811
 20
224.0999380519532
 30
0.0
 11
115.9996897896823
 21
224.0999380519532
 31
0.0
  0
LINE
  5
77
  8
ZX
 62
    18
 10
93.99922378283392
 20
319.9999388073326
 30
0.0
 11
93.99922378283392
 21
311.0999388073328
 31
0.0
  0
LINE
  5
78
  8
ZX
 62
    18
 10
68.99922559054568
 20
319.9999388073326
 30
0.0
 11
68.99906470312989
 21
311.0998732917534
 31
0.0
  0
LINE
  5
79
  8
ZX
 62
    18
 10
68.99922378283509
 20
319.9999388073326
 30
0.0
 11
93.99922378283392
 21
319.9999388073326
 31
0.0
  0
LINE
  5
7A
  8
ZX
 62
    18
 10
44.99995396544665
 20
320.0000624939394
 30
0.0
 11
44.99995396544665
 21
311.1000624939396
 31
0.0
  0
LINE
  5
7B
  8
ZX
 62
    18
 10
19.9999557731586
 20
320.0000624939394
 30
0.0
 11
19.99979488574262
 21
311.0999969783601
 31
0.0
  0
LINE
  5
7C
  8
ZX
 62
    18
 10
19.999953965448
 20
320.0000624939394
 30
0.0
 11
44.99995396544665
 21
320.0000624939394
 31
0.0
  0
LINE
  5
7D
  8
ZX
 62
    18
 10
119.9996897896811
 20
-0.0000611926673486
 30
0.0
 11
119.9996897896811
 21
224.0999380519532
 31
0.0
  0
LINE
  5
7E
  8
ZX
 62
    18
 10
0.0
 20
0.0
 30
0.0
 11
0.0
 21
224.0999947119607
 31
0.0
  0
DIMENSION
  5
80
  8
DIMENSION
 62
   150
  2
*D1
 10
142.6051058205282
 20
-0.0000479339841065
 30
0.0
 11
142.6051058205282
 21
159.9999454366743
 31
0.0
 70
    32
  3
ROTATEDDIM88
 13
93.99922378283392
 23
319.9999388073326
 33
0.0
 14
93.99922378283392
 24
-0.0000479339841036
 34
0.0
 50
90.0
  0
DIMENSION
  5
90
  8
DIMENSION
 62
   150
  2
*D2
 10
119.9996897896811
 20
-15.21779949422325
 30
0.0
 11
59.99984489484054
 21
-15.21779949422325
 31
0.0
 70
    32
  3
ROTATEDDIM89
 13
0.0
 23
0.0
 33
0.0
 14
119.9996897896811
 24
-0.0000611926673486
 34
0.0
  0
DIMENSION
  5
9F
  8
DIMENSION
 62
   150
  2
*D3
 10
67.29969278271795
 20
194.0819463729851
 30
0.0
 11
86.88130477968
 21
212.384688691541
 31
0.0
 70
    36
  3
RADIALDIM90
 15
70.22193513975542
 25
196.8133378877145
 35
0.0
 40
0.0
  0
DIMENSION
  5
AA
  8
DIMENSION
 62
   150
  2
*D4
 10
83.89312542151147
 20
142.1872570382944
 30
0.0
 11
109.2039844711842
 21
155.9789911495342
 31
0.0
 70
    36
  3
RADIALDIM91
 15
85.73714051660494
 25
143.1920497179396
 35
0.0
 40
0.0
  0
DIMENSION
  5
B5
  8
DIMENSION
 62
   150
  2
*D5
 10
33.99963487787001
 20
88.18198437443888
 30
0.0
 11
62.79785775824303
 21
100.4892477904645
 31
0.0
 70
    36
  3
RADIALDIM92
 15
37.12609551984588
 25
89.51811455304299
 35
0.0
 40
0.0
  0
DIMENSION
  5
C0
  8
DIMENSION
 62
   150
  2
*D6
 10
41.50000000000031
 20
27.17979024140789
 30
0.0
 11
64.3154082377838
 21
38.86359309691296
 31
0.0
 70
    36
  3
RADIALDIM93
 15
44.17023161288466
 25
28.54721963028079
 35
0.0
 40
0.0
  0
ENDSEC
  0
EOF
